<?xml version="1.0" encoding="iso-8859-1" ?>
<svg version="1.1" xmlns="http://www.w3.org/2000/svg" xmlns:xlink="http://www.w3.org/1999/xlink" 
    viewBox="0 0 500 500" width="500" height="500">
    
    
    <!-- ITEM 0 -->
    <g>
        <defs>
            <clipPath id="clip-path-id-viewbox-item-0">
                <rect x="0.0" y="0.0" width="677.183" height="530.414"/>
            </clipPath>
        </defs>
        <g transform="translate(11.0 78.0) rotate(0.0 237.0 185.5) scale(0.6999585045696658 0.6994536343309189)">
            <g clip-path="url(#clip-path-id-viewbox-item-0)" transform="translate(-0.0 -0.0)">
                
<g id="Layer_3-i0">
	<path style="fill:#46b6ff;" d="M238.313,14.401c22.5-8.6,52.3-13.3,66.9,5.9c13.2,17.3,5.2,44.2,17.8,61.9   c14.4,20.2,45.6,16.2,68.4,6.6c45-19,83.4-51,127.6-71.8c56.5-26.6,149.7-30.5,157.7,51.9c2.5,25.6-5.4,50.9-13.5,75.3   s-16.9,49.2-16.2,74.9c0.8,28.4,13.1,55.7,12.9,84.2c-0.2,36-20.8,69.5-47.7,93.4c-35.6,31.6-84.5,55.5-127.5,75.2   c-44.4,20.3-91.5,34.7-139.1,45.3c-49.3,11-121.2,30.7-155.7-19.4c-10.9-15.9-15.3-35.2-18.8-54.1s-6.4-38.3-14.8-55.6   c-8.5-17.4-22.3-29.2-40.2-36.1c-18.8-7.2-39.4-1.2-59.1-5.2c-39.8-8-61.6-55-56.2-95.3c7.7-57.6,48.9-96.1,86.5-135.8   C129.413,71.101,181.213,36.201,238.313,14.401z"></path>
	<path style="fill:#46b6ff;" d="M146.713,429.401c0.9,11.4-1.1,23.6-8.5,32.3c-7.4,8.8-20.9,12.8-30.8,7.1c-6.1-3.5-9.9-9.9-13.4-16   c-8.1-14-16.2-28.1-24.2-42.1c-13.7-23.8-6.4-56.7,26.2-45.3C123.013,374.901,144.413,400.701,146.713,429.401z"></path>
</g>

            </g>
        </g>
    </g>
    
</svg>