<?xml version="1.0" encoding="iso-8859-1" ?>
<svg version="1.1" xmlns="http://www.w3.org/2000/svg" xmlns:xlink="http://www.w3.org/1999/xlink" 
    viewBox="0 0 500 500" width="500" height="500">
    
    
    <!-- ITEM 0 -->
    <g>
        <defs>
            <clipPath id="clip-path-id-viewbox-item-0">
                <rect x="0.0" y="0.0" width="2261.777" height="1531.134"/>
            </clipPath>
        </defs>
        <g transform="translate(19.0 89.0) rotate(0.0 231.5 157.0) scale(0.20470629951582317 0.20507676010068354)">
            <g clip-path="url(#clip-path-id-viewbox-item-0)" transform="translate(-0.0 -0.0)">
                
<g>
	<path style="fill:#60ff64;" d="M2168.368,1014.539c-132.35,219.19-398.95,349.21-653.15,318.54   c-98.18-11.85-193.15-45.36-291.79-52.33c-171.98-12.16-337.84,56.56-500.09,114.89c-162.24,58.33-339.97,107.58-504.75,56.89   c-112.21-34.52-227.89-152.55-130.59-260.61c29.27-32.51,71.1-44.13,92.07-86.13c34.13-68.4,8.73-166.84-13.53-235.07   c-35.75-109.55-96.12-209.63-134.02-318.46c-37.89-108.82-50.91-235.1,6.58-334.96c85.39-148.34,288.22-179.75,457.35-153.45   c126.58,19.69,251.3,62.23,377.53,76.12c42.42,4.68,85,6.12,127.89,2.37c77.98-6.82,152.48-30.48,226.6-56.58   c81.18-28.59,161.9-60.09,246.24-75.55c251.86-46.16,525.91,67.3,671.421,277.98   C2291.638,498.879,2300.718,795.349,2168.368,1014.539z"></path>
	<path style="fill:#60ff64;" d="M1256.046,1333.589c32.553,5.849,68.238,19.693,80.252,50.508   c12.204,31.302-6.698,67.828-34.51,86.678c-27.812,18.85-62.309,24.235-95.546,29.145c-59.564,8.799-119.128,17.599-178.691,26.398   c-27.25,4.026-55.41,8.008-82.026,0.91c-26.615-7.099-51.497-28.303-53.925-55.74   C881.812,1360.879,1186.612,1321.113,1256.046,1333.589z"></path>
</g>

            </g>
        </g>
    </g>
    
</svg>