<?xml version="1.0" encoding="utf-8"?>
<!-- Generator: Adobe Illustrator 23.0.1, SVG Export Plug-In . SVG Version: 6.00 Build 0)  -->
<svg version="1.1" id="Ebene_1" xmlns="http://www.w3.org/2000/svg" xmlns:xlink="http://www.w3.org/1999/xlink" x="0px" y="0px"
	 viewBox="0 0 283.5 85.6" style="enable-background:new 0 0 283.5 85.6;" xml:space="preserve">
<style type="text/css">
	.st0{fill:#FFFFFF;}
</style>
<g>
	<path class="st0" d="M4.5,76.1v-0.8c0-3.6,1.9-5.5,4.8-5.5c2.1,0,3.2,0.4,4.7,1v-3.1c-1.2-0.6-2.6-1.1-4.9-1.1
		c-5,0-8.7,2.9-8.7,9.1v0.6c0,5.9,3.2,8.9,8.5,8.9c2.5,0,4.2-0.7,5.3-1.4v-2.9c-0.9,0.4-2.4,1.1-4.6,1.1C6.2,82,4.5,80.2,4.5,76.1z"
		/>
	<path class="st0" d="M27.2,66.6c-5,0-8.5,3.3-8.5,9.1v0.6c0,5.6,3,8.9,8.5,8.9c5,0,8.5-3.3,8.5-9.1v-0.5
		C35.7,69.9,32.6,66.6,27.2,66.6z M31.5,76.5c0,3.9-1.6,5.7-4.3,5.7c-2.5,0-4.4-1.3-4.4-5.9v-0.9c0-3.9,1.6-5.8,4.4-5.8
		c2.4,0,4.4,1.2,4.4,5.9V76.5z"/>
	<path class="st0" d="M51.2,66.6c-2.2,0-4.4,0.8-5.9,1.9h-0.2V67h-3.9v17.9h4V71c1.1-0.5,2.7-1,4-1c2.5,0,3,0.8,3,2.6v12.3h4V71.6
		C56.4,68,54.6,66.6,51.2,66.6z"/>
	<path class="st0" d="M67.9,79.9v-9.8h4.3V67h-4.3v-4.2h-4V67h-2.5v3.1H64v10.4c0,3.4,2,4.6,5.1,4.6c1.7,0,2.6-0.4,3.3-0.8v-2.7
		c-0.6,0.2-1.4,0.3-2.1,0.3C68.5,81.9,67.9,81.4,67.9,79.9z"/>
	<path class="st0" d="M85.2,66.7c-4.6,0-8.2,3-8.2,9v0.5c0,5.7,2.9,9.1,8.9,9.1c3,0,5.1-0.9,6.3-1.7v-2.8C90.6,81.5,89,82,86.7,82
		c-3.4,0-5.3-1.3-5.6-5h11.7v-1.7C92.8,69.6,90.5,66.7,85.2,66.7z M81.1,74.3c0.3-3.7,2.2-4.6,4-4.6c2.4,0,3.6,1.3,3.6,4.6H81.1z"/>
	<path class="st0" d="M108.4,66.6c-2.2,0-4.4,0.8-5.9,1.9h-0.2V67h-3.9v17.9h4V71c1.1-0.5,2.7-1,4-1c2.5,0,3,0.8,3,2.6v12.3h4V71.6
		C113.6,68,111.8,66.6,108.4,66.6z"/>
	<path class="st0" d="M125.1,79.9v-9.8h4.3V67h-4.3v-4.2h-4V67h-2.5v3.1h2.5v10.4c0,3.4,2,4.6,5.1,4.6c1.7,0,2.6-0.4,3.3-0.8v-2.7
		c-0.6,0.2-1.4,0.3-2.1,0.3C125.7,81.9,125.1,81.4,125.1,79.9z"/>
	<path class="st0" d="M147,79.6c0-3.1-1.4-4.5-4.9-5.3l-1.7-0.4c-1.7-0.4-2.4-0.9-2.4-2.1c0-1.4,1.1-2.1,3.2-2.1
		c2,0,3.8,0.5,4.8,0.9v-3c-1.2-0.5-2.7-1-5.1-1c-4.5,0-6.6,2.1-6.6,5.4c0,3.2,1.8,4.6,4.5,5.2l1.7,0.4c2,0.4,2.6,1,2.6,2.3
		c0,1.3-1,2.2-3.6,2.2c-2.5,0-3.8-0.5-5.3-1.1v2.9c1.5,0.8,3.6,1.2,5.9,1.2C144.5,85.2,147,83.3,147,79.6z"/>
	<path class="st0" d="M166.8,80.7c-1.6,0.8-3.2,1.3-5.5,1.3c-3.4,0-5.3-1.3-5.6-5h11.7v-1.7c0-5.7-2.3-8.7-7.6-8.7
		c-4.6,0-8.2,3-8.2,9v0.5c0,5.7,2.9,9.1,8.9,9.1c3,0,5.1-0.9,6.3-1.7V80.7z M159.8,69.6c2.4,0,3.6,1.3,3.6,4.6h-7.6
		C156,70.6,157.9,69.6,159.8,69.6z"/>
	<path class="st0" d="M177.1,69h-0.2V67h-3.9v17.9h4V71.5c1.1-0.7,2.7-1.2,4.4-1.2c0.4,0,1,0,1.4,0.1v-3.5c-0.2-0.1-0.6-0.1-1.1-0.1
		C179.9,66.8,178.1,67.7,177.1,69z"/>
	<polygon class="st0" points="195.3,80 195.1,80 190.8,67 186.5,67 193,84.9 197.1,84.9 203.6,67 199.7,67 	"/>
	
		<rect x="220.3" y="10.5" transform="matrix(0.7072 -0.707 0.707 0.7072 58.8029 163.7169)" class="st0" width="13.5" height="0.7"/>
	
		<rect x="211.3" y="14.4" transform="matrix(0.7078 -0.7064 0.7064 0.7078 57.0523 167.4269)" class="st0" width="39.2" height="0.8"/>
	
		<rect x="209.3" y="18.6" transform="matrix(0.7071 -0.7071 0.7071 0.7071 55.4752 171.8073)" class="st0" width="51.6" height="0.8"/>
	
		<rect x="209.7" y="22.8" transform="matrix(0.7071 -0.7071 0.7071 0.7071 53.7356 176.0087)" class="st0" width="59.3" height="0.8"/>
	
		<rect x="211.6" y="27" transform="matrix(0.7071 -0.7071 0.7071 0.7071 51.9943 180.2099)" class="st0" width="63.9" height="0.8"/>
	
		<rect x="214.7" y="31.2" transform="matrix(0.7071 -0.7071 0.7071 0.7071 50.2525 184.4045)" class="st0" width="66" height="0.8"/>
	
		<rect x="218.9" y="35.4" transform="matrix(0.7071 -0.7071 0.7071 0.7071 48.5138 188.6087)" class="st0" width="66" height="0.8"/>
	
		<rect x="224.2" y="39.6" transform="matrix(0.7071 -0.7071 0.7071 0.7071 46.7742 192.8094)" class="st0" width="63.9" height="0.8"/>
	
		<rect x="230.7" y="43.8" transform="matrix(0.7071 -0.7071 0.7071 0.7071 45.035 197.0051)" class="st0" width="59.3" height="0.8"/>
	<rect x="238.7" y="48" transform="matrix(0.7071 -0.7071 0.7071 0.7071 43.2914 201.205)" class="st0" width="51.6" height="0.8"/>
	<polygon class="st0" points="254.6,66.1 255.1,66.7 282.9,38.9 282.3,38.4 	"/>
	
		<rect x="265.9" y="56.1" transform="matrix(0.7078 -0.7064 0.7064 0.7078 39.8012 209.0585)" class="st0" width="13.5" height="0.7"/>
	
		<rect x="226.6" y="20.7" transform="matrix(0.7071 -0.7072 0.7072 0.7071 54.616 173.9343)" class="st0" width="21.3" height="0.7"/>
	<polygon class="st0" points="228.4,38.7 236.3,30.8 236.6,31.1 247.3,20.4 247,20.1 254.9,12.2 254.5,11.8 246.5,19.7 246.2,19.4 
		235.6,30.1 235.9,30.3 228,38.3 	"/>
	<polygon class="st0" points="230.7,44.8 236.8,38.7 237.1,39 255.2,20.9 254.9,20.6 261,14.5 260.6,14.1 254.5,20.2 254.2,19.9 
		236.1,38 236.4,38.3 230.3,44.4 	"/>
	<polygon class="st0" points="265.3,17.7 259.6,23.4 259.3,23.1 239.3,43.1 239.6,43.4 233.9,49.1 234.4,49.6 240.1,43.9 
		240.3,44.2 260.4,24.1 260.1,23.9 265.8,18.2 	"/>
	<polygon class="st0" points="269,22.5 262.9,28.6 262.6,28.3 244.5,46.4 244.8,46.7 238.7,52.8 239.1,53.2 245.2,47.1 245.5,47.4 
		263.6,29.3 263.3,29 269.4,22.9 	"/>
	<polygon class="st0" points="245.2,55.5 253.1,47.6 253.4,47.9 264.1,37.2 263.8,37 271.7,29 271.3,28.6 263.3,36.5 263,36.2 
		252.4,46.9 252.7,47.2 244.8,55.1 	"/>
	
		<rect x="251.8" y="45.9" transform="matrix(0.7071 -0.7071 0.7071 0.7071 44.1697 199.1198)" class="st0" width="21.3" height="0.7"/>
</g>
</svg>
