<?xml version="1.0" encoding="UTF-8"?>
<svg xmlns="http://www.w3.org/2000/svg" xmlns:xlink="http://www.w3.org/1999/xlink" viewBox="0 0 48 48" width="48px" height="48px">
<g id="surface3553016">
<path style=" stroke:none;fill-rule:nonzero;fill:rgb(100%,100%,100%);fill-opacity:1;" d="M 16 5 C 12.152344 5 9 8.152344 9 12 C 9 15.847656 12.152344 19 16 19 C 18.757812 19 21.265625 17.410156 23.222656 15.953125 C 24.503906 15 24.851562 14.59375 25.417969 14.046875 C 26.3125 16.886719 28.878906 19 32 19 C 34.757812 19 37.265625 17.410156 39.222656 15.953125 C 41.179688 14.496094 42.578125 13.039062 42.578125 13.039062 C 43.140625 12.460938 43.140625 11.539062 42.578125 10.957031 C 42.578125 10.957031 41.179688 9.503906 39.222656 8.046875 C 37.265625 6.589844 34.757812 5 32 5 C 28.878906 5 26.3125 7.113281 25.417969 9.949219 C 24.851562 9.40625 24.503906 9 23.222656 8.046875 C 21.265625 6.589844 18.757812 5 16 5 Z M 16 8 C 17.449219 8 19.691406 9.160156 21.429688 10.453125 C 22.472656 11.226562 22.691406 11.503906 23.21875 12 C 22.691406 12.496094 22.472656 12.773438 21.429688 13.546875 C 19.691406 14.839844 17.449219 16 16 16 C 13.773438 16 12 14.226562 12 12 C 12 9.773438 13.773438 8 16 8 Z M 32 8 C 33.449219 8 35.691406 9.160156 37.433594 10.453125 C 38.472656 11.226562 38.691406 11.503906 39.21875 12 C 38.691406 12.496094 38.472656 12.773438 37.433594 13.546875 C 35.691406 14.839844 33.449219 16 32 16 C 29.773438 16 28 14.226562 28 12 C 28 9.773438 29.773438 8 32 8 Z M 9.5 21 C 7.570312 21 6 22.570312 6 24.5 L 6 34 C 6 39.515625 10.484375 44 16 44 C 18.542969 44 20.859375 43.039062 22.625 41.472656 C 21.988281 40.671875 21.453125 39.792969 21.03125 38.851562 C 19.757812 40.171875 17.976562 41 16 41 C 12.140625 41 9 37.859375 9 34 L 9 24.5 C 9 24.222656 9.222656 24 9.5 24 L 20.027344 24 C 20.128906 22.867188 20.574219 21.832031 21.261719 21 Z M 25.5 21 C 23.585938 21 22 22.585938 22 24.5 L 22 34 C 22 39.503906 26.496094 44 32 44 C 37.503906 44 42 39.503906 42 34 L 42 24.5 C 42 22.585938 40.414062 21 38.5 21 Z M 25.5 24 L 38.5 24 C 38.796875 24 39 24.203125 39 24.5 L 39 34 C 39 37.882812 35.882812 41 32 41 C 28.117188 41 25 37.882812 25 34 L 25 24.5 C 25 24.203125 25.203125 24 25.5 24 Z M 25.5 24 "/>
</g>
</svg>
