<?xml version="1.0" encoding="UTF-8"?>
<svg xmlns="http://www.w3.org/2000/svg" xmlns:xlink="http://www.w3.org/1999/xlink" viewBox="0 0 48 48" width="48px" height="48px">
<g id="surface37905378">
<path style=" stroke:none;fill-rule:nonzero;fill:rgb(100%,100%,100%);fill-opacity:1;" d="M 15 7 C 8.941406 7 4 11.941406 4 18 C 4 22.097656 7.085938 25.953125 10.851562 29.90625 C 14.617188 33.863281 19.25 37.871094 22.9375 41.558594 C 23.523438 42.144531 24.476562 42.144531 25.058594 41.558594 C 28.75 37.871094 33.382812 33.863281 37.148438 29.90625 C 40.914062 25.953125 44 22.097656 44 18 C 44 11.941406 39.058594 7 33 7 C 29.523438 7 26.496094 8.867188 24 12.035156 C 21.503906 8.867188 18.476562 7 15 7 Z M 15 10 C 17.929688 10 20.367188 11.558594 22.734375 15.300781 C 23.007812 15.734375 23.484375 16 24 16 C 24.515625 16 24.992188 15.734375 25.265625 15.300781 C 27.632812 11.558594 30.070312 10 33 10 C 33.570312 10 34.125 10.0625 34.660156 10.171875 C 34.917969 10.679688 35.433594 11 36 11 C 36.214844 11 36.425781 10.953125 36.621094 10.863281 C 37.375 11.246094 38.066406 11.738281 38.660156 12.332031 C 38.425781 12.796875 38.453125 13.347656 38.726562 13.789062 C 39 14.230469 39.480469 14.5 40 14.5 C 40.0625 14.5 40.125 14.496094 40.1875 14.484375 C 40.703125 15.546875 41 16.734375 41 18 C 41 18.621094 40.832031 19.328125 40.527344 20.097656 C 40.359375 20.035156 40.179688 20 40 20 C 39.347656 20 38.773438 20.421875 38.574219 21.042969 C 38.375 21.660156 38.597656 22.339844 39.125 22.71875 C 38.636719 23.46875 38.078125 24.25 37.429688 25.054688 C 37.234375 24.425781 36.65625 24 36 24 C 35.21875 24.003906 34.574219 24.605469 34.511719 25.382812 C 34.449219 26.160156 34.996094 26.855469 35.765625 26.980469 C 35.503906 27.265625 35.25 27.554688 34.976562 27.84375 C 34.507812 28.335938 33.988281 28.839844 33.488281 29.339844 C 33.410156 28.578125 32.765625 28 32 28 C 31.210938 28.007812 30.5625 28.625 30.515625 29.414062 C 30.472656 30.203125 31.046875 30.890625 31.828125 30.988281 C 31.054688 31.734375 30.273438 32.480469 29.472656 33.230469 C 29.34375 32.519531 28.726562 32 28 32 C 27.238281 31.996094 26.597656 32.5625 26.507812 33.316406 C 26.414062 34.074219 26.902344 34.777344 27.636719 34.957031 C 26.890625 35.660156 26.160156 36.355469 25.429688 37.050781 C 25.234375 36.425781 24.65625 36 24 36 C 23.34375 36 22.765625 36.425781 22.570312 37.050781 C 21.839844 36.355469 21.109375 35.65625 20.359375 34.953125 C 21.09375 34.769531 21.574219 34.070312 21.484375 33.320312 C 21.394531 32.566406 20.757812 32.003906 20 32 C 19.273438 32 18.652344 32.519531 18.523438 33.230469 C 17.726562 32.480469 16.945312 31.734375 16.171875 30.988281 C 16.957031 30.890625 17.53125 30.199219 17.484375 29.414062 C 17.4375 28.625 16.789062 28.007812 16 28 C 15.234375 28 14.589844 28.578125 14.507812 29.339844 C 14.011719 28.839844 13.496094 28.335938 13.023438 27.839844 C 12.75 27.554688 12.496094 27.265625 12.234375 26.980469 C 13.003906 26.855469 13.550781 26.160156 13.488281 25.382812 C 13.425781 24.605469 12.78125 24.003906 12 24 C 11.34375 24 10.765625 24.429688 10.570312 25.054688 C 9.921875 24.25 9.363281 23.472656 8.871094 22.71875 C 9.402344 22.339844 9.625 21.660156 9.425781 21.042969 C 9.226562 20.421875 8.652344 20 8 20 C 7.820312 20 7.640625 20.035156 7.46875 20.097656 C 7.167969 19.328125 7 18.621094 7 18 C 7 16.734375 7.296875 15.546875 7.8125 14.484375 C 7.875 14.496094 7.9375 14.5 8 14.5 C 8.519531 14.5 9 14.230469 9.273438 13.789062 C 9.546875 13.347656 9.574219 12.796875 9.339844 12.332031 C 9.933594 11.738281 10.625 11.246094 11.378906 10.863281 C 11.574219 10.953125 11.785156 11 12 11 C 12.566406 11 13.082031 10.679688 13.335938 10.171875 C 13.875 10.0625 14.429688 10 15 10 Z M 16 12 C 15.171875 12 14.5 12.671875 14.5 13.5 C 14.5 14.328125 15.171875 15 16 15 C 16.828125 15 17.5 14.328125 17.5 13.5 C 17.5 12.671875 16.828125 12 16 12 Z M 32 12 C 31.171875 12 30.5 12.671875 30.5 13.5 C 30.5 14.328125 31.171875 15 32 15 C 32.828125 15 33.5 14.328125 33.5 13.5 C 33.5 12.671875 32.828125 12 32 12 Z M 12 16 C 11.171875 16 10.5 16.671875 10.5 17.5 C 10.5 18.328125 11.171875 19 12 19 C 12.828125 19 13.5 18.328125 13.5 17.5 C 13.5 16.671875 12.828125 16 12 16 Z M 20 16 C 19.171875 16 18.5 16.671875 18.5 17.5 C 18.5 18.328125 19.171875 19 20 19 C 20.828125 19 21.5 18.328125 21.5 17.5 C 21.5 16.671875 20.828125 16 20 16 Z M 28 16 C 27.171875 16 26.5 16.671875 26.5 17.5 C 26.5 18.328125 27.171875 19 28 19 C 28.828125 19 29.5 18.328125 29.5 17.5 C 29.5 16.671875 28.828125 16 28 16 Z M 36 16 C 35.171875 16 34.5 16.671875 34.5 17.5 C 34.5 18.328125 35.171875 19 36 19 C 36.828125 19 37.5 18.328125 37.5 17.5 C 37.5 16.671875 36.828125 16 36 16 Z M 16 20 C 15.171875 20 14.5 20.671875 14.5 21.5 C 14.5 22.328125 15.171875 23 16 23 C 16.828125 23 17.5 22.328125 17.5 21.5 C 17.5 20.671875 16.828125 20 16 20 Z M 24 20 C 23.171875 20 22.5 20.671875 22.5 21.5 C 22.5 22.328125 23.171875 23 24 23 C 24.828125 23 25.5 22.328125 25.5 21.5 C 25.5 20.671875 24.828125 20 24 20 Z M 32 20 C 31.171875 20 30.5 20.671875 30.5 21.5 C 30.5 22.328125 31.171875 23 32 23 C 32.828125 23 33.5 22.328125 33.5 21.5 C 33.5 20.671875 32.828125 20 32 20 Z M 20 24 C 19.171875 24 18.5 24.671875 18.5 25.5 C 18.5 26.328125 19.171875 27 20 27 C 20.828125 27 21.5 26.328125 21.5 25.5 C 21.5 24.671875 20.828125 24 20 24 Z M 28 24 C 27.171875 24 26.5 24.671875 26.5 25.5 C 26.5 26.328125 27.171875 27 28 27 C 28.828125 27 29.5 26.328125 29.5 25.5 C 29.5 24.671875 28.828125 24 28 24 Z M 24 28 C 23.171875 28 22.5 28.671875 22.5 29.5 C 22.5 30.328125 23.171875 31 24 31 C 24.828125 31 25.5 30.328125 25.5 29.5 C 25.5 28.671875 24.828125 28 24 28 Z M 24 28 "/>
</g>
</svg>
