<?xml version="1.0" encoding="UTF-8"?>
<svg xmlns="http://www.w3.org/2000/svg" xmlns:xlink="http://www.w3.org/1999/xlink" viewBox="0 0 150 150" width="150px" height="150px">
<g id="surface46826941">
<path style=" stroke:none;fill-rule:nonzero;fill:rgb(84.705883%,94.117647%,100%);fill-opacity:1;" d="M 130.824219 85.066406 C 132.523438 81.832031 133.5 78.15625 133.5 74.25 C 133.5 64.320312 127.261719 55.863281 118.5 52.53125 C 118.5 52.523438 118.5 52.511719 118.5 52.5 C 118.5 35.101562 104.398438 21 87 21 C 72.324219 21 60.027344 31.050781 56.53125 44.636719 C 54.316406 43.90625 51.957031 43.5 49.5 43.5 C 37.960938 43.5 28.464844 52.191406 27.164062 63.378906 C 19.359375 65.03125 13.5 71.953125 13.5 80.25 C 13.5 89.777344 21.222656 97.5 30.75 97.5 C 31.015625 97.5 31.277344 97.480469 31.539062 97.46875 C 31.53125 97.730469 31.5 97.984375 31.5 98.25 C 31.5 115.234375 45.265625 129 62.25 129 C 71.90625 129 80.511719 124.542969 86.152344 117.578125 C 89.417969 120.917969 93.960938 123 99 123 C 105.976562 123 112.011719 119.023438 115 113.222656 C 116.578125 113.726562 118.253906 114 120 114 C 129.113281 114 136.5 106.613281 136.5 97.5 C 136.5 92.535156 134.296875 88.089844 130.824219 85.066406 Z M 130.824219 85.066406 "/>
<path style=" stroke:none;fill-rule:nonzero;fill:rgb(100%,100%,100%);fill-opacity:1;" d="M 30.75 83.25 L 30.75 84 L 26.25 84 L 26.25 83.25 C 26.25 83.25 19.886719 83.25 18 83.25 C 14.273438 83.25 11.25 80.226562 11.25 76.5 C 11.25 73 13.921875 70.15625 17.332031 69.816406 C 17.300781 69.546875 17.25 69.28125 17.25 69 C 17.25 65.273438 20.273438 62.25 24 62.25 C 26.15625 62.25 28.054688 63.277344 29.289062 64.855469 C 29.5 60.898438 32.742188 57.75 36.75 57.75 C 40.890625 57.75 44.25 61.109375 44.25 65.25 C 44.25 65.917969 44.132812 66.554688 43.96875 67.171875 C 44.933594 66.007812 46.371094 65.25 48 65.25 C 50.671875 65.25 52.851562 67.253906 53.183594 69.832031 C 53.453125 69.800781 53.71875 69.75 54 69.75 C 57.726562 69.75 60.75 72.773438 60.75 76.5 C 60.75 80.226562 57.726562 83.25 54 83.25 C 50.273438 83.25 39.75 83.25 39.75 83.25 Z M 30.75 83.25 "/>
<path style=" stroke:none;fill-rule:nonzero;fill:rgb(10.980392%,10.588235%,10.196079%);fill-opacity:1;" d="M 36.75 57 C 41.300781 57 45 60.699219 45 65.25 C 45 65.273438 45 65.296875 45 65.320312 C 45.902344 64.789062 46.933594 64.5 48 64.5 C 50.746094 64.5 53.117188 66.390625 53.785156 69.007812 C 53.859375 69.003906 53.929688 69 54 69 C 58.136719 69 61.5 72.363281 61.5 76.5 C 61.5 80.636719 58.136719 84 54 84 L 30.75 84 C 30.335938 84 30 83.664062 30 83.25 C 30 82.835938 30.335938 82.5 30.75 82.5 L 54 82.5 C 57.308594 82.5 60 79.808594 60 76.5 C 60 73.191406 57.308594 70.5 54 70.5 C 53.824219 70.5 53.65625 70.527344 53.484375 70.546875 L 53.273438 70.578125 C 53.242188 70.582031 53.210938 70.582031 53.179688 70.582031 C 52.8125 70.582031 52.488281 70.304688 52.4375 69.925781 C 52.152344 67.6875 50.242188 66 48 66 C 46.671875 66 45.414062 66.601562 44.546875 67.648438 C 44.402344 67.828125 44.1875 67.921875 43.96875 67.921875 C 43.851562 67.921875 43.734375 67.894531 43.628906 67.839844 C 43.3125 67.679688 43.15625 67.320312 43.246094 66.980469 C 43.417969 66.328125 43.5 65.777344 43.5 65.25 C 43.5 61.527344 40.472656 58.5 36.75 58.5 C 33.179688 58.5 30.230469 61.308594 30.039062 64.894531 C 30.023438 65.207031 29.8125 65.476562 29.515625 65.570312 C 29.441406 65.59375 29.363281 65.605469 29.289062 65.605469 C 29.0625 65.605469 28.84375 65.503906 28.699219 65.316406 C 27.542969 63.84375 25.832031 63 24 63 C 20.691406 63 18 65.691406 18 69 C 18 69.175781 18.027344 69.34375 18.046875 69.515625 L 18.078125 69.726562 C 18.101562 69.925781 18.042969 70.128906 17.917969 70.285156 C 17.792969 70.441406 17.605469 70.542969 17.40625 70.5625 C 14.324219 70.871094 12 73.421875 12 76.5 C 12 79.808594 14.691406 82.5 18 82.5 L 26.25 82.5 C 26.664062 82.5 27 82.835938 27 83.25 C 27 83.664062 26.664062 84 26.25 84 L 18 84 C 13.863281 84 10.5 80.636719 10.5 76.5 C 10.5 72.90625 13.035156 69.878906 16.503906 69.183594 C 16.5 69.121094 16.5 69.0625 16.5 69 C 16.5 64.863281 19.863281 61.5 24 61.5 C 25.765625 61.5 27.441406 62.125 28.773438 63.246094 C 29.671875 59.640625 32.917969 57 36.75 57 Z M 36.75 57 "/>
<path style=" stroke:none;fill-rule:nonzero;fill:rgb(10.980392%,10.588235%,10.196079%);fill-opacity:1;" d="M 39 67.5 C 41.105469 67.5 42.914062 69 43.371094 71.011719 C 43.921875 70.679688 44.546875 70.5 45.1875 70.5 C 46.992188 70.5 48.484375 71.84375 48.71875 73.601562 C 49.023438 73.53125 49.3125 73.5 49.59375 73.5 C 51.886719 73.5 53.8125 75.300781 53.972656 77.597656 C 53.984375 77.804688 53.828125 77.984375 53.625 78 C 53.613281 78 53.605469 78 53.597656 78 C 53.402344 78 53.238281 77.847656 53.222656 77.652344 C 53.089844 75.746094 51.496094 74.25 49.59375 74.25 C 49.25 74.25 48.890625 74.3125 48.488281 74.441406 C 48.453125 74.449219 48.421875 74.457031 48.386719 74.457031 C 48.304688 74.457031 48.222656 74.425781 48.152344 74.375 C 48.058594 74.304688 48 74.183594 48 74.0625 C 48 72.511719 46.738281 71.25 45.1875 71.25 C 44.515625 71.25 43.859375 71.503906 43.339844 71.960938 C 43.269531 72.019531 43.183594 72.054688 43.09375 72.054688 C 43.046875 72.054688 43 72.046875 42.953125 72.027344 C 42.820312 71.972656 42.730469 71.851562 42.722656 71.707031 C 42.566406 69.769531 40.933594 68.25 39 68.25 C 38.6875 68.25 38.363281 68.300781 37.976562 68.410156 C 37.941406 68.421875 37.90625 68.425781 37.871094 68.425781 C 37.707031 68.425781 37.5625 68.316406 37.511719 68.152344 C 37.457031 67.953125 37.570312 67.746094 37.773438 67.6875 C 38.222656 67.558594 38.617188 67.5 39 67.5 Z M 18.175781 69.75 C 20.164062 69.75 21.9375 71.09375 22.488281 73.023438 C 22.542969 73.222656 22.429688 73.429688 22.226562 73.488281 C 22.191406 73.496094 22.15625 73.5 22.125 73.5 C 21.960938 73.5 21.8125 73.390625 21.765625 73.226562 C 21.308594 71.621094 19.832031 70.5 18.175781 70.5 C 18 70.5 17.832031 70.519531 17.664062 70.542969 C 17.644531 70.546875 17.628906 70.546875 17.609375 70.546875 C 17.429688 70.546875 17.265625 70.410156 17.242188 70.222656 C 17.210938 70.015625 17.355469 69.828125 17.5625 69.800781 C 17.761719 69.773438 17.96875 69.75 18.175781 69.75 Z M 18.175781 69.75 "/>
<path style=" stroke:none;fill-rule:nonzero;fill:rgb(100%,100%,100%);fill-opacity:1;" d="M 50.25 117 L 35.25 117 C 34.835938 117 34.5 116.664062 34.5 116.25 C 34.5 115.835938 34.835938 115.5 35.25 115.5 L 50.25 115.5 C 50.664062 115.5 51 115.835938 51 116.25 C 51 116.664062 50.664062 117 50.25 117 Z M 54.75 117 L 53.25 117 C 52.835938 117 52.5 116.664062 52.5 116.25 C 52.5 115.835938 52.835938 115.5 53.25 115.5 L 54.75 115.5 C 55.164062 115.5 55.5 115.835938 55.5 116.25 C 55.5 116.664062 55.164062 117 54.75 117 Z M 62.238281 120 L 48.75 120 C 48.335938 120 48 119.664062 48 119.25 C 48 118.835938 48.335938 118.5 48.75 118.5 L 62.238281 118.5 C 62.652344 118.5 62.988281 118.835938 62.988281 119.25 C 62.988281 119.664062 62.652344 120 62.238281 120 Z M 45.75 120 L 44.25 120 C 43.835938 120 43.5 119.664062 43.5 119.25 C 43.5 118.835938 43.835938 118.5 44.25 118.5 L 45.75 118.5 C 46.164062 118.5 46.5 118.835938 46.5 119.25 C 46.5 119.664062 46.164062 120 45.75 120 Z M 41.25 120 L 38.25 120 C 37.835938 120 37.5 119.664062 37.5 119.25 C 37.5 118.835938 37.835938 118.5 38.25 118.5 L 41.25 118.5 C 41.664062 118.5 42 118.835938 42 119.25 C 42 119.664062 41.664062 120 41.25 120 Z M 50.25 123 L 47.25 123 C 46.835938 123 46.5 122.664062 46.5 122.25 C 46.5 121.835938 46.835938 121.5 47.25 121.5 L 50.25 121.5 C 50.664062 121.5 51 121.835938 51 122.25 C 51 122.664062 50.664062 123 50.25 123 Z M 54.75 109.5 C 54.484375 109.5 53.515625 109.5 53.25 109.5 C 52.835938 109.5 52.5 109.835938 52.5 110.25 C 52.5 110.664062 52.835938 111 53.25 111 C 53.515625 111 54.484375 111 54.75 111 C 55.164062 111 55.5 110.664062 55.5 110.25 C 55.5 109.835938 55.164062 109.5 54.75 109.5 Z M 54.75 112.5 C 54.484375 112.5 47.515625 112.5 47.25 112.5 C 46.835938 112.5 46.5 112.835938 46.5 113.25 C 46.5 113.664062 46.835938 114 47.25 114 C 47.515625 114 54.484375 114 54.75 114 C 55.164062 114 55.5 113.664062 55.5 113.25 C 55.5 112.835938 55.164062 112.5 54.75 112.5 Z M 62.25 115.5 C 61.984375 115.5 58.015625 115.5 57.75 115.5 C 57.335938 115.5 57 115.835938 57 116.25 C 57 116.664062 57.335938 117 57.75 117 C 58.015625 117 61.984375 117 62.25 117 C 62.664062 117 63 116.664062 63 116.25 C 63 115.835938 62.664062 115.5 62.25 115.5 Z M 105.75 33 L 90.75 33 C 90.335938 33 90 32.664062 90 32.25 C 90 31.835938 90.335938 31.5 90.75 31.5 L 105.75 31.5 C 106.164062 31.5 106.5 31.835938 106.5 32.25 C 106.5 32.664062 106.164062 33 105.75 33 Z M 111.75 33 L 108.75 33 C 108.335938 33 108 32.664062 108 32.25 C 108 31.835938 108.335938 31.5 108.75 31.5 L 111.75 31.5 C 112.164062 31.5 112.5 31.835938 112.5 32.25 C 112.5 32.664062 112.164062 33 111.75 33 Z M 119.25 36 L 104.25 36 C 103.835938 36 103.5 35.664062 103.5 35.25 C 103.5 34.835938 103.835938 34.5 104.25 34.5 L 119.25 34.5 C 119.664062 34.5 120 34.835938 120 35.25 C 120 35.664062 119.664062 36 119.25 36 Z M 101.25 36 L 99.75 36 C 99.335938 36 99 35.664062 99 35.25 C 99 34.835938 99.335938 34.5 99.75 34.5 L 101.25 34.5 C 101.664062 34.5 102 34.835938 102 35.25 C 102 35.664062 101.664062 36 101.25 36 Z M 96.703125 36 L 93.75 36 C 93.335938 36 93 35.664062 93 35.25 C 93 34.835938 93.335938 34.5 93.75 34.5 L 96.703125 34.5 C 97.117188 34.5 97.453125 34.835938 97.453125 35.25 C 97.453125 35.664062 97.117188 36 96.703125 36 Z M 110.25 30 L 102.75 30 C 102.335938 30 102 29.664062 102 29.25 C 102 28.835938 102.335938 28.5 102.75 28.5 L 110.25 28.5 C 110.664062 28.5 111 28.835938 111 29.25 C 111 29.664062 110.664062 30 110.25 30 Z M 105.75 39 L 102.75 39 C 102.335938 39 102 38.664062 102 38.25 C 102 37.835938 102.335938 37.5 102.75 37.5 L 105.75 37.5 C 106.164062 37.5 106.5 37.835938 106.5 38.25 C 106.5 38.664062 106.164062 39 105.75 39 Z M 105.75 39 "/>
<path style=" stroke:none;fill-rule:nonzero;fill:rgb(100%,100%,100%);fill-opacity:1;" d="M 126.75 86.25 C 126.75 86.25 129.101562 86.25 132 86.25 C 134.898438 86.25 137.25 83.898438 137.25 81 C 137.25 78.328125 135.246094 76.148438 132.667969 75.816406 C 132.710938 75.550781 132.75 75.28125 132.75 75 C 132.75 72.101562 130.398438 69.75 127.5 69.75 C 125.953125 69.75 124.574219 70.433594 123.613281 71.496094 C 123.039062 68.785156 120.632812 66.75 117.75 66.75 C 114.4375 66.75 111.75 69.4375 111.75 72.75 C 111.75 73.035156 111.796875 73.3125 111.835938 73.585938 C 111.191406 73.070312 110.386719 72.75 109.5 72.75 C 107.65625 72.75 106.132812 74.082031 105.816406 75.832031 C 105.550781 75.789062 105.28125 75.75 105 75.75 C 102.101562 75.75 99.75 78.101562 99.75 81 C 99.75 83.898438 102.101562 86.25 105 86.25 C 107.898438 86.25 116.25 86.25 116.25 86.25 L 116.25 87 L 126.75 87 Z M 126.75 86.25 "/>
<path style=" stroke:none;fill-rule:nonzero;fill:rgb(10.980392%,10.588235%,10.196079%);fill-opacity:1;" d="M 129.375 79.5 C 129.167969 79.5 129 79.332031 129 79.125 C 129 77.289062 130.492188 75.796875 132.328125 75.796875 C 132.378906 75.8125 133.433594 75.796875 134.191406 76.003906 C 134.390625 76.054688 134.511719 76.261719 134.457031 76.460938 C 134.402344 76.660156 134.199219 76.78125 133.996094 76.726562 C 133.332031 76.546875 132.347656 76.546875 132.328125 76.546875 C 130.90625 76.546875 129.75 77.703125 129.75 79.125 C 129.75 79.332031 129.582031 79.5 129.375 79.5 Z M 119.25 85.5 C 118.835938 85.5 118.5 85.835938 118.5 86.25 C 118.5 86.664062 118.835938 87 119.25 87 C 119.664062 87 120 86.664062 120 86.25 C 120 85.835938 119.664062 85.5 119.25 85.5 Z M 119.25 85.5 "/>
<path style=" stroke:none;fill-rule:nonzero;fill:rgb(10.980392%,10.588235%,10.196079%);fill-opacity:1;" d="M 132 87 L 126.75 87 C 126.335938 87 126 86.664062 126 86.25 C 126 85.835938 126.335938 85.5 126.75 85.5 L 132 85.5 C 134.480469 85.5 136.5 83.480469 136.5 81 C 136.5 78.757812 134.8125 76.847656 132.574219 76.5625 C 132.371094 76.535156 132.191406 76.429688 132.070312 76.265625 C 131.949219 76.105469 131.898438 75.902344 131.929688 75.703125 C 131.960938 75.472656 132 75.238281 132 75 C 132 72.519531 129.980469 70.5 127.5 70.5 C 126.226562 70.5 125.042969 71.03125 124.171875 72 C 123.984375 72.207031 123.691406 72.296875 123.421875 72.222656 C 123.148438 72.148438 122.941406 71.929688 122.882812 71.652344 C 122.371094 69.246094 120.210938 67.5 117.75 67.5 C 114.855469 67.5 112.5 69.855469 112.5 72.75 C 112.5 72.964844 112.53125 73.171875 112.5625 73.378906 C 112.605469 73.679688 112.46875 74.035156 112.199219 74.1875 C 111.929688 74.339844 111.605469 74.363281 111.363281 74.171875 C 110.816406 73.734375 110.171875 73.5 109.5 73.5 C 108.050781 73.5 106.8125 74.535156 106.554688 75.964844 C 106.484375 76.367188 106.113281 76.636719 105.703125 76.574219 C 105.472656 76.539062 105.238281 76.5 105 76.5 C 102.519531 76.5 100.5 78.519531 100.5 81 C 100.5 83.480469 102.519531 85.5 105 85.5 L 116.25 85.5 C 116.664062 85.5 117 85.835938 117 86.25 C 117 86.664062 116.664062 87 116.25 87 L 105 87 C 101.691406 87 99 84.308594 99 81 C 99 77.691406 101.691406 75 105 75 C 105.089844 75 105.175781 75.003906 105.261719 75.007812 C 105.882812 73.230469 107.566406 72 109.5 72 C 110.023438 72 110.535156 72.089844 111.015625 72.269531 C 111.265625 68.769531 114.1875 66 117.75 66 C 120.496094 66 122.949219 67.691406 123.980469 70.160156 C 125 69.414062 126.234375 69 127.5 69 C 130.808594 69 133.5 71.691406 133.5 75 C 133.5 75.070312 133.5 75.140625 133.492188 75.214844 C 136.109375 75.886719 138 78.253906 138 81 C 138 84.308594 135.308594 87 132 87 Z M 132 87 "/>
<path style=" stroke:none;fill-rule:nonzero;fill:rgb(10.980392%,10.588235%,10.196079%);fill-opacity:1;" d="M 123.75 85.5 C 123.511719 85.5 122.488281 85.5 122.25 85.5 C 121.835938 85.5 121.5 85.835938 121.5 86.25 C 121.5 86.664062 121.835938 87 122.25 87 C 122.488281 87 123.511719 87 123.75 87 C 124.164062 87 124.5 86.664062 124.5 86.25 C 124.5 85.835938 124.164062 85.5 123.75 85.5 Z M 123.75 85.5 "/>
<path style=" stroke:none;fill-rule:nonzero;fill:rgb(12.156863%,27.058825%,58.039218%);fill-opacity:1;" d="M 69.300781 89.699219 L 69.300781 80.78125 C 69.300781 76.105469 73.105469 72.300781 77.78125 72.300781 L 82.71875 72.300781 C 87.394531 72.300781 91.199219 76.105469 91.199219 80.78125 L 91.199219 89.699219 Z M 69.300781 89.699219 "/>
<path style=" stroke:none;fill-rule:nonzero;fill:rgb(10.980392%,10.588235%,10.196079%);fill-opacity:1;" d="M 82.71875 73.351562 C 86.816406 73.351562 90.148438 76.683594 90.148438 80.78125 L 90.148438 88.648438 L 70.351562 88.648438 L 70.351562 80.78125 C 70.351562 76.683594 73.683594 73.351562 77.78125 73.351562 L 82.71875 73.351562 M 82.71875 71.25 L 77.78125 71.25 C 72.515625 71.25 68.25 75.515625 68.25 80.78125 L 68.25 90.75 L 92.25 90.75 L 92.25 80.78125 C 92.25 75.515625 87.984375 71.25 82.71875 71.25 Z M 82.71875 71.25 "/>
<path style=" stroke:none;fill-rule:nonzero;fill:rgb(10.980392%,10.588235%,10.196079%);fill-opacity:1;" d="M 74.25 90.75 C 73.835938 90.75 73.5 90.414062 73.5 90 L 73.5 80.25 C 73.5 79.835938 73.835938 79.5 74.25 79.5 C 74.664062 79.5 75 79.835938 75 80.25 L 75 90 C 75 90.414062 74.664062 90.75 74.25 90.75 Z M 74.25 90.75 "/>
<path style=" stroke:none;fill-rule:nonzero;fill:rgb(10.980392%,10.588235%,10.196079%);fill-opacity:1;" d="M 86.25 90.75 C 85.835938 90.75 85.5 90.414062 85.5 90 L 85.5 80.25 C 85.5 79.835938 85.835938 79.5 86.25 79.5 C 86.664062 79.5 87 79.835938 87 80.25 L 87 90 C 87 90.414062 86.664062 90.75 86.25 90.75 Z M 86.25 90.75 "/>
<path style=" stroke:none;fill-rule:nonzero;fill:rgb(100%,100%,100%);fill-opacity:1;" d="M 80.25 58.050781 C 76.273438 58.050781 73.050781 61.273438 73.050781 65.25 C 73.050781 69.226562 76.273438 72.449219 80.25 72.449219 C 84.226562 72.449219 87.449219 69.226562 87.449219 65.25 C 87.449219 61.273438 84.226562 58.050781 80.25 58.050781 Z M 80.25 58.050781 "/>
<path style=" stroke:none;fill-rule:nonzero;fill:rgb(10.980392%,10.588235%,10.196079%);fill-opacity:1;" d="M 80.25 59.101562 C 83.640625 59.101562 86.398438 61.859375 86.398438 65.25 C 86.398438 68.640625 83.640625 71.398438 80.25 71.398438 C 76.859375 71.398438 74.101562 68.640625 74.101562 65.25 C 74.101562 61.859375 76.859375 59.101562 80.25 59.101562 M 80.25 57 C 75.691406 57 72 60.691406 72 65.25 C 72 69.808594 75.691406 73.5 80.25 73.5 C 84.808594 73.5 88.5 69.808594 88.5 65.25 C 88.5 60.691406 84.808594 57 80.25 57 Z M 80.25 57 "/>
<path style=" stroke:none;fill-rule:nonzero;fill:rgb(10.980392%,10.588235%,10.196079%);fill-opacity:1;" d="M 80.25 106.5 C 79.835938 106.5 79.5 106.164062 79.5 105.75 L 79.5 95.25 C 79.5 94.835938 79.835938 94.5 80.25 94.5 C 80.664062 94.5 81 94.835938 81 95.25 L 81 105.75 C 81 106.164062 80.664062 106.5 80.25 106.5 Z M 80.25 106.5 "/>
<path style=" stroke:none;fill-rule:nonzero;fill:rgb(82.352942%,92.941177%,29.803923%);fill-opacity:1;" d="M 51 94.050781 C 48.265625 94.050781 46.050781 96.265625 46.050781 99 C 46.050781 101.734375 48.265625 103.949219 51 103.949219 C 53.734375 103.949219 55.949219 101.734375 55.949219 99 C 55.949219 96.265625 53.734375 94.050781 51 94.050781 Z M 51 94.050781 "/>
<path style=" stroke:none;fill-rule:nonzero;fill:rgb(10.980392%,10.588235%,10.196079%);fill-opacity:1;" d="M 51 95.101562 C 53.152344 95.101562 54.898438 96.851562 54.898438 99 C 54.898438 101.148438 53.152344 102.898438 51 102.898438 C 48.847656 102.898438 47.101562 101.148438 47.101562 99 C 47.101562 96.851562 48.847656 95.101562 51 95.101562 M 51 93 C 47.6875 93 45 95.6875 45 99 C 45 102.3125 47.6875 105 51 105 C 54.3125 105 57 102.3125 57 99 C 57 95.6875 54.3125 93 51 93 Z M 51 93 "/>
<path style=" stroke:none;fill-rule:nonzero;fill:rgb(82.352942%,92.941177%,29.803923%);fill-opacity:1;" d="M 81 103.050781 C 78.265625 103.050781 76.050781 105.265625 76.050781 108 C 76.050781 110.734375 78.265625 112.949219 81 112.949219 C 83.734375 112.949219 85.949219 110.734375 85.949219 108 C 85.949219 105.265625 83.734375 103.050781 81 103.050781 Z M 81 103.050781 "/>
<path style=" stroke:none;fill-rule:nonzero;fill:rgb(10.980392%,10.588235%,10.196079%);fill-opacity:1;" d="M 81 104.101562 C 83.152344 104.101562 84.898438 105.851562 84.898438 108 C 84.898438 110.148438 83.152344 111.898438 81 111.898438 C 78.847656 111.898438 77.101562 110.148438 77.101562 108 C 77.101562 105.851562 78.847656 104.101562 81 104.101562 M 81 102 C 77.6875 102 75 104.6875 75 108 C 75 111.3125 77.6875 114 81 114 C 84.3125 114 87 111.3125 87 108 C 87 104.6875 84.3125 102 81 102 Z M 81 102 "/>
<path style=" stroke:none;fill-rule:nonzero;fill:rgb(82.352942%,92.941177%,29.803923%);fill-opacity:1;" d="M 109.5 94.050781 C 106.765625 94.050781 104.550781 96.265625 104.550781 99 C 104.550781 101.734375 106.765625 103.949219 109.5 103.949219 C 112.234375 103.949219 114.449219 101.734375 114.449219 99 C 114.449219 96.265625 112.234375 94.050781 109.5 94.050781 Z M 109.5 94.050781 "/>
<path style=" stroke:none;fill-rule:nonzero;fill:rgb(10.980392%,10.588235%,10.196079%);fill-opacity:1;" d="M 109.5 95.101562 C 111.652344 95.101562 113.398438 96.851562 113.398438 99 C 113.398438 101.148438 111.652344 102.898438 109.5 102.898438 C 107.347656 102.898438 105.601562 101.148438 105.601562 99 C 105.601562 96.851562 107.347656 95.101562 109.5 95.101562 M 109.5 93 C 106.1875 93 103.5 95.6875 103.5 99 C 103.5 102.3125 106.1875 105 109.5 105 C 112.8125 105 115.5 102.3125 115.5 99 C 115.5 95.6875 112.8125 93 109.5 93 Z M 109.5 93 "/>
<path style=" stroke:none;fill-rule:nonzero;fill:rgb(10.980392%,10.588235%,10.196079%);fill-opacity:1;" d="M 54.796875 95.886719 C 54.605469 95.886719 54.414062 95.8125 54.265625 95.667969 C 53.972656 95.375 53.972656 94.902344 54.265625 94.609375 L 61.613281 87.261719 C 61.90625 86.96875 62.417969 86.933594 62.710938 87.226562 C 63 87.515625 63.039062 87.957031 62.746094 88.25 L 55.324219 95.671875 C 55.183594 95.8125 54.988281 95.886719 54.796875 95.886719 Z M 54.796875 95.886719 "/>
<path style=" stroke:none;fill-rule:nonzero;fill:rgb(10.980392%,10.588235%,10.196079%);fill-opacity:1;" d="M 104.933594 95.886719 C 104.742188 95.886719 104.550781 95.8125 104.40625 95.667969 L 98.179688 89.445312 C 97.886719 89.152344 97.855469 88.648438 98.148438 88.355469 C 98.433594 88.066406 98.875 88.027344 99.175781 88.316406 L 105.464844 94.609375 C 105.757812 94.902344 105.757812 95.375 105.464844 95.667969 C 105.320312 95.8125 105.128906 95.886719 104.933594 95.886719 Z M 104.933594 95.886719 "/>
<path style=" stroke:none;fill-rule:nonzero;fill:rgb(10.980392%,10.588235%,10.196079%);fill-opacity:1;" d="M 80.25 54 C 79.835938 54 79.5 53.664062 79.5 53.25 L 79.5 42.820312 C 79.5 42.40625 79.835938 42.035156 80.25 42.035156 C 80.664062 42.035156 81 42.335938 81 42.75 L 81 53.25 C 81 53.664062 80.664062 54 80.25 54 Z M 80.25 54 "/>
<path style=" stroke:none;fill-rule:nonzero;fill:rgb(82.352942%,92.941177%,29.803923%);fill-opacity:1;" d="M 109.5 44.550781 C 106.765625 44.550781 104.550781 46.765625 104.550781 49.5 C 104.550781 52.234375 106.765625 54.449219 109.5 54.449219 C 112.234375 54.449219 114.449219 52.234375 114.449219 49.5 C 114.449219 46.765625 112.234375 44.550781 109.5 44.550781 Z M 109.5 44.550781 "/>
<path style=" stroke:none;fill-rule:nonzero;fill:rgb(10.980392%,10.588235%,10.196079%);fill-opacity:1;" d="M 109.5 45.601562 C 111.652344 45.601562 113.398438 47.351562 113.398438 49.5 C 113.398438 51.648438 111.652344 53.398438 109.5 53.398438 C 107.347656 53.398438 105.601562 51.648438 105.601562 49.5 C 105.601562 47.351562 107.347656 45.601562 109.5 45.601562 M 109.5 43.5 C 106.1875 43.5 103.5 46.1875 103.5 49.5 C 103.5 52.8125 106.1875 55.5 109.5 55.5 C 112.8125 55.5 115.5 52.8125 115.5 49.5 C 115.5 46.1875 112.8125 43.5 109.5 43.5 Z M 109.5 43.5 "/>
<path style=" stroke:none;fill-rule:nonzero;fill:rgb(82.352942%,92.941177%,29.803923%);fill-opacity:1;" d="M 81 34.050781 C 78.265625 34.050781 76.050781 36.265625 76.050781 39 C 76.050781 41.734375 78.265625 43.949219 81 43.949219 C 83.734375 43.949219 85.949219 41.734375 85.949219 39 C 85.949219 36.265625 83.734375 34.050781 81 34.050781 Z M 81 34.050781 "/>
<path style=" stroke:none;fill-rule:nonzero;fill:rgb(10.980392%,10.588235%,10.196079%);fill-opacity:1;" d="M 81 35.101562 C 83.152344 35.101562 84.898438 36.851562 84.898438 39 C 84.898438 41.148438 83.152344 42.898438 81 42.898438 C 78.847656 42.898438 77.101562 41.148438 77.101562 39 C 77.101562 36.851562 78.847656 35.101562 81 35.101562 M 81 33 C 77.6875 33 75 35.6875 75 39 C 75 42.3125 77.6875 45 81 45 C 84.3125 45 87 42.3125 87 39 C 87 35.6875 84.3125 33 81 33 Z M 81 33 "/>
<path style=" stroke:none;fill-rule:nonzero;fill:rgb(82.352942%,92.941177%,29.803923%);fill-opacity:1;" d="M 51 44.550781 C 48.265625 44.550781 46.050781 46.765625 46.050781 49.5 C 46.050781 52.234375 48.265625 54.449219 51 54.449219 C 53.734375 54.449219 55.949219 52.234375 55.949219 49.5 C 55.949219 46.765625 53.734375 44.550781 51 44.550781 Z M 51 44.550781 "/>
<path style=" stroke:none;fill-rule:nonzero;fill:rgb(10.980392%,10.588235%,10.196079%);fill-opacity:1;" d="M 51 45.601562 C 53.152344 45.601562 54.898438 47.351562 54.898438 49.5 C 54.898438 51.648438 53.152344 53.398438 51 53.398438 C 48.847656 53.398438 47.101562 51.648438 47.101562 49.5 C 47.101562 47.351562 48.847656 45.601562 51 45.601562 M 51 43.5 C 47.6875 43.5 45 46.1875 45 49.5 C 45 52.8125 47.6875 55.5 51 55.5 C 54.3125 55.5 57 52.8125 57 49.5 C 57 46.1875 54.3125 43.5 51 43.5 Z M 51 43.5 "/>
<path style=" stroke:none;fill-rule:nonzero;fill:rgb(10.980392%,10.588235%,10.196079%);fill-opacity:1;" d="M 98.300781 62.199219 C 98.109375 62.199219 97.925781 62.132812 97.785156 61.996094 C 97.496094 61.703125 97.457031 61.261719 97.753906 60.96875 L 105.171875 53.550781 C 105.464844 53.257812 105.9375 53.257812 106.230469 53.550781 C 106.523438 53.84375 106.523438 54.316406 106.230469 54.609375 L 98.882812 61.957031 C 98.726562 62.113281 98.511719 62.199219 98.300781 62.199219 Z M 98.300781 62.199219 "/>
<path style=" stroke:none;fill-rule:nonzero;fill:rgb(10.980392%,10.588235%,10.196079%);fill-opacity:1;" d="M 61.808594 61.101562 C 61.636719 61.101562 61.464844 61.035156 61.328125 60.902344 L 55.035156 54.609375 C 54.742188 54.316406 54.742188 53.84375 55.035156 53.550781 C 55.328125 53.257812 55.804688 53.257812 56.09375 53.550781 L 62.320312 59.773438 C 62.613281 60.066406 62.644531 60.570312 62.351562 60.863281 C 62.199219 61.019531 62.003906 61.101562 61.808594 61.101562 Z M 61.808594 61.101562 "/>
</g>
</svg>
