<?xml version="1.0" encoding="UTF-8"?>
<svg xmlns="http://www.w3.org/2000/svg" xmlns:xlink="http://www.w3.org/1999/xlink" viewBox="0 0 150 150" width="150px" height="150px">
<g id="surface15998401">
<path style=" stroke:none;fill-rule:nonzero;fill:rgb(84.705883%,94.117647%,100%);fill-opacity:1;" d="M 130.824219 85.066406 C 132.523438 81.832031 133.5 78.15625 133.5 74.25 C 133.5 64.320312 127.261719 55.863281 118.5 52.53125 C 118.5 52.523438 118.5 52.511719 118.5 52.5 C 118.5 35.101562 104.398438 21 87 21 C 72.324219 21 60.027344 31.050781 56.53125 44.636719 C 54.316406 43.90625 51.957031 43.5 49.5 43.5 C 37.960938 43.5 28.464844 52.191406 27.164062 63.378906 C 19.359375 65.03125 13.5 71.953125 13.5 80.25 C 13.5 89.777344 21.222656 97.5 30.75 97.5 C 31.015625 97.5 31.277344 97.480469 31.539062 97.46875 C 31.53125 97.730469 31.5 97.984375 31.5 98.25 C 31.5 115.234375 45.265625 129 62.25 129 C 71.90625 129 80.511719 124.542969 86.152344 117.578125 C 89.417969 120.917969 93.960938 123 99 123 C 105.976562 123 112.011719 119.023438 115 113.222656 C 116.578125 113.726562 118.253906 114 120 114 C 129.113281 114 136.5 106.613281 136.5 97.5 C 136.5 92.535156 134.296875 88.089844 130.824219 85.066406 Z M 130.824219 85.066406 "/>
<path style=" stroke:none;fill-rule:nonzero;fill:rgb(100%,100%,100%);fill-opacity:1;" d="M 123.609375 66 L 108.75 66 C 108.335938 66 108 65.664062 108 65.25 C 108 64.835938 108.335938 64.5 108.75 64.5 L 123.609375 64.5 C 124.023438 64.5 124.359375 64.835938 124.359375 65.25 C 124.359375 65.664062 124.023438 66 123.609375 66 Z M 132.75 66 L 126.75 66 C 126.335938 66 126 65.664062 126 65.25 C 126 64.835938 126.335938 64.5 126.75 64.5 L 132.75 64.5 C 133.164062 64.5 133.5 64.835938 133.5 65.25 C 133.5 65.664062 133.164062 66 132.75 66 Z M 135.738281 69 L 122.25 69 C 121.835938 69 121.5 68.664062 121.5 68.25 C 121.5 67.835938 121.835938 67.5 122.25 67.5 L 135.738281 67.5 C 136.152344 67.5 136.488281 67.835938 136.488281 68.25 C 136.488281 68.664062 136.152344 69 135.738281 69 Z M 119.25 69 L 117.75 69 C 117.335938 69 117 68.664062 117 68.25 C 117 67.835938 117.335938 67.5 117.75 67.5 L 119.25 67.5 C 119.664062 67.5 120 67.835938 120 68.25 C 120 68.664062 119.664062 69 119.25 69 Z M 114.75 69 L 111.75 69 C 111.335938 69 111 68.664062 111 68.25 C 111 67.835938 111.335938 67.5 111.75 67.5 L 114.75 67.5 C 115.164062 67.5 115.5 67.835938 115.5 68.25 C 115.5 68.664062 115.164062 69 114.75 69 Z M 123.75 72 L 120.75 72 C 120.335938 72 120 71.664062 120 71.25 C 120 70.835938 120.335938 70.5 120.75 70.5 L 123.75 70.5 C 124.164062 70.5 124.5 70.835938 124.5 71.25 C 124.5 71.664062 124.164062 72 123.75 72 Z M 122.25 58.5 C 121.984375 58.5 119.515625 58.5 119.25 58.5 C 118.835938 58.5 118.5 58.835938 118.5 59.25 C 118.5 59.664062 118.835938 60 119.25 60 C 119.515625 60 121.984375 60 122.25 60 C 122.664062 60 123 59.664062 123 59.25 C 123 58.835938 122.664062 58.5 122.25 58.5 Z M 126.75 61.5 C 126.484375 61.5 121.015625 61.5 120.75 61.5 C 120.335938 61.5 120 61.835938 120 62.25 C 120 62.664062 120.335938 63 120.75 63 C 121.015625 63 126.484375 63 126.75 63 C 127.164062 63 127.5 62.664062 127.5 62.25 C 127.5 61.835938 127.164062 61.5 126.75 61.5 Z M 117.75 61.5 C 117.484375 61.5 110.515625 61.5 110.25 61.5 C 109.835938 61.5 109.5 61.835938 109.5 62.25 C 109.5 62.664062 109.835938 63 110.25 63 C 110.515625 63 117.484375 63 117.75 63 C 118.164062 63 118.5 62.664062 118.5 62.25 C 118.5 61.835938 118.164062 61.5 117.75 61.5 Z M 117.75 61.5 "/>
<path style=" stroke:none;fill-rule:nonzero;fill:rgb(100%,100%,100%);fill-opacity:1;" d="M 44.25 105.75 L 44.25 106.5 L 50.25 106.5 L 50.25 105.75 C 53.066406 105.75 56.527344 105.75 58.5 105.75 C 62.226562 105.75 65.25 102.726562 65.25 99 C 65.25 95.5 62.578125 92.65625 59.167969 92.316406 C 59.199219 92.046875 59.25 91.78125 59.25 91.5 C 59.25 87.773438 56.226562 84.75 52.5 84.75 C 50.34375 84.75 48.445312 85.777344 47.210938 87.355469 C 47 83.398438 43.757812 80.25 39.75 80.25 C 35.609375 80.25 32.25 83.609375 32.25 87.75 C 32.25 88.417969 32.367188 89.054688 32.53125 89.671875 C 31.566406 88.507812 30.128906 87.75 28.5 87.75 C 25.828125 87.75 23.648438 89.753906 23.316406 92.332031 C 23.046875 92.300781 22.78125 92.25 22.5 92.25 C 18.773438 92.25 15.75 95.273438 15.75 99 C 15.75 102.726562 18.773438 105.75 22.5 105.75 C 26.226562 105.75 36.75 105.75 36.75 105.75 Z M 44.25 105.75 "/>
<path style=" stroke:none;fill-rule:nonzero;fill:rgb(10.980392%,10.588235%,10.196079%);fill-opacity:1;" d="M 37.5 90 C 35.394531 90 33.585938 91.5 33.128906 93.511719 C 32.578125 93.179688 31.953125 93 31.3125 93 C 29.507812 93 28.015625 94.34375 27.78125 96.101562 C 27.476562 96.03125 27.1875 96 26.90625 96 C 24.613281 96 22.6875 97.800781 22.527344 100.097656 C 22.515625 100.304688 22.671875 100.484375 22.875 100.5 C 22.886719 100.5 22.894531 100.5 22.902344 100.5 C 23.097656 100.5 23.261719 100.347656 23.277344 100.152344 C 23.410156 98.246094 25.003906 96.75 26.90625 96.75 C 27.25 96.75 27.609375 96.8125 28.011719 96.941406 C 28.046875 96.949219 28.078125 96.957031 28.113281 96.957031 C 28.195312 96.957031 28.277344 96.925781 28.347656 96.875 C 28.441406 96.804688 28.5 96.683594 28.5 96.5625 C 28.5 95.011719 29.761719 93.75 31.3125 93.75 C 31.984375 93.75 32.640625 94.003906 33.160156 94.460938 C 33.230469 94.519531 33.316406 94.554688 33.40625 94.554688 C 33.453125 94.554688 33.5 94.546875 33.546875 94.527344 C 33.679688 94.472656 33.769531 94.351562 33.777344 94.207031 C 33.933594 92.269531 35.566406 90.75 37.5 90.75 C 37.8125 90.75 38.136719 90.800781 38.523438 90.910156 C 38.558594 90.921875 38.59375 90.925781 38.628906 90.925781 C 38.792969 90.925781 38.9375 90.816406 38.988281 90.652344 C 39.042969 90.453125 38.929688 90.246094 38.726562 90.1875 C 38.277344 90.058594 37.882812 90 37.5 90 Z M 37.5 90 "/>
<path style=" stroke:none;fill-rule:nonzero;fill:rgb(10.980392%,10.588235%,10.196079%);fill-opacity:1;" d="M 59.996094 91.683594 C 60 91.621094 60 91.5625 60 91.5 C 60 87.363281 56.636719 84 52.5 84 C 50.734375 84 49.058594 84.625 47.726562 85.746094 C 46.828125 82.140625 43.582031 79.5 39.75 79.5 C 35.199219 79.5 31.5 83.199219 31.5 87.75 C 31.5 87.773438 31.5 87.796875 31.5 87.820312 C 30.597656 87.289062 29.566406 87 28.5 87 C 25.753906 87 23.382812 88.890625 22.714844 91.507812 C 22.640625 91.503906 22.570312 91.5 22.5 91.5 C 18.363281 91.5 15 94.863281 15 99 C 15 103.136719 18.363281 106.5 22.5 106.5 L 44.25 106.5 C 44.664062 106.5 45 106.164062 45 105.75 C 45 105.335938 44.664062 105 44.25 105 L 22.5 105 C 19.191406 105 16.5 102.308594 16.5 99 C 16.5 95.691406 19.191406 93 22.5 93 C 22.675781 93 22.84375 93.027344 23.015625 93.046875 L 23.226562 93.078125 C 23.257812 93.082031 23.289062 93.082031 23.320312 93.082031 C 23.6875 93.082031 24.011719 92.804688 24.0625 92.425781 C 24.347656 90.1875 26.257812 88.5 28.5 88.5 C 29.828125 88.5 31.085938 89.101562 31.953125 90.148438 C 32.097656 90.328125 32.3125 90.421875 32.53125 90.421875 C 32.644531 90.421875 32.765625 90.394531 32.871094 90.339844 C 32.921875 90.3125 32.957031 90.277344 33 90.242188 C 33 90.242188 33 87.992188 33 87.75 C 33 84.027344 36.027344 81 39.75 81 C 43.320312 81 46.269531 83.808594 46.460938 87.394531 C 46.476562 87.707031 46.683594 87.976562 46.984375 88.070312 C 47.058594 88.09375 47.132812 88.105469 47.210938 88.105469 C 47.4375 88.105469 47.65625 88.003906 47.800781 87.816406 C 48.957031 86.34375 50.667969 85.5 52.5 85.5 C 55.808594 85.5 58.5 88.191406 58.5 91.5 C 58.5 91.675781 58.472656 91.84375 58.453125 92.015625 L 58.421875 92.226562 C 58.398438 92.425781 58.457031 92.628906 58.582031 92.785156 C 58.707031 92.941406 58.894531 93.042969 59.09375 93.0625 C 62.175781 93.371094 64.5 95.921875 64.5 99 C 64.5 102.308594 61.808594 105 58.5 105 L 50.25 105 C 49.835938 105 49.5 105.335938 49.5 105.75 C 49.5 106.164062 49.835938 106.5 50.25 106.5 L 58.5 106.5 C 62.636719 106.5 66 103.136719 66 99 C 66 95.40625 63.464844 92.378906 59.996094 91.683594 Z M 59.996094 91.683594 "/>
<path style=" stroke:none;fill-rule:nonzero;fill:rgb(100%,100%,100%);fill-opacity:1;" d="M 125.246094 96.75 C 125.246094 96.75 127.597656 96.75 130.496094 96.75 C 133.398438 96.75 135.746094 94.398438 135.746094 91.5 C 135.746094 88.828125 133.746094 86.648438 131.164062 86.316406 C 131.207031 86.050781 131.246094 85.78125 131.246094 85.5 C 131.246094 82.601562 128.898438 80.25 125.996094 80.25 C 124.449219 80.25 123.070312 80.933594 122.113281 81.996094 C 121.535156 79.285156 119.132812 77.25 116.246094 77.25 C 112.933594 77.25 110.246094 79.9375 110.246094 83.25 C 110.246094 83.535156 110.292969 83.8125 110.332031 84.085938 C 109.6875 83.570312 108.882812 83.25 107.996094 83.25 C 106.15625 83.25 104.628906 84.582031 104.316406 86.332031 C 104.046875 86.289062 103.777344 86.25 103.496094 86.25 C 100.597656 86.25 98.246094 88.601562 98.246094 91.5 C 98.246094 94.398438 100.597656 96.75 103.496094 96.75 C 106.398438 96.75 114.746094 96.75 114.746094 96.75 L 114.746094 97.5 L 125.246094 97.5 Z M 125.246094 96.75 "/>
<path style=" stroke:none;fill-rule:nonzero;fill:rgb(10.980392%,10.588235%,10.196079%);fill-opacity:1;" d="M 127.871094 90 C 127.664062 90 127.496094 89.832031 127.496094 89.625 C 127.496094 87.789062 128.988281 86.296875 130.824219 86.296875 C 130.875 86.3125 131.929688 86.296875 132.691406 86.503906 C 132.890625 86.554688 133.007812 86.761719 132.953125 86.960938 C 132.898438 87.160156 132.695312 87.28125 132.496094 87.226562 C 131.828125 87.046875 130.84375 87.046875 130.824219 87.046875 C 129.402344 87.046875 128.246094 88.203125 128.246094 89.625 C 128.246094 89.832031 128.078125 90 127.871094 90 Z M 117.746094 96 C 117.332031 96 116.996094 96.335938 116.996094 96.75 C 116.996094 97.164062 117.332031 97.5 117.746094 97.5 C 118.160156 97.5 118.496094 97.164062 118.496094 96.75 C 118.496094 96.335938 118.160156 96 117.746094 96 Z M 117.746094 96 "/>
<path style=" stroke:none;fill-rule:nonzero;fill:rgb(10.980392%,10.588235%,10.196079%);fill-opacity:1;" d="M 130.496094 97.5 L 125.246094 97.5 C 124.832031 97.5 124.496094 97.164062 124.496094 96.75 C 124.496094 96.335938 124.832031 96 125.246094 96 L 130.496094 96 C 132.976562 96 134.996094 93.980469 134.996094 91.5 C 134.996094 89.257812 133.308594 87.347656 131.070312 87.0625 C 130.867188 87.035156 130.6875 86.929688 130.566406 86.765625 C 130.445312 86.605469 130.394531 86.402344 130.425781 86.203125 C 130.460938 85.972656 130.496094 85.738281 130.496094 85.5 C 130.496094 83.019531 128.476562 81 125.996094 81 C 124.722656 81 123.539062 81.53125 122.667969 82.5 C 122.480469 82.707031 122.1875 82.796875 121.917969 82.722656 C 121.644531 82.648438 121.4375 82.429688 121.378906 82.152344 C 120.867188 79.746094 118.707031 78 116.246094 78 C 113.351562 78 110.996094 80.355469 110.996094 83.25 C 110.996094 83.464844 111.027344 83.671875 111.058594 83.878906 C 111.101562 84.179688 110.964844 84.535156 110.695312 84.6875 C 110.425781 84.839844 110.101562 84.863281 109.863281 84.671875 C 109.3125 84.234375 108.671875 84 107.996094 84 C 106.546875 84 105.308594 85.035156 105.050781 86.464844 C 104.980469 86.867188 104.609375 87.136719 104.199219 87.074219 C 103.96875 87.039062 103.738281 87 103.496094 87 C 101.015625 87 98.996094 89.019531 98.996094 91.5 C 98.996094 93.980469 101.015625 96 103.496094 96 L 114.746094 96 C 115.160156 96 115.496094 96.335938 115.496094 96.75 C 115.496094 97.164062 115.160156 97.5 114.746094 97.5 L 103.496094 97.5 C 100.1875 97.5 97.496094 94.808594 97.496094 91.5 C 97.496094 88.191406 100.1875 85.5 103.496094 85.5 C 103.585938 85.5 103.671875 85.503906 103.757812 85.507812 C 104.378906 83.730469 106.0625 82.5 107.996094 82.5 C 108.519531 82.5 109.03125 82.589844 109.511719 82.769531 C 109.761719 79.269531 112.6875 76.5 116.246094 76.5 C 118.992188 76.5 121.445312 78.191406 122.476562 80.660156 C 123.496094 79.914062 124.730469 79.5 125.996094 79.5 C 129.304688 79.5 131.996094 82.191406 131.996094 85.5 C 131.996094 85.570312 131.996094 85.640625 131.992188 85.714844 C 134.605469 86.386719 136.496094 88.753906 136.496094 91.5 C 136.496094 94.808594 133.804688 97.5 130.496094 97.5 Z M 130.496094 97.5 "/>
<path style=" stroke:none;fill-rule:nonzero;fill:rgb(10.980392%,10.588235%,10.196079%);fill-opacity:1;" d="M 122.246094 96 C 122.007812 96 120.984375 96 120.746094 96 C 120.332031 96 119.996094 96.335938 119.996094 96.75 C 119.996094 97.164062 120.332031 97.5 120.746094 97.5 C 120.984375 97.5 122.007812 97.5 122.246094 97.5 C 122.660156 97.5 122.996094 97.164062 122.996094 96.75 C 122.996094 96.335938 122.660156 96 122.246094 96 Z M 122.246094 96 "/>
<path style=" stroke:none;fill-rule:nonzero;fill:rgb(100%,100%,100%);fill-opacity:1;" d="M 78.75 33 L 81.75 33 C 82.164062 33 82.5 32.664062 82.5 32.25 C 82.5 31.835938 82.164062 31.5 81.75 31.5 L 78.75 31.5 C 78.335938 31.5 78 31.835938 78 32.25 C 78 32.664062 78.335938 33 78.75 33 Z M 66.75 27 L 81.75 27 C 82.164062 27 82.5 26.664062 82.5 26.25 C 82.5 25.835938 82.164062 25.5 81.75 25.5 L 66.75 25.5 C 66.335938 25.5 66 25.835938 66 26.25 C 66 26.664062 66.335938 27 66.75 27 Z M 84.75 27 L 86.25 27 C 86.664062 27 87 26.664062 87 26.25 C 87 25.835938 86.664062 25.5 86.25 25.5 L 84.75 25.5 C 84.335938 25.5 84 25.835938 84 26.25 C 84 26.664062 84.335938 27 84.75 27 Z M 60.75 33 L 65.25 33 C 65.664062 33 66 32.664062 66 32.25 C 66 31.835938 65.664062 31.5 65.25 31.5 L 60.75 31.5 C 60.335938 31.5 60 31.835938 60 32.25 C 60 32.664062 60.335938 33 60.75 33 Z M 68.296875 33 L 75.75 33 C 76.164062 33 76.5 32.664062 76.5 32.25 C 76.5 31.835938 76.164062 31.5 75.75 31.5 L 68.296875 31.5 C 67.882812 31.5 67.546875 31.835938 67.546875 32.25 C 67.546875 32.664062 67.882812 33 68.296875 33 Z M 72.75 30 L 90.75 30 C 91.164062 30 91.5 29.664062 91.5 29.25 C 91.5 28.835938 91.164062 28.5 90.75 28.5 L 72.75 28.5 C 72.335938 28.5 72 28.835938 72 29.25 C 72 29.664062 72.335938 30 72.75 30 Z M 62.25 30 L 69.75 30 C 70.164062 30 70.5 29.664062 70.5 29.25 C 70.5 28.835938 70.164062 28.5 69.75 28.5 L 62.25 28.5 C 61.835938 28.5 61.5 28.835938 61.5 29.25 C 61.5 29.664062 61.835938 30 62.25 30 Z M 62.25 30 "/>
<path style=" stroke:none;fill-rule:nonzero;fill:rgb(76.078433%,77.254903%,80.000001%);fill-opacity:1;" d="M 46.835938 90.75 L 48.5625 110.25 L 53.25 110.25 L 53.25 90.75 Z M 46.835938 90.75 "/>
<path style=" stroke:none;fill-rule:nonzero;fill:rgb(10.980392%,10.588235%,10.196079%);fill-opacity:1;" d="M 53.25 111 L 48.5625 111 C 48.175781 111 47.847656 110.703125 47.816406 110.316406 L 46.089844 90.816406 C 46.070312 90.605469 46.140625 90.398438 46.285156 90.246094 C 46.425781 90.089844 46.625 90 46.835938 90 L 53.25 90 C 53.664062 90 54 90.335938 54 90.75 L 54 110.25 C 54 110.664062 53.664062 111 53.25 111 Z M 49.25 109.5 L 52.5 109.5 L 52.5 91.5 L 47.65625 91.5 Z M 49.25 109.5 "/>
<path style=" stroke:none;fill-rule:nonzero;fill:rgb(76.078433%,77.254903%,80.000001%);fill-opacity:1;" d="M 68.175781 95.191406 L 63.75 110.25 L 59.25 110.25 L 62.070312 95.683594 L 58.558594 89.25 L 65.804688 89.25 L 67.890625 93.058594 C 68.234375 93.703125 68.339844 94.46875 68.175781 95.191406 Z M 68.175781 95.191406 "/>
<path style=" stroke:none;fill-rule:nonzero;fill:rgb(10.980392%,10.588235%,10.196079%);fill-opacity:1;" d="M 63.75 111 L 59.25 111 C 59.027344 111 58.8125 110.898438 58.671875 110.726562 C 58.527344 110.554688 58.46875 110.328125 58.511719 110.105469 L 61.28125 95.804688 L 57.902344 89.609375 C 57.777344 89.375 57.78125 89.09375 57.917969 88.867188 C 58.050781 88.640625 58.292969 88.5 58.558594 88.5 L 65.804688 88.5 C 66.078125 88.5 66.332031 88.648438 66.460938 88.890625 L 68.546875 92.699219 C 68.988281 93.515625 69.113281 94.460938 68.90625 95.355469 C 68.902344 95.371094 68.898438 95.386719 68.894531 95.398438 L 64.46875 110.460938 C 64.375 110.78125 64.082031 111 63.75 111 Z M 60.160156 109.5 L 63.1875 109.5 L 67.449219 95 C 67.566406 94.46875 67.484375 93.890625 67.230469 93.414062 L 65.359375 90 L 59.824219 90 L 62.726562 95.328125 C 62.8125 95.480469 62.839844 95.65625 62.808594 95.828125 Z M 60.160156 109.5 "/>
<path style=" stroke:none;fill-rule:nonzero;fill:rgb(76.078433%,77.254903%,80.000001%);fill-opacity:1;" d="M 46.175781 42.78125 C 44.527344 42.542969 43.015625 43.6875 42.78125 45.324219 L 42.492188 47.335938 L 48.445312 48.085938 L 48.71875 46.175781 C 48.953125 44.535156 47.8125 43.015625 46.175781 42.78125 Z M 46.175781 42.78125 "/>
<path style=" stroke:none;fill-rule:nonzero;fill:rgb(10.980392%,10.588235%,10.196079%);fill-opacity:1;" d="M 49.085938 48.921875 L 41.644531 47.984375 L 42.039062 45.21875 C 42.179688 44.222656 42.699219 43.34375 43.503906 42.742188 C 44.304688 42.144531 45.296875 41.890625 46.285156 42.039062 C 48.148438 42.304688 49.5 43.914062 49.5 45.75 C 49.5 45.925781 49.488281 46.101562 49.460938 46.28125 Z M 43.34375 46.6875 L 47.808594 47.25 L 47.976562 46.070312 C 48.152344 44.839844 47.296875 43.699219 46.070312 43.523438 C 45.480469 43.441406 44.882812 43.589844 44.40625 43.945312 C 43.921875 44.308594 43.609375 44.835938 43.527344 45.433594 Z M 43.34375 46.6875 "/>
<path style=" stroke:none;fill-rule:nonzero;fill:rgb(10.980392%,10.588235%,10.196079%);fill-opacity:1;" d="M 69 65.25 L 49.5 65.25 C 49.5 65.25 51.800781 52.234375 51.898438 51.75 C 52.59375 48.328125 55.621094 45.75 59.25 45.75 C 62.878906 45.75 65.90625 48.328125 66.601562 51.75 C 66.699219 52.234375 69 65.25 69 65.25 Z M 69 65.25 "/>
<path style=" stroke:none;fill-rule:nonzero;fill:rgb(10.980392%,10.588235%,10.196079%);fill-opacity:1;" d="M 69 66 L 49.5 66 C 49.28125 66 49.066406 65.902344 48.925781 65.730469 C 48.78125 65.5625 48.722656 65.335938 48.761719 65.121094 C 48.855469 64.589844 51.066406 52.089844 51.164062 51.601562 C 51.941406 47.777344 55.34375 45 59.25 45 C 63.15625 45 66.558594 47.777344 67.335938 51.601562 C 67.433594 52.089844 69.644531 64.585938 69.738281 65.117188 C 69.777344 65.335938 69.71875 65.558594 69.574219 65.730469 C 69.433594 65.902344 69.21875 66 69 66 Z M 50.394531 64.5 L 68.109375 64.5 C 67.285156 59.847656 65.9375 52.253906 65.867188 51.898438 C 65.230469 48.769531 62.449219 46.5 59.25 46.5 C 56.050781 46.5 53.269531 48.769531 52.636719 51.898438 C 52.5625 52.25 51.21875 59.847656 50.394531 64.5 Z M 50.394531 64.5 "/>
<path style=" stroke:none;fill-rule:nonzero;fill:rgb(76.078433%,77.254903%,80.000001%);fill-opacity:1;" d="M 56.4375 57.75 L 56.441406 63.304688 C 56.871094 64.441406 57.96875 65.25 59.25 65.25 C 60.550781 65.25 61.648438 64.414062 62.066406 63.253906 L 62.0625 57.75 Z M 56.4375 57.75 "/>
<path style=" stroke:none;fill-rule:nonzero;fill:rgb(10.980392%,10.588235%,10.196079%);fill-opacity:1;" d="M 59.25 65.8125 C 57.777344 65.8125 56.4375 64.886719 55.914062 63.503906 L 55.878906 63.308594 L 55.875 57.1875 L 62.625 57.1875 L 62.59375 63.441406 C 62.085938 64.859375 60.742188 65.8125 59.25 65.8125 Z M 57.003906 63.199219 C 57.386719 64.09375 58.273438 64.6875 59.25 64.6875 C 60.238281 64.6875 61.132812 64.074219 61.503906 63.148438 L 61.5 58.3125 L 57 58.3125 Z M 57.003906 63.199219 "/>
<path style=" stroke:none;fill-rule:nonzero;fill:rgb(76.078433%,77.254903%,80.000001%);fill-opacity:1;" d="M 70.425781 39.867188 C 68.832031 40.320312 67.910156 41.980469 68.367188 43.574219 L 69.058594 45.800781 L 74.800781 44.09375 L 74.132812 41.925781 C 73.679688 40.332031 72.019531 39.40625 70.425781 39.867188 Z M 70.425781 39.867188 "/>
<path style=" stroke:none;fill-rule:nonzero;fill:rgb(10.980392%,10.588235%,10.196079%);fill-opacity:1;" d="M 69.058594 46.550781 C 68.734375 46.550781 68.441406 46.34375 68.339844 46.023438 L 67.648438 43.796875 C 67.078125 41.792969 68.230469 39.710938 70.21875 39.144531 C 71.183594 38.867188 72.195312 38.984375 73.074219 39.472656 C 73.945312 39.957031 74.578125 40.753906 74.855469 41.71875 L 75.515625 43.871094 C 75.574219 44.0625 75.554688 44.269531 75.460938 44.445312 C 75.367188 44.625 75.207031 44.753906 75.011719 44.8125 L 69.269531 46.519531 C 69.199219 46.539062 69.128906 46.550781 69.058594 46.550781 Z M 71.253906 40.5 C 71.046875 40.5 70.835938 40.527344 70.632812 40.585938 C 69.441406 40.929688 68.746094 42.175781 69.085938 43.371094 L 69.554688 44.871094 L 73.863281 43.589844 L 73.417969 42.148438 C 73.25 41.554688 72.867188 41.074219 72.34375 40.785156 C 72.003906 40.59375 71.632812 40.5 71.253906 40.5 Z M 71.253906 40.5 "/>
<path style=" stroke:none;fill-rule:nonzero;fill:rgb(76.078433%,77.254903%,80.000001%);fill-opacity:1;" d="M 54.5625 52.257812 L 54.5625 55.5 C 54.5625 57.765625 55.792969 60.5625 59.25 60.5625 C 62.941406 60.5625 63.929688 57.261719 63.933594 55.53125 C 63.9375 53.8125 63.9375 52.632812 63.9375 52.257812 C 63.484375 52.097656 61.761719 51.5625 59.257812 51.5625 C 59.257812 51.5625 59.253906 51.5625 59.25 51.5625 C 56.742188 51.5625 55.015625 52.097656 54.5625 52.257812 Z M 54.5625 52.257812 "/>
<path style=" stroke:none;fill-rule:nonzero;fill:rgb(10.980392%,10.588235%,10.196079%);fill-opacity:1;" d="M 59.25 61.125 C 55.621094 61.125 54 58.300781 54 55.5 L 54 52.257812 C 54 52.019531 54.152344 51.804688 54.375 51.726562 C 54.863281 51.554688 56.65625 51 59.25 51 C 61.84375 51 63.636719 51.554688 64.125 51.726562 C 64.347656 51.804688 64.5 52.019531 64.5 52.257812 L 64.496094 55.53125 C 64.492188 57.78125 63.09375 61.125 59.25 61.125 Z M 55.125 52.667969 L 55.125 55.5 C 55.125 57.574219 56.207031 60 59.25 60 C 62.503906 60 63.367188 57.078125 63.371094 55.53125 L 63.375 52.667969 C 62.660156 52.460938 61.214844 52.125 59.257812 52.125 C 57.289062 52.125 55.839844 52.460938 55.125 52.667969 Z M 55.125 52.667969 "/>
<path style=" stroke:none;fill-rule:nonzero;fill:rgb(100%,15.686275%,42.352942%);fill-opacity:1;" d="M 43.324219 94.085938 C 44.0625 94.34375 46.285156 94.949219 51 94.949219 C 61.976562 94.949219 66.953125 89.800781 67.839844 88.769531 C 67.929688 88.667969 67.949219 88.554688 67.949219 88.484375 C 67.953125 88.417969 67.9375 88.316406 67.867188 88.214844 L 61.59375 79.902344 C 61.332031 79.558594 61.3125 79.09375 61.53125 78.722656 L 76.558594 53.898438 C 76.949219 53.257812 77.050781 52.472656 76.84375 51.742188 L 74.515625 44.179688 L 69.347656 45.714844 L 71.191406 51.652344 C 71.28125 51.941406 71.242188 52.253906 71.089844 52.507812 L 65.957031 60.984375 C 65.800781 61.242188 65.542969 61.421875 65.246094 61.472656 L 62.550781 61.96875 L 62.550781 62.25 C 62.550781 64.070312 61.070312 65.550781 59.25 65.550781 C 57.738281 65.550781 56.464844 64.53125 56.074219 63.144531 L 54.375 63.453125 C 54 63.519531 53.621094 63.382812 53.378906 63.085938 L 47.386719 55.808594 C 47.199219 55.582031 47.113281 55.285156 47.15625 54.992188 L 48.105469 48.34375 L 42.75 47.667969 L 41.578125 55.863281 C 41.472656 56.617188 41.683594 57.382812 42.167969 57.960938 L 50.941406 68.617188 C 51.21875 68.957031 51.257812 69.433594 51.039062 69.8125 L 47.410156 76.085938 C 46.453125 77.621094 45.816406 79.269531 45.496094 81.015625 C 45.496094 81.023438 43.734375 90.296875 43.078125 93.574219 C 43.070312 93.609375 43.054688 93.703125 43.054688 93.773438 C 43.050781 93.878906 43.160156 94.027344 43.324219 94.085938 Z M 43.324219 94.085938 "/>
<path style=" stroke:none;fill-rule:nonzero;fill:rgb(10.980392%,10.588235%,10.196079%);fill-opacity:1;" d="M 73.816406 45.480469 L 75.832031 52.035156 C 75.960938 52.480469 75.898438 52.960938 75.660156 53.351562 L 69.570312 63.414062 L 60.632812 78.179688 C 60.1875 78.914062 60.234375 79.847656 60.753906 80.53125 L 66.71875 88.441406 C 65.308594 89.898438 60.5625 93.898438 51 93.898438 C 47.296875 93.898438 45.222656 93.527344 44.207031 93.257812 C 44.925781 89.640625 46.507812 81.308594 46.527344 81.203125 C 46.824219 79.589844 47.410156 78.066406 48.316406 76.613281 L 51.945312 70.335938 C 52.382812 69.578125 52.304688 68.625 51.75 67.949219 L 42.976562 57.292969 C 42.683594 56.941406 42.550781 56.472656 42.617188 56.011719 L 43.640625 48.839844 L 46.917969 49.253906 L 46.117188 54.84375 C 46.035156 55.429688 46.203125 56.019531 46.578125 56.476562 L 52.570312 63.753906 C 52.972656 64.242188 53.570312 64.519531 54.191406 64.519531 C 54.316406 64.519531 54.441406 64.507812 54.566406 64.484375 L 55.433594 64.328125 C 56.171875 65.679688 57.605469 66.597656 59.253906 66.597656 C 61.449219 66.597656 63.269531 64.964844 63.5625 62.851562 L 65.4375 62.507812 C 66.027344 62.402344 66.546875 62.046875 66.855469 61.53125 L 71.988281 53.050781 C 72.296875 52.539062 72.375 51.914062 72.195312 51.339844 L 70.664062 46.414062 L 73.816406 45.480469 M 75.210938 42.875 L 68.027344 45.011719 L 70.191406 51.96875 L 65.058594 60.445312 L 61.5 61.089844 C 61.5 61.089844 61.5 61.847656 61.5 62.25 C 61.5 63.492188 60.492188 64.5 59.25 64.5 C 58.007812 64.5 57 63.492188 57 62.25 L 57 61.910156 L 54.1875 62.421875 L 48.195312 55.144531 L 49.296875 47.4375 L 41.855469 46.5 L 40.539062 55.71875 C 40.386719 56.761719 40.6875 57.824219 41.355469 58.632812 L 50.128906 69.285156 L 46.5 75.5625 C 45.492188 77.171875 44.800781 78.960938 44.460938 80.828125 C 44.460938 80.828125 42.703125 90.09375 42.042969 93.371094 C 42.027344 93.464844 42 93.640625 42 93.773438 C 42 94.335938 42.398438 94.875 42.976562 95.078125 C 44.179688 95.5 46.667969 96 51 96 C 61.488281 96 66.902344 91.472656 68.636719 89.453125 C 68.871094 89.179688 68.996094 88.839844 69 88.5 C 69.003906 88.1875 68.910156 87.871094 68.71875 87.601562 L 62.429688 79.265625 L 71.371094 64.5 L 77.457031 54.441406 C 77.996094 53.550781 78.140625 52.46875 77.851562 51.453125 Z M 75.210938 42.875 "/>
<path style=" stroke:none;fill-rule:nonzero;fill:rgb(76.078433%,77.254903%,80.000001%);fill-opacity:1;" d="M 72.828125 79.390625 C 72.453125 81.003906 73.460938 82.613281 75.074219 82.988281 C 75.300781 83.039062 75.53125 83.0625 75.753906 83.0625 C 77.117188 83.0625 78.351562 82.125 78.671875 80.738281 L 79.207031 78.425781 L 73.324219 77.234375 Z M 72.828125 79.390625 "/>
<path style=" stroke:none;fill-rule:nonzero;fill:rgb(10.980392%,10.588235%,10.196079%);fill-opacity:1;" d="M 75.753906 83.8125 C 75.472656 83.8125 75.1875 83.78125 74.910156 83.71875 C 73.175781 83.316406 72 81.769531 72 80.0625 C 72 79.785156 72.03125 79.503906 72.09375 79.21875 L 72.59375 77.0625 C 72.683594 76.667969 73.070312 76.414062 73.472656 76.496094 L 79.355469 77.699219 C 79.554688 77.738281 79.726562 77.859375 79.835938 78.027344 C 79.945312 78.195312 79.980469 78.402344 79.933594 78.601562 L 79.402344 80.90625 C 79.007812 82.621094 77.507812 83.8125 75.753906 83.8125 Z M 73.890625 78.113281 L 73.558594 79.558594 C 73.277344 80.765625 74.035156 81.976562 75.242188 82.257812 C 76.429688 82.519531 77.664062 81.761719 77.941406 80.570312 L 78.300781 79.015625 Z M 73.890625 78.113281 "/>
<path style=" stroke:none;fill-rule:nonzero;fill:rgb(76.078433%,77.254903%,80.000001%);fill-opacity:1;" d="M 111.023438 38.351562 C 109.414062 37.921875 107.777344 38.878906 107.351562 40.476562 L 106.761719 42.6875 L 112.601562 44.074219 L 113.152344 42.023438 C 113.574219 40.421875 112.625 38.78125 111.023438 38.351562 Z M 111.023438 38.351562 "/>
<path style=" stroke:none;fill-rule:nonzero;fill:rgb(10.980392%,10.588235%,10.196079%);fill-opacity:1;" d="M 113.144531 44.953125 L 105.855469 43.167969 L 106.625 40.28125 C 106.886719 39.3125 107.503906 38.503906 108.371094 38 C 109.234375 37.5 110.242188 37.363281 111.214844 37.625 C 112.910156 38.078125 114.023438 39.628906 114 41.304688 C 113.996094 41.605469 113.953125 41.910156 113.875 42.214844 Z M 107.703125 42.078125 L 112.074219 43.144531 L 112.421875 41.832031 C 112.742188 40.632812 112.027344 39.394531 110.828125 39.078125 C 110.242188 38.921875 109.640625 39 109.121094 39.300781 C 108.601562 39.601562 108.230469 40.085938 108.074219 40.671875 Z M 107.703125 42.078125 "/>
<path style=" stroke:none;fill-rule:nonzero;fill:rgb(76.078433%,77.254903%,80.000001%);fill-opacity:1;" d="M 93 62.25 C 94.824219 62.25 96.324219 60.976562 96.667969 59.25 C 96.671875 59.25 96.679688 59.246094 96.679688 59.246094 L 95.59375 53.25 L 88.46875 53.25 L 89.734375 60.269531 C 90.375 61.460938 91.609375 62.25 93 62.25 Z M 93 62.25 "/>
<path style=" stroke:none;fill-rule:nonzero;fill:rgb(10.980392%,10.588235%,10.196079%);fill-opacity:1;" d="M 93 62.8125 C 91.441406 62.8125 90 61.941406 89.238281 60.539062 L 89.179688 60.371094 L 87.796875 52.6875 L 96.058594 52.6875 L 97.339844 59.707031 L 97.125 59.742188 C 96.589844 61.542969 94.914062 62.8125 93 62.8125 Z M 90.273438 60.078125 C 90.84375 61.074219 91.882812 61.6875 93 61.6875 C 94.511719 61.6875 95.78125 60.671875 96.101562 59.207031 L 95.121094 53.8125 L 89.140625 53.8125 Z M 90.273438 60.078125 "/>
<path style=" stroke:none;fill-rule:nonzero;fill:rgb(76.078433%,77.254903%,80.000001%);fill-opacity:1;" d="M 91.6875 45.1875 C 88.269531 45.1875 85.5 47.957031 85.5 51.375 C 85.5 54.792969 88.269531 57.5625 91.6875 57.5625 C 95.105469 57.5625 97.875 54.792969 97.875 51.375 C 97.875 47.957031 95.105469 45.1875 91.6875 45.1875 Z M 91.6875 45.1875 "/>
<path style=" stroke:none;fill-rule:nonzero;fill:rgb(10.980392%,10.588235%,10.196079%);fill-opacity:1;" d="M 91.6875 58.125 C 87.964844 58.125 84.9375 55.097656 84.9375 51.375 C 84.9375 47.652344 87.964844 44.625 91.6875 44.625 C 95.410156 44.625 98.4375 47.652344 98.4375 51.375 C 98.4375 55.097656 95.410156 58.125 91.6875 58.125 Z M 91.6875 45.75 C 88.585938 45.75 86.0625 48.273438 86.0625 51.375 C 86.0625 54.476562 88.585938 57 91.6875 57 C 94.789062 57 97.3125 54.476562 97.3125 51.375 C 97.3125 48.273438 94.789062 45.75 91.6875 45.75 Z M 91.6875 45.75 "/>
<path style=" stroke:none;fill-rule:nonzero;fill:rgb(10.980392%,10.588235%,10.196079%);fill-opacity:1;" d="M 98.699219 48.824219 C 98.257812 46.265625 97.757812 43.378906 93.414062 43.175781 L 92.507812 42.011719 L 89.828125 42.472656 L 89.777344 42.484375 C 86.972656 43.210938 84 45.460938 84 49.5 C 84 49.996094 84.046875 50.515625 84.140625 51.066406 L 84.488281 53.074219 L 86.234375 54.191406 L 87.660156 55.925781 L 86.703125 50.386719 L 93.785156 46.699219 L 95.972656 48.542969 L 96.960938 54.261719 L 97.761719 52.164062 L 99 50.558594 Z M 98.699219 48.824219 "/>
<path style=" stroke:none;fill-rule:nonzero;fill:rgb(9.803922%,74.117649%,99.607843%);fill-opacity:1;" d="M 86.25 80.25 L 99.878906 80.25 L 101.273438 66.546875 L 109.726562 54.195312 C 109.917969 53.914062 110.0625 53.605469 110.152344 53.273438 L 112.601562 44.074219 L 106.761719 42.691406 L 104.414062 51.335938 L 99.21875 58.925781 L 98.886719 58.96875 C 98.171875 59.0625 97.429688 59.15625 96.667969 59.25 C 96.324219 60.976562 94.824219 62.25 93 62.25 C 91.535156 62.25 90.222656 61.390625 89.613281 60.089844 L 88.777344 60.1875 C 87.273438 60.359375 86.117188 60.496094 85.59375 60.5625 C 84.839844 60.65625 84.0625 60.816406 83.480469 61.34375 L 75.980469 68.097656 C 75.527344 68.503906 75.214844 69.039062 75.074219 69.636719 L 73.320312 77.230469 L 79.203125 78.433594 L 80.714844 71.890625 L 86.25 67.195312 Z M 86.25 80.25 "/>
<path style=" stroke:none;fill-rule:nonzero;fill:rgb(12.156863%,27.058825%,58.039218%);fill-opacity:1;" d="M 86.613281 80.25 L 79.371094 92.628906 C 79.039062 93.140625 78.839844 93.703125 78.773438 94.28125 L 75.75 110.257812 L 81.792969 110.25 L 86.265625 95.792969 L 93.066406 87.207031 L 98.347656 95.46875 L 99.683594 110.25 L 105.746094 110.25 L 105.714844 93.988281 C 105.667969 93.640625 105.570312 93.296875 105.425781 92.972656 L 99.769531 80.25 Z M 86.613281 80.25 "/>
<path style=" stroke:none;fill-rule:nonzero;fill:rgb(10.980392%,10.588235%,10.196079%);fill-opacity:1;" d="M 107.742188 44.246094 L 110.949219 45.03125 L 108.847656 52.917969 C 108.796875 53.101562 108.71875 53.273438 108.609375 53.429688 L 100.265625 65.625 C 100.070312 65.914062 99.945312 66.25 99.910156 66.597656 L 98.535156 80.113281 C 98.5 80.476562 98.558594 80.84375 98.707031 81.179688 L 104.191406 93.523438 C 104.273438 93.707031 104.332031 93.898438 104.363281 94.09375 L 104.394531 108.898438 L 100.917969 108.898438 L 99.707031 95.527344 C 99.675781 95.191406 99.566406 94.867188 99.382812 94.585938 L 94.765625 87.367188 C 94.402344 86.792969 93.78125 86.433594 93.101562 86.398438 C 93.070312 86.402344 93.035156 86.398438 93 86.398438 C 92.359375 86.398438 91.753906 86.691406 91.355469 87.195312 L 85.207031 94.953125 C 85.042969 95.160156 84.921875 95.394531 84.84375 95.644531 L 80.792969 108.898438 L 77.378906 108.898438 L 80.089844 94.585938 C 80.097656 94.535156 80.109375 94.484375 80.113281 94.433594 C 80.152344 94.0625 80.28125 93.703125 80.484375 93.394531 C 80.503906 93.367188 80.519531 93.335938 80.535156 93.308594 L 87.3125 81.726562 C 87.5 81.40625 87.601562 81.039062 87.601562 80.664062 L 87.601562 68.8125 C 87.601562 67.996094 87.125 67.25 86.382812 66.90625 C 86.101562 66.777344 85.800781 66.714844 85.5 66.714844 C 85.011719 66.714844 84.527344 66.886719 84.140625 67.214844 L 80.03125 70.699219 C 79.6875 70.992188 79.445312 71.386719 79.34375 71.828125 L 78.1875 76.847656 L 74.953125 76.1875 L 76.394531 69.945312 C 76.46875 69.617188 76.640625 69.324219 76.882812 69.101562 L 84.394531 62.34375 C 84.632812 62.125 85.042969 61.992188 85.765625 61.902344 C 86.25 61.839844 87.292969 61.71875 88.648438 61.5625 L 88.914062 61.53125 C 89.851562 62.800781 91.355469 63.601562 93 63.601562 C 95.128906 63.601562 96.933594 62.324219 97.699219 60.480469 C 98.164062 60.421875 98.617188 60.363281 99.058594 60.308594 C 99.652344 60.230469 100.1875 59.902344 100.523438 59.410156 L 105.527344 52.097656 C 105.660156 51.902344 105.761719 51.683594 105.820312 51.453125 L 107.742188 44.246094 M 106.242188 41.71875 L 103.792969 50.910156 L 98.792969 58.222656 C 97.898438 58.339844 96.953125 58.457031 95.992188 58.574219 C 95.949219 60.195312 94.628906 61.5 93 61.5 C 91.613281 61.5 90.457031 60.554688 90.113281 59.277344 C 87.929688 59.527344 86.179688 59.730469 85.5 59.816406 C 84.605469 59.929688 83.695312 60.136719 82.976562 60.789062 L 75.476562 67.539062 C 74.910156 68.054688 74.515625 68.722656 74.34375 69.46875 L 72.417969 77.8125 L 79.773438 79.3125 L 81.390625 72.300781 L 85.5 68.8125 L 85.5 80.667969 L 78.722656 92.25 C 78.34375 92.835938 78.105469 93.503906 78.027344 94.195312 L 75.011719 110.117188 C 75.003906 110.160156 75 110.207031 75 110.25 C 75 110.65625 75.328125 111 75.75 111 L 81.792969 111 C 82.125 111 82.417969 110.78125 82.511719 110.464844 L 86.851562 96.257812 L 93 88.5 L 97.617188 95.71875 L 98.9375 110.320312 C 98.972656 110.703125 99.296875 111 99.683594 111 L 105.75 111 C 106.164062 111 106.5 110.664062 106.5 110.25 L 106.464844 93.941406 C 106.410156 93.503906 106.292969 93.078125 106.113281 92.671875 L 100.628906 80.328125 L 102 66.8125 L 110.34375 54.617188 C 110.585938 54.265625 110.761719 53.878906 110.875 53.464844 L 113.53125 43.5 Z M 106.242188 41.71875 "/>
<path style=" stroke:none;fill-rule:nonzero;fill:rgb(10.980392%,10.588235%,10.196079%);fill-opacity:1;" d="M 86.25 79.5 L 99.75 79.5 L 99.75 81 L 86.25 81 Z M 86.25 79.5 "/>
</g>
</svg>
