<?xml version="1.0" encoding="UTF-8"?>
<svg xmlns="http://www.w3.org/2000/svg" xmlns:xlink="http://www.w3.org/1999/xlink" viewBox="0 0 48 48" width="48px" height="48px">
<g id="surface3583897">
<path style=" stroke:none;fill-rule:nonzero;fill:rgb(100%,100%,100%);fill-opacity:1;" d="M 24 4 C 12.972656 4 4 12.972656 4 24 C 4 35.027344 12.972656 44 24 44 C 30.347656 44 36.015625 41.023438 39.675781 36.402344 C 40.011719 35.980469 40.097656 35.414062 39.898438 34.914062 C 39.703125 34.414062 39.253906 34.058594 38.71875 33.980469 C 38.1875 33.902344 37.65625 34.113281 37.324219 34.539062 C 34.207031 38.472656 29.414062 41 24 41 C 14.59375 41 7 33.40625 7 24 C 7 14.59375 14.59375 7 24 7 C 29.414062 7 34.207031 9.527344 37.324219 13.460938 C 37.65625 13.886719 38.1875 14.097656 38.71875 14.019531 C 39.253906 13.941406 39.703125 13.585938 39.898438 13.085938 C 40.097656 12.585938 40.011719 12.019531 39.675781 11.597656 C 36.015625 6.976562 30.347656 4 24 4 Z M 36.484375 16.484375 C 35.875 16.484375 35.324219 16.855469 35.09375 17.421875 C 34.863281 17.988281 35 18.636719 35.4375 19.058594 L 38.875 22.496094 L 18.5 22.480469 C 17.960938 22.472656 17.457031 22.753906 17.183594 23.222656 C 16.910156 23.691406 16.910156 24.265625 17.183594 24.734375 C 17.453125 25.203125 17.957031 25.488281 18.496094 25.480469 L 38.878906 25.5 L 35.4375 28.941406 C 35.046875 29.316406 34.890625 29.875 35.027344 30.398438 C 35.164062 30.925781 35.574219 31.335938 36.101562 31.472656 C 36.625 31.609375 37.183594 31.453125 37.5625 31.0625 L 43.5625 25.0625 C 44.144531 24.476562 44.144531 23.523438 43.5625 22.941406 L 37.5625 16.941406 C 37.277344 16.648438 36.890625 16.484375 36.484375 16.484375 Z M 36.484375 16.484375 "/>
</g>
</svg>
