<?xml version="1.0" encoding="UTF-8"?>
<svg xmlns="http://www.w3.org/2000/svg" xmlns:xlink="http://www.w3.org/1999/xlink" viewBox="0 0 96 96" width="96px" height="96px">
<g id="surface33845527">
<path style=" stroke:none;fill-rule:nonzero;fill:rgb(100%,100%,100%);fill-opacity:1;" d="M 54 28 C 54 31.398438 51.398438 34 48 34 C 44.601562 34 42 31.398438 42 28 L 38 24 C 38 20.601562 44.601562 16 48 16 C 51.398438 16 58 20.601562 58 24 Z M 54 28 "/>
<path style=" stroke:none;fill-rule:nonzero;fill:rgb(100%,100%,100%);fill-opacity:1;" d="M 82 58 C 81.800781 58 81.601562 58 81.398438 57.800781 L 68.199219 53.398438 L 66 40.398438 C 65.800781 39.398438 66.601562 38.199219 67.601562 38 C 68.601562 37.800781 69.800781 38.601562 70 39.601562 L 71.800781 50.398438 L 82.601562 54 C 83.601562 54.398438 84.199219 55.398438 83.800781 56.601562 C 83.601562 57.398438 82.800781 58 82 58 Z M 82 84 C 81.601562 84 81.398438 84 81.199219 83.800781 L 72.398438 79.398438 L 68.199219 66.601562 C 67.800781 65.601562 68.398438 64.398438 69.398438 64 C 70.398438 63.601562 71.601562 64.199219 72 65.199219 L 75.800781 76.398438 L 83 80 C 84 80.398438 84.398438 81.601562 83.800781 82.601562 C 83.398438 83.601562 82.800781 84 82 84 Z M 14 58 C 13.199219 58 12.398438 57.398438 12.199219 56.601562 C 11.800781 55.601562 12.398438 54.398438 13.398438 54 L 24.199219 50.398438 L 26 39.601562 C 26.199219 38.601562 27.199219 37.800781 28.398438 38 C 29.398438 38.199219 30.199219 39.199219 30 40.398438 L 27.800781 53.601562 L 14.601562 58 C 14.398438 58 14.199219 58 14 58 Z M 14 84 C 13.199219 84 12.601562 83.601562 12.199219 82.800781 C 11.800781 81.800781 12.199219 80.601562 13 80.199219 L 20.199219 76.601562 L 24 65.398438 C 24.398438 64.398438 25.398438 63.800781 26.601562 64.199219 C 27.601562 64.601562 28.199219 65.601562 27.800781 66.800781 L 23.601562 79.601562 L 14.800781 84 C 14.601562 84 14.398438 84 14 84 Z M 14 84 "/>
<path style=" stroke:none;fill-rule:nonzero;fill:rgb(100%,100%,100%);fill-opacity:1;" d="M 75.199219 38 L 48 38 C 46.800781 38 46 37.199219 46 36 C 46 34.800781 46.800781 34 48 34 L 72.800781 34 L 78.199219 25 C 78.800781 24 80 23.800781 81 24.398438 C 82 25 82.199219 26.199219 81.601562 27.199219 Z M 75.199219 38 "/>
<path style=" stroke:none;fill-rule:nonzero;fill:rgb(100%,100%,100%);fill-opacity:1;" d="M 48 37.992188 L 20.800781 37.992188 L 14.199219 26.992188 C 13.800781 25.992188 14 24.792969 15 24.195312 C 16 23.792969 17.199219 23.992188 17.800781 24.992188 L 23.199219 33.992188 L 48 33.992188 C 49.199219 33.992188 50 34.792969 50 35.992188 C 50 37.195312 49.199219 37.992188 48 37.992188 Z M 46 22 C 45.398438 22 45 21.800781 44.601562 21.398438 C 44.398438 21.199219 41 18 34 18 C 32.800781 18 32 17.199219 32 16 C 32 14.800781 32.800781 14 34 14 C 42.800781 14 47.199219 18.398438 47.398438 18.601562 C 48.199219 19.398438 48.199219 20.601562 47.398438 21.398438 C 47 21.800781 46.601562 22 46 22 Z M 46 22 "/>
<path style=" stroke:none;fill-rule:nonzero;fill:rgb(100%,100%,100%);fill-opacity:1;" d="M 50 22 C 49.398438 22 49 21.800781 48.601562 21.398438 C 47.800781 20.601562 47.800781 19.398438 48.601562 18.601562 C 48.800781 18.398438 53.199219 14 62 14 C 63.199219 14 64 14.800781 64 16 C 64 17.199219 63.199219 18 62 18 C 55 18 51.601562 21.199219 51.398438 21.398438 C 51 21.800781 50.601562 22 50 22 Z M 50 22 "/>
<path style=" stroke:none;fill-rule:nonzero;fill:rgb(71.764708%,10.980392%,10.980392%);fill-opacity:1;" d="M 46 40 L 50 40 L 50 84 L 46 84 Z M 46 40 "/>
<path style=" stroke:none;fill-rule:nonzero;fill:rgb(100%,23.921569%,0%);fill-opacity:1;" d="M 30 34 C 25.199219 38.800781 22 45.601562 22 54 C 22 71.601562 37.398438 84 46 84 L 48 38 L 50 84 C 58.601562 84 74 71.601562 74 54 C 74 45.601562 70.800781 38.800781 66 34 L 58 34 L 48 36 L 38 34 Z M 30 34 "/>
<path style=" stroke:none;fill-rule:nonzero;fill:rgb(24.313726%,15.294118%,13.725491%);fill-opacity:1;" d="M 48 44 C 53.601562 44 58 39.601562 58 34 L 38 34 C 38 39.601562 42.398438 44 48 44 Z M 48 44 "/>
<path style=" stroke:none;fill-rule:nonzero;fill:rgb(24.313726%,15.294118%,13.725491%);fill-opacity:1;" d="M 64 57 C 64 59.761719 61.761719 62 59 62 C 56.238281 62 54 59.761719 54 57 C 54 54.238281 56.238281 52 59 52 C 61.761719 52 64 54.238281 64 57 Z M 64 57 "/>
<path style=" stroke:none;fill-rule:nonzero;fill:rgb(24.313726%,15.294118%,13.725491%);fill-opacity:1;" d="M 42 57 C 42 59.761719 39.761719 62 37 62 C 34.238281 62 32 59.761719 32 57 C 32 54.238281 34.238281 52 37 52 C 39.761719 52 42 54.238281 42 57 Z M 42 57 "/>
<path style=" stroke:none;fill-rule:nonzero;fill:rgb(24.313726%,15.294118%,13.725491%);fill-opacity:1;" d="M 26.601562 44.800781 C 25.601562 46.800781 25.800781 49 27.398438 49.800781 C 28.800781 50.601562 30.800781 49.601562 32 47.601562 C 33 45.601562 32.800781 43.398438 31.199219 42.601562 C 29.601562 41.800781 27.601562 42.800781 26.601562 44.800781 Z M 26.601562 44.800781 "/>
<path style=" stroke:none;fill-rule:nonzero;fill:rgb(24.313726%,15.294118%,13.725491%);fill-opacity:1;" d="M 69.800781 44.800781 C 68.800781 42.800781 66.800781 42 65.199219 42.601562 C 63.601562 43.199219 63.398438 45.601562 64.398438 47.601562 C 65.398438 49.601562 67.398438 50.398438 69 49.800781 C 70.601562 49 71 46.800781 69.800781 44.800781 Z M 69.800781 44.800781 "/>
<path style=" stroke:none;fill-rule:nonzero;fill:rgb(24.313726%,15.294118%,13.725491%);fill-opacity:1;" d="M 58.800781 75.199219 C 60 76.398438 62.199219 76 63.800781 74.398438 C 65.398438 72.800781 65.601562 70.601562 64.601562 69.398438 C 63.601562 68.199219 61.199219 68.601562 59.601562 70.199219 C 58 71.800781 57.601562 74.199219 58.800781 75.199219 Z M 58.800781 75.199219 "/>
<path style=" stroke:none;fill-rule:nonzero;fill:rgb(24.313726%,15.294118%,13.725491%);fill-opacity:1;" d="M 38.398438 75.199219 C 39.601562 74 39.199219 71.800781 37.601562 70.199219 C 36 68.601562 33.800781 68.398438 32.601562 69.398438 C 31.398438 70.398438 31.800781 72.800781 33.398438 74.398438 C 35 76 37.199219 76.398438 38.398438 75.199219 Z M 38.398438 75.199219 "/>
<path style=" stroke:none;fill-rule:nonzero;fill:rgb(100%,100%,100%);fill-opacity:1;" d="M 30 34 C 30 34 32 28 38 24 C 38 24 54 24 58 24 C 64 28 66 34 66 34 Z M 30 34 "/>
<path style=" stroke:none;fill-rule:nonzero;fill:rgb(63.137257%,53.333336%,49.803922%);fill-opacity:1;" d="M 56 30 L 63.925781 30 C 62.660156 28.09375 60.757812 25.839844 58 24 C 57.136719 24 53.699219 24 52 24 L 52 26 C 52 28.210938 53.789062 30 56 30 Z M 56 30 "/>
<path style=" stroke:none;fill-rule:nonzero;fill:rgb(63.137257%,53.333336%,49.803922%);fill-opacity:1;" d="M 32.074219 30 L 40 30 C 42.210938 30 44 28.210938 44 26 L 44 24 C 41.644531 24 38 24 38 24 C 35.242188 25.839844 33.339844 28.09375 32.074219 30 Z M 32.074219 30 "/>
</g>
</svg>
