<?xml version="1.0" encoding="UTF-8"?>
<svg xmlns="http://www.w3.org/2000/svg" xmlns:xlink="http://www.w3.org/1999/xlink" viewBox="0 0 48 48" width="48px" height="48px">
<g id="surface37901987">
<path style=" stroke:none;fill-rule:nonzero;fill:rgb(100%,100%,100%);fill-opacity:1;" d="M 14.375 7.011719 C 11.441406 7.011719 8.507812 8.136719 6.285156 10.382812 C 1.835938 14.871094 1.835938 22.175781 6.285156 26.667969 L 22.179688 42.707031 C 22.195312 42.726562 22.214844 42.742188 22.234375 42.757812 C 23.578125 43.992188 25.492188 44.070312 26.816406 43.265625 C 27.625 42.773438 28.089844 41.882812 28.3125 40.890625 C 30.273438 40.640625 31.820312 39.125 32.117188 37.164062 C 34.035156 36.871094 35.527344 35.351562 35.8125 33.417969 C 37.070312 33.179688 38.167969 32.4375 38.792969 31.390625 C 39.222656 30.664062 39.417969 29.773438 39.34375 28.871094 C 39.527344 28.792969 39.695312 28.679688 39.832031 28.535156 L 41.679688 26.667969 C 46.128906 22.179688 46.128906 14.871094 41.679688 10.382812 C 39.457031 8.136719 36.523438 7.011719 33.589844 7.011719 C 30.660156 7.011719 27.726562 8.136719 25.503906 10.382812 L 23.980469 11.917969 L 22.460938 10.382812 C 20.238281 8.136719 17.304688 7.011719 14.375 7.011719 Z M 14.375 9.988281 C 16.523438 9.988281 18.675781 10.824219 20.332031 12.492188 L 21.871094 14.046875 L 18.484375 17.46875 C 18.480469 17.46875 18.480469 17.46875 18.480469 17.46875 C 17.632812 18.324219 17.257812 19.507812 17.417969 20.566406 C 17.578125 21.628906 18.207031 22.535156 19.082031 23.125 C 20.828125 24.300781 23.585938 24.039062 25.789062 21.816406 L 27.683594 19.902344 L 35.921875 28.175781 C 36.59375 28.859375 36.503906 29.367188 36.214844 29.859375 C 35.921875 30.351562 35.398438 30.671875 34.695312 30.5 C 34.164062 30.367188 33.605469 30.535156 33.234375 30.933594 C 32.863281 31.335938 32.738281 31.90625 32.910156 32.425781 C 33.273438 33.53125 32.1875 34.625 31.117188 34.265625 C 30.578125 34.082031 29.980469 34.222656 29.578125 34.621094 C 29.175781 35.023438 29.035156 35.617188 29.214844 36.15625 C 29.578125 37.261719 28.492188 38.355469 27.417969 37.996094 C 26.882812 37.8125 26.285156 37.953125 25.882812 38.351562 C 25.480469 38.753906 25.339844 39.347656 25.519531 39.886719 C 25.683594 40.394531 25.523438 40.542969 25.257812 40.703125 C 24.992188 40.863281 24.6875 40.9375 24.261719 40.546875 L 8.417969 24.554688 C 5.109375 21.21875 5.109375 15.832031 8.417969 12.492188 C 10.070312 10.824219 12.222656 9.988281 14.375 9.988281 Z M 33.59375 9.988281 C 35.742188 9.988281 37.894531 10.824219 39.550781 12.492188 C 42.855469 15.832031 42.855469 21.21875 39.550781 24.558594 L 38.054688 26.0625 C 38.050781 26.0625 38.050781 26.0625 38.050781 26.058594 C 38.046875 26.058594 38.046875 26.058594 38.046875 26.058594 L 32.664062 20.652344 C 34.355469 20.621094 35.992188 20.097656 37.464844 18.96875 C 37.894531 18.640625 38.117188 18.113281 38.046875 17.578125 C 37.980469 17.042969 37.628906 16.585938 37.128906 16.382812 C 36.632812 16.175781 36.0625 16.257812 35.636719 16.589844 C 33.394531 18.308594 31.34375 18.253906 28.457031 16.496094 C 27.867188 16.136719 27.101562 16.230469 26.613281 16.722656 L 23.65625 19.707031 C 22.160156 21.21875 21.222656 20.953125 20.753906 20.636719 C 20.519531 20.480469 20.40625 20.269531 20.382812 20.117188 C 20.359375 19.964844 20.351562 19.84375 20.613281 19.582031 L 27.632812 12.492188 C 29.289062 10.824219 31.441406 9.988281 33.589844 9.988281 Z M 33.59375 9.988281 "/>
</g>
</svg>
