<?xml version="1.0" encoding="UTF-8"?>
<svg xmlns="http://www.w3.org/2000/svg" xmlns:xlink="http://www.w3.org/1999/xlink" viewBox="0 0 48 48" width="48px" height="48px">
<g id="surface4433970">
<path style=" stroke:none;fill-rule:nonzero;fill:rgb(0%,0%,0%);fill-opacity:1;"
      d="M 24.5 5 C 21.460938 5 19 7.460938 19 10.5 C 19 13.539062 21.460938 16 24.5 16 C 27.539062 16 30 13.539062 30 10.5 C 30 7.460938 27.539062 5 24.5 5 Z M 22.46875 18 C 20.804688 18 19.367188 18.921875 18.597656 20.269531 C 18.582031 20.296875 18.566406 20.324219 18.546875 20.351562 L 13.523438 28.582031 L 7.890625 32.335938 C 7.285156 32.726562 6.933594 33.414062 6.976562 34.136719 C 7.019531 34.855469 7.449219 35.5 8.097656 35.816406 C 8.746094 36.132812 9.515625 36.074219 10.109375 35.664062 L 16.109375 31.664062 C 16.351562 31.503906 16.554688 31.289062 16.707031 31.042969 L 18.289062 28.449219 L 18.53125 33.402344 L 13.382812 37.816406 C 12.535156 38.542969 12.171875 39.683594 12.441406 40.769531 C 12.769531 42.078125 13.949219 43 15.300781 43 L 20.488281 43 C 20.1875 42.453125 20 41.832031 20 41.164062 C 20 39.144531 21.578125 37.460938 23.597656 37.335938 L 28.9375 37.003906 C 29.476562 36.960938 29.960938 37.386719 29.996094 37.9375 C 30.03125 38.488281 29.613281 38.964844 29.0625 39 L 23.722656 39.332031 C 22.757812 39.390625 22 40.195312 22 41.164062 C 22 42.175781 22.824219 43 23.835938 43 L 33.699219 43 C 35.050781 43 36.230469 42.082031 36.558594 40.769531 C 36.828125 39.683594 36.464844 38.542969 35.617188 37.816406 L 30.46875 33.402344 L 30.707031 28.441406 L 32.289062 31.039062 C 32.441406 31.289062 32.648438 31.503906 32.890625 31.664062 L 38.890625 35.664062 C 39.484375 36.074219 40.253906 36.132812 40.902344 35.816406 C 41.550781 35.5 41.980469 34.855469 42.023438 34.136719 C 42.066406 33.414062 41.714844 32.726562 41.109375 32.335938 L 35.476562 28.582031 L 30.492188 20.386719 C 30.449219 20.3125 30.402344 20.242188 30.347656 20.175781 C 29.566406 18.875 28.15625 18 26.53125 18 Z M 22.46875 18 "/>
</g>
</svg>
