<svg fill="#000000" xmlns="http://www.w3.org/2000/svg"  viewBox="0 0 48 48" width="96px" height="96px"><path d="M 24 3.9980469 C 12.972292 3.9980469 4 12.970339 4 23.998047 C 4 27.273363 4.8627078 30.334853 6.2617188 33.064453 L 4.09375 40.826172 C 3.5887973 42.629575 5.3719261 44.41261 7.1757812 43.908203 L 14.943359 41.740234 C 17.670736 43.136312 20.727751 43.998047 24 43.998047 C 35.027708 43.998047 44 35.025755 44 23.998047 C 44 12.970339 35.027708 3.9980469 24 3.9980469 z M 24 6.9980469 C 33.406292 6.9980469 41 14.591755 41 23.998047 C 41 33.404339 33.406292 40.998047 24 40.998047 C 20.998416 40.998047 18.190601 40.217527 15.742188 38.853516 A 1.50015 1.50015 0 0 0 14.609375 38.71875 L 7.2226562 40.779297 L 9.2851562 33.396484 A 1.50015 1.50015 0 0 0 9.1503906 32.261719 C 7.7836522 29.811523 7 27.002565 7 23.998047 C 7 14.591755 14.593708 6.9980469 24 6.9980469 z M 31.476562 12.978516 A 1.50015 1.50015 0 0 0 30 14.5 L 30 19.253906 A 1.50015 1.50015 0 0 0 30 19.740234 L 30 27.5 A 1.50015 1.50015 0 1 0 33 27.5 L 33 21 L 34.5 21 A 1.50015 1.50015 0 1 0 34.5 18 L 33 18 L 33 14.5 A 1.50015 1.50015 0 0 0 31.476562 12.978516 z M 20.5 13 A 1.50015 1.50015 0 1 0 20.5 16 L 25 16 L 25 17 C 25 18.252496 24.435381 19.35069 23.544922 20.085938 A 1.500449 1.500449 0 1 0 25.455078 22.400391 C 27.008619 21.117638 28 19.163504 28 17 L 28 14.5 A 1.50015 1.50015 0 0 0 26.5 13 L 20.5 13 z M 18.505859 18 A 1.50015 1.50015 0 0 0 17.099609 18.960938 L 12.099609 31.960938 A 1.5005608 1.5005608 0 1 0 14.900391 33.039062 L 16.068359 30 L 20.931641 30 L 22.099609 33.039062 A 1.5005608 1.5005608 0 1 0 24.900391 31.960938 L 19.900391 18.960938 A 1.50015 1.50015 0 0 0 18.505859 18 z M 18.5 23.679688 L 19.777344 27 L 17.222656 27 L 18.5 23.679688 z"/></svg>