<svg fill="#000000" xmlns="http://www.w3.org/2000/svg"  viewBox="0 0 48 48" width="96px" height="96px"><path d="M 24 4 C 12.972066 4 4 12.972074 4 24 C 4 35.027926 12.972066 44 24 44 C 35.027934 44 44 35.027926 44 24 C 44 12.972074 35.027934 4 24 4 z M 24 7 C 33.406615 7 41 14.593391 41 24 C 41 33.406609 33.406615 41 24 41 C 14.593385 41 7 33.406609 7 24 C 7 14.593391 14.593385 7 24 7 z M 24 15 C 19.047202 15 15 19.047206 15 24 C 15 28.952794 19.047202 33 24 33 C 28.952798 33 33 28.952794 33 24 C 33 19.047206 28.952798 15 24 15 z M 24 18 C 27.331479 18 30 20.668523 30 24 C 30 27.331477 27.331479 30 24 30 C 20.668521 30 18 27.331477 18 24 C 18 20.668523 20.668521 18 24 18 z"/></svg>