<svg fill="#000000" xmlns="http://www.w3.org/2000/svg"  viewBox="0 0 48 48" width="48px" height="48px"><path d="M 17 2 C 11.494917 2 7 6.494921 7 12 C 7 17.505079 11.494917 22 17 22 C 22.505083 22 27 17.505079 27 12 C 27 6.494921 22.505083 2 17 2 z M 17 5 C 20.883764 5 24 8.1162385 24 12 C 24 15.883762 20.883764 19 17 19 C 13.116236 19 10 15.883762 10 12 C 10 8.1162385 13.116236 5 17 5 z M 35 24 C 28.925 24 24 28.925 24 35 C 24 41.075 28.925 46 35 46 C 41.075 46 46 41.075 46 35 C 46 28.925 41.075 24 35 24 z M 6.2226562 26 C 4.1706562 26 2.5 27.784516 2.5 29.978516 L 2.5 31.5 C 2.5 34.781 4.1953906 37.632344 7.2753906 39.527344 C 9.8663906 41.122344 13.32 42 17 42 C 19.19 42 21.431516 41.675766 23.478516 41.009766 C 23.018516 40.128766 22.664062 39.186172 22.414062 38.201172 C 20.717062 38.735172 18.837 39 17 39 C 11.461 39 5.5 36.653 5.5 31.5 L 5.5 29.978516 C 5.5 29.447516 5.8316562 29 6.2226562 29 L 23.474609 29 C 24.049609 27.897 24.778813 26.889 25.632812 26 L 6.2226562 26 z M 35 27 C 35.552 27 36 27.448 36 28 L 36 34 L 42 34 C 42.552 34 43 34.448 43 35 C 43 35.552 42.552 36 42 36 L 36 36 L 36 42 C 36 42.552 35.552 43 35 43 C 34.448 43 34 42.552 34 42 L 34 36 L 28 36 C 27.448 36 27 35.552 27 35 C 27 34.448 27.448 34 28 34 L 34 34 L 34 28 C 34 27.448 34.448 27 35 27 z"/></svg>