<?xml version="1.0" encoding="UTF-8"?>
<svg xmlns="http://www.w3.org/2000/svg" xmlns:xlink="http://www.w3.org/1999/xlink" viewBox="0 0 48 48" width="48px" height="48px">
<g id="surface41116182">
<path style=" stroke:none;fill-rule:nonzero;fill:rgb(100%,100%,100%);fill-opacity:1;" d="M 12.5 6 C 8.929688 6 6 8.929688 6 12.5 L 6 35.5 C 6 39.070312 8.929688 42 12.5 42 L 35.5 42 C 39.070312 42 42 39.070312 42 35.5 L 42 12.5 C 42 8.929688 39.070312 6 35.5 6 Z M 12.5 9 L 35.5 9 C 37.449219 9 39 10.550781 39 12.5 L 39 14 L 9 14 L 9 12.5 C 9 10.550781 10.550781 9 12.5 9 Z M 9 17 L 39 17 L 39 35.5 C 39 37.449219 37.449219 39 35.5 39 L 12.5 39 C 10.550781 39 9 37.449219 9 35.5 Z M 27.5 24 C 25.585938 24 24 25.585938 24 27.5 L 24 31.5 C 24 33.414062 25.585938 35 27.5 35 L 31.5 35 C 33.414062 35 35 33.414062 35 31.5 L 35 27.5 C 35 25.585938 33.414062 24 31.5 24 Z M 27.5 27 L 31.5 27 C 31.796875 27 32 27.203125 32 27.5 L 32 31.5 C 32 31.796875 31.796875 32 31.5 32 L 27.5 32 C 27.203125 32 27 31.796875 27 31.5 L 27 27.5 C 27 27.203125 27.203125 27 27.5 27 Z M 27.5 27 "/>
</g>
</svg>
