<?xml version="1.0" encoding="UTF-8"?>
<svg xmlns="http://www.w3.org/2000/svg" xmlns:xlink="http://www.w3.org/1999/xlink" viewBox="0 0 96 96" width="96px" height="96px">
<g id="surface46860616">
<path style=" stroke:none;fill-rule:nonzero;fill:rgb(100%,100%,100%);fill-opacity:1;" d="M 47.984375 9 C 46.886719 9 45.792969 9.269531 44.847656 9.808594 L 15.117188 26.972656 C 13.195312 28.082031 12 30.183594 12 32.402344 L 12 63.539062 C 12 65.789062 13.195312 67.859375 15.117188 68.972656 L 22.921875 73.472656 C 26.703125 75.332031 28.050781 75.328125 29.757812 75.328125 C 35.371094 75.328125 38.578125 71.9375 38.578125 66.058594 L 38.578125 33.933594 C 38.578125 33.453125 38.191406 33.058594 37.710938 33.058594 L 33.960938 33.058594 C 33.449219 33.058594 33.085938 33.453125 33.085938 33.933594 L 33.085938 66.027344 C 33.085938 68.667969 30.359375 71.25 25.953125 69.058594 L 17.789062 64.347656 C 17.488281 64.199219 17.308594 63.867188 17.308594 63.539062 L 17.308594 32.433594 C 17.308594 32.070312 17.488281 31.769531 17.789062 31.585938 L 47.519531 14.433594 C 47.789062 14.25 48.152344 14.25 48.453125 14.433594 L 78.183594 31.585938 C 78.480469 31.769531 78.664062 32.074219 78.664062 32.402344 L 78.664062 63.539062 C 78.664062 63.867188 78.480469 64.199219 78.210938 64.347656 L 48.453125 81.539062 C 48.179688 81.6875 47.789062 81.6875 47.519531 81.539062 L 39.867188 77.011719 C 39.65625 76.859375 39.363281 76.832031 39.152344 76.953125 C 37.023438 78.152344 36.632812 78.300781 34.652344 78.992188 C 34.171875 79.140625 33.421875 79.4375 34.921875 80.28125 L 44.847656 86.164062 C 45.808594 86.703125 46.890625 87 47.972656 87 C 49.082031 87 50.15625 86.703125 51.117188 86.164062 L 80.882812 68.972656 C 82.804688 67.859375 84 65.789062 84 63.539062 L 84 32.433594 C 84 30.183594 82.804688 28.109375 80.882812 27 L 51.117188 9.808594 C 50.171875 9.269531 49.078125 9 47.984375 9 Z M 55.980469 33.015625 C 47.492188 33.015625 42.421875 36.613281 42.421875 42.613281 C 42.421875 49.125 47.457031 50.921875 55.617188 51.730469 C 65.367188 52.691406 66.117188 54.136719 66.117188 56.054688 C 66.117188 59.355469 63.453125 60.765625 57.183594 60.765625 C 49.292969 60.765625 47.550781 58.785156 46.980469 54.882812 C 46.921875 54.464844 46.5625 54.164062 46.144531 54.164062 L 42.269531 54.164062 C 41.789062 54.164062 41.433594 54.558594 41.433594 55.007812 C 41.433594 60.019531 44.160156 65.980469 57.183594 65.980469 C 66.601562 65.980469 72 62.265625 72 55.785156 C 72 49.367188 67.648438 47.652344 58.527344 46.421875 C 49.257812 45.222656 48.328125 44.59375 48.328125 42.433594 C 48.328125 40.632812 49.140625 38.265625 55.980469 38.265625 C 62.070312 38.265625 64.347656 39.582031 65.277344 43.691406 C 65.371094 44.082031 65.695312 44.382812 66.117188 44.382812 L 69.992188 44.382812 C 70.230469 44.382812 70.4375 44.265625 70.617188 44.085938 C 70.765625 43.9375 70.859375 43.695312 70.828125 43.421875 C 70.226562 36.34375 65.519531 33.015625 55.980469 33.015625 Z M 55.980469 33.015625 "/>
</g>
</svg>
