<?xml version="1.0" encoding="UTF-8"?>
<svg xmlns="http://www.w3.org/2000/svg" xmlns:xlink="http://www.w3.org/1999/xlink" viewBox="0 0 96 96" width="96px" height="96px">
<g id="surface51351122">
<path style=" stroke:none;fill-rule:nonzero;fill:rgb(100%,100%,100%);fill-opacity:1;" d="M 81.820312 21.648438 C 80.417969 21.648438 79.078125 21.8125 77.796875 22.195312 C 76.519531 22.578125 75.433594 23.125 74.476562 23.859375 C 73.519531 24.5625 72.753906 25.453125 72.179688 26.476562 C 71.605469 27.496094 71.3125 28.683594 71.3125 30.023438 C 71.3125 31.683594 71.855469 33.246094 72.90625 34.648438 C 73.957031 36.085938 75.683594 37.175781 78.015625 37.90625 L 82.640625 39.34375 C 84.203125 39.855469 85.292969 40.390625 85.867188 41 C 86.441406 41.609375 86.726562 42.339844 86.726562 43.234375 C 86.726562 44.542969 86.15625 45.566406 85.070312 46.265625 C 83.984375 46.96875 82.414062 47.320312 80.40625 47.320312 C 79.128906 47.320312 77.886719 47.195312 76.609375 46.9375 C 75.367188 46.679688 74.179688 46.296875 73.09375 45.820312 C 72.773438 45.691406 72.488281 45.5625 72.296875 45.5 C 72.105469 45.4375 71.910156 45.40625 71.71875 45.40625 C 71.238281 45.40625 70.984375 45.722656 70.984375 46.390625 L 70.984375 48.023438 C 70.984375 48.3125 71.050781 48.628906 71.179688 48.914062 C 71.3125 49.214844 71.664062 49.523438 72.171875 49.8125 C 73.003906 50.292969 74.246094 50.710938 75.84375 51.09375 C 77.441406 51.476562 79.097656 51.671875 80.757812 51.671875 C 82.386719 51.671875 83.882812 51.441406 85.320312 50.992188 C 86.691406 50.578125 87.878906 50.011719 88.867188 49.210938 C 89.855469 48.441406 90.621094 47.484375 91.195312 46.398438 C 91.738281 45.3125 92.03125 44.066406 92.03125 42.695312 C 92.03125 41.035156 91.550781 39.535156 90.5625 38.226562 C 89.574219 36.917969 87.910156 35.894531 85.609375 35.164062 L 81.078125 33.726562 C 79.386719 33.183594 78.210938 32.578125 77.570312 31.96875 C 76.929688 31.359375 76.609375 30.597656 76.609375 29.703125 C 76.609375 28.394531 77.121094 27.472656 78.109375 26.867188 C 79.097656 26.257812 80.539062 25.96875 82.359375 25.96875 C 84.628906 25.96875 86.671875 26.390625 88.492188 27.21875 C 89.035156 27.476562 89.445312 27.601562 89.703125 27.601562 C 90.183594 27.601562 90.4375 27.246094 90.4375 26.578125 L 90.4375 25.070312 C 90.4375 24.621094 90.339844 24.277344 90.148438 24.023438 C 89.957031 23.734375 89.640625 23.476562 89.195312 23.21875 C 88.875 23.027344 88.429688 22.832031 87.859375 22.640625 C 87.285156 22.449219 86.679688 22.292969 86.039062 22.132812 C 85.367188 22.003906 84.695312 21.878906 83.960938 21.78125 C 83.257812 21.683594 82.523438 21.648438 81.820312 21.648438 Z M 15.976562 21.71875 C 14.21875 21.71875 12.554688 21.914062 10.992188 22.328125 C 9.425781 22.707031 8.085938 23.191406 6.96875 23.765625 C 6.519531 23.988281 6.238281 24.210938 6.078125 24.429688 C 5.917969 24.652344 5.851562 25.042969 5.851562 25.554688 L 5.851562 27.117188 C 5.851562 27.789062 6.074219 28.101562 6.523438 28.101562 C 6.652344 28.101562 6.816406 28.070312 7.039062 28.007812 C 7.257812 27.945312 7.636719 27.816406 8.148438 27.59375 C 9.265625 27.144531 10.421875 26.800781 11.601562 26.515625 C 12.78125 26.226562 13.929688 26.09375 15.046875 26.09375 C 17.507812 26.09375 19.230469 26.574219 20.25 27.5625 C 21.238281 28.550781 21.75 30.242188 21.75 32.671875 L 21.75 35.007812 C 20.472656 34.71875 19.261719 34.457031 18.078125 34.296875 C 16.898438 34.136719 15.78125 34.046875 14.695312 34.046875 C 11.40625 34.046875 8.824219 34.878906 6.875 36.539062 C 4.929688 38.199219 3.96875 40.398438 3.96875 43.109375 C 3.96875 45.664062 4.765625 47.707031 6.328125 49.242188 C 7.890625 50.773438 10.039062 51.546875 12.71875 51.546875 C 16.488281 51.546875 19.609375 50.074219 22.101562 47.132812 C 22.453125 47.867188 22.777344 48.480469 23.09375 49.023438 C 23.414062 49.535156 23.796875 50.042969 24.242188 50.523438 C 24.5625 50.8125 24.878906 50.96875 25.195312 50.96875 C 25.453125 50.96875 25.742188 50.871094 26.03125 50.679688 L 28.039062 49.34375 C 28.453125 49.023438 28.648438 48.699219 28.648438 48.382812 C 28.648438 48.160156 28.582031 47.90625 28.421875 47.648438 C 27.972656 46.816406 27.660156 46.054688 27.40625 45.351562 C 27.183594 44.648438 27.054688 43.6875 27.054688 42.507812 L 26.984375 42.507812 L 26.984375 32.15625 C 26.984375 28.644531 26.097656 26.027344 24.335938 24.304688 C 22.550781 22.585938 19.777344 21.71875 15.976562 21.71875 Z M 30.820312 22.484375 C 30.308594 22.484375 30.054688 22.777344 30.054688 23.289062 C 30.054688 23.511719 30.152344 23.925781 30.34375 24.5625 L 37.84375 49.242188 C 38.035156 49.851562 38.257812 50.292969 38.515625 50.484375 C 38.773438 50.707031 39.15625 50.804688 39.726562 50.804688 L 42.46875 50.804688 C 43.042969 50.804688 43.492188 50.707031 43.75 50.484375 C 44.007812 50.261719 44.199219 49.847656 44.359375 49.210938 L 49.273438 28.648438 L 54.21875 49.242188 C 54.347656 49.882812 54.570312 50.300781 54.828125 50.523438 C 55.085938 50.746094 55.496094 50.84375 56.101562 50.84375 L 58.851562 50.84375 C 59.394531 50.84375 59.804688 50.714844 60.0625 50.523438 C 60.320312 50.332031 60.542969 49.910156 60.734375 49.273438 L 68.429688 24.59375 C 68.558594 24.242188 68.617188 23.988281 68.648438 23.796875 C 68.679688 23.605469 68.71875 23.441406 68.71875 23.28125 C 68.71875 22.738281 68.425781 22.484375 67.914062 22.484375 L 64.945312 22.484375 C 64.371094 22.484375 63.960938 22.613281 63.703125 22.804688 C 63.480469 22.996094 63.253906 23.410156 63.0625 24.046875 L 57.539062 45.4375 L 52.492188 24.046875 C 52.363281 23.4375 52.148438 22.996094 51.890625 22.804688 C 51.632812 22.582031 51.214844 22.484375 50.609375 22.484375 L 48.054688 22.484375 C 47.480469 22.484375 47.039062 22.613281 46.78125 22.804688 C 46.523438 22.996094 46.332031 23.410156 46.171875 24.046875 L 41.203125 45.1875 L 35.835938 24.054688 C 35.644531 23.445312 35.453125 22.996094 35.195312 22.804688 C 34.972656 22.582031 34.558594 22.484375 33.953125 22.484375 Z M 15.882812 37.84375 C 16.871094 37.84375 17.863281 37.910156 18.882812 38.039062 C 19.902344 38.167969 20.886719 38.355469 21.8125 38.578125 L 21.8125 39.921875 C 21.8125 41.007812 21.683594 41.929688 21.492188 42.695312 C 21.300781 43.464844 20.921875 44.132812 20.414062 44.742188 C 19.550781 45.699219 18.53125 46.398438 17.382812 46.78125 C 16.234375 47.164062 15.144531 47.359375 14.09375 47.359375 C 12.625 47.359375 11.507812 46.976562 10.742188 46.179688 C 9.941406 45.410156 9.5625 44.296875 9.5625 42.796875 C 9.5625 41.199219 10.074219 39.988281 11.125 39.125 C 12.175781 38.261719 13.742188 37.84375 15.882812 37.84375 Z M 88.945312 57.445312 C 85.585938 57.492188 81.617188 58.242188 78.617188 60.351562 C 77.691406 61.023438 77.851562 61.917969 78.875 61.789062 C 82.289062 61.375 89.832031 60.480469 91.171875 62.203125 C 92.511719 63.894531 89.667969 71.019531 88.390625 74.179688 C 88.007812 75.136719 88.84375 75.511719 89.703125 74.78125 C 95.320312 70.058594 96.78125 60.195312 95.632812 58.757812 C 95.058594 58.054688 92.304688 57.398438 88.945312 57.445312 Z M 0.703125 59.351562 C 0 59.4375 -0.3125 60.292969 0.429688 60.960938 C 12.945312 72.265625 29.519531 79.0625 47.90625 79.0625 C 61.03125 79.0625 76.285156 74.945312 86.789062 67.1875 C 88.511719 65.90625 87.015625 63.957031 85.257812 64.757812 C 73.476562 69.738281 60.679688 72.171875 49.023438 72.171875 C 31.75 72.171875 15.050781 67.410156 1.515625 59.554688 C 1.21875 59.378906 0.9375 59.324219 0.703125 59.351562 Z M 0.703125 59.351562 "/>
</g>
</svg>
