<?xml version="1.0" encoding="UTF-8"?>
<svg xmlns="http://www.w3.org/2000/svg" xmlns:xlink="http://www.w3.org/1999/xlink" viewBox="0 0 96 96" width="96px" height="96px">
<g id="surface48595487">
<path style=" stroke:none;fill-rule:nonzero;fill:rgb(100%,100%,100%);fill-opacity:1;" d="M 48 6 C 44.132812 6 41 9.132812 41 13 C 41 16.867188 44.132812 20 48 20 C 51.867188 20 55 16.867188 55 13 C 55 9.132812 51.867188 6 48 6 Z M 17 24 C 13.132812 24 10 27.132812 10 31 C 10 34.867188 13.132812 38 17 38 C 20.867188 38 24 34.867188 24 31 C 24 27.132812 20.867188 24 17 24 Z M 79 24 C 75.132812 24 72 27.132812 72 31 C 72 34.867188 75.132812 38 79 38 C 82.867188 38 86 34.867188 86 31 C 86 27.132812 82.867188 24 79 24 Z M 48 26 C 44.917969 26 42.222656 27.265625 40.507812 29.195312 C 38.792969 31.125 38 33.582031 38 36 C 38 38.417969 38.792969 40.875 40.507812 42.804688 C 42.222656 44.734375 44.917969 46 48 46 C 51.082031 46 53.777344 44.734375 55.492188 42.804688 C 57.207031 40.875 58 38.417969 58 36 C 58 33.582031 57.207031 31.125 55.492188 29.195312 C 53.777344 27.265625 51.082031 26 48 26 Z M 48 32 C 49.582031 32 50.390625 32.484375 51.007812 33.179688 C 51.625 33.875 52 34.917969 52 36 C 52 37.082031 51.625 38.125 51.007812 38.820312 C 50.390625 39.515625 49.582031 40 48 40 C 46.417969 40 45.609375 39.515625 44.992188 38.820312 C 44.375 38.125 44 37.082031 44 36 C 44 34.917969 44.375 33.875 44.992188 33.179688 C 45.609375 32.484375 46.417969 32 48 32 Z M 36.105469 50 C 32.769531 50 30 52.769531 30 56.105469 L 30 57.898438 C 30 61.554688 32.3125 64.707031 35.542969 66.765625 C 38.773438 68.824219 43.054688 70 48 70 C 52.945312 70 57.226562 68.824219 60.457031 66.765625 C 63.6875 64.707031 66 61.554688 66 57.898438 L 66 56.105469 C 66 52.769531 63.230469 50 59.894531 50 Z M 36.105469 56 L 59.894531 56 C 59.988281 56 60 56.011719 60 56.105469 L 60 57.898438 C 60 59.003906 59.273438 60.40625 57.234375 61.707031 C 55.195312 63.007812 51.976562 64 48 64 C 44.023438 64 40.804688 63.007812 38.765625 61.707031 C 36.726562 60.40625 36 59.003906 36 57.898438 L 36 56.105469 C 36 56.011719 36.011719 56 36.105469 56 Z M 17 58 C 13.132812 58 10 61.132812 10 65 C 10 68.867188 13.132812 72 17 72 C 20.867188 72 24 68.867188 24 65 C 24 61.132812 20.867188 58 17 58 Z M 79 58 C 75.132812 58 72 61.132812 72 65 C 72 68.867188 75.132812 72 79 72 C 82.867188 72 86 68.867188 86 65 C 86 61.132812 82.867188 58 79 58 Z M 48 76 C 44.132812 76 41 79.132812 41 83 C 41 86.867188 44.132812 90 48 90 C 51.867188 90 55 86.867188 55 83 C 55 79.132812 51.867188 76 48 76 Z M 48 76 "/>
</g>
</svg>
