<?xml version="1.0" encoding="UTF-8"?>
<svg xmlns="http://www.w3.org/2000/svg" xmlns:xlink="http://www.w3.org/1999/xlink" viewBox="0 0 52 52" width="52px" height="52px">
<g id="surface46867556">
<path style=" stroke:none;fill-rule:nonzero;fill:rgb(100%,0%,0%);fill-opacity:1;" d="M 35.734375 7.78125 C 31.546875 7.78125 27.960938 10.765625 25.992188 12.828125 C 24.03125 10.765625 20.453125 7.78125 16.265625 7.78125 C 9.039062 7.78125 4 12.8125 4 20.015625 C 4 27.960938 10.265625 33.09375 16.320312 38.054688 C 19.179688 40.398438 22.140625 42.820312 24.40625 45.515625 C 24.789062 45.960938 25.351562 46.21875 25.9375 46.21875 L 26.054688 46.21875 C 26.648438 46.21875 27.203125 45.960938 27.585938 45.515625 C 29.859375 42.820312 32.8125 40.398438 35.679688 38.054688 C 41.734375 33.09375 48 27.960938 48 20.015625 C 48 12.8125 42.960938 7.78125 35.734375 7.78125 Z M 35.734375 7.78125 "/>
</g>
</svg>
