<svg fill="#000000" xmlns="http://www.w3.org/2000/svg"  viewBox="0 0 48 48" width="48px" height="48px"><path d="M 24 4 C 18.494917 4 14 8.494921 14 14 C 14 19.505079 18.494917 24 24 24 C 29.505083 24 34 19.505079 34 14 C 34 8.494921 29.505083 4 24 4 z M 24 7 C 27.883764 7 31 10.116238 31 14 C 31 17.883762 27.883764 21 24 21 C 20.116236 21 17 17.883762 17 14 C 17 10.116238 20.116236 7 24 7 z M 11.978516 28 C 9.7845156 28 8 29.784516 8 31.978516 L 8 33.5 C 8 36.812 9.8846406 39.6745 13.306641 41.5625 C 16.154641 43.1345 19.952 44 24 44 C 24.016 44 24.032828 43.998047 24.048828 43.998047 L 20.835938 40.785156 C 15.567937 40.081156 11 37.613 11 33.5 L 11 31.978516 C 11 31.438516 11.438516 31 11.978516 31 L 36.021484 31 C 36.561484 31 37.001953 31.439516 37.001953 31.978516 L 37.001953 32.050781 L 39.308594 29.742188 C 38.591594 28.692187 37.386484 28 36.021484 28 L 11.978516 28 z M 44.498047 28 C 44.114297 28 43.7305 28.146453 43.4375 28.439453 L 29.498047 42.378906 L 23.560547 36.439453 C 22.974547 35.853453 22.025453 35.853453 21.439453 36.439453 C 20.853453 37.024453 20.853453 37.975547 21.439453 38.560547 L 28.439453 45.560547 C 28.732453 45.853547 29.116 46 29.5 46 C 29.884 46 30.267594 45.853547 30.558594 45.560547 L 45.558594 30.560547 C 46.144594 29.975547 46.144594 29.024453 45.558594 28.439453 C 45.265594 28.146453 44.881797 28 44.498047 28 z"/></svg>