<?xml version="1.0" encoding="UTF-8"?>
<svg xmlns="http://www.w3.org/2000/svg" xmlns:xlink="http://www.w3.org/1999/xlink" viewBox="0 0 150 150" width="150px" height="150px">
<g id="surface51221361">
<path style=" stroke:none;fill-rule:nonzero;fill:rgb(84.705883%,94.117647%,100%);fill-opacity:1;" d="M 130.824219 85.066406 C 132.523438 81.832031 133.5 78.15625 133.5 74.25 C 133.5 64.320312 127.261719 55.863281 118.5 52.53125 C 118.5 52.523438 118.5 52.511719 118.5 52.5 C 118.5 35.101562 104.398438 21 87 21 C 72.324219 21 60.027344 31.050781 56.53125 44.636719 C 54.316406 43.90625 51.957031 43.5 49.5 43.5 C 37.960938 43.5 28.464844 52.191406 27.164062 63.378906 C 19.359375 65.03125 13.5 71.953125 13.5 80.25 C 13.5 89.777344 21.222656 97.5 30.75 97.5 C 31.015625 97.5 31.277344 97.480469 31.539062 97.46875 C 31.53125 97.730469 31.5 97.984375 31.5 98.25 C 31.5 115.234375 45.265625 129 62.25 129 C 71.90625 129 80.511719 124.542969 86.152344 117.578125 C 89.417969 120.917969 93.960938 123 99 123 C 105.976562 123 112.011719 119.023438 115 113.222656 C 116.578125 113.726562 118.253906 114 120 114 C 129.113281 114 136.5 106.613281 136.5 97.5 C 136.5 92.535156 134.296875 88.089844 130.824219 85.066406 Z M 130.824219 85.066406 "/>
<path style=" stroke:none;fill-rule:nonzero;fill:rgb(100%,100%,100%);fill-opacity:1;" d="M 56.8125 56.25 C 56.8125 56.25 62.273438 56.25 66 56.25 C 69.726562 56.25 72.75 53.226562 72.75 49.5 C 72.75 46 70.078125 43.15625 66.667969 42.816406 C 66.699219 42.546875 66.75 42.28125 66.75 42 C 66.75 38.273438 63.726562 35.25 60 35.25 C 57.84375 35.25 55.945312 36.277344 54.710938 37.855469 C 54.5 33.898438 51.257812 30.75 47.25 30.75 C 43.109375 30.75 39.75 34.109375 39.75 38.25 C 39.75 38.917969 39.867188 39.554688 40.03125 40.171875 C 39.066406 39.007812 37.628906 38.25 36 38.25 C 33.328125 38.25 31.148438 40.253906 30.816406 42.832031 C 30.546875 42.800781 30.28125 42.75 30 42.75 C 26.273438 42.75 23.25 45.773438 23.25 49.5 C 23.25 53.226562 26.273438 56.25 30 56.25 C 33.726562 56.25 44.25 56.25 44.25 56.25 L 52.3125 56.25 L 52.3125 57 L 56.8125 57 Z M 56.8125 56.25 "/>
<path style=" stroke:none;fill-rule:nonzero;fill:rgb(27.843139%,16.862746%,16.078432%);fill-opacity:1;" d="M 47.25 30 C 42.699219 30 39 33.699219 39 38.25 C 39 38.273438 39 38.296875 39 38.320312 C 38.097656 37.789062 37.066406 37.5 36 37.5 C 33.253906 37.5 30.882812 39.390625 30.214844 42.007812 C 30.140625 42.003906 30.070312 42 30 42 C 25.863281 42 22.5 45.363281 22.5 49.5 C 22.5 53.636719 25.863281 57 30 57 L 52.3125 57 C 52.726562 57 53.0625 56.664062 53.0625 56.25 C 53.0625 55.835938 52.726562 55.5 52.3125 55.5 L 30 55.5 C 26.691406 55.5 24 52.808594 24 49.5 C 24 46.191406 26.691406 43.5 30 43.5 C 30.175781 43.5 30.34375 43.527344 30.515625 43.546875 L 30.726562 43.578125 C 30.757812 43.582031 30.789062 43.582031 30.820312 43.582031 C 31.1875 43.582031 31.511719 43.304688 31.5625 42.925781 C 31.847656 40.6875 33.757812 39 36 39 C 37.328125 39 38.585938 39.601562 39.453125 40.648438 C 39.597656 40.828125 39.8125 40.921875 40.03125 40.921875 C 40.148438 40.921875 40.265625 40.894531 40.371094 40.839844 C 40.6875 40.679688 40.84375 40.320312 40.753906 39.980469 C 40.582031 39.328125 40.5 38.777344 40.5 38.25 C 40.5 34.527344 43.527344 31.5 47.25 31.5 C 50.820312 31.5 53.769531 34.308594 53.960938 37.894531 C 53.976562 38.207031 54.1875 38.476562 54.484375 38.570312 C 54.558594 38.59375 54.636719 38.605469 54.710938 38.605469 C 54.9375 38.605469 55.15625 38.503906 55.300781 38.316406 C 56.457031 36.84375 58.167969 36 60 36 C 63.308594 36 66 38.691406 66 42 C 66 42.175781 65.972656 42.34375 65.953125 42.515625 L 65.921875 42.726562 C 65.898438 42.925781 65.957031 43.128906 66.082031 43.285156 C 66.207031 43.441406 66.394531 43.542969 66.59375 43.5625 C 69.675781 43.871094 72 46.421875 72 49.5 C 72 52.808594 69.308594 55.5 66 55.5 L 56.8125 55.5 C 56.398438 55.5 56.0625 55.835938 56.0625 56.25 C 56.0625 56.664062 56.398438 57 56.8125 57 L 66 57 C 70.136719 57 73.5 53.636719 73.5 49.5 C 73.5 45.90625 70.964844 42.878906 67.496094 42.183594 C 67.5 42.121094 67.5 42.0625 67.5 42 C 67.5 37.863281 64.136719 34.5 60 34.5 C 58.234375 34.5 56.558594 35.125 55.226562 36.246094 C 54.328125 32.640625 51.082031 30 47.25 30 Z M 47.25 30 "/>
<path style=" stroke:none;fill-rule:nonzero;fill:rgb(27.843139%,16.862746%,16.078432%);fill-opacity:1;" d="M 45 40.5 C 42.894531 40.5 41.085938 42 40.628906 44.011719 C 40.078125 43.679688 39.453125 43.5 38.8125 43.5 C 37.007812 43.5 35.515625 44.84375 35.28125 46.601562 C 34.976562 46.53125 34.6875 46.5 34.40625 46.5 C 32.113281 46.5 30.1875 48.300781 30.027344 50.597656 C 30.015625 50.804688 30.171875 50.984375 30.375 51 C 30.386719 51 30.394531 51 30.402344 51 C 30.597656 51 30.761719 50.847656 30.777344 50.652344 C 30.910156 48.746094 32.503906 47.25 34.40625 47.25 C 34.75 47.25 35.109375 47.3125 35.511719 47.441406 C 35.546875 47.449219 35.578125 47.457031 35.613281 47.457031 C 35.695312 47.457031 35.777344 47.425781 35.847656 47.375 C 35.941406 47.304688 36 47.183594 36 47.0625 C 36 45.511719 37.261719 44.25 38.8125 44.25 C 39.484375 44.25 40.140625 44.503906 40.660156 44.960938 C 40.730469 45.019531 40.816406 45.054688 40.90625 45.054688 C 40.953125 45.054688 41 45.046875 41.046875 45.027344 C 41.179688 44.972656 41.269531 44.851562 41.277344 44.707031 C 41.433594 42.769531 43.066406 41.25 45 41.25 C 45.3125 41.25 45.636719 41.300781 46.023438 41.410156 C 46.058594 41.421875 46.09375 41.425781 46.128906 41.425781 C 46.292969 41.425781 46.4375 41.316406 46.488281 41.152344 C 46.542969 40.953125 46.429688 40.746094 46.226562 40.6875 C 45.777344 40.558594 45.382812 40.5 45 40.5 Z M 45 40.5 "/>
<path style=" stroke:none;fill-rule:nonzero;fill:rgb(27.843139%,16.862746%,16.078432%);fill-opacity:1;" d="M 65.824219 42.75 C 63.835938 42.75 62.0625 44.09375 61.511719 46.023438 C 61.457031 46.222656 61.570312 46.429688 61.773438 46.488281 C 61.808594 46.496094 61.84375 46.5 61.875 46.5 C 62.039062 46.5 62.1875 46.390625 62.234375 46.226562 C 62.691406 44.621094 64.167969 43.5 65.824219 43.5 C 66 43.5 66.167969 43.519531 66.335938 43.542969 C 66.355469 43.546875 66.371094 43.546875 66.390625 43.546875 C 66.570312 43.546875 66.734375 43.410156 66.757812 43.222656 C 66.789062 43.015625 66.644531 42.828125 66.4375 42.800781 C 66.238281 42.773438 66.03125 42.75 65.824219 42.75 Z M 65.824219 42.75 "/>
<path style=" stroke:none;fill-rule:nonzero;fill:rgb(100%,100%,100%);fill-opacity:1;" d="M 23.109375 85.5 L 8.25 85.5 C 7.835938 85.5 7.5 85.164062 7.5 84.75 C 7.5 84.335938 7.835938 84 8.25 84 L 23.109375 84 C 23.523438 84 23.859375 84.335938 23.859375 84.75 C 23.859375 85.164062 23.523438 85.5 23.109375 85.5 Z M 23.109375 85.5 "/>
<path style=" stroke:none;fill-rule:nonzero;fill:rgb(100%,100%,100%);fill-opacity:1;" d="M 27.75 85.5 L 26.25 85.5 C 25.835938 85.5 25.5 85.164062 25.5 84.75 C 25.5 84.335938 25.835938 84 26.25 84 L 27.75 84 C 28.164062 84 28.5 84.335938 28.5 84.75 C 28.5 85.164062 28.164062 85.5 27.75 85.5 Z M 27.75 85.5 "/>
<path style=" stroke:none;fill-rule:nonzero;fill:rgb(100%,100%,100%);fill-opacity:1;" d="M 35.238281 88.5 L 21.75 88.5 C 21.335938 88.5 21 88.164062 21 87.75 C 21 87.335938 21.335938 87 21.75 87 L 35.238281 87 C 35.652344 87 35.988281 87.335938 35.988281 87.75 C 35.988281 88.164062 35.652344 88.5 35.238281 88.5 Z M 35.238281 88.5 "/>
<path style=" stroke:none;fill-rule:nonzero;fill:rgb(100%,100%,100%);fill-opacity:1;" d="M 18.75 88.5 L 17.25 88.5 C 16.835938 88.5 16.5 88.164062 16.5 87.75 C 16.5 87.335938 16.835938 87 17.25 87 L 18.75 87 C 19.164062 87 19.5 87.335938 19.5 87.75 C 19.5 88.164062 19.164062 88.5 18.75 88.5 Z M 18.75 88.5 "/>
<path style=" stroke:none;fill-rule:nonzero;fill:rgb(100%,100%,100%);fill-opacity:1;" d="M 14.25 88.5 L 11.25 88.5 C 10.835938 88.5 10.5 88.164062 10.5 87.75 C 10.5 87.335938 10.835938 87 11.25 87 L 14.25 87 C 14.664062 87 15 87.335938 15 87.75 C 15 88.164062 14.664062 88.5 14.25 88.5 Z M 14.25 88.5 "/>
<path style=" stroke:none;fill-rule:nonzero;fill:rgb(100%,100%,100%);fill-opacity:1;" d="M 23.25 91.5 L 20.25 91.5 C 19.835938 91.5 19.5 91.164062 19.5 90.75 C 19.5 90.335938 19.835938 90 20.25 90 L 23.25 90 C 23.664062 90 24 90.335938 24 90.75 C 24 91.164062 23.664062 91.5 23.25 91.5 Z M 23.25 91.5 "/>
<path style=" stroke:none;fill-rule:nonzero;fill:rgb(100%,100%,100%);fill-opacity:1;" d="M 27.75 78 C 27.484375 78 26.515625 78 26.25 78 C 25.835938 78 25.5 78.335938 25.5 78.75 C 25.5 79.164062 25.835938 79.5 26.25 79.5 C 26.515625 79.5 27.484375 79.5 27.75 79.5 C 28.164062 79.5 28.5 79.164062 28.5 78.75 C 28.5 78.335938 28.164062 78 27.75 78 Z M 27.75 78 "/>
<path style=" stroke:none;fill-rule:nonzero;fill:rgb(100%,100%,100%);fill-opacity:1;" d="M 27.75 81 C 27.484375 81 20.515625 81 20.25 81 C 19.835938 81 19.5 81.335938 19.5 81.75 C 19.5 82.164062 19.835938 82.5 20.25 82.5 C 20.515625 82.5 27.484375 82.5 27.75 82.5 C 28.164062 82.5 28.5 82.164062 28.5 81.75 C 28.5 81.335938 28.164062 81 27.75 81 Z M 27.75 81 "/>
<path style=" stroke:none;fill-rule:nonzero;fill:rgb(100%,100%,100%);fill-opacity:1;" d="M 35.25 84 C 34.984375 84 31.015625 84 30.75 84 C 30.335938 84 30 84.335938 30 84.75 C 30 85.164062 30.335938 85.5 30.75 85.5 C 31.015625 85.5 34.984375 85.5 35.25 85.5 C 35.664062 85.5 36 85.164062 36 84.75 C 36 84.335938 35.664062 84 35.25 84 Z M 35.25 84 "/>
<path style=" stroke:none;fill-rule:nonzero;fill:rgb(100%,100%,100%);fill-opacity:1;" d="M 105.75 33 L 90.75 33 C 90.335938 33 90 32.664062 90 32.25 C 90 31.835938 90.335938 31.5 90.75 31.5 L 105.75 31.5 C 106.164062 31.5 106.5 31.835938 106.5 32.25 C 106.5 32.664062 106.164062 33 105.75 33 Z M 105.75 33 "/>
<path style=" stroke:none;fill-rule:nonzero;fill:rgb(100%,100%,100%);fill-opacity:1;" d="M 111.75 33 L 108.75 33 C 108.335938 33 108 32.664062 108 32.25 C 108 31.835938 108.335938 31.5 108.75 31.5 L 111.75 31.5 C 112.164062 31.5 112.5 31.835938 112.5 32.25 C 112.5 32.664062 112.164062 33 111.75 33 Z M 111.75 33 "/>
<path style=" stroke:none;fill-rule:nonzero;fill:rgb(100%,100%,100%);fill-opacity:1;" d="M 119.25 36 L 104.25 36 C 103.835938 36 103.5 35.664062 103.5 35.25 C 103.5 34.835938 103.835938 34.5 104.25 34.5 L 119.25 34.5 C 119.664062 34.5 120 34.835938 120 35.25 C 120 35.664062 119.664062 36 119.25 36 Z M 119.25 36 "/>
<path style=" stroke:none;fill-rule:nonzero;fill:rgb(100%,100%,100%);fill-opacity:1;" d="M 101.25 36 L 99.75 36 C 99.335938 36 99 35.664062 99 35.25 C 99 34.835938 99.335938 34.5 99.75 34.5 L 101.25 34.5 C 101.664062 34.5 102 34.835938 102 35.25 C 102 35.664062 101.664062 36 101.25 36 Z M 101.25 36 "/>
<path style=" stroke:none;fill-rule:nonzero;fill:rgb(100%,100%,100%);fill-opacity:1;" d="M 96.703125 36 L 93.75 36 C 93.335938 36 93 35.664062 93 35.25 C 93 34.835938 93.335938 34.5 93.75 34.5 L 96.703125 34.5 C 97.117188 34.5 97.453125 34.835938 97.453125 35.25 C 97.453125 35.664062 97.117188 36 96.703125 36 Z M 96.703125 36 "/>
<path style=" stroke:none;fill-rule:nonzero;fill:rgb(100%,100%,100%);fill-opacity:1;" d="M 110.25 30 L 102.75 30 C 102.335938 30 102 29.664062 102 29.25 C 102 28.835938 102.335938 28.5 102.75 28.5 L 110.25 28.5 C 110.664062 28.5 111 28.835938 111 29.25 C 111 29.664062 110.664062 30 110.25 30 Z M 110.25 30 "/>
<path style=" stroke:none;fill-rule:nonzero;fill:rgb(100%,100%,100%);fill-opacity:1;" d="M 105.75 39 L 102.75 39 C 102.335938 39 102 38.664062 102 38.25 C 102 37.835938 102.335938 37.5 102.75 37.5 L 105.75 37.5 C 106.164062 37.5 106.5 37.835938 106.5 38.25 C 106.5 38.664062 106.164062 39 105.75 39 Z M 105.75 39 "/>
<path style=" stroke:none;fill-rule:nonzero;fill:rgb(9.803922%,74.117649%,99.607843%);fill-opacity:1;" d="M 109.726562 69.578125 C 103.636719 63.574219 100.695312 62.382812 98.636719 56.53125 C 97.359375 45.8125 88.277344 37.5 77.246094 37.5 C 66.425781 37.5 57.496094 45.496094 55.945312 55.910156 C 54.632812 62.433594 50.949219 63.367188 44.652344 69.578125 C 39.425781 74.730469 38.832031 82.925781 38.878906 86.855469 C 38.894531 88.085938 39.777344 89.109375 40.984375 89.324219 C 42.617188 89.613281 45.050781 90.296875 47.480469 91.894531 C 51.722656 94.6875 51.722656 96.078125 53.140625 98.871094 C 54.554688 101.660156 54.871094 103.992188 60.214844 107.238281 C 62.910156 108.878906 65.871094 108.632812 68.703125 112.816406 C 71.53125 117 77.1875 117 77.1875 117 C 77.1875 117 82.847656 117 85.675781 112.816406 C 88.507812 108.632812 91.453125 108.851562 94.164062 107.238281 C 99.621094 103.992188 99.824219 101.660156 101.238281 98.871094 C 102.652344 96.078125 102.652344 94.6875 106.898438 91.894531 C 109.328125 90.296875 111.761719 89.617188 113.394531 89.324219 C 114.601562 89.109375 115.484375 88.085938 115.5 86.855469 C 115.542969 82.925781 114.949219 74.730469 109.726562 69.578125 Z M 109.726562 69.578125 "/>
<path style=" stroke:none;fill-rule:nonzero;fill:rgb(12.156863%,27.058825%,58.039218%);fill-opacity:1;" d="M 60.375 105.65625 C 60.375 105.65625 60.75 95.25 66.1875 84.375 C 68.25 80.25 70.515625 80.113281 69.75 86.25 C 68.25 98.25 68.25 107.25 68.25 110.25 C 65.8125 107.625 60.375 105.65625 60.375 105.65625 Z M 60.375 105.65625 "/>
<path style=" stroke:none;fill-rule:nonzero;fill:rgb(12.156863%,27.058825%,58.039218%);fill-opacity:1;" d="M 53.25 98.25 C 53.25 98.25 51.75 87.75 54.75 78.75 C 56.871094 72.386719 53.25 72.75 50.25 77.25 C 47.25 81.75 45.75 89.25 45.75 89.25 C 45.75 89.25 51.75 93.75 53.25 98.25 Z M 53.25 98.25 "/>
<path style=" stroke:none;fill-rule:nonzero;fill:rgb(27.843139%,16.862746%,16.078432%);fill-opacity:1;" d="M 68.285156 106.6875 C 68.28125 106.6875 68.28125 106.6875 68.277344 106.6875 C 68.070312 106.679688 67.90625 106.511719 67.910156 106.304688 C 67.96875 103.363281 68.101562 100.332031 68.308594 97.285156 C 68.324219 97.074219 68.507812 96.910156 68.710938 96.9375 C 68.914062 96.949219 69.070312 97.128906 69.058594 97.335938 C 68.851562 100.371094 68.714844 103.390625 68.660156 106.320312 C 68.65625 106.523438 68.488281 106.6875 68.285156 106.6875 Z M 68.285156 106.6875 "/>
<path style=" stroke:none;fill-rule:nonzero;fill:rgb(27.843139%,16.862746%,16.078432%);fill-opacity:1;" d="M 68.886719 94.972656 C 68.878906 94.972656 68.867188 94.972656 68.855469 94.972656 C 68.648438 94.957031 68.496094 94.773438 68.511719 94.566406 C 68.738281 91.789062 69.03125 88.976562 69.378906 86.203125 C 69.78125 82.976562 69.28125 81.929688 68.921875 81.824219 C 68.558594 81.707031 67.621094 82.347656 66.523438 84.542969 C 66.429688 84.730469 66.207031 84.800781 66.019531 84.710938 C 65.832031 84.617188 65.761719 84.390625 65.851562 84.207031 C 66.980469 81.945312 68.179688 80.800781 69.140625 81.105469 C 70.167969 81.417969 70.507812 83.210938 70.121094 86.296875 C 69.777344 89.0625 69.484375 91.863281 69.257812 94.628906 C 69.246094 94.828125 69.078125 94.972656 68.886719 94.972656 Z M 68.886719 94.972656 "/>
<path style=" stroke:none;fill-rule:nonzero;fill:rgb(27.843139%,16.862746%,16.078432%);fill-opacity:1;" d="M 62.28125 95.042969 C 62.246094 95.042969 62.214844 95.039062 62.179688 95.03125 C 61.980469 94.976562 61.863281 94.769531 61.917969 94.570312 C 62.644531 91.917969 63.546875 89.339844 64.59375 86.914062 C 64.675781 86.71875 64.898438 86.632812 65.089844 86.714844 C 65.277344 86.800781 65.367188 87.019531 65.28125 87.210938 C 64.246094 89.605469 63.359375 92.148438 62.640625 94.765625 C 62.59375 94.933594 62.445312 95.042969 62.28125 95.042969 Z M 62.28125 95.042969 "/>
<path style=" stroke:none;fill-rule:nonzero;fill:rgb(27.843139%,16.862746%,16.078432%);fill-opacity:1;" d="M 60.375 106.03125 C 60.371094 106.03125 60.367188 106.03125 60.363281 106.03125 C 60.15625 106.023438 59.992188 105.851562 60 105.644531 C 60 105.613281 60.117188 102.660156 61.011719 98.335938 C 61.054688 98.132812 61.253906 98.015625 61.453125 98.046875 C 61.65625 98.089844 61.789062 98.285156 61.746094 98.488281 C 60.867188 102.746094 60.75 105.644531 60.75 105.671875 C 60.742188 105.871094 60.574219 106.03125 60.375 106.03125 Z M 60.375 106.03125 "/>
<path style=" stroke:none;fill-rule:nonzero;fill:rgb(27.843139%,16.862746%,16.078432%);fill-opacity:1;" d="M 46.386719 87.003906 C 46.355469 87.003906 46.320312 87 46.289062 86.988281 C 46.089844 86.933594 45.96875 86.726562 46.023438 86.527344 C 46.535156 84.648438 47.113281 82.902344 47.742188 81.34375 C 47.820312 81.152344 48.039062 81.054688 48.234375 81.136719 C 48.425781 81.214844 48.515625 81.433594 48.441406 81.625 C 47.820312 83.15625 47.25 84.871094 46.75 86.722656 C 46.703125 86.894531 46.550781 87.003906 46.386719 87.003906 Z M 46.386719 87.003906 "/>
<path style=" stroke:none;fill-rule:nonzero;fill:rgb(27.843139%,16.862746%,16.078432%);fill-opacity:1;" d="M 48.941406 79.941406 C 48.886719 79.941406 48.828125 79.925781 48.777344 79.902344 C 48.589844 79.808594 48.511719 79.585938 48.605469 79.402344 C 49.035156 78.515625 49.484375 77.722656 49.9375 77.042969 C 51.675781 74.4375 53.660156 73.082031 54.878906 73.679688 C 55.507812 73.984375 56.371094 75.070312 55.105469 78.871094 C 55.039062 79.066406 54.828125 79.179688 54.632812 79.105469 C 54.433594 79.039062 54.328125 78.828125 54.394531 78.632812 C 55.316406 75.867188 55.054688 74.601562 54.550781 74.351562 C 53.832031 74.007812 52.152344 75.070312 50.5625 77.457031 C 50.125 78.113281 49.695312 78.875 49.277344 79.730469 C 49.214844 79.863281 49.078125 79.941406 48.941406 79.941406 Z M 48.941406 79.941406 "/>
<path style=" stroke:none;fill-rule:nonzero;fill:rgb(27.843139%,16.862746%,16.078432%);fill-opacity:1;" d="M 53.25 98.625 C 53.066406 98.625 52.90625 98.488281 52.878906 98.300781 C 52.867188 98.214844 51.644531 89.390625 53.699219 81.050781 C 53.746094 80.851562 53.949219 80.730469 54.152344 80.773438 C 54.351562 80.824219 54.476562 81.027344 54.425781 81.230469 C 52.40625 89.429688 53.609375 98.109375 53.621094 98.199219 C 53.652344 98.402344 53.507812 98.59375 53.304688 98.621094 C 53.285156 98.625 53.265625 98.625 53.25 98.625 Z M 53.25 98.625 "/>
<path style=" stroke:none;fill-rule:nonzero;fill:rgb(12.156863%,27.058825%,58.039218%);fill-opacity:1;" d="M 94.277344 105.65625 C 94.277344 105.65625 93.902344 95.25 88.464844 84.375 C 86.402344 80.25 84.136719 80.113281 84.902344 86.25 C 86.402344 98.25 86.402344 107.25 86.402344 110.25 C 88.839844 107.625 94.277344 105.65625 94.277344 105.65625 Z M 94.277344 105.65625 "/>
<path style=" stroke:none;fill-rule:nonzero;fill:rgb(12.156863%,27.058825%,58.039218%);fill-opacity:1;" d="M 101.402344 98.25 C 101.402344 98.25 102.902344 87.75 99.902344 78.75 C 97.78125 72.386719 101.402344 72.75 104.402344 77.25 C 107.402344 81.75 108.902344 89.25 108.902344 89.25 C 108.902344 89.25 102.902344 93.75 101.402344 98.25 Z M 101.402344 98.25 "/>
<path style=" stroke:none;fill-rule:nonzero;fill:rgb(27.843139%,16.862746%,16.078432%);fill-opacity:1;" d="M 86.367188 106.6875 C 86.164062 106.6875 85.996094 106.523438 85.992188 106.320312 C 85.933594 103.371094 85.800781 100.351562 85.597656 97.335938 C 85.582031 97.128906 85.738281 96.949219 85.945312 96.9375 C 86.148438 96.90625 86.328125 97.078125 86.34375 97.285156 C 86.550781 100.3125 86.683594 103.34375 86.742188 106.304688 C 86.746094 106.511719 86.582031 106.679688 86.375 106.6875 C 86.375 106.6875 86.371094 106.6875 86.367188 106.6875 Z M 86.367188 106.6875 "/>
<path style=" stroke:none;fill-rule:nonzero;fill:rgb(27.843139%,16.862746%,16.078432%);fill-opacity:1;" d="M 85.765625 94.972656 C 85.574219 94.972656 85.410156 94.824219 85.390625 94.628906 C 85.164062 91.863281 84.875 89.0625 84.53125 86.296875 C 84.144531 83.210938 84.484375 81.417969 85.511719 81.105469 C 86.464844 80.816406 87.667969 81.945312 88.800781 84.207031 C 88.894531 84.390625 88.816406 84.617188 88.632812 84.710938 C 88.445312 84.796875 88.222656 84.726562 88.128906 84.542969 C 87.03125 82.347656 86.089844 81.699219 85.726562 81.824219 C 85.371094 81.929688 84.871094 82.976562 85.273438 86.203125 C 85.621094 88.976562 85.910156 91.792969 86.140625 94.566406 C 86.15625 94.773438 86.003906 94.957031 85.796875 94.972656 C 85.785156 94.972656 85.777344 94.972656 85.765625 94.972656 Z M 85.765625 94.972656 "/>
<path style=" stroke:none;fill-rule:nonzero;fill:rgb(27.843139%,16.862746%,16.078432%);fill-opacity:1;" d="M 92.375 95.042969 C 92.210938 95.042969 92.058594 94.933594 92.011719 94.769531 C 91.292969 92.148438 90.40625 89.605469 89.371094 87.210938 C 89.289062 87.019531 89.378906 86.800781 89.566406 86.71875 C 89.753906 86.636719 89.976562 86.722656 90.058594 86.914062 C 91.105469 89.339844 92.007812 91.917969 92.734375 94.570312 C 92.792969 94.773438 92.671875 94.976562 92.472656 95.03125 C 92.4375 95.039062 92.40625 95.042969 92.375 95.042969 Z M 92.375 95.042969 "/>
<path style=" stroke:none;fill-rule:nonzero;fill:rgb(27.843139%,16.862746%,16.078432%);fill-opacity:1;" d="M 94.277344 106.03125 C 94.078125 106.03125 93.910156 105.871094 93.902344 105.671875 C 93.902344 105.640625 93.789062 102.746094 92.90625 98.488281 C 92.863281 98.289062 92.992188 98.089844 93.195312 98.046875 C 93.394531 98.015625 93.597656 98.132812 93.640625 98.335938 C 94.535156 102.660156 94.648438 105.613281 94.652344 105.644531 C 94.660156 105.851562 94.496094 106.023438 94.289062 106.03125 C 94.285156 106.03125 94.28125 106.03125 94.277344 106.03125 Z M 94.277344 106.03125 "/>
<path style=" stroke:none;fill-rule:nonzero;fill:rgb(27.843139%,16.862746%,16.078432%);fill-opacity:1;" d="M 108.265625 87.003906 C 108.101562 87.003906 107.949219 86.894531 107.90625 86.726562 C 107.40625 84.875 106.835938 83.160156 106.214844 81.628906 C 106.136719 81.433594 106.230469 81.21875 106.421875 81.140625 C 106.613281 81.054688 106.832031 81.152344 106.910156 81.347656 C 107.539062 82.90625 108.121094 84.652344 108.628906 86.53125 C 108.683594 86.730469 108.566406 86.9375 108.367188 86.992188 C 108.332031 87 108.296875 87.003906 108.265625 87.003906 Z M 108.265625 87.003906 "/>
<path style=" stroke:none;fill-rule:nonzero;fill:rgb(27.843139%,16.862746%,16.078432%);fill-opacity:1;" d="M 105.710938 79.941406 C 105.574219 79.941406 105.4375 79.863281 105.375 79.726562 C 104.960938 78.878906 104.527344 78.117188 104.089844 77.457031 C 102.496094 75.066406 100.804688 74.011719 100.101562 74.351562 C 99.597656 74.597656 99.335938 75.867188 100.257812 78.632812 C 100.324219 78.828125 100.21875 79.039062 100.023438 79.105469 C 99.828125 79.175781 99.613281 79.066406 99.546875 78.867188 C 98.28125 75.070312 99.144531 73.984375 99.773438 73.675781 C 100.992188 73.082031 102.976562 74.4375 104.714844 77.042969 C 105.171875 77.726562 105.621094 78.523438 106.046875 79.398438 C 106.140625 79.585938 106.0625 79.808594 105.875 79.902344 C 105.820312 79.925781 105.765625 79.941406 105.710938 79.941406 Z M 105.710938 79.941406 "/>
<path style=" stroke:none;fill-rule:nonzero;fill:rgb(27.843139%,16.862746%,16.078432%);fill-opacity:1;" d="M 101.40625 98.625 C 101.386719 98.625 101.367188 98.625 101.351562 98.621094 C 101.144531 98.589844 101.003906 98.402344 101.03125 98.199219 C 101.042969 98.109375 102.246094 89.425781 100.226562 81.230469 C 100.179688 81.027344 100.300781 80.824219 100.503906 80.773438 C 100.707031 80.730469 100.90625 80.851562 100.957031 81.050781 C 103.007812 89.390625 101.785156 98.214844 101.773438 98.300781 C 101.746094 98.488281 101.585938 98.625 101.40625 98.625 Z M 101.40625 98.625 "/>
<path style=" stroke:none;fill-rule:nonzero;fill:rgb(27.843139%,16.862746%,16.078432%);fill-opacity:1;" d="M 77.246094 39.601562 C 87.085938 39.601562 95.386719 46.984375 96.554688 56.78125 L 96.5625 56.84375 L 96.574219 56.910156 C 97.480469 61.867188 100.132812 64.0625 103.488281 66.847656 C 104.890625 68.007812 106.476562 69.324219 108.253906 71.074219 C 113.117188 75.871094 113.46875 83.941406 113.402344 87.191406 C 111.5 87.492188 108.625 88.246094 105.742188 90.140625 C 101.746094 92.765625 100.925781 94.554688 99.980469 96.628906 C 99.796875 97.027344 99.601562 97.453125 99.367188 97.917969 C 99.105469 98.433594 98.882812 98.929688 98.664062 99.425781 C 97.753906 101.472656 97.035156 103.085938 93.09375 105.433594 C 92.429688 105.824219 91.691406 106.105469 90.910156 106.40625 C 88.851562 107.191406 86.285156 108.167969 83.9375 111.640625 C 81.789062 114.820312 77.226562 114.902344 77.191406 114.902344 C 77.144531 114.902344 72.585938 114.8125 70.441406 111.640625 C 68.109375 108.191406 65.558594 107.21875 63.511719 106.433594 C 62.71875 106.132812 61.96875 105.847656 61.304688 105.441406 C 57.382812 103.058594 56.628906 101.40625 55.675781 99.320312 C 55.46875 98.859375 55.253906 98.394531 55.011719 97.917969 C 54.777344 97.453125 54.582031 97.027344 54.398438 96.628906 C 53.449219 94.554688 52.632812 92.765625 48.632812 90.140625 C 45.753906 88.246094 42.878906 87.492188 40.984375 87.1875 C 40.910156 83.941406 41.257812 75.871094 46.125 71.074219 C 47.863281 69.363281 49.390625 68.058594 50.738281 66.910156 C 54.269531 63.894531 56.820312 61.71875 58 56.363281 L 58.015625 56.292969 L 58.023438 56.21875 C 59.433594 46.746094 67.695312 39.601562 77.246094 39.601562 M 77.246094 37.5 C 66.425781 37.5 57.496094 45.496094 55.945312 55.910156 C 54.511719 62.433594 50.949219 63.367188 44.652344 69.578125 C 39.253906 74.902344 38.800781 83.476562 38.886719 87.238281 C 38.910156 88.253906 39.648438 89.109375 40.652344 89.265625 C 42.273438 89.523438 44.878906 90.183594 47.484375 91.894531 C 51.726562 94.683594 51.726562 96.078125 53.140625 98.867188 C 54.554688 101.65625 54.875 103.992188 60.214844 107.238281 C 62.910156 108.875 65.871094 108.632812 68.703125 112.816406 C 71.53125 117 77.1875 117 77.1875 117 C 77.1875 117 82.847656 117 85.675781 112.816406 C 88.507812 108.632812 91.453125 108.847656 94.164062 107.238281 C 99.621094 103.992188 99.824219 101.65625 101.238281 98.867188 C 102.652344 96.078125 102.652344 94.683594 106.898438 91.894531 C 109.5 90.183594 112.105469 89.523438 113.726562 89.265625 C 114.730469 89.109375 115.46875 88.253906 115.492188 87.238281 C 115.582031 83.476562 115.125 74.902344 109.726562 69.578125 C 103.636719 63.574219 99.742188 62.554688 98.640625 56.53125 C 97.359375 45.8125 88.277344 37.5 77.246094 37.5 Z M 77.246094 37.5 "/>
<path style=" stroke:none;fill-rule:nonzero;fill:rgb(100%,15.686275%,42.352942%);fill-opacity:1;" d="M 71.945312 52.589844 C 73.394531 53.0625 73.925781 55.425781 73.128906 57.867188 C 72.332031 60.304688 70.507812 61.898438 69.058594 61.421875 C 67.605469 60.949219 67.074219 58.585938 67.871094 56.148438 C 68.667969 53.707031 70.492188 52.113281 71.945312 52.589844 Z M 71.945312 52.589844 "/>
<path style=" stroke:none;fill-rule:nonzero;fill:rgb(100%,15.686275%,42.352942%);fill-opacity:1;" d="M 86.628906 56.140625 C 87.425781 58.578125 86.894531 60.941406 85.445312 61.414062 C 83.992188 61.890625 82.167969 60.296875 81.371094 57.859375 C 80.574219 55.417969 81.105469 53.054688 82.558594 52.582031 C 84.007812 52.105469 85.832031 53.699219 86.628906 56.140625 Z M 86.628906 56.140625 "/>
<path style=" stroke:none;fill-rule:nonzero;fill:rgb(27.843139%,16.862746%,16.078432%);fill-opacity:1;" d="M 69.585938 61.875 C 68.933594 61.875 68.359375 61.59375 67.925781 61.058594 C 67.179688 60.148438 66.9375 58.601562 67.277344 56.925781 C 67.414062 56.242188 67.640625 55.585938 67.941406 54.972656 C 68.03125 54.785156 68.257812 54.710938 68.441406 54.800781 C 68.628906 54.894531 68.703125 55.117188 68.613281 55.304688 C 68.339844 55.859375 68.136719 56.457031 68.011719 57.074219 C 67.71875 58.511719 67.910156 59.855469 68.507812 60.585938 C 68.796875 60.945312 69.160156 61.125 69.585938 61.125 C 69.792969 61.125 69.960938 61.292969 69.960938 61.5 C 69.960938 61.707031 69.792969 61.875 69.585938 61.875 Z M 69.585938 61.875 "/>
<path style=" stroke:none;fill-rule:nonzero;fill:rgb(27.843139%,16.862746%,16.078432%);fill-opacity:1;" d="M 71.695312 60.757812 C 71.605469 60.757812 71.511719 60.722656 71.441406 60.660156 C 71.289062 60.515625 71.28125 60.28125 71.417969 60.128906 C 72.167969 59.320312 72.738281 58.15625 72.988281 56.925781 C 73.28125 55.488281 73.089844 54.144531 72.492188 53.414062 C 71.871094 52.648438 70.855469 52.71875 69.90625 53.550781 C 69.75 53.6875 69.511719 53.671875 69.375 53.515625 C 69.238281 53.359375 69.253906 53.125 69.410156 52.984375 C 70.6875 51.871094 72.191406 51.859375 73.070312 52.941406 C 73.816406 53.851562 74.0625 55.398438 73.71875 57.074219 C 73.441406 58.433594 72.804688 59.734375 71.96875 60.636719 C 71.898438 60.71875 71.796875 60.757812 71.695312 60.757812 Z M 71.695312 60.757812 "/>
<path style=" stroke:none;fill-rule:nonzero;fill:rgb(27.843139%,16.862746%,16.078432%);fill-opacity:1;" d="M 84.914062 61.875 C 83.140625 61.875 81.324219 59.765625 80.777344 57.074219 C 80.566406 56.03125 80.574219 55.035156 80.808594 54.191406 C 80.863281 53.988281 81.070312 53.871094 81.269531 53.929688 C 81.46875 53.984375 81.585938 54.191406 81.53125 54.390625 C 81.332031 55.117188 81.324219 55.996094 81.511719 56.925781 C 81.976562 59.203125 83.535156 61.125 84.917969 61.125 C 85.339844 61.125 85.703125 60.945312 85.996094 60.585938 C 86.59375 59.855469 86.78125 58.511719 86.488281 57.074219 C 86.027344 54.796875 84.46875 52.875 83.085938 52.875 C 82.878906 52.875 82.710938 52.707031 82.710938 52.5 C 82.710938 52.292969 82.878906 52.125 83.085938 52.125 C 84.859375 52.125 86.679688 54.234375 87.226562 56.925781 C 87.566406 58.601562 87.324219 60.144531 86.574219 61.058594 C 86.140625 61.59375 85.566406 61.875 84.914062 61.875 Z M 84.914062 61.875 "/>
<path style=" stroke:none;fill-rule:nonzero;fill:rgb(100%,15.686275%,42.352942%);fill-opacity:1;" d="M 69.632812 69.304688 C 73.671875 63.648438 79.238281 64.054688 83.367188 69.304688 C 84.234375 70.40625 83.257812 70.886719 82.777344 70.484375 C 79.167969 67.472656 74.210938 67.410156 70.222656 70.484375 C 69.726562 70.867188 68.8125 70.453125 69.632812 69.304688 Z M 69.632812 69.304688 "/>
<path style=" stroke:none;fill-rule:nonzero;fill:rgb(27.843139%,16.862746%,16.078432%);fill-opacity:1;" d="M 83.171875 71 C 82.945312 71 82.71875 70.925781 82.535156 70.773438 C 80.148438 68.78125 77.082031 68.101562 74.125 68.917969 C 73.925781 68.972656 73.71875 68.859375 73.664062 68.65625 C 73.609375 68.457031 73.726562 68.25 73.925781 68.195312 C 77.121094 67.316406 80.4375 68.042969 83.015625 70.195312 C 83.105469 70.273438 83.242188 70.261719 83.300781 70.203125 C 83.386719 70.125 83.335938 69.867188 83.074219 69.535156 C 82.59375 68.929688 82.085938 68.378906 81.566406 67.902344 C 81.414062 67.757812 81.40625 67.523438 81.542969 67.371094 C 81.683594 67.214844 81.925781 67.210938 82.074219 67.34375 C 82.625 67.851562 83.160156 68.433594 83.664062 69.070312 C 84.261719 69.835938 84.140625 70.433594 83.824219 70.738281 C 83.648438 70.914062 83.410156 71 83.171875 71 Z M 83.171875 71 "/>
<path style=" stroke:none;fill-rule:nonzero;fill:rgb(27.843139%,16.862746%,16.078432%);fill-opacity:1;" d="M 69.820312 71 C 69.585938 71 69.359375 70.917969 69.1875 70.753906 C 69.042969 70.613281 68.621094 70.074219 69.328125 69.085938 C 72.425781 64.746094 76.613281 63.648438 80.535156 66.15625 C 80.710938 66.265625 80.761719 66.496094 80.648438 66.671875 C 80.539062 66.847656 80.304688 66.898438 80.132812 66.789062 C 76.539062 64.488281 72.824219 65.488281 69.941406 69.523438 C 69.660156 69.917969 69.652344 70.15625 69.710938 70.214844 C 69.757812 70.257812 69.890625 70.269531 69.996094 70.1875 C 70.609375 69.714844 71.257812 69.304688 71.921875 68.96875 C 72.105469 68.878906 72.332031 68.949219 72.425781 69.136719 C 72.519531 69.320312 72.445312 69.542969 72.261719 69.640625 C 71.636719 69.953125 71.03125 70.339844 70.453125 70.78125 C 70.261719 70.925781 70.039062 71 69.820312 71 Z M 69.820312 71 "/>
<path style=" stroke:none;fill-rule:nonzero;fill:rgb(27.843139%,16.862746%,16.078432%);fill-opacity:1;" d="M 73.5 55.5 C 73.5 56.328125 72.828125 57 72 57 C 71.171875 57 70.5 56.328125 70.5 55.5 C 70.5 54.671875 71.171875 54 72 54 C 72.828125 54 73.5 54.671875 73.5 55.5 Z M 73.5 55.5 "/>
<path style=" stroke:none;fill-rule:nonzero;fill:rgb(27.843139%,16.862746%,16.078432%);fill-opacity:1;" d="M 84 55.5 C 84 56.328125 83.328125 57 82.5 57 C 81.671875 57 81 56.328125 81 55.5 C 81 54.671875 81.671875 54 82.5 54 C 83.328125 54 84 54.671875 84 55.5 Z M 84 55.5 "/>
<path style=" stroke:none;fill-rule:nonzero;fill:rgb(100%,100%,100%);fill-opacity:1;" d="M 125.25 101.25 C 125.25 101.25 127.601562 101.25 130.5 101.25 C 133.398438 101.25 135.75 98.898438 135.75 96 C 135.75 93.328125 133.746094 91.148438 131.167969 90.816406 C 131.210938 90.550781 131.25 90.28125 131.25 90 C 131.25 87.101562 128.898438 84.75 126 84.75 C 124.453125 84.75 123.074219 85.433594 122.113281 86.496094 C 121.539062 83.785156 119.132812 81.75 116.25 81.75 C 112.9375 81.75 110.25 84.4375 110.25 87.75 C 110.25 88.035156 110.296875 88.3125 110.335938 88.585938 C 109.691406 88.070312 108.886719 87.75 108 87.75 C 106.15625 87.75 104.632812 89.082031 104.316406 90.832031 C 104.050781 90.789062 103.78125 90.75 103.5 90.75 C 100.601562 90.75 98.25 93.101562 98.25 96 C 98.25 98.898438 100.601562 101.25 103.5 101.25 C 106.398438 101.25 114.75 101.25 114.75 101.25 L 114.75 102 L 125.25 102 Z M 125.25 101.25 "/>
<path style=" stroke:none;fill-rule:nonzero;fill:rgb(27.843139%,16.862746%,16.078432%);fill-opacity:1;" d="M 127.875 94.5 C 127.667969 94.5 127.5 94.332031 127.5 94.125 C 127.5 92.289062 128.992188 90.796875 130.828125 90.796875 C 130.878906 90.8125 131.933594 90.796875 132.691406 91.003906 C 132.890625 91.054688 133.011719 91.261719 132.957031 91.460938 C 132.902344 91.660156 132.699219 91.78125 132.496094 91.726562 C 131.832031 91.546875 130.847656 91.546875 130.828125 91.546875 C 129.40625 91.546875 128.25 92.703125 128.25 94.125 C 128.25 94.332031 128.082031 94.5 127.875 94.5 Z M 127.875 94.5 "/>
<path style=" stroke:none;fill-rule:nonzero;fill:rgb(27.843139%,16.862746%,16.078432%);fill-opacity:1;" d="M 118.5 101.25 C 118.5 101.664062 118.164062 102 117.75 102 C 117.335938 102 117 101.664062 117 101.25 C 117 100.835938 117.335938 100.5 117.75 100.5 C 118.164062 100.5 118.5 100.835938 118.5 101.25 Z M 118.5 101.25 "/>
<path style=" stroke:none;fill-rule:nonzero;fill:rgb(27.843139%,16.862746%,16.078432%);fill-opacity:1;" d="M 130.5 102 L 125.25 102 C 124.835938 102 124.5 101.664062 124.5 101.25 C 124.5 100.835938 124.835938 100.5 125.25 100.5 L 130.5 100.5 C 132.980469 100.5 135 98.480469 135 96 C 135 93.757812 133.3125 91.847656 131.074219 91.5625 C 130.871094 91.535156 130.691406 91.429688 130.570312 91.265625 C 130.449219 91.105469 130.398438 90.902344 130.429688 90.703125 C 130.460938 90.472656 130.5 90.238281 130.5 90 C 130.5 87.519531 128.480469 85.5 126 85.5 C 124.726562 85.5 123.542969 86.03125 122.671875 87 C 122.484375 87.207031 122.191406 87.296875 121.921875 87.222656 C 121.648438 87.148438 121.441406 86.929688 121.382812 86.652344 C 120.871094 84.246094 118.710938 82.5 116.25 82.5 C 113.355469 82.5 111 84.855469 111 87.75 C 111 87.964844 111.03125 88.171875 111.0625 88.378906 C 111.105469 88.679688 110.96875 89.035156 110.699219 89.1875 C 110.429688 89.339844 110.105469 89.363281 109.863281 89.171875 C 109.316406 88.734375 108.671875 88.5 108 88.5 C 106.550781 88.5 105.3125 89.535156 105.054688 90.964844 C 104.984375 91.367188 104.613281 91.636719 104.203125 91.574219 C 103.972656 91.539062 103.738281 91.5 103.5 91.5 C 101.019531 91.5 99 93.519531 99 96 C 99 98.480469 101.019531 100.5 103.5 100.5 L 114.75 100.5 C 115.164062 100.5 115.5 100.835938 115.5 101.25 C 115.5 101.664062 115.164062 102 114.75 102 L 103.5 102 C 100.191406 102 97.5 99.308594 97.5 96 C 97.5 92.691406 100.191406 90 103.5 90 C 103.589844 90 103.675781 90.003906 103.761719 90.007812 C 104.382812 88.230469 106.066406 87 108 87 C 108.523438 87 109.035156 87.089844 109.515625 87.269531 C 109.765625 83.769531 112.6875 81 116.25 81 C 118.996094 81 121.449219 82.691406 122.480469 85.160156 C 123.5 84.414062 124.734375 84 126 84 C 129.308594 84 132 86.691406 132 90 C 132 90.070312 132 90.140625 131.992188 90.214844 C 134.609375 90.886719 136.5 93.253906 136.5 96 C 136.5 99.308594 133.808594 102 130.5 102 Z M 130.5 102 "/>
<path style=" stroke:none;fill-rule:nonzero;fill:rgb(27.843139%,16.862746%,16.078432%);fill-opacity:1;" d="M 122.25 100.5 C 122.011719 100.5 120.988281 100.5 120.75 100.5 C 120.335938 100.5 120 100.835938 120 101.25 C 120 101.664062 120.335938 102 120.75 102 C 120.988281 102 122.011719 102 122.25 102 C 122.664062 102 123 101.664062 123 101.25 C 123 100.835938 122.664062 100.5 122.25 100.5 Z M 122.25 100.5 "/>
<path style=" stroke:none;fill-rule:nonzero;fill:rgb(27.843139%,16.862746%,16.078432%);fill-opacity:1;" d="M 70.476562 45.03125 C 70.207031 45.03125 69.945312 44.882812 69.8125 44.625 C 69.621094 44.257812 69.765625 43.804688 70.132812 43.613281 C 72.054688 42.617188 75.070312 42 78 42 C 78.414062 42 78.75 42.335938 78.75 42.75 C 78.75 43.164062 78.414062 43.5 78 43.5 C 75.335938 43.5 72.515625 44.066406 70.820312 44.945312 C 70.710938 45.003906 70.59375 45.03125 70.476562 45.03125 Z M 70.476562 45.03125 "/>
<path style=" stroke:none;fill-rule:nonzero;fill:rgb(27.843139%,16.862746%,16.078432%);fill-opacity:1;" d="M 60.75 60 C 60.746094 60 60.742188 60 60.742188 60 C 60.328125 59.992188 59.996094 59.65625 60 59.242188 C 60.003906 58.898438 60.175781 50.785156 67.035156 45.570312 C 67.363281 45.316406 67.832031 45.382812 68.085938 45.710938 C 68.335938 46.042969 68.273438 46.511719 67.941406 46.761719 C 61.683594 51.527344 61.5 59.183594 61.5 59.261719 C 61.492188 59.671875 61.160156 60 60.75 60 Z M 60.75 60 "/>
</g>
</svg>
