<?xml version="1.0" encoding="UTF-8"?>
<svg xmlns="http://www.w3.org/2000/svg" xmlns:xlink="http://www.w3.org/1999/xlink" viewBox="0 0 48 48" width="48px" height="48px">
<g id="surface30624647">
<path style=" stroke:none;fill-rule:nonzero;fill:rgb(100%,100%,100%);fill-opacity:1;" d="M 16.035156 2.03125 C 14.550781 1.917969 13.082031 2.171875 11.789062 2.917969 C 10.066406 3.914062 8.945312 5.628906 8.367188 7.558594 C 7.789062 9.488281 7.6875 11.691406 7.933594 14.085938 C 7.960938 14.359375 8.007812 14.648438 8.046875 14.929688 C 7.90625 14.992188 7.753906 15.046875 7.617188 15.109375 C 5.453125 16.09375 3.625 17.285156 2.265625 18.746094 C 0.90625 20.207031 0 22.023438 0 24 C 0 25.976562 0.90625 27.792969 2.265625 29.253906 C 3.625 30.714844 5.453125 31.90625 7.617188 32.890625 C 7.753906 32.953125 7.90625 33.007812 8.046875 33.070312 C 8.007812 33.351562 7.960938 33.640625 7.933594 33.914062 C 7.6875 36.308594 7.789062 38.511719 8.367188 40.441406 C 8.945312 42.371094 10.0625 44.085938 11.785156 45.082031 C 13.507812 46.078125 15.550781 46.195312 17.511719 45.738281 C 19.472656 45.28125 21.433594 44.277344 23.390625 42.871094 C 23.59375 42.726562 23.792969 42.554688 23.996094 42.402344 C 24.199219 42.558594 24.402344 42.726562 24.605469 42.871094 C 26.5625 44.277344 28.523438 45.285156 30.484375 45.742188 C 32.445312 46.199219 34.488281 46.078125 36.210938 45.082031 C 37.933594 44.085938 39.054688 42.371094 39.632812 40.441406 C 40.210938 38.511719 40.3125 36.308594 40.066406 33.914062 C 40.039062 33.636719 39.988281 33.351562 39.949219 33.070312 C 40.089844 33.007812 40.242188 32.953125 40.382812 32.890625 C 42.546875 31.90625 44.375 30.714844 45.734375 29.253906 C 47.09375 27.792969 48 25.976562 48 24 C 48 22.023438 47.09375 20.207031 45.734375 18.746094 C 44.375 17.285156 42.546875 16.09375 40.382812 15.109375 C 40.246094 15.046875 40.09375 14.992188 39.953125 14.929688 C 39.992188 14.648438 40.039062 14.359375 40.066406 14.085938 C 40.3125 11.691406 40.210938 9.488281 39.632812 7.558594 C 39.054688 5.628906 37.9375 3.914062 36.214844 2.917969 C 34.492188 1.921875 32.449219 1.804688 30.488281 2.261719 C 28.527344 2.71875 26.566406 3.722656 24.609375 5.128906 C 24.40625 5.273438 24.203125 5.441406 24 5.597656 C 23.796875 5.445312 23.597656 5.273438 23.394531 5.128906 C 21.4375 3.722656 19.476562 2.71875 17.515625 2.261719 C 17.023438 2.148438 16.53125 2.070312 16.035156 2.03125 Z M 14.984375 6.011719 C 15.445312 5.96875 15.972656 6.007812 16.601562 6.15625 C 17.820312 6.441406 19.328125 7.160156 20.925781 8.289062 C 19.667969 9.53125 18.4375 10.917969 17.253906 12.457031 C 15.363281 12.71875 13.578125 13.101562 11.90625 13.574219 C 11.714844 11.601562 11.839844 9.917969 12.203125 8.707031 C 12.574219 7.472656 13.113281 6.773438 13.792969 6.378906 C 14.132812 6.179688 14.523438 6.054688 14.984375 6.011719 Z M 32.269531 6.011719 C 33.078125 5.941406 33.695312 6.082031 34.207031 6.378906 C 34.886719 6.773438 35.429688 7.472656 35.800781 8.707031 C 36.164062 9.917969 36.289062 11.601562 36.097656 13.574219 C 34.425781 13.101562 32.640625 12.71875 30.746094 12.457031 C 29.5625 10.921875 28.332031 9.53125 27.078125 8.289062 C 28.671875 7.164062 30.179688 6.441406 31.398438 6.15625 C 31.710938 6.082031 32 6.035156 32.269531 6.011719 Z M 24 10.90625 C 24.355469 11.253906 24.714844 11.644531 25.070312 12.023438 C 24.714844 12.015625 24.363281 12 24 12 C 23.636719 12 23.285156 12.015625 22.929688 12.023438 C 23.285156 11.644531 23.644531 11.253906 24 10.90625 Z M 24 16 C 25.574219 16 27.097656 16.097656 28.570312 16.246094 C 29.402344 17.410156 30.207031 18.652344 30.96875 19.964844 C 31.75 21.316406 32.433594 22.664062 33.042969 24 C 32.433594 25.335938 31.75 26.6875 30.96875 28.039062 C 30.207031 29.351562 29.402344 30.589844 28.570312 31.753906 C 27.097656 31.902344 25.574219 32 24 32 C 22.425781 32 20.902344 31.902344 19.429688 31.753906 C 18.597656 30.589844 17.792969 29.351562 17.03125 28.039062 C 16.25 26.6875 15.566406 25.335938 14.957031 24 C 15.566406 22.664062 16.25 21.3125 17.03125 19.960938 C 17.792969 18.648438 18.597656 17.410156 19.429688 16.246094 C 20.902344 16.097656 22.425781 16 24 16 Z M 14.035156 17.191406 C 13.878906 17.449219 13.722656 17.695312 13.570312 17.957031 C 13.390625 18.269531 13.226562 18.578125 13.054688 18.890625 C 12.917969 18.4375 12.769531 17.976562 12.65625 17.535156 C 13.09375 17.40625 13.574219 17.304688 14.035156 17.191406 Z M 33.964844 17.195312 C 34.425781 17.308594 34.910156 17.40625 35.34375 17.535156 C 35.230469 17.976562 35.082031 18.4375 34.945312 18.890625 C 34.773438 18.578125 34.609375 18.269531 34.429688 17.957031 C 34.277344 17.695312 34.117188 17.453125 33.964844 17.195312 Z M 24 18 C 20.710938 18 18 20.710938 18 24 C 18 27.289062 20.710938 30 24 30 C 27.289062 30 30 27.289062 30 24 C 30 20.710938 27.289062 18 24 18 Z M 8.867188 18.949219 C 9.308594 20.589844 9.875 22.277344 10.582031 23.996094 C 9.871094 25.714844 9.304688 27.40625 8.863281 29.046875 C 7.253906 28.269531 5.988281 27.386719 5.191406 26.53125 C 4.324219 25.601562 4 24.785156 4 24 C 4 23.214844 4.324219 22.398438 5.191406 21.46875 C 5.988281 20.609375 7.253906 19.730469 8.867188 18.949219 Z M 39.136719 18.953125 C 40.746094 19.730469 42.011719 20.613281 42.808594 21.46875 C 43.675781 22.398438 44 23.214844 44 24 C 44 24.785156 43.675781 25.601562 42.808594 26.53125 C 42.011719 27.386719 40.746094 28.265625 39.132812 29.046875 C 38.691406 27.40625 38.125 25.71875 37.417969 24 C 38.128906 22.28125 38.695312 20.59375 39.136719 18.953125 Z M 24 22 C 25.128906 22 26 22.871094 26 24 C 26 25.128906 25.128906 26 24 26 C 22.871094 26 22 25.128906 22 24 C 22 22.871094 22.871094 22 24 22 Z M 13.054688 29.109375 C 13.226562 29.421875 13.390625 29.730469 13.570312 30.042969 C 13.722656 30.304688 13.882812 30.550781 14.035156 30.804688 C 13.574219 30.691406 13.089844 30.59375 12.65625 30.464844 C 12.769531 30.023438 12.917969 29.5625 13.054688 29.109375 Z M 34.945312 29.109375 C 35.082031 29.5625 35.230469 30.023438 35.34375 30.464844 C 34.90625 30.59375 34.425781 30.695312 33.964844 30.808594 C 34.121094 30.550781 34.277344 30.304688 34.429688 30.042969 C 34.609375 29.730469 34.773438 29.421875 34.945312 29.109375 Z M 11.902344 34.425781 C 13.574219 34.898438 15.359375 35.28125 17.253906 35.542969 C 18.4375 37.078125 19.667969 38.46875 20.921875 39.710938 C 19.328125 40.835938 17.820312 41.558594 16.601562 41.84375 C 15.347656 42.136719 14.472656 42.015625 13.792969 41.621094 C 13.113281 41.226562 12.570312 40.527344 12.199219 39.292969 C 11.835938 38.082031 11.710938 36.398438 11.902344 34.425781 Z M 36.097656 34.425781 C 36.289062 36.398438 36.164062 38.085938 35.800781 39.296875 C 35.429688 40.53125 34.886719 41.226562 34.207031 41.621094 C 33.527344 42.015625 32.652344 42.136719 31.398438 41.84375 C 30.179688 41.558594 28.671875 40.839844 27.074219 39.710938 C 28.332031 38.46875 29.5625 37.082031 30.746094 35.542969 C 32.640625 35.28125 34.425781 34.898438 36.097656 34.425781 Z M 22.929688 35.976562 C 23.285156 35.984375 23.636719 36 24 36 C 24.363281 36 24.714844 35.984375 25.070312 35.976562 C 24.714844 36.355469 24.355469 36.746094 24 37.09375 C 23.644531 36.746094 23.285156 36.355469 22.929688 35.976562 Z M 22.929688 35.976562 "/>
</g>
</svg>
