<?xml version="1.0" encoding="UTF-8"?>
<svg xmlns="http://www.w3.org/2000/svg" xmlns:xlink="http://www.w3.org/1999/xlink" viewBox="0 0 48 48" width="48px" height="48px">
<g id="surface37901260">
<path style=" stroke:none;fill-rule:nonzero;fill:rgb(100%,100%,100%);fill-opacity:1;" d="M 30.625 1.148438 C 30.238281 1.160156 29.867188 1.324219 29.597656 1.601562 L 26.035156 5.167969 C 25.71875 5.480469 25.347656 5.734375 24.941406 5.90625 C 24.941406 5.90625 24.9375 5.90625 24.9375 5.910156 L 18.246094 8.777344 C 16.375 9.578125 14.929688 11.160156 14.269531 13.140625 C 14.257812 13.167969 14.25 13.199219 14.242188 13.226562 L 13.398438 16.394531 C 13.375 16.414062 13.351562 16.433594 13.332031 16.457031 L 0.894531 28.890625 C 0.3125 29.476562 0.3125 30.425781 0.898438 31.011719 C 1.484375 31.597656 2.433594 31.597656 3.019531 31.011719 L 11.046875 22.984375 L 10.777344 23.640625 C 10.761719 23.671875 10.75 23.703125 10.738281 23.738281 C 10.152344 25.5 10.859375 27.296875 12.101562 28.304688 C 13.347656 29.3125 15.277344 29.632812 16.894531 28.664062 C 17.523438 28.285156 18.15625 27.796875 18.765625 27.1875 C 18.765625 27.1875 18.765625 27.1875 18.769531 27.1875 C 21.894531 24.0625 24.875 20.46875 25.332031 19.917969 C 26.265625 19.914062 32.765625 19.898438 34.566406 19.917969 C 36.066406 19.933594 36.546875 20.433594 36.707031 20.855469 C 36.867188 21.273438 36.796875 22.0625 35.816406 23.050781 C 35.316406 23.550781 35.238281 24.339844 35.625 24.933594 C 36.460938 26.203125 36.40625 26.859375 36.167969 27.390625 C 36.105469 27.488281 36.054688 27.59375 36.011719 27.707031 C 36.011719 27.707031 36.011719 27.707031 36.011719 27.710938 C 36.007812 27.714844 36.007812 27.71875 36.003906 27.722656 C 35.65625 28.324219 35.085938 28.675781 35.085938 28.675781 C 34.6875 28.902344 34.414062 29.300781 34.347656 29.753906 C 34.28125 30.210938 34.425781 30.671875 34.738281 31.007812 C 34.738281 31.007812 35.25 31.585938 35.449219 32.328125 C 35.648438 33.066406 35.761719 33.742188 34.363281 34.863281 C 33.75 35.355469 33.625 36.242188 34.074219 36.890625 C 34.738281 37.839844 34.65625 38.675781 34.125 39.476562 C 33.59375 40.277344 32.511719 40.960938 30.964844 40.96875 C 28.914062 40.980469 22.238281 41.035156 18.933594 41 C 18.933594 41 18.933594 41 18.929688 41 C 18.289062 40.992188 17.5 41.042969 16.683594 41.222656 C 15.871094 41.398438 15.007812 41.652344 14.265625 42.394531 L 13.332031 43.324219 C 12.941406 43.699219 12.785156 44.257812 12.921875 44.785156 C 13.058594 45.308594 13.46875 45.722656 13.996094 45.859375 C 14.519531 45.996094 15.078125 45.835938 15.453125 45.445312 L 16.386719 44.515625 C 16.40625 44.492188 16.800781 44.265625 17.320312 44.152344 C 17.839844 44.039062 18.464844 43.996094 18.898438 44 C 22.277344 44.035156 28.945312 43.980469 30.984375 43.96875 C 33.421875 43.957031 35.492188 42.84375 36.625 41.140625 C 37.542969 39.757812 37.730469 37.945312 37.085938 36.300781 C 38.425781 34.714844 38.703125 32.867188 38.347656 31.546875 C 38.199219 31 37.964844 30.628906 37.742188 30.238281 C 38.035156 29.9375 38.335938 29.683594 38.597656 29.238281 C 38.625 29.1875 38.648438 29.128906 38.675781 29.078125 C 38.949219 28.8125 41.835938 26.023438 43.476562 24.273438 C 44.671875 23 45.5 21.335938 45.632812 19.273438 C 45.667969 18.78125 45.796875 17.988281 46 17.296875 C 46.207031 16.605469 46.550781 16.003906 46.65625 15.898438 L 47.273438 15.28125 C 47.714844 14.851562 47.847656 14.191406 47.609375 13.621094 C 47.367188 13.050781 46.800781 12.6875 46.183594 12.707031 C 45.792969 12.71875 45.425781 12.882812 45.152344 13.160156 L 44.535156 13.777344 C 43.75 14.5625 43.40625 15.5 43.125 16.441406 C 42.847656 17.382812 42.691406 18.3125 42.640625 19.074219 C 42.640625 19.074219 42.640625 19.074219 42.640625 19.078125 C 42.546875 20.527344 42.125 21.332031 41.289062 22.21875 C 40.632812 22.917969 39.675781 23.871094 38.792969 24.746094 C 38.726562 24.554688 38.652344 24.363281 38.5625 24.171875 C 39.535156 22.78125 40.058594 21.230469 39.511719 19.792969 C 38.84375 18.015625 36.910156 16.945312 34.601562 16.917969 C 32.558594 16.894531 24.660156 16.917969 24.660156 16.917969 C 24.21875 16.917969 23.796875 17.117188 23.511719 17.460938 C 23.511719 17.460938 19.84375 21.867188 16.644531 25.066406 C 16.203125 25.503906 15.769531 25.835938 15.347656 26.089844 C 14.820312 26.40625 14.386719 26.292969 13.992188 25.976562 C 13.605469 25.660156 13.410156 25.230469 13.582031 24.695312 L 15.523438 19.996094 C 15.550781 19.933594 15.570312 19.871094 15.585938 19.808594 L 17.117188 14.085938 C 17.523438 12.882812 18.34375 11.996094 19.425781 11.535156 L 26.113281 8.667969 C 26.878906 8.339844 27.570312 7.871094 28.152344 7.289062 L 31.714844 3.726562 C 32.160156 3.296875 32.296875 2.636719 32.054688 2.066406 C 31.8125 1.496094 31.246094 1.132812 30.625 1.152344 Z M 30.625 1.148438 "/>
</g>
</svg>
