<?xml version="1.0" encoding="UTF-8"?>
<svg xmlns="http://www.w3.org/2000/svg" xmlns:xlink="http://www.w3.org/1999/xlink" viewBox="0 0 128 128" width="128px" height="128px">
<g id="surface3550145">
<path style=" stroke:none;fill-rule:nonzero;fill:rgb(100%,100%,100%);fill-opacity:1;" d="M 15 124 C 15 118.5 19.5 114 25 114 C 25 108.5 29.5 104 35 104 L 35 124 Z M 115.300781 83.199219 L 70 38 L 24.699219 83.199219 L 16.300781 74.800781 L 70 21 L 123.699219 74.800781 Z M 115.300781 83.199219 "/>
<path style=" stroke:none;fill-rule:nonzero;fill:rgb(100%,100%,100%);fill-opacity:1;" d="M 105 117 L 105 72.398438 L 70 38 L 35 73 L 35 124 L 111 124 L 111 123 C 111 119.699219 108.300781 117 105 117 Z M 105 117 "/>
<path style=" stroke:none;fill-rule:nonzero;fill:rgb(84.705883%,94.117647%,100%);fill-opacity:1;" d="M 59 80 L 81 80 L 81 124 L 59 124 Z M 59 80 "/>
<path style=" stroke:none;fill-rule:nonzero;fill:rgb(84.705883%,94.117647%,100%);fill-opacity:1;" d="M 81 127 L 59 127 C 57.300781 127 56 125.699219 56 124 L 56 80 C 56 78.300781 57.300781 77 59 77 L 81 77 C 82.699219 77 84 78.300781 84 80 L 84 124 C 84 125.699219 82.699219 127 81 127 Z M 62 121 L 78 121 L 78 83 L 62 83 Z M 62 121 "/>
<path style=" stroke:none;fill-rule:nonzero;fill:rgb(100%,100%,100%);fill-opacity:1;" d="M 125.898438 72.601562 L 72.101562 18.898438 C 71 17.800781 69 17.800781 67.898438 18.898438 L 14.101562 72.601562 C 12.898438 73.800781 12.898438 75.699219 14.101562 76.800781 L 22.601562 85.300781 C 23.199219 85.898438 23.898438 86.199219 24.699219 86.199219 C 25.5 86.199219 26.300781 85.898438 26.800781 85.300781 L 70 42.199219 L 102 74.199219 L 102 114.5 C 99.101562 115.5 96.898438 118 96.199219 121 L 38 121 L 38 94 C 38 92.300781 36.699219 91 35 91 C 33.300781 91 32 92.300781 32 94 L 32 101.398438 C 27.101562 102.601562 23.300781 106.398438 22.300781 111.300781 C 17.398438 112.300781 13.5 116.199219 12.398438 121 L 4 121 C 2.300781 121 1 122.300781 1 124 C 1 125.699219 2.300781 127 4 127 L 99 127 C 100.699219 127 102 125.699219 102 124 L 102 123 C 102 121.300781 103.300781 120 105 120 C 106.699219 120 108 121.300781 108 123 L 108 124 C 108 125.699219 109.300781 127 111 127 L 114 127 C 115.699219 127 117 125.699219 117 124 C 117 122.300781 115.699219 121 114 121 L 113.800781 121 C 113.101562 118 110.898438 115.5 108 114.5 L 108 80.199219 L 113.101562 85.300781 C 113.699219 85.898438 114.398438 86.199219 115.199219 86.199219 C 116 86.199219 116.800781 85.898438 117.300781 85.300781 L 125.800781 76.800781 C 127 75.699219 127 73.800781 125.898438 72.601562 Z M 25 117 C 26.699219 117 28 115.699219 28 114 C 28 111.199219 29.601562 108.800781 32 107.699219 L 32 121 L 18.699219 121 C 19.800781 118.601562 22.199219 117 25 117 Z M 115.300781 79 L 72.101562 35.898438 C 71.5 35.300781 70.800781 35 70 35 C 69.199219 35 68.5 35.300781 67.898438 35.898438 L 24.699219 79 L 20.5 74.800781 L 70 25.300781 L 119.5 74.800781 Z M 124 121 C 122.34375 121 121 122.34375 121 124 C 121 125.65625 122.34375 127 124 127 C 125.65625 127 127 125.65625 127 124 C 127 122.34375 125.65625 121 124 121 Z M 124 121 "/>
</g>
</svg>
