<?xml version="1.0" encoding="iso-8859-1" ?>
<svg version="1.1" xmlns="http://www.w3.org/2000/svg" xmlns:xlink="http://www.w3.org/1999/xlink" 
    viewBox="0 0 500 500" width="500" height="500">
    
    
    <!-- ITEM 0 -->
    <g>
        <defs>
            <clipPath id="clip-path-id-viewbox-item-0">
                <rect x="0.0" y="0.0" width="800.0" height="600.0"/>
            </clipPath>
        </defs>
        <g transform="translate(24.0 84.0) rotate(0.0 227.0 170.0) scale(0.5675 0.5666666666666667)">
            <g clip-path="url(#clip-path-id-viewbox-item-0)" transform="translate(-0.0 -0.0)">
                
  
  <title>winter</title>
  <g id="Слой_2-i0" data-name="Слой 2">
    <g id="Слой_1-2-i0" data-name="Слой 1">
      <g>
        <path d="M798.29,258.84249c9.23169,35.509-20.45073,84.86438-52.15938,106.43675-26.19661,17.82241-43.18994,9.4795-60.34125,30.07995-19.93724,23.94666-11.36024,52.49827-17.38646,79.82757-17.46362,79.19868-156.88221,145.03459-271.13283,119.0547-80.76239-18.36485-98.644-71.17014-166.5969-58.8948-41.71494,7.53566-56.71045,31.36143-108.4097,32.39379-24.565.49048-67.72156,1.35238-96.1369-31.23687-39.26509-45.03265-29.80575-130.33864-1.02273-177.00894,5.7426-9.3113,18.14666-22.40448,42.95478-48.59069,38.43543-40.57049,50.46246-46.03154,62.38672-71.72912,9.79324-21.1052,5.14452-24.88609,18.40919-53.21837,6.83933-14.60825,15.72824-33.191,32.72746-49.74762a117.41936,117.41936,0,0,1,42.95478-26.60918c69.85731-25.65832,115.0526,31.80728,161.59182,4.62768,31.354-18.31119,17.99624-48.57318,56.25031-82.14141C487.21218-7.2556,545.08646-.37438,565.10691,2.006c47.38323,5.63378,125.35014,33.62571,142.15988,94.86754,9.12782,33.25485-8.37437,44.9917,3.0682,76.3568C729.50662,225.78155,787.30576,216.59227,798.29,258.84249Z" style="         fill: #32a0e6;       "></path>
        <path d="M211.29429,232.15925a2.801,2.801,0,0,1-2.13322-1.02335l-19.83751-23.2075a3.67447,3.67447,0,0,1,.07059-4.74577,2.73046,2.73046,0,0,1,4.19532.07986l19.83751,23.2072a3.67488,3.67488,0,0,1-.07059,4.74607A2.78571,2.78571,0,0,1,211.29429,232.15925Z" style="         fill: #46b6ff;       "></path>
        <path d="M189.93305,233.502a2.7269,2.7269,0,0,1-1.73471-.63583,3.64854,3.64854,0,0,1-.66809-4.68579l15.42562-24.16094a2.751,2.751,0,0,1,4.14231-.75576,3.6485,3.6485,0,0,1,.66809,4.6858l-15.42562,24.16094A2.86866,2.86866,0,0,1,189.93305,233.502Z" style="         fill: #46b6ff;       "></path>
        <path d="M185.519,219.9159a3.14012,3.14012,0,0,1-2.95315-3.07394,3.26,3.26,0,0,1,2.70675-3.6272l28.088-2.68492a3.10432,3.10432,0,0,1,3.20649,3.06189,3.26,3.26,0,0,1-2.70675,3.6272l-28.088,2.68492Q185.6449,219.91606,185.519,219.9159Z" style="         fill: #46b6ff;       "></path>
        <path d="M228.49645,316.72269a3.07592,3.07592,0,0,1-2.89562-2.63972l-4.153-21.476a3.38132,3.38132,0,0,1,2.26455-3.996,2.98853,2.98853,0,0,1,3.53254,2.56167l4.153,21.476a3.38139,3.38139,0,0,1-2.26455,3.996A2.6547,2.6547,0,0,1,228.49645,316.72269Z" style="         fill: #46b6ff;       "></path>
        <path d="M216.041,306.65621a2.99253,2.99253,0,0,1-2.7555-2.11057,3.51643,3.51643,0,0,1,1.65266-4.36277l20.76533-9.396a2.86409,2.86409,0,0,1,3.85674,1.8695,3.51641,3.51641,0,0,1-1.65266,4.36276l-20.76533,9.396A2.66076,2.66076,0,0,1,216.041,306.65621Z" style="         fill: #46b6ff;       "></path>
        <path d="M235.618,306.65621a2.66462,2.66462,0,0,1-1.13347-.25584l-17.20562-8.05385a3.52541,3.52541,0,0,1-1.6071-4.38476,2.85808,2.85808,0,0,1,3.87618-1.818l17.20562,8.05385a3.52541,3.52541,0,0,1,1.60711,4.38476A2.98692,2.98692,0,0,1,235.618,306.65621Z" style="         fill: #46b6ff;       "></path>
        <path d="M315.70941,195.24751a3.10719,3.10719,0,0,1-2.92891-2.84643l-3.55972-26.17448a3.32438,3.32438,0,0,1,2.48165-3.82759,3.04138,3.04138,0,0,1,3.38364,2.80726l3.55972,26.17388a3.32459,3.32459,0,0,1-2.48139,3.82789A2.66262,2.66262,0,0,1,315.70941,195.24751Z" style="         fill: #46b6ff;       "></path>
        <path d="M302.66129,185.181a3.00082,3.00082,0,0,1-2.772-2.15848,3.50563,3.50563,0,0,1,1.7118-4.33384l20.17182-8.72492a2.87537,2.87537,0,0,1,3.83117,1.93639,3.50549,3.50549,0,0,1-1.7118,4.33384l-20.17182,8.72493A2.66066,2.66066,0,0,1,302.66129,185.181Z" style="         fill: #46b6ff;       "></path>
        <path d="M322.23667,187.19366a2.71754,2.71754,0,0,1-1.66331-.57917L303.96125,173.8631a3.639,3.639,0,0,1-.7893-4.662,2.76141,2.76141,0,0,1,4.12126-.89286l16.61211,12.7514a3.639,3.639,0,0,1,.7893,4.662A2.88406,2.88406,0,0,1,322.23667,187.19366Z" style="         fill: #46b6ff;       "></path>
        <ellipse cx="242.68765" cy="247.43777" rx="3.95606" ry="4.92263" style="         fill: #46b6ff;       "></ellipse>
        <ellipse cx="277.501" cy="214.32188" rx="4.74727" ry="4.92263" style="         fill: #46b6ff;       "></ellipse>
        <ellipse cx="336.84193" cy="230.87982" rx="6.3297" ry="8.05522" style="         fill: #46b6ff;       "></ellipse>
        <ellipse cx="349.50133" cy="170.91322" rx="3.16485" ry="3.5801" style="         fill: #46b6ff;       "></ellipse>
        <ellipse cx="244.27007" cy="127.05705" rx="3.95606" ry="5.37014" style="         fill: #46b6ff;       "></ellipse>
        <ellipse cx="241.50083" cy="173.15078" rx="4.35167" ry="5.81766" style="         fill: #46b6ff;       "></ellipse>
        <ellipse cx="164.35761" cy="268.47083" rx="4.74727" ry="3.5801" style="         fill: #46b6ff;       "></ellipse>
        <ellipse cx="179.78626" cy="315.45959" rx="4.35167" ry="4.92263" style="         fill: #46b6ff;       "></ellipse>
        <ellipse cx="166.33564" cy="224.16715" rx="3.56046" ry="4.02761" style="         fill: #46b6ff;       "></ellipse>
        <ellipse cx="177.01701" cy="179.86346" rx="3.16485" ry="3.5801" style="         fill: #46b6ff;       "></ellipse>
        <ellipse cx="245.06129" cy="210.29427" rx="3.95606" ry="5.37014" style="         fill: #46b6ff;       "></ellipse>
        <ellipse cx="381.54544" cy="196.4214" rx="3.56046" ry="4.02761" style="         fill: #46b6ff;       "></ellipse>
        <ellipse cx="311.91874" cy="251.01786" rx="4.35167" ry="4.02761" style="         fill: #46b6ff;       "></ellipse>
        <ellipse cx="288.57797" cy="144.0625" rx="5.53849" ry="6.26517" style="         fill: #46b6ff;       "></ellipse>
        <path d="M329.93132,343.22368a2.801,2.801,0,0,1-2.13322-1.02334l-19.83751-23.20751a3.67445,3.67445,0,0,1,.07059-4.74576,2.73047,2.73047,0,0,1,4.19532.07985L332.064,337.53413a3.67486,3.67486,0,0,1-.07059,4.74606A2.78571,2.78571,0,0,1,329.93132,343.22368Z" style="         fill: #46b6ff;       "></path>
        <path d="M308.57008,344.56644a2.72689,2.72689,0,0,1-1.73471-.63582,3.64855,3.64855,0,0,1-.66809-4.6858l15.42562-24.16094a2.75094,2.75094,0,0,1,4.14231-.75575,3.64851,3.64851,0,0,1,.66809,4.6858l-15.42562,24.16094A2.86867,2.86867,0,0,1,308.57008,344.56644Z" style="         fill: #46b6ff;       "></path>
        <path d="M304.15606,330.98034a3.14014,3.14014,0,0,1-2.95316-3.07394,3.26,3.26,0,0,1,2.70675-3.6272l28.088-2.68492a3.10431,3.10431,0,0,1,3.20649,3.06189,3.26,3.26,0,0,1-2.70675,3.6272l-28.088,2.68492Q304.28193,330.98049,304.15606,330.98034Z" style="         fill: #46b6ff;       "></path>
        <path d="M347.13347,427.78712a3.07592,3.07592,0,0,1-2.89561-2.63971l-4.153-21.476a3.3813,3.3813,0,0,1,2.26454-3.996A2.98853,2.98853,0,0,1,345.882,402.237l4.153,21.476a3.38139,3.38139,0,0,1-2.26455,3.996A2.6547,2.6547,0,0,1,347.13347,427.78712Z" style="         fill: #46b6ff;       "></path>
        <path d="M334.67806,417.72064a2.99252,2.99252,0,0,1-2.7555-2.11057,3.5164,3.5164,0,0,1,1.65266-4.36276l20.76533-9.396a2.8641,2.8641,0,0,1,3.85674,1.8695,3.51643,3.51643,0,0,1-1.65266,4.36277l-20.76533,9.396A2.66061,2.66061,0,0,1,334.67806,417.72064Z" style="         fill: #46b6ff;       "></path>
        <path d="M354.255,417.72064a2.66458,2.66458,0,0,1-1.13347-.25583L335.916,409.411a3.52541,3.52541,0,0,1-1.60711-4.38476,2.85809,2.85809,0,0,1,3.87619-1.818l17.20562,8.05384a3.52543,3.52543,0,0,1,1.6071,4.38477A2.98689,2.98689,0,0,1,354.255,417.72064Z" style="         fill: #46b6ff;       "></path>
        <path d="M434.34644,306.312a3.10718,3.10718,0,0,1-2.92891-2.84644L427.85781,277.291a3.32438,3.32438,0,0,1,2.48165-3.82759,3.04137,3.04137,0,0,1,3.38364,2.80726l3.55972,26.17387a3.32458,3.32458,0,0,1-2.48139,3.82789A2.66164,2.66164,0,0,1,434.34644,306.312Z" style="         fill: #46b6ff;       "></path>
        <path d="M421.29831,296.24547a3.00082,3.00082,0,0,1-2.772-2.15848,3.50562,3.50562,0,0,1,1.7118-4.33384l20.17182-8.72493a2.87539,2.87539,0,0,1,3.83117,1.9364,3.5055,3.5055,0,0,1-1.7118,4.33384l-20.17182,8.72492A2.66052,2.66052,0,0,1,421.29831,296.24547Z" style="         fill: #46b6ff;       "></path>
        <path d="M440.8737,298.2581a2.71754,2.71754,0,0,1-1.66331-.57917l-16.61211-12.7514a3.63894,3.63894,0,0,1-.7893-4.662,2.7614,2.7614,0,0,1,4.12126-.89286l16.6121,12.75139a3.639,3.639,0,0,1,.78931,4.662A2.88408,2.88408,0,0,1,440.8737,298.2581Z" style="         fill: #46b6ff;       "></path>
        <ellipse cx="361.32468" cy="358.5022" rx="3.95606" ry="4.92263" style="         fill: #46b6ff;       "></ellipse>
        <ellipse cx="396.13803" cy="325.38632" rx="4.74727" ry="4.92263" style="         fill: #46b6ff;       "></ellipse>
        <ellipse cx="455.47896" cy="341.94426" rx="6.3297" ry="8.05522" style="         fill: #46b6ff;       "></ellipse>
        <ellipse cx="468.13836" cy="281.97766" rx="3.16485" ry="3.5801" style="         fill: #46b6ff;       "></ellipse>
        <ellipse cx="362.9071" cy="238.12149" rx="3.95606" ry="5.37014" style="         fill: #46b6ff;       "></ellipse>
        <ellipse cx="360.13786" cy="284.21522" rx="4.35167" ry="5.81766" style="         fill: #46b6ff;       "></ellipse>
        <ellipse cx="282.99464" cy="379.53527" rx="4.74727" ry="3.5801" style="         fill: #46b6ff;       "></ellipse>
        <ellipse cx="298.42328" cy="426.52402" rx="4.35167" ry="4.92263" style="         fill: #46b6ff;       "></ellipse>
        <ellipse cx="284.97267" cy="335.23158" rx="3.56046" ry="4.02761" style="         fill: #46b6ff;       "></ellipse>
        <ellipse cx="295.65404" cy="290.9279" rx="3.16485" ry="3.5801" style="         fill: #46b6ff;       "></ellipse>
        <ellipse cx="363.69831" cy="321.35871" rx="3.95606" ry="5.37014" style="         fill: #46b6ff;       "></ellipse>
        <ellipse cx="500.18247" cy="307.48584" rx="3.56046" ry="4.02761" style="         fill: #46b6ff;       "></ellipse>
        <ellipse cx="430.55577" cy="362.0823" rx="4.35167" ry="4.02761" style="         fill: #46b6ff;       "></ellipse>
        <ellipse cx="407.215" cy="255.12694" rx="5.53849" ry="6.26517" style="         fill: #46b6ff;       "></ellipse>
        <path d="M494.59133,146.54708a2.801,2.801,0,0,1-2.13322-1.02334L472.6206,122.31623a3.67447,3.67447,0,0,1,.07059-4.74577,2.73047,2.73047,0,0,1,4.19532.07986l19.83751,23.2072a3.67486,3.67486,0,0,1-.07059,4.74607A2.78571,2.78571,0,0,1,494.59133,146.54708Z" style="         fill: #46b6ff;       "></path>
        <path d="M473.23009,147.88984a2.7269,2.7269,0,0,1-1.7347-.63582,3.64855,3.64855,0,0,1-.6681-4.6858l15.42562-24.16094a2.751,2.751,0,0,1,4.14231-.75576,3.6485,3.6485,0,0,1,.6681,4.6858l-15.42563,24.16094A2.86866,2.86866,0,0,1,473.23009,147.88984Z" style="         fill: #46b6ff;       "></path>
        <path d="M468.81607,134.30373a3.14012,3.14012,0,0,1-2.95315-3.07394,3.26,3.26,0,0,1,2.70675-3.6272l28.088-2.68492a3.10432,3.10432,0,0,1,3.20649,3.06189,3.26,3.26,0,0,1-2.70675,3.6272l-28.088,2.68492Q468.94194,134.30389,468.81607,134.30373Z" style="         fill: #46b6ff;       "></path>
        <path d="M511.79349,231.11052a3.07592,3.07592,0,0,1-2.89562-2.63972l-4.153-21.476a3.38132,3.38132,0,0,1,2.26455-3.996,2.98854,2.98854,0,0,1,3.53255,2.56167l4.153,21.476a3.3814,3.3814,0,0,1-2.26455,3.996A2.65478,2.65478,0,0,1,511.79349,231.11052Z" style="         fill: #46b6ff;       "></path>
        <path d="M499.33807,221.044a2.99254,2.99254,0,0,1-2.7555-2.11057,3.51643,3.51643,0,0,1,1.65266-4.36277l20.76534-9.396a2.86408,2.86408,0,0,1,3.85673,1.8695,3.51639,3.51639,0,0,1-1.65266,4.36276l-20.76533,9.396A2.66076,2.66076,0,0,1,499.33807,221.044Z" style="         fill: #46b6ff;       "></path>
        <path d="M518.91506,221.044a2.66467,2.66467,0,0,1-1.13348-.25584L500.576,212.73435a3.52541,3.52541,0,0,1-1.60711-4.38476,2.85808,2.85808,0,0,1,3.87618-1.818l17.20562,8.05385a3.52541,3.52541,0,0,1,1.60711,4.38476A2.9869,2.9869,0,0,1,518.91506,221.044Z" style="         fill: #46b6ff;       "></path>
        <path d="M599.00646,109.63534a3.10719,3.10719,0,0,1-2.92892-2.84643l-3.55972-26.17448a3.32438,3.32438,0,0,1,2.48165-3.82759,3.04138,3.04138,0,0,1,3.38364,2.80726l3.55972,26.17388a3.32458,3.32458,0,0,1-2.48139,3.82789A2.6615,2.6615,0,0,1,599.00646,109.63534Z" style="         fill: #46b6ff;       "></path>
        <path d="M585.95833,99.56886a3.00082,3.00082,0,0,1-2.772-2.15848,3.50562,3.50562,0,0,1,1.7118-4.33383l20.17183-8.72493A2.87536,2.87536,0,0,1,608.9011,86.288a3.5055,3.5055,0,0,1-1.71179,4.33384l-20.17183,8.72493A2.66063,2.66063,0,0,1,585.95833,99.56886Z" style="         fill: #46b6ff;       "></path>
        <path d="M605.53372,101.5815a2.7176,2.7176,0,0,1-1.66332-.57918L587.25829,88.25093a3.639,3.639,0,0,1-.7893-4.662,2.76141,2.76141,0,0,1,4.12126-.89286l16.61211,12.7514a3.639,3.639,0,0,1,.7893,4.662A2.884,2.884,0,0,1,605.53372,101.5815Z" style="         fill: #46b6ff;       "></path>
        <ellipse cx="525.98469" cy="161.8256" rx="3.95606" ry="4.92263" style="         fill: #46b6ff;       "></ellipse>
        <ellipse cx="560.79804" cy="128.70971" rx="4.74727" ry="4.92263" style="         fill: #46b6ff;       "></ellipse>
        <ellipse cx="620.13898" cy="145.26766" rx="6.3297" ry="8.05522" style="         fill: #46b6ff;       "></ellipse>
        <ellipse cx="632.79838" cy="85.30105" rx="3.16485" ry="3.5801" style="         fill: #46b6ff;       "></ellipse>
        <ellipse cx="527.56712" cy="41.44488" rx="3.95606" ry="5.37014" style="         fill: #46b6ff;       "></ellipse>
        <ellipse cx="524.79787" cy="87.53861" rx="4.35167" ry="5.81766" style="         fill: #46b6ff;       "></ellipse>
        <ellipse cx="447.65465" cy="182.85866" rx="4.74727" ry="3.5801" style="         fill: #46b6ff;       "></ellipse>
        <ellipse cx="463.0833" cy="229.84742" rx="4.35167" ry="4.92263" style="         fill: #46b6ff;       "></ellipse>
        <ellipse cx="449.63269" cy="138.55498" rx="3.56046" ry="4.02761" style="         fill: #46b6ff;       "></ellipse>
        <ellipse cx="460.31405" cy="94.25129" rx="3.16485" ry="3.5801" style="         fill: #46b6ff;       "></ellipse>
        <ellipse cx="528.35833" cy="124.68211" rx="3.95606" ry="5.37014" style="         fill: #46b6ff;       "></ellipse>
        <ellipse cx="664.84248" cy="110.80923" rx="3.56046" ry="4.02761" style="         fill: #46b6ff;       "></ellipse>
        <ellipse cx="595.21578" cy="165.40569" rx="4.35167" ry="4.02761" style="         fill: #46b6ff;       "></ellipse>
        <ellipse cx="571.87502" cy="58.45033" rx="5.53849" ry="6.26517" style="         fill: #46b6ff;       "></ellipse>
        <path d="M591.751,301.57452a2.801,2.801,0,0,1-2.13322-1.02334l-19.83751-23.20751a3.67446,3.67446,0,0,1,.07059-4.74577,2.73047,2.73047,0,0,1,4.19532.07986L593.88366,295.885a3.67488,3.67488,0,0,1-.07059,4.74606A2.78573,2.78573,0,0,1,591.751,301.57452Z" style="         fill: #46b6ff;       "></path>
        <path d="M570.38973,302.91728a2.727,2.727,0,0,1-1.73471-.63582,3.64854,3.64854,0,0,1-.66809-4.6858l15.42562-24.16094a2.75094,2.75094,0,0,1,4.1423-.75576,3.6485,3.6485,0,0,1,.6681,4.6858L572.79733,301.5257A2.86869,2.86869,0,0,1,570.38973,302.91728Z" style="         fill: #46b6ff;       "></path>
        <path d="M565.97571,289.33118a3.14015,3.14015,0,0,1-2.95316-3.074,3.26,3.26,0,0,1,2.70675-3.6272l28.088-2.68491a3.10431,3.10431,0,0,1,3.20649,3.06189,3.26,3.26,0,0,1-2.70675,3.6272l-28.088,2.68491Q566.10159,289.33133,565.97571,289.33118Z" style="         fill: #46b6ff;       "></path>
        <path d="M608.95312,386.138a3.07592,3.07592,0,0,1-2.89561-2.63972l-4.153-21.476a3.38131,3.38131,0,0,1,2.26454-3.996,2.98854,2.98854,0,0,1,3.53255,2.56167l4.153,21.476a3.38139,3.38139,0,0,1-2.26455,3.996A2.65422,2.65422,0,0,1,608.95312,386.138Z" style="         fill: #46b6ff;       "></path>
        <path d="M596.49771,376.07148a2.99253,2.99253,0,0,1-2.7555-2.11057,3.51639,3.51639,0,0,1,1.65266-4.36276l20.76533-9.396a2.8641,2.8641,0,0,1,3.85674,1.8695,3.51641,3.51641,0,0,1-1.65266,4.36276l-20.76533,9.396A2.66076,2.66076,0,0,1,596.49771,376.07148Z" style="         fill: #46b6ff;       "></path>
        <path d="M616.07469,376.07148a2.66459,2.66459,0,0,1-1.13347-.25584l-17.20562-8.05385a3.52541,3.52541,0,0,1-1.60711-4.38476,2.8581,2.8581,0,0,1,3.87619-1.818l17.20562,8.05385a3.52542,3.52542,0,0,1,1.6071,4.38476A2.9869,2.9869,0,0,1,616.07469,376.07148Z" style="         fill: #46b6ff;       "></path>
        <path d="M696.16609,264.66278a3.10718,3.10718,0,0,1-2.92891-2.84643l-3.55972-26.17448a3.32438,3.32438,0,0,1,2.48165-3.82759,3.04138,3.04138,0,0,1,3.38364,2.80726l3.55972,26.17388a3.32458,3.32458,0,0,1-2.48139,3.82789A2.66161,2.66161,0,0,1,696.16609,264.66278Z" style="         fill: #46b6ff;       "></path>
        <path d="M683.118,254.5963a3.00081,3.00081,0,0,1-2.772-2.15848,3.50561,3.50561,0,0,1,1.7118-4.33383l20.17182-8.72493a2.87538,2.87538,0,0,1,3.83117,1.9364,3.50548,3.50548,0,0,1-1.7118,4.33383l-20.17183,8.72493A2.66042,2.66042,0,0,1,683.118,254.5963Z" style="         fill: #46b6ff;       "></path>
        <path d="M702.69335,256.60894a2.7176,2.7176,0,0,1-1.66331-.57917l-16.61211-12.7514a3.63894,3.63894,0,0,1-.7893-4.662,2.76141,2.76141,0,0,1,4.12126-.89287l16.6121,12.7514a3.639,3.639,0,0,1,.78931,4.662A2.88407,2.88407,0,0,1,702.69335,256.60894Z" style="         fill: #46b6ff;       "></path>
        <ellipse cx="623.14433" cy="316.85304" rx="3.95606" ry="4.92263" style="         fill: #46b6ff;       "></ellipse>
        <ellipse cx="657.95768" cy="283.73715" rx="4.74727" ry="4.92263" style="         fill: #46b6ff;       "></ellipse>
        <ellipse cx="717.29861" cy="300.2951" rx="6.3297" ry="8.05522" style="         fill: #46b6ff;       "></ellipse>
        <ellipse cx="729.95801" cy="240.32849" rx="3.16485" ry="3.5801" style="         fill: #46b6ff;       "></ellipse>
        <ellipse cx="624.72675" cy="196.47232" rx="3.95606" ry="5.37014" style="         fill: #46b6ff;       "></ellipse>
        <ellipse cx="621.95751" cy="242.56605" rx="4.35167" ry="5.81766" style="         fill: #46b6ff;       "></ellipse>
        <ellipse cx="544.81429" cy="337.8861" rx="4.74727" ry="3.5801" style="         fill: #46b6ff;       "></ellipse>
        <ellipse cx="560.24293" cy="384.87486" rx="4.35167" ry="4.92263" style="         fill: #46b6ff;       "></ellipse>
        <ellipse cx="546.79232" cy="293.58242" rx="3.56046" ry="4.02761" style="         fill: #46b6ff;       "></ellipse>
        <ellipse cx="557.47369" cy="249.27873" rx="3.16485" ry="3.5801" style="         fill: #46b6ff;       "></ellipse>
        <ellipse cx="625.51796" cy="279.70955" rx="3.95606" ry="5.37014" style="         fill: #46b6ff;       "></ellipse>
        <ellipse cx="762.00212" cy="265.83668" rx="3.56046" ry="4.02761" style="         fill: #46b6ff;       "></ellipse>
        <ellipse cx="692.37542" cy="320.43314" rx="4.35167" ry="4.02761" style="         fill: #46b6ff;       "></ellipse>
        <ellipse cx="669.03465" cy="213.47778" rx="5.53849" ry="6.26517" style="         fill: #46b6ff;       "></ellipse>
        <path d="M85.49813,435.77738a2.801,2.801,0,0,1-2.13322-1.02334L63.5274,411.54653a3.67447,3.67447,0,0,1,.07059-4.74577,2.73047,2.73047,0,0,1,4.19532.07986l19.83751,23.20721a3.67486,3.67486,0,0,1-.07059,4.74606A2.78571,2.78571,0,0,1,85.49813,435.77738Z" style="         fill: #46b6ff;       "></path>
        <path d="M64.13689,437.12014a2.727,2.727,0,0,1-1.73471-.63582,3.64856,3.64856,0,0,1-.66809-4.6858l15.42562-24.16094a2.751,2.751,0,0,1,4.14231-.75576,3.6485,3.6485,0,0,1,.66809,4.6858L66.54449,435.72856A2.86866,2.86866,0,0,1,64.13689,437.12014Z" style="         fill: #46b6ff;       "></path>
        <path d="M59.72287,423.534a3.14013,3.14013,0,0,1-2.95315-3.074,3.26,3.26,0,0,1,2.70675-3.6272l28.088-2.68491a3.10431,3.10431,0,0,1,3.20649,3.06189,3.26,3.26,0,0,1-2.70675,3.6272l-28.088,2.68491Q59.84874,423.53419,59.72287,423.534Z" style="         fill: #46b6ff;       "></path>
        <path d="M102.70029,520.34082a3.07592,3.07592,0,0,1-2.89562-2.63972l-4.153-21.476a3.38132,3.38132,0,0,1,2.26455-3.996,2.98853,2.98853,0,0,1,3.53254,2.56167l4.153,21.476a3.38138,3.38138,0,0,1-2.26455,3.996A2.6542,2.6542,0,0,1,102.70029,520.34082Z" style="         fill: #46b6ff;       "></path>
        <path d="M90.24487,510.27434a2.99253,2.99253,0,0,1-2.7555-2.11057A3.51641,3.51641,0,0,1,89.142,503.801l20.76533-9.396a2.86409,2.86409,0,0,1,3.85674,1.8695,3.51641,3.51641,0,0,1-1.65266,4.36276l-20.76533,9.396A2.66076,2.66076,0,0,1,90.24487,510.27434Z" style="         fill: #46b6ff;       "></path>
        <path d="M109.82185,510.27434a2.66462,2.66462,0,0,1-1.13347-.25584l-17.20562-8.05385a3.5254,3.5254,0,0,1-1.6071-4.38476,2.85808,2.85808,0,0,1,3.87618-1.818l17.20562,8.05385a3.52541,3.52541,0,0,1,1.60711,4.38476A2.98692,2.98692,0,0,1,109.82185,510.27434Z" style="         fill: #46b6ff;       "></path>
        <path d="M189.91325,398.86564a3.10719,3.10719,0,0,1-2.92891-2.84643l-3.55972-26.17448a3.32438,3.32438,0,0,1,2.48165-3.82759,3.04138,3.04138,0,0,1,3.38364,2.80726l3.55972,26.17388a3.32458,3.32458,0,0,1-2.48139,3.82789A2.66153,2.66153,0,0,1,189.91325,398.86564Z" style="         fill: #46b6ff;       "></path>
        <path d="M176.86513,388.79916a3.00082,3.00082,0,0,1-2.772-2.15848,3.50561,3.50561,0,0,1,1.7118-4.33383l20.17183-8.72493a2.87537,2.87537,0,0,1,3.83116,1.9364,3.50548,3.50548,0,0,1-1.7118,4.33383l-20.17182,8.72493A2.66049,2.66049,0,0,1,176.86513,388.79916Z" style="         fill: #46b6ff;       "></path>
        <path d="M196.44051,390.8118a2.7176,2.7176,0,0,1-1.66331-.57917l-16.61211-12.7514a3.63894,3.63894,0,0,1-.7893-4.662,2.76141,2.76141,0,0,1,4.12126-.89287l16.61211,12.7514a3.639,3.639,0,0,1,.7893,4.662A2.88407,2.88407,0,0,1,196.44051,390.8118Z" style="         fill: #46b6ff;       "></path>
        <ellipse cx="116.89149" cy="451.0559" rx="3.95606" ry="4.92263" style="         fill: #46b6ff;       "></ellipse>
        <ellipse cx="151.70484" cy="417.94001" rx="4.74727" ry="4.92263" style="         fill: #46b6ff;       "></ellipse>
        <ellipse cx="211.04577" cy="434.49796" rx="6.3297" ry="8.05522" style="         fill: #46b6ff;       "></ellipse>
        <ellipse cx="223.70517" cy="374.53135" rx="3.16485" ry="3.5801" style="         fill: #46b6ff;       "></ellipse>
        <ellipse cx="118.47391" cy="330.67518" rx="3.95606" ry="5.37014" style="         fill: #46b6ff;       "></ellipse>
        <ellipse cx="115.70467" cy="376.76891" rx="4.35167" ry="5.81766" style="         fill: #46b6ff;       "></ellipse>
        <ellipse cx="38.56145" cy="472.08896" rx="4.74727" ry="3.5801" style="         fill: #46b6ff;       "></ellipse>
        <ellipse cx="53.9901" cy="519.07772" rx="4.35167" ry="4.92263" style="         fill: #46b6ff;       "></ellipse>
        <ellipse cx="40.53948" cy="427.78528" rx="3.56046" ry="4.02761" style="         fill: #46b6ff;       "></ellipse>
        <ellipse cx="51.22085" cy="383.48159" rx="3.16485" ry="3.5801" style="         fill: #46b6ff;       "></ellipse>
        <ellipse cx="119.26513" cy="413.91241" rx="3.95606" ry="5.37014" style="         fill: #46b6ff;       "></ellipse>
        <ellipse cx="255.74928" cy="400.03954" rx="3.56046" ry="4.02761" style="         fill: #46b6ff;       "></ellipse>
        <ellipse cx="186.12258" cy="454.636" rx="4.35167" ry="4.02761" style="         fill: #46b6ff;       "></ellipse>
        <ellipse cx="162.78181" cy="347.68064" rx="5.53849" ry="6.26517" style="         fill: #46b6ff;       "></ellipse>
        <path d="M428.11369,486.68191a2.801,2.801,0,0,1-2.13322-1.02334L406.143,462.45106a3.67445,3.67445,0,0,1,.07059-4.74576,2.73046,2.73046,0,0,1,4.19531.07985l19.83752,23.20721a3.67486,3.67486,0,0,1-.0706,4.74606A2.78569,2.78569,0,0,1,428.11369,486.68191Z" style="         fill: #46b6ff;       "></path>
        <path d="M406.75245,488.02467a2.72689,2.72689,0,0,1-1.73471-.63582,3.64854,3.64854,0,0,1-.66809-4.6858l15.42562-24.16094a2.75093,2.75093,0,0,1,4.1423-.75575,3.6485,3.6485,0,0,1,.6681,4.6858L409.16005,486.6331A2.86868,2.86868,0,0,1,406.75245,488.02467Z" style="         fill: #46b6ff;       "></path>
        <path d="M402.33843,474.43857a3.14014,3.14014,0,0,1-2.95316-3.07394,3.26,3.26,0,0,1,2.70675-3.6272l28.088-2.68492a3.10431,3.10431,0,0,1,3.20649,3.06189,3.26,3.26,0,0,1-2.70675,3.6272l-28.088,2.68492Q402.46431,474.43872,402.33843,474.43857Z" style="         fill: #46b6ff;       "></path>
        <path d="M445.31584,571.24535a3.07594,3.07594,0,0,1-2.89562-2.63972l-4.153-21.476a3.38131,3.38131,0,0,1,2.26455-3.996,2.98853,2.98853,0,0,1,3.53255,2.56167l4.153,21.476a3.38139,3.38139,0,0,1-2.26455,3.996A2.65476,2.65476,0,0,1,445.31584,571.24535Z" style="         fill: #46b6ff;       "></path>
        <path d="M432.86042,561.17887a2.99251,2.99251,0,0,1-2.75549-2.11057,3.51639,3.51639,0,0,1,1.65266-4.36276l20.76533-9.396a2.8641,2.8641,0,0,1,3.85674,1.8695,3.51643,3.51643,0,0,1-1.65266,4.36277l-20.76534,9.396A2.66054,2.66054,0,0,1,432.86042,561.17887Z" style="         fill: #46b6ff;       "></path>
        <path d="M452.43741,561.17887a2.66458,2.66458,0,0,1-1.13347-.25583l-17.20562-8.05385a3.52541,3.52541,0,0,1-1.60711-4.38476,2.85808,2.85808,0,0,1,3.87619-1.818L453.573,554.7203a3.52542,3.52542,0,0,1,1.60711,4.38477A2.98689,2.98689,0,0,1,452.43741,561.17887Z" style="         fill: #46b6ff;       "></path>
        <path d="M532.52881,449.77018a3.1072,3.1072,0,0,1-2.92892-2.84644l-3.55971-26.17447a3.32437,3.32437,0,0,1,2.48165-3.82759,3.04137,3.04137,0,0,1,3.38364,2.80726l3.55971,26.17387a3.32457,3.32457,0,0,1-2.48138,3.82789A2.66164,2.66164,0,0,1,532.52881,449.77018Z" style="         fill: #46b6ff;       "></path>
        <path d="M519.48068,439.7037a3.00082,3.00082,0,0,1-2.772-2.15848,3.50562,3.50562,0,0,1,1.7118-4.33384l20.17182-8.72493a2.87538,2.87538,0,0,1,3.83117,1.9364,3.50548,3.50548,0,0,1-1.7118,4.33383l-20.17183,8.72493A2.66043,2.66043,0,0,1,519.48068,439.7037Z" style="         fill: #46b6ff;       "></path>
        <path d="M539.05607,441.71633a2.71754,2.71754,0,0,1-1.66331-.57917l-16.61211-12.7514a3.639,3.639,0,0,1-.78931-4.662,2.76141,2.76141,0,0,1,4.12127-.89286l16.6121,12.75139a3.639,3.639,0,0,1,.78931,4.662A2.88408,2.88408,0,0,1,539.05607,441.71633Z" style="         fill: #46b6ff;       "></path>
        <ellipse cx="459.50705" cy="501.96043" rx="3.95606" ry="4.92263" style="         fill: #46b6ff;       "></ellipse>
        <ellipse cx="494.3204" cy="468.84455" rx="4.74727" ry="4.92263" style="         fill: #46b6ff;       "></ellipse>
        <ellipse cx="553.66133" cy="485.40249" rx="6.3297" ry="8.05522" style="         fill: #46b6ff;       "></ellipse>
        <ellipse cx="566.32073" cy="425.43589" rx="3.16485" ry="3.5801" style="         fill: #46b6ff;       "></ellipse>
        <ellipse cx="461.08947" cy="381.57972" rx="3.95606" ry="5.37014" style="         fill: #46b6ff;       "></ellipse>
        <ellipse cx="458.32023" cy="427.67345" rx="4.35167" ry="5.81766" style="         fill: #46b6ff;       "></ellipse>
        <ellipse cx="381.17701" cy="522.99349" rx="4.74727" ry="3.5801" style="         fill: #46b6ff;       "></ellipse>
        <ellipse cx="396.60565" cy="569.98225" rx="4.35167" ry="4.92263" style="         fill: #46b6ff;       "></ellipse>
        <ellipse cx="383.15504" cy="478.68981" rx="3.56046" ry="4.02761" style="         fill: #46b6ff;       "></ellipse>
        <ellipse cx="393.83641" cy="434.38613" rx="3.16485" ry="3.5801" style="         fill: #46b6ff;       "></ellipse>
        <ellipse cx="461.88068" cy="464.81694" rx="3.95606" ry="5.37014" style="         fill: #46b6ff;       "></ellipse>
        <ellipse cx="598.36484" cy="450.94407" rx="3.56046" ry="4.02761" style="         fill: #46b6ff;       "></ellipse>
        <ellipse cx="528.73814" cy="505.54053" rx="4.35167" ry="4.02761" style="         fill: #46b6ff;       "></ellipse>
        <ellipse cx="505.39737" cy="398.58517" rx="5.53849" ry="6.26517" style="         fill: #46b6ff;       "></ellipse>
      </g>
    </g>
  </g>

            </g>
        </g>
    </g>
    
    <!-- ITEM 1 -->
    <g>
        <defs>
            <clipPath id="clip-path-id-viewbox-item-1">
                <rect x="0.0" y="0.0" width="300.797" height="342.581"/>
            </clipPath>
        </defs>
        <g transform="translate(157.0 180.0) rotate(0.0 103.0 117.5) scale(0.68484725579045 0.6859691576590645)">
            <g clip-path="url(#clip-path-id-viewbox-item-1)" transform="translate(-0.0 -0.0)">
                
<g>
	<path style="fill:#60ff64;" d="M276.531,98.173l17-4.92c2.23-0.65,2.53-3.09,1.25-4.73c-13.809-17.579-33.309-29.799-55.15-34.56   c3.718-2.976,7.594-5.75,11.61-8.31c1.92-1.21,1.83-4.67-0.68-5.17c-29.539-5.981-60.246-0.213-85.6,16.08   c-3.05,2-0.22,6.87,2.86,4.89l0.48-0.3l88.07,99c-1.154,0.987-1.289,2.723-0.302,3.877c0.036,0.042,0.073,0.083,0.112,0.123   c11.858,12.394,21.953,26.362,30,41.51c1.37,2.58,5.18,1.26,5.28-1.43c0.588-16.164-1.576-32.311-6.4-47.75   c4.034,2.807,7.696,6.113,10.9,9.84c1.56,1.81,5,0.4,4.83-2C299.015,140.445,290.614,117.537,276.531,98.173z"></path>
	<path style="fill:#52e325;" d="M126.411,39.023c-36.45-4.87-53.17,40.05-87.37,42c-2.32,0.13-3.9,3.08-2,4.83   c4.319,4.048,9.459,7.117,15.07,9c-4.8,3.56-8.5,8.9-12.79,13c-8.391,7.947-18.434,13.943-29.41,17.56   c-1.514,0.469-2.361,2.077-1.892,3.591c0.203,0.654,0.633,1.214,1.212,1.579c8.036,4.728,16.89,7.9,26.1,9.35   c-3.62,3.23-6.39,7.52-9.17,11.65c-6.402,9.494-14.892,17.396-24.82,23.1C0,175.528-0.403,177.3,0.442,178.641   c0.365,0.58,0.925,1.009,1.579,1.212c31.06,9.77,65.39-5.27,78.14-35.52c7.16-17,7.08-36,15-52.79s20.29-30.59,32.44-44.2   c0.761-0.805,0.962-1.989,0.51-3C129.871,43.163,129.291,39.453,126.411,39.023z"></path>
	<path style="fill:#003899;" d="M203.751,17.453c-5.1-6.25-15.3-2.45-21.48-0.38c-11.18,3.75-22.51,6.82-33.46,11.26   c-21.16,8.58-40.95,20.37-56.84,36.92c-14.442,15.237-25.714,33.191-33.16,52.82c-9,23.29-10.08,47-11.41,71.65   c-1.19,22.09-1.85,43.84,0.5,65.86c0.77,7.21,1.58,14.43,2.77,21.58c0.24,2.088,0.611,4.159,1.11,6.2   c-6.131,2.062-11.531,5.863-15.54,10.94c-3.88,5-7.61,12.49-5.14,18.88c2.4,6.22,9.39,7.09,15,5.22   c3.068-1.053,5.936-2.618,8.48-4.63c-0.19,1.94-0.044,3.899,0.43,5.79c1.34,5.18,5.52,9.83,10.9,10.82   c9,1.66,16.25-6.35,20.24-14.85c2,5.07,5.39,9.25,11.53,9.79c10.11,0.89,14.25-8.77,15.23-17.19l1.38-0.32   c1.93-0.4,3.87-0.77,5.8-1.15c3.204-0.495,6.371-1.203,9.48-2.12c9.13-3.14,18.75-8.48,25.44-15.52   c7.77-8.18,10.58-18.46,12.1-29.39c2.13-15.31,1.5-30.76-0.16-46.09c-1.43-12.48-3.48-24.86-5.47-37.26   c-1.61-10-2.52-20.19-4.34-30.15c-2.29-12.51-6-24.94-7.17-37.63c-0.27-2.82-0.42-2.76,1.38-4.37   c4.168-3.843,8.008-8.028,11.48-12.51c6.336-8.263,12.15-16.913,17.41-25.9c5.61-9.24,11.1-18.58,17.53-27.28   C201.691,33.063,209.341,24.293,203.751,17.453z"></path>
	<path style="fill:#ff2271;" d="M278.241,276.403c9.32-5.11,24.36-15.45,14.92-22.45c-4.37-3.24-10.48-0.94-14.83,1   c-3.924,1.754-7.643,3.934-11.09,6.5c7.084-26.132,10.404-53.141,9.86-80.21c-0.59-27.4-4.22-56.49-15.22-81.83   c-9.14-21.06-23.81-38.43-46.33-45.05c-19.2-5.65-41.6-4.55-59.46,4.88c-11.15,5.89-20.4,15.74-27.89,25.72   c-8.6,11.45-15.06,24.71-16,39.16c-0.16,2.36,2.47,3.24,4.26,2.44c11.46-5.09,22-3,29.65,7.39c5.86,8,8.48,18.17,9.64,27.86   c2.15,17.89-0.55,36-2.16,53.8c-1.54,17-2.44,34.79,3,51.27s16.86,31.29,33.3,37.45c11.06,3.6,21.67,2.4,32.82,0.3   c3.06-0.58,10.55-1.44,15.1-4c2.113,5.06,5.057,9.731,8.71,13.82c3.78,4.12,10.21,10,16.33,9.13c5.89-0.82,7.83-7.44,8.12-12.57   c0.15-4.112-0.499-8.215-1.91-12.08c2.333,1.249,4.831,2.162,7.42,2.71c5,1.05,12.39,1.45,16-3.06   C299.121,290.213,287.241,280.923,278.241,276.403z"></path>
	<path style="fill:#ff2271;" d="M225.371,126.343c-32.908,21.176-71.93,30.795-110.91,27.34c-5.95-0.51-11,5.44-11,11   c0,6.4,5.08,10.52,11,11c42.899,3.6,85.791-7.023,122.05-30.23c11.91-7.66,0.85-26.79-11.15-19.07L225.371,126.343z"></path>
	<path style="fill:#003899;" d="M130.841,146.553c38.3,14.12,82.92,8.77,116.91-13.79c11.79-7.82,0.74-27-11.15-19.07   c-29.54,19.583-66.656,23.882-99.89,11.57c-5.6-2.06-12.1,2.31-13.58,7.71C121.441,139.133,125.231,144.483,130.841,146.553   L130.841,146.553z"></path>
	<path style="fill:#003899;" d="M235.471,105.593c-1.323,3.893-0.762,8.18,1.52,11.6c2,3,6.92,0.18,4.89-2.86   c-1.495-2.108-1.85-4.818-0.95-7.24c1.18-3.45-4.28-4.94-5.46-1.51V105.593z"></path>
	<path style="fill:#003899;" d="M247.631,107.593c-1.151,1.952-2.602,3.71-4.3,5.21c-1.068,1.141-1.008,2.932,0.133,4   c1.088,1.018,2.779,1.018,3.867,0c2.048-1.836,3.798-3.978,5.19-6.35C254.371,107.303,249.521,104.453,247.631,107.593z"></path>
	<path style="fill:#003899;" d="M253.181,112.543c-1.409,1.711-3.1,3.168-5,4.31c-3.13,1.86-0.28,6.76,2.86,4.89   c2.33-1.372,4.413-3.126,6.16-5.19c1.062-1.122,1.062-2.878,0-4c-1.109-1.093-2.891-1.093-4,0L253.181,112.543z"></path>
	<path style="fill:#003899;" d="M256.391,119.403c-0.924,0.807-2.139,1.197-3.36,1.08c-1.508-0.368-3.039,0.512-3.48,2   c-0.402,1.512,0.491,3.066,2,3.48c2.694,0.57,5.503-0.03,7.73-1.65c1.298-0.827,1.735-2.518,1-3.87c-0.7-1.19-2.65-2-3.87-1   L256.391,119.403z"></path>
	<path style="fill:#003899;" d="M254.191,127.793h-0.51c0.327,0.053,0.327,0.053,0,0l-0.49-0.14l0,0c-0.12-0.07-0.88-0.65-0.49-0.28   c-0.13-0.113-0.253-0.234-0.37-0.36c0.167,0.247,0.167,0.247,0,0c-0.79-1.35-2.525-1.805-3.875-1.015s-1.805,2.525-1.015,3.875   c1.503,2.3,4.072,3.679,6.82,3.66c1.563,0,2.83-1.267,2.83-2.83s-1.267-2.83-2.83-2.83L254.191,127.793z"></path>
	<path style="fill:#ff2271;" d="M107.061,151.133c1.983,1.151,3.298,3.18,3.54,5.46c0.22,1.51,2.14,2.35,3.48,2   c1.491-0.437,2.373-1.971,2-3.48c-0.607-3.723-2.864-6.972-6.14-8.84c-3.16-1.83-6,3.06-2.86,4.89L107.061,151.133z"></path>
	<path style="fill:#ff2271;" d="M97.171,155.853c3.215,3.543,7.864,5.437,12.64,5.15c3.62-0.22,3.65-5.89,0-5.66   c-3.271,0.275-6.478-1.02-8.64-3.49C98.711,149.153,94.721,153.163,97.171,155.853L97.171,155.853z"></path>
	<path style="fill:#ff2271;" d="M94.121,165.383c4.202,2.638,9.251,3.575,14.12,2.62c3.58-0.65,2.06-6.1-1.51-5.46   c-3.399,0.604-6.9-0.111-9.79-2c-3.09-2-5.93,2.95-2.86,4.89L94.121,165.383z"></path>
	<path style="fill:#ff2271;" d="M97.011,176.513c4.596,1.398,9.589,0.257,13.12-3c2.72-2.43-1.29-6.43-4-4   c-2.078,1.839-4.983,2.423-7.61,1.53c-3.49-1.08-5,4.38-1.51,5.46V176.513z"></path>
	<path style="fill:#ff2271;" d="M109.701,182.343c2.639-1.354,4.903-3.34,6.59-5.78c0.779-1.347,0.334-3.069-1-3.87   c-1.35-0.756-3.056-0.315-3.87,1c-1.194,1.611-2.768,2.902-4.58,3.76c-1.35,0.79-1.805,2.525-1.015,3.875   C106.616,182.678,108.351,183.133,109.701,182.343L109.701,182.343z"></path>
	<path style="fill:#ff2271;" d="M212.091,296.453c5.17-5.15-2.84-13.16-8-8c-12.85,12.82-18.58,30.24-16.71,48.08h-2.32   c-3.64,0-3.65,5.66,0,5.66h5.1c3.47,1.51,9.07-1.52,8.36-6.72C196.734,321.064,201.749,306.644,212.091,296.453z"></path>
	<path style="fill:#ff2271;" d="M227.831,282.533c-9.81,16.41-19.68,34.21-17.25,54h-0.62c-3.64,0-3.65,5.66,0,5.66h5.6   c3.31,0.72,6.95-1,6.39-5.21c-2.39-18.1,6.71-33.77,15.66-48.74C241.361,281.973,231.571,276.273,227.831,282.533z"></path>
	<path style="fill:#003899;" d="M158.551,336.533h-3.21c2.485-17.746,0.36-35.833-6.17-52.52c-2.65-6.7-13.61-3.78-10.92,3   c6.213,15.341,8.249,32.056,5.9,48.44c-0.78,5.19,4.8,8.23,8.3,6.72h6.09C162.241,342.193,162.241,336.533,158.551,336.533z"></path>
	<path style="fill:#003899;" d="M134.951,336.533h-1.79c3.138-12.829,2.99-26.243-0.43-39c-1.87-7-12.8-4.05-10.92,3   c3.097,11.464,3.076,23.547-0.06,35c-1.36,5,3.84,8,7.6,6.72h5.59C138.591,342.193,138.601,336.533,134.951,336.533z"></path>
	<path style="fill:#60ff64;" d="M162.381,32.283c-24.227,3.108-45.442,17.774-56.91,39.34c-1.23,2.34,0.79,4.54,3.2,4.16   c6.26-1,12.15-1.33,18.08-3.79c5.802-2.369,11.282-5.46,16.31-9.2c4.68-3.5,9.61-7.28,13.37-11.78c3.3-3.94,5.2-8.29,7.4-12.86   l0.55-1C165.711,35.453,165.091,31.933,162.381,32.283z"></path>
	<path style="fill:#003899;" d="M139.711,47.773c-3.523-1.832-7.846-0.957-10.38,2.1c-2.81,3.18-3.54,8.47,0.89,10.66   c3.851,1.813,8.434,0.919,11.32-2.21c0.196-0.177,0.367-0.378,0.51-0.6C144.241,54.243,143.471,49.793,139.711,47.773z"></path>
	<path style="fill:#ff2271;" d="M209.241,4.333c-1.547-2.461-4.163-4.05-7.06-4.29c-6.93-0.64-11.51,6-12.34,12.14   c-0.6,4.47,1.33,9.22,6.26,9.83c5.33,0.66,9.77-3.51,12.41-7.67C210.191,11.283,211.101,7.563,209.241,4.333z"></path>
	<path style="fill:#ff2271;" d="M176.711,37.613c0.239,4.307,3.924,7.604,8.231,7.365c1.69-0.094,3.304-0.734,4.599-1.825   c5-4.22,3.4-11.26-1.4-14.82c-2.93-2.17-5.75,2.74-2.86,4.89c1.53,1.14,2.38,3.46,1.12,5.1c-1.09,1.42-3.86,1.51-4-0.71   c-0.29-3.61-6-3.64-5.66,0L176.711,37.613z"></path>
	<path style="fill:#60ff64;" d="M190.801,69.603c-10.21-4.29-22.65-1-28.9,8.28c-7.63,11.34-6.39,27.48,7.28,33.26   c12.72,5.38,29.64-1.57,34.26-14.56c0.189-0.432,0.31-0.891,0.36-1.36C205.961,84.453,201.241,73.983,190.801,69.603z"></path>
	<path style="fill:#003899;" d="M194.241,85.003c-2.6-6.93-11.07-10.14-17.81-7.54c-6.57,2.53-11.35,10.23-9.51,17.27   c2.24,8.58,12,12.09,19.56,8.62c0.246-0.076,0.481-0.184,0.7-0.32c0.204-0.108,0.396-0.238,0.57-0.39   C193.351,98.763,196.721,91.743,194.241,85.003z"></path>
	<path style="fill:#003899;" d="M147.681,30.743l-18.16-24.16c-1.25-1.67-4.77-2-5.17,0.68c-1.453,9.813-2.453,19.663-3,29.55   c-6.247-5.28-12.697-10.28-19.35-15c-1.64-1.17-4.51,0.37-4.26,2.44c1.26,10.467,3.066,20.861,5.41,31.14   c0.81,3.55,6.27,2,5.46-1.51c-0.05-0.24-0.1-0.48-0.15-0.72l14-8c1.358,0.785,3.095,0.32,3.88-1.039   c0.239-0.415,0.37-0.883,0.38-1.361l0,0l16-9.13l0,0C144.961,36.453,149.881,33.663,147.681,30.743z"></path>
	<path style="fill:#ff2271;" d="M71.571,129.543l-0.92,6.83c-0.357,1.506,0.519,3.03,2,3.48c1.32,0.36,3.28-0.45,3.48-2l0.92-6.83   c0.357-1.506-0.519-3.03-2-3.48C73.731,127.183,71.771,127.993,71.571,129.543z"></path>
	<path style="fill:#ff2271;" d="M69.151,156.303l-2.16,7.39c-1,3.5,4.44,5,5.46,1.51l2.16-7.39   C75.611,154.313,70.171,152.813,69.151,156.303z"></path>
	<path style="fill:#ff2271;" d="M67.311,181.963l-0.46,4.54c0.005,1.561,1.269,2.824,2.83,2.83c1.545-0.042,2.788-1.285,2.83-2.83   l0.46-4.54c-0.005-1.561-1.269-2.824-2.83-2.83C68.596,179.175,67.353,180.418,67.311,181.963z"></path>
	<path style="fill:#ff2271;" d="M66.911,204.643l0.17,5.66c0.11,3.64,5.77,3.65,5.66,0l-0.17-5.66   C72.461,201.003,66.801,200.993,66.911,204.643z"></path>
	<path style="fill:#ff2271;" d="M68.081,227.273l0.9,6.76c0.052,1.541,1.289,2.778,2.83,2.83c1.37,0,3-1.3,2.83-2.83l-0.9-6.76   c-0.052-1.541-1.289-2.778-2.83-2.83C69.541,224.443,67.911,225.743,68.081,227.273z"></path>
	<path style="fill:#ff2271;" d="M68.941,251.223c0.136,0.489,0.21,0.993,0.22,1.5c0,0.33,0,0.65,0,1c0,0.07-0.08,0.9,0,0.54   c-0.368,1.508,0.512,3.039,2,3.48c1.34,0.3,3.26-0.41,3.48-2c0.316-1.994,0.251-4.03-0.19-6c-0.414-1.509-1.968-2.402-3.48-2   c-1.495,0.432-2.379,1.971-2,3.48H68.941z"></path>
	<path style="fill:#ff2271;" d="M85.011,238.453l-0.49,2.85c-0.176,0.738-0.073,1.514,0.29,2.18c0.377,0.633,0.982,1.098,1.69,1.3   c1.37,0.31,3.22-0.42,3.48-2l0.49-2.85c0.176-0.738,0.073-1.514-0.29-2.18c-0.377-0.633-0.982-1.098-1.69-1.3   C87.121,236.143,85.271,236.873,85.011,238.453z"></path>
	<path style="fill:#ff2271;" d="M82.501,212.863c0.268,1.958,0.191,3.949-0.23,5.88c-0.75,3.55,4.71,5.07,5.46,1.51   c0.611-2.925,0.689-5.937,0.23-8.89c-0.22-1.51-2.14-2.35-3.48-2c-1.491,0.437-2.373,1.971-2,3.48L82.501,212.863z"></path>
	<path style="fill:#ff2271;" d="M79.991,187.253l0.22,7.36c0.11,3.64,5.77,3.65,5.66,0l-0.22-7.36   C85.541,183.613,79.881,183.603,79.991,187.253z"></path>
	<path style="fill:#ff2271;" d="M79.321,164.623c-0.192,1.978,0.078,3.974,0.79,5.83c0.441,1.488,1.972,2.368,3.48,2   c1.509-0.414,2.402-1.968,2-3.48c-0.556-1.371-0.759-2.86-0.59-4.33c-0.011-1.558-1.272-2.819-2.83-2.83   c-1.55,0.032-2.798,1.28-2.83,2.83L79.321,164.623z"></path>
	<path style="fill:#ff2271;" d="M83.241,145.243l0.15,5.09c0.002,1.563,1.27,2.829,2.833,2.827c1.56-0.002,2.825-1.266,2.827-2.827   l-0.15-5.09c-0.002-1.563-1.27-2.829-2.833-2.827C84.507,142.418,83.243,143.682,83.241,145.243z"></path>
	<path style="fill:#ff2271;" d="M82.801,108.233l-1.56,4.58c-0.402,1.512,0.491,3.066,2,3.48c1.509,0.373,3.043-0.509,3.48-2   l1.57-4.57c0.402-1.512-0.491-3.066-2-3.48c-1.509-0.373-3.043,0.509-3.48,2L82.801,108.233z"></path>
	<path style="fill:#ff2271;" d="M88.461,123.953l-0.5,2.28c-0.417,1.508,0.467,3.068,1.975,3.485s3.068-0.467,3.485-1.975l0,0   l0.5-2.28c0.417-1.508-0.467-3.068-1.975-3.485S88.878,122.445,88.461,123.953L88.461,123.953z"></path>
	<path style="fill:#ff2271;" d="M83.471,265.323l0.07,2.26c0,1.563,1.267,2.83,2.83,2.83s2.83-1.267,2.83-2.83l0,0l-0.07-2.26   c0.002-1.563-1.264-2.831-2.827-2.833s-2.831,1.264-2.833,2.827C83.471,265.318,83.471,265.321,83.471,265.323z"></path>
	<path style="fill:#ff2271;" d="M98.671,224.643l0.17,5.66c0.11,3.64,5.77,3.65,5.66,0l-0.17-5.66   C104.221,221.003,98.561,220.993,98.671,224.643z"></path>
	<path style="fill:#ff2271;" d="M98.321,250.713l0.09,2.83c0,1.563,1.267,2.83,2.83,2.83s2.83-1.267,2.83-2.83l-0.09-2.83   c0-1.563-1.267-2.83-2.83-2.83S98.321,249.15,98.321,250.713z"></path>
	<path style="fill:#ff2271;" d="M96.781,195.453l0.73,5.07c0.22,1.51,2.14,2.35,3.48,2c1.491-0.437,2.373-1.971,2-3.48l-0.73-5.07   c-0.22-1.51-2.14-2.35-3.48-2C97.29,192.41,96.408,193.944,96.781,195.453z"></path>
	<path style="fill:#003899;" d="M252.531,159.033c0.715,1.914,0.968,3.97,0.74,6c0.011,1.558,1.272,2.819,2.83,2.83   c1.55-0.032,2.798-1.28,2.83-2.83c0.258-2.546-0.067-5.118-0.95-7.52c-0.441-1.488-1.972-2.368-3.48-2   c-1.509,0.414-2.402,1.968-2,3.48L252.531,159.033z"></path>
	<path style="fill:#003899;" d="M254.461,186.163c0.241,1.585,0.169,3.202-0.21,4.76c-0.83,3.54,4.63,5.06,5.46,1.51   c0.587-2.55,0.659-5.192,0.21-7.77c-0.414-1.509-1.968-2.402-3.48-2c-1.491,0.437-2.373,1.971-2,3.48L254.461,186.163z"></path>
	<path style="fill:#003899;" d="M252.991,209.623c-0.514,2.296-0.676,4.656-0.48,7c0.042,1.545,1.285,2.788,2.83,2.83   c1.558-0.011,2.819-1.272,2.83-2.83c-0.187-1.834-0.092-3.685,0.28-5.49c0.373-1.509-0.509-3.043-2-3.48   c-1.512-0.396-3.061,0.495-3.48,2L252.991,209.623z"></path>
	<path style="fill:#003899;" d="M250.831,233.103l-0.44,5.67c0.016,1.556,1.274,2.814,2.83,2.83c1.55-0.032,2.798-1.28,2.83-2.83   l0.44-5.67c-0.016-1.556-1.274-2.814-2.83-2.83C252.111,230.305,250.863,231.553,250.831,233.103z"></path>
	<path style="fill:#003899;" d="M247.921,254.143c-0.02,1.675-0.359,3.332-1,4.88c-0.735,1.352-0.298,3.043,1,3.87   c1.19,0.7,3.26,0.4,3.87-1c1.089-2.44,1.691-5.069,1.77-7.74c0.09-3.64-5.57-3.64-5.66,0L247.921,254.143z"></path>
	<path style="fill:#003899;" d="M238.091,240.103l-1,5.7c-0.363,1.507,0.515,3.035,2,3.48c1.512,0.402,3.066-0.491,3.48-2l1-5.7   c0.363-1.507-0.515-3.035-2-3.48C240.059,237.701,238.505,238.594,238.091,240.103z"></path>
	<path style="fill:#003899;" d="M237.851,217.823c0.243,1.585,0.171,3.202-0.21,4.76c-0.83,3.54,4.63,5.06,5.46,1.51   c0.591-2.55,0.662-5.192,0.21-7.77c-0.414-1.509-1.968-2.402-3.48-2c-1.491,0.437-2.373,1.971-2,3.48L237.851,217.823z"></path>
	<path style="fill:#003899;" d="M238.071,188.733l0.22,7.36c0.11,3.64,5.77,3.65,5.66,0l-0.22-7.36   C243.621,185.093,237.961,185.083,238.071,188.733z"></path>
	<path style="fill:#003899;" d="M236.691,160.453l0.82,7.9c0.042,1.545,1.285,2.788,2.83,2.83c1.558-0.011,2.819-1.272,2.83-2.83   l-0.82-7.9c-0.042-1.545-1.285-2.788-2.83-2.83C237.963,157.634,236.702,158.894,236.691,160.453L236.691,160.453z"></path>
	<path style="fill:#003899;" d="M226.861,173.773l0.14,4.53c0,1.563,1.267,2.83,2.83,2.83s2.83-1.267,2.83-2.83l0,0l-0.14-4.53   c0-1.563-1.267-2.83-2.83-2.83C228.128,170.943,226.861,172.21,226.861,173.773z"></path>
	<path style="fill:#003899;" d="M224.891,199.333l-0.48,4c0.005,1.561,1.269,2.824,2.83,2.83c1.543-0.047,2.783-1.287,2.83-2.83   l0.48-4c-0.005-1.561-1.269-2.824-2.83-2.83C226.178,196.55,224.938,197.79,224.891,199.333z"></path>
	<path style="fill:#003899;" d="M224.861,220.283l0.07,2.26c0,1.563,1.267,2.83,2.83,2.83s2.83-1.267,2.83-2.83l-0.07-2.26   c0-1.563-1.267-2.83-2.83-2.83C226.128,217.453,224.861,218.72,224.861,220.283z"></path>
	<path style="fill:#003899;" d="M223.821,240.333c0.14,0.64,0.05-0.28,0.06,0.32c0,0.18,0,0.36,0,0.54c0,0.307,0,0.363,0,0.17   c0-0.28-0.1,0.45-0.13,0.56c-0.086,0.307-0.193,0.607-0.32,0.9c-0.408,1.513,0.487,3.07,2,3.48c1.507,0.363,3.035-0.515,3.48-2   c0.685-1.752,0.814-3.672,0.37-5.5c-0.414-1.509-1.968-2.402-3.48-2c-1.491,0.437-2.373,1.971-2,3.48L223.821,240.333z"></path>
	<path style="fill:#003899;" d="M222.241,257.023l-0.48,2.85c-0.176,0.738-0.073,1.514,0.29,2.18c0.377,0.633,0.982,1.098,1.69,1.3   c1.37,0.31,3.22-0.42,3.48-2l0.48-2.85c0.176-0.738,0.073-1.514-0.29-2.18c-0.377-0.633-0.982-1.098-1.69-1.3   C224.351,254.713,222.501,255.443,222.241,257.023z"></path>
	<path style="fill:#003899;" d="M233.721,268.363C233.851,268.943,233.721,267.783,233.721,268.363c0.006,0.123,0.006,0.247,0,0.37   c0,0.247,0,0.247,0,0s0-0.247,0,0c-0.022,0.088-0.049,0.175-0.08,0.26c-0.073,0.2-0.037,0.117,0.11-0.25   c-0.054,0.11-0.114,0.217-0.18,0.32c-0.79,1.35-0.335,3.085,1.015,3.875s3.085,0.335,3.875-1.015c0.886-1.508,1.151-3.3,0.74-5   c-0.414-1.509-1.968-2.402-3.48-2c-1.495,0.432-2.379,1.971-2,3.48L233.721,268.363L233.721,268.363z"></path>
	<path style="fill:#003899;" d="M213.411,230.083c-0.375,1.719-0.055,3.516,0.89,5c0.79,1.35,2.525,1.805,3.875,1.015   s1.805-2.525,1.015-3.875l0,0c-0.108-0.153-0.205-0.313-0.29-0.48c0.153,0.393,0.177,0.447,0.07,0.16   c-0.055-0.177-0.099-0.357-0.13-0.54c0.047,0.413,0.067,0.51,0.06,0.29c0-0.21,0.12-0.91,0-0.08c0.178-0.737,0.074-1.515-0.29-2.18   c-0.79-1.348-2.524-1.801-3.873-1.01c-0.636,0.373-1.102,0.979-1.297,1.69L213.411,230.083z"></path>
	<path style="fill:#003899;" d="M213.101,205.913l0.14,4.54c0,1.563,1.267,2.83,2.83,2.83s2.83-1.267,2.83-2.83l0,0l-0.14-4.53   c0-1.563-1.267-2.83-2.83-2.83s-2.83,1.267-2.83,2.83V205.913z"></path>
	<path style="fill:#003899;" d="M214.131,183.783l0.05,1.7c0,1.563,1.267,2.83,2.83,2.83s2.83-1.267,2.83-2.83l-0.05-1.7   c0-1.563-1.267-2.83-2.83-2.83S214.131,182.22,214.131,183.783L214.131,183.783z"></path>
	<path style="fill:#003899;" d="M224.831,284.013l-1.1,1.17c-1.068,1.141-1.008,2.932,0.133,4c1.088,1.018,2.779,1.018,3.867,0   l1.1-1.17c1.068-1.141,1.008-2.932-0.133-4C227.61,282.995,225.919,282.995,224.831,284.013z"></path>
	<path style="fill:#003899;" d="M128.511,105.863c-1.185,5.179,2.052,10.338,7.231,11.524c1.976,0.452,4.044,0.269,5.909-0.524   c7.77-3.29,8.27-12.89,3.08-18.68c-2.44-2.72-6.43,1.3-4,4s2.81,7-0.46,9.06c-2.88,1.85-7.09-0.19-6.29-3.88s-4.68-5.07-5.46-1.51   L128.511,105.863z"></path>
	<path style="fill:#1c4fae;" d="M88.131,77.373c-19.91,20.12-29,47.48-32.54,75c-2,15.82-2.51,31.79-2.85,47.72   c-0.525,16.572-0.084,33.16,1.32,49.68c0.45,4.67,7.81,4.72,7.36,0c-2.699-30.261-2.424-60.713,0.82-90.92   c2.87-27.75,11.06-56,31.14-76.28c3.34-3.37-1.87-8.58-5.2-5.2L88.131,77.373L88.131,77.373z"></path>
	<path style="fill:#1c4fae;" d="M44.031,291.813c-3.705,2.535-6.304,6.386-7.27,10.77c-0.492,1.954,0.64,3.949,2.57,4.53   c1.958,0.52,3.972-0.623,4.53-2.57c0.442-2.54,1.833-4.816,3.89-6.37c1.69-1.058,2.267-3.246,1.32-5c-0.93-1.59-3.41-2.48-5-1.32   L44.031,291.813z"></path>
	<path style="fill:#1c4fae;" d="M60.961,307.073l-1.66,6.24c-0.552,1.961,0.589,3.998,2.55,4.55s3.998-0.589,4.55-2.55l1.66-6.24   c0.552-1.961-0.589-3.998-2.55-4.55C63.55,303.971,61.513,305.112,60.961,307.073z"></path>
	<path style="fill:#1c4fae;" d="M170.341,31.353c3.707-0.887,7.256-2.341,10.52-4.31c4.05-2.44,0.36-8.81-3.72-6.36   c-2.715,1.638-5.671,2.84-8.76,3.56c-4.61,1.1-2.66,8.19,2,7.1L170.341,31.353z"></path>
	<path style="fill:#60ff64;" d="M61.681,84.333c6.246-2.323,12.118-5.547,17.43-9.57c3.71-2.84,0.05-9.23-3.72-6.36   c-4.766,3.689-10.045,6.664-15.67,8.83c-4.39,1.66-2.49,8.78,2,7.1H61.681z"></path>
	<path style="fill:#60ff64;" d="M28.521,126.813c6.804-2.882,13.064-6.906,18.51-11.9c4.87-4.65,8-10.85,14.61-13.34   c4.39-1.66,2.49-8.78-2-7.1c-6.35,2.4-10.05,6.47-14.38,11.51c-5.62,6.54-12.67,11-20.49,14.48c-4.32,1.93-0.58,8.28,3.72,6.36   L28.521,126.813z"></path>
	<path style="fill:#60ff64;" d="M40.741,139.113c-6.671,9.799-14.244,18.952-22.62,27.34c-3.35,3.36,1.86,8.57,5.2,5.2   c8.805-8.852,16.763-18.507,23.77-28.84c2.67-3.93-3.71-7.61-6.36-3.72L40.741,139.113z"></path>
	<path style="fill:#ff459d;" d="M136.421,93.183c6.89-13,20.45-18.94,33.32-24.48c4.34-1.87,0.59-8.21-3.72-6.36   c-14.1,6.07-28.45,13-36,27.12c-2.22,4.18,4.13,7.91,6.36,3.72C136.381,93.183,136.421,93.183,136.421,93.183z"></path>
	<path style="fill:#ff459d;" d="M160.841,187.613c-7.66,33.17-6.55,69.67,14.47,97.94c2.8,3.76,9.19,0.09,6.36-3.72   c-19.89-26.74-21-60.84-13.73-92.26c1.06-4.61-6-6.58-7.1-2V187.613z"></path>
	<path style="fill:#ff459d;" d="M273.551,286.253c2.796-0.432,5.572,0.888,7,3.33c2.39,4.08,8.76,0.38,6.36-3.72   c-2.715-4.706-7.894-7.43-13.31-7c-2.01,0.053-3.627,1.67-3.68,3.68c0,1.84,1.69,3.88,3.68,3.68L273.551,286.253z"></path>
	<path style="fill:#ff459d;" d="M253.581,301.053c3.449,1.529,6.103,4.429,7.32,8c1.47,4.48,8.58,2.56,7.1-2   c-1.713-5.432-5.581-9.922-10.7-12.42c-1.754-0.947-3.942-0.37-5,1.32c-0.94,1.6-0.48,4.18,1.32,5L253.581,301.053z"></path>
	<path style="fill:#ff459d;" d="M271.451,269.943c3.863-2.439,8.186-4.059,12.7-4.76c4.66-0.76,2.68-7.85-2-7.1   c-5.14,0.844-10.058,2.714-14.46,5.5c-4,2.52-0.31,8.89,3.72,6.36L271.451,269.943z"></path>
	<path style="fill:#ff459d;" d="M223.621,72.773c8.032,4.004,14.495,10.58,18.36,18.68c2.07,4.26,8.42,0.53,6.36-3.72   c-4.477-9.209-11.855-16.693-21-21.3c-4.22-2.13-7.95,4.22-3.72,6.36V72.773z"></path>
</g>

            </g>
        </g>
    </g>
    
</svg>