<?xml version="1.0" encoding="iso-8859-1" ?>
<svg version="1.1" xmlns="http://www.w3.org/2000/svg" xmlns:xlink="http://www.w3.org/1999/xlink" 
    viewBox="0 0 500 500" width="500" height="500">
    
    
    <!-- ITEM 0 -->
    <g>
        <defs>
            <clipPath id="clip-path-id-viewbox-item-0">
                <rect x="0.0" y="0.0" width="264.85" height="241.3"/>
            </clipPath>
        </defs>
        <g transform="translate(38.0 65.0) rotate(0.0 214.0 195.0) scale(1.6160090617330563 1.6162453377538333)">
            <g clip-path="url(#clip-path-id-viewbox-item-0)" transform="translate(-0.0 -0.0)">
                
<g>
	<polyline style="fill:#60ff64;" points="0,91.72 249.43,0 264.85,19.46 118.51,241.3  "></polyline>
</g>

            </g>
        </g>
    </g>
    
    <!-- ITEM 1 -->
    <g>
        <defs>
            <clipPath id="clip-path-id-viewbox-item-1">
                <rect x="0.0" y="0.0" width="184.797" height="278.703"/>
            </clipPath>
        </defs>
        <g transform="translate(158.0 111.0) rotate(0.0 92.0 139.0) scale(0.9956871594235838 0.9974776016045755)">
            <g clip-path="url(#clip-path-id-viewbox-item-1)" transform="translate(-0.0 -0.0)">
                
<g>
	<path style="fill:#e86e9a;" d="M73.056,278.648h10.23c3.22,0,3.22-5,0-5h-10.23C69.836,273.648,69.836,278.648,73.056,278.648z"></path>
	<path style="fill:#e86e9a;" d="M43.366,278.648h10.21c3.22,0,3.22-5,0-5h-10.21C40.146,273.648,40.146,278.648,43.366,278.648z"></path>
	<g>
		<path style="fill:#e86e9a;" d="M32.586,168.138c-3.13-5-6.26-10.21-6-16.35c0.14-3.22-4.86-3.21-5,0    c-0.31,7,3.08,13.09,6.67,18.88c1.69,2.73,6,0.22,4.32-2.52L32.586,168.138z"></path>
		<path style="fill:#e86e9a;" d="M34.106,163.338c-1.517-1.957-2.665-4.173-3.39-6.54c-1-3.06-5.79-1.75-4.82,1.33    c1.008,3.18,2.595,6.146,4.68,8.75c0.979,0.974,2.561,0.974,3.54,0c0.947-0.99,0.947-2.55,0-3.54L34.106,163.338z"></path>
		<path style="fill:#003899;" d="M172.286,80.898c6.856-5.153,10.07-13.835,8.22-22.21c-2.24-9.43-10.88-15.83-20.16-17    c5.562-8.044,4.065-19.002-3.45-25.26c-8.44-6.94-18.28-4.5-26.28,1c-0.18-9.08-8.44-17.16-18.12-17.42    c-11-0.29-22.06,7.77-25.12,18.19c-2.103-3.072-5.403-5.116-9.09-5.63c-6.17-0.72-12.18,2.86-16.52,6.91    c-7.61,7.1-10.72,18.51-6.16,27.46c-2.126,0.282-4.126,1.171-5.76,2.56c-4.39,3.73-5,9.65-4.18,15    c3.32,14.28,16.2,13.93,28.26,14.51c7.25,0.35,13.73,2.56,18.79,7.93c4.21,4.48,7,10.12,9.9,15.48s5.91,10.59,10.07,15    c5.77,6.09,13.49,9.32,21.53,11.2c16.61,3.88,36.28,1.93,46.51-13.42C188.576,103.388,184.706,86.548,172.286,80.898z"></path>
		<path style="fill:#e86e9a;" d="M174.496,197.508c-0.47,2.67-1,5.31-1.69,7.9c-0.08,0.32-0.18,0.63-0.26,0.95    c-4.62,21.54-26.52,24.22-45.26,23.85c-9.34-0.18-19.39-1.57-27.54,2.93c-4.25,2.35-6.73,6.23-8.16,10.79    c-2.73,8.7-1.61,19.86-1.6,27.53c0,9.67-15,9.65-15,0c0-10.35-0.5-21.63,2.5-31.69c1.305-4.565,3.501-8.827,6.46-12.54    c4.66-5.77,11.06-9,18-10.62c-0.2-0.31-0.41-0.62-0.6-0.94c-11.27,1.52-22.68,4.12-31.26,11.42    c-2.147,1.817-3.958,3.996-5.35,6.44c-6.29,10.9-4.17,25.79-4.1,37.93c0,9.67-15,9.65-15,0c-0.08-15.44-1.45-32.51,6.34-45.89    c1.981-3.42,4.515-6.489,7.5-9.08c10.44-9.12,23.37-12.84,36.66-15c-0.409-2.202-0.65-4.432-0.72-6.67c0-0.46,0-0.91,0-1.36    c0-8.69,2.1-17.22,3.25-25.84c1.84-13.82,0-26.08-2-39.56c-0.39-2.61,2.84-4,4.24-2.57l29.88-31.15c-1.8-2,0.54-5.72,3-3.92    c5.45,4,11.49,7.21,16.86,11.37c5.399,4.342,9.937,9.657,13.38,15.67c7.54,12.65,11,27.29,12.13,41.86    C177.18,172.067,176.622,184.895,174.496,197.508z"></path>
		<path style="fill:#e86e9a;" d="M140.856,49.438c-11.82-17.83-36.94-24.81-56-14.59c-17,9.12-25.72,30.17-21,48.68    c1.17,4.57,3.67,9.81-0.19,13.82c-1.69,1.75-3.84,3-5.16,5.12c-2.76,4.42-1.44,10.57,0,15.24c2.94,9.47,10.18,13.47,19.66,14.28    c13,0.72,25.85-2.8,38-7.12c9.31-3.32,18.61-8.06,25.22-15.6C155.406,93.328,151.986,66.228,140.856,49.438z"></path>
		<path style="fill:#003899;" d="M69.536,100.228c-2.37-4-7.5-3.22-10.66-0.69c-3.85,3.08-4.63,8.22-2.91,12.61    c0.057,0.205,0.137,0.403,0.24,0.59c0.091,0.204,0.209,0.396,0.35,0.57C62.106,121.818,73.886,107.578,69.536,100.228z"></path>
		<path style="fill:#e86e9a;" d="M76.926,50.828l-9.4,16.3c-1.61,2.79,2.71,5.31,4.32,2.52l9.4-16.3    C82.856,50.558,78.536,48.038,76.926,50.828z"></path>
		<path style="fill:#003899;" d="M40.896,141.938c-5.66-7-11.52-13.83-17-21c-2.67-3.41-5.41-7.68-8.82-10.38    c-1.4-1.11-2.74-1.62-4.49-0.92c-3.17,1.26-7,5.16-9,7.74c-3.56,4.5-0.42,7.52,2.52,11.69c4.665,6.447,9.721,12.602,15.14,18.43    c2.68,3,5.32,5.89,7.85,9c2.13,2.6,4.41,5.79,7.28,7.66c2.1,1.36,3.64,1.11,5.61-0.19c2.874-1.835,5.391-4.176,7.43-6.91    C50.746,151.828,43.906,145.678,40.896,141.938z"></path>
		<path style="fill:#60ff64;" d="M42.106,148.348c-8.473-10.753-17.303-21.21-26.49-31.37c-4.33-4.78-11.38,2.31-7.07,7.07    c9.187,10.16,18.017,20.617,26.49,31.37C39.036,160.468,46.036,153.348,42.106,148.348z"></path>
		<path style="fill:#e86e9a;" d="M105.026,152.388c-11.256,1.804-22.727-1.54-31.25-9.11c0.836-2.228,0.615-4.714-0.6-6.76    c-1.63-2.77-6-0.26-4.32,2.52c0.178,0.312,0.306,0.649,0.38,1c-0.642-1.139-1.482-2.155-2.48-3    c-0.956-0.996-2.539-1.028-3.535-0.071c-0.935,0.898-1.028,2.362-0.215,3.371c-7.39-6.45-18.69-9.56-27.37-4.13    c-2.72,1.7-0.21,6,2.52,4.32c7.5-4.69,17-1,22.83,4.79c-1.044,1.933-1.021,4.267,0.06,6.18c-1.471,0.862-3.281,0.915-4.8,0.14    c-2.85-1.49-5.38,2.82-2.52,4.32c3.488,1.822,7.711,1.479,10.86-0.88c12.318,10.343,28.61,14.648,44.43,11.74    C118.506,165.218,114.486,150.758,105.026,152.388z"></path>
		<path style="fill:#003899;" d="M145.816,98.708c-7.1,20.42-26.85,32.83-48.3,31c-3.21-0.27-3.19,4.73,0,5    c23.562,2.041,45.48-12.248,53.12-34.63c1.06-3-3.77-4.35-4.82-1.33V98.708z"></path>
		<path style="fill:#46b6ff;" d="M124.626,146.268c-2.28-12.49-21.65-10.34-21,2.2c0.01,0.179,0.037,0.356,0.08,0.53    c0,0,0,0.09,0,0.13c1,5.62,6.31,10,12.09,9.08C121.376,157.318,125.666,151.948,124.626,146.268z"></path>
		<path style="fill:#003899;" d="M110.986,131.958v10c0,3.22,5,3.22,5,0v-10C115.986,128.738,110.986,128.738,110.986,131.958z"></path>
		<path style="fill:#60ff64;" d="M97.456,62.078c-8.33-3.57-16.4,1.19-20.08,8.91c-3.51,7.38-1.86,17.26,5.62,21.58    c8.26,4.78,18.2-1.51,21.83-9.19c0.043-0.104,0.08-0.211,0.11-0.32c0.052-0.09,0.099-0.184,0.14-0.28    C108.146,74.708,105.836,65.698,97.456,62.078z"></path>
		<path style="fill:#003899;" d="M95.676,76.528c-3.79-3.13-9.76-3.4-13.39,0.12c-3.49,3.37-2.89,8.48,0.55,11.64    c3.296,3.227,8.423,3.647,12.2,1c0.18-0.101,0.347-0.222,0.5-0.36c0.16-0.126,0.304-0.27,0.43-0.43    C99.366,85.078,99.646,79.808,95.676,76.528z"></path>
		<path style="fill:#003899;" d="M163.126,75.948l-32.73-44.51c1.45-1.17,1.56-3.87-0.75-4.33c-10.92-2.19-20.31-7.88-31.8-5.58    c-8.17,1.63-18.34,7-21.58,15.21c-2.64,6.66,0.86,13.6,7.29,16.34c7,3,14.34,1,20.23-3.22c0.94,12.23,12.09,21.54,24.44,19.37    c-2.1,9.42,2.42,20.13,11.86,23.82c11.13,4.35,24.06-3.12,26.94-14.4C167.666,76.168,164.746,74.828,163.126,75.948z"></path>
		<path style="fill:#003899;" d="M89.126,118.078c4.505-3.955,9.625-7.147,15.16-9.45c2.93-1.22,1.64-6.06-1.33-4.82    c-6.33,2.604-12.189,6.233-17.34,10.74c-2.43,2.12,1.12,5.65,3.54,3.54L89.126,118.078z"></path>
		<path style="fill:#003899;" d="M176.106,197.078c-0.078-0.391-0.253-0.755-0.51-1.06c-1.85-3.11-6-3.15-9.32-3.2    c-7.91-0.1-15.84,0.11-23.75,0.17c-15.72,0.12-31.44-1-47.13-0.71c-1.374,0.016-2.484,1.126-2.5,2.5c0.08,1.56,0.23,3.1,0.42,4.64    c-16.89,3.09-34.17,9.51-43.52,24.85c-0.668,1.197-0.27,2.707,0.9,3.42c4.18,2.78,8.41,5.46,12.76,8    c1.197,0.668,2.707,0.27,3.42-0.9c4.55-7.38,12.11-11.36,20.25-13.74c-5.73,4.668-9.914,10.96-12,18.05    c-0.336,1.33,0.436,2.688,1.75,3.08c4.567,1.804,9.285,3.197,14.1,4.16c1.329,0.33,2.684-0.439,3.08-1.75    c4.75-13.86,19.64-12.29,31.63-11.93c8.23,0.25,16.64,0,24.67-2c7.23-1.8,14.22-5.27,18.91-11.2    C173.546,213.998,177.596,204.158,176.106,197.078z"></path>
		<path style="fill:#e86e9a;" d="M144.286,162.448c-0.474-2.268-1.859-4.242-3.83-5.46c-3.71-2.12-8.2-0.95-10.92,2.83    c-10.695,14.618-26.947,24.177-44.92,26.42c-10.37,1.24-20.52-0.14-28.59-3.89c-4.39-1.948-8.258-4.905-11.29-8.63    c-0.655-0.938-1.209-1.944-1.65-3c-0.395-0.88-0.849-1.732-1.36-2.55c4.974-6.028,5.882-14.439,2.31-21.39    c-1.46-2.87-5.77-0.34-4.32,2.52c2.611,5.19,1.82,11.443-2,15.82c-1.95-0.776-3.956-1.405-6-1.88c-0.69-0.18-1.34-0.34-1.91-0.51    c-1.28-0.37-2.81-0.33-3.26,0.89v0.17c0,12.82,6.62,23.74,18.78,30.76c9.661,5.372,20.557,8.13,31.61,8    c2.173,0,4.357-0.1,6.55-0.3c23.956-2.224,45.771-14.725,59.8-34.27l0,0C144.396,166.363,144.76,164.349,144.286,162.448z"></path>
		<path style="fill:#46b6ff;" d="M150.756,124.228c2.958-2.485,6.123-4.713,9.46-6.66c2.77-1.63,0.26-6-2.52-4.32    c-3.696,2.181-7.198,4.673-10.47,7.45c-2.46,2.08,1.09,5.6,3.54,3.54L150.756,124.228z"></path>
		<path style="fill:#46b6ff;" d="M156.286,137.958c3.498-1.562,7.08-2.928,10.73-4.09c3.05-1,1.75-5.81-1.33-4.82    c-4.059,1.306-8.042,2.839-11.93,4.59c-2.93,1.32-0.39,5.63,2.52,4.32H156.286z"></path>
		<path style="fill:#46b6ff;" d="M160.286,151.078l9.69-1.49c1.328-0.374,2.108-1.747,1.75-3.08c-0.392-1.314-1.75-2.086-3.08-1.75    l-9.69,1.49c-1.328,0.374-2.108,1.747-1.75,3.08C157.598,150.642,158.956,151.413,160.286,151.078z"></path>
		<path style="fill:#46b6ff;" d="M161.656,167.628h11c3.22,0,3.22-5,0-5h-11C158.436,162.628,158.436,167.628,161.656,167.628z"></path>
		<path style="fill:#46b6ff;" d="M163.286,184.988c3.113-0.133,6.232-0.09,9.34,0.13c3.21,0.23,3.2-4.77,0-5    c-3.108-0.22-6.227-0.263-9.34-0.13C160.076,180.128,160.066,185.128,163.286,184.988z"></path>
		<path style="fill:#46b6ff;" d="M61.486,194.078v3.33c0,1.381,1.119,2.5,2.5,2.5c1.381,0,2.5-1.119,2.5-2.5v-3.33    c0-1.381-1.119-2.5-2.5-2.5C62.605,191.578,61.486,192.697,61.486,194.078z"></path>
		<path style="fill:#46b6ff;" d="M73.146,194.788c-0.01,1.371,0.252,2.731,0.77,4c0.396,1.311,1.751,2.08,3.08,1.75    c1.15-0.37,2.29-1.78,1.75-3.08c-0.209-0.487-0.373-0.993-0.49-1.51c0-0.12-0.023-0.24-0.07-0.36c0,0.22,0,0.24,0,0.06    c0-0.29,0-0.57,0-0.86c0-1.381-1.119-2.5-2.5-2.5s-2.5,1.119-2.5,2.5L73.146,194.788z"></path>
		<path style="fill:#46b6ff;" d="M86.836,195.388l1.33,2.33c0.696,1.193,2.227,1.596,3.42,0.9c1.193-0.696,1.596-2.227,0.9-3.42    l-1.33-2.33c-0.696-1.193-2.227-1.596-3.42-0.9C86.543,192.663,86.14,194.195,86.836,195.388z"></path>
		<path style="fill:#46b6ff;" d="M99.836,190.078l1.69,3c0.696,1.193,2.227,1.596,3.42,0.9c1.193-0.696,1.596-2.227,0.9-3.42l0,0    l-1.69-3c-0.696-1.193-2.227-1.596-3.42-0.9C99.543,187.353,99.14,188.885,99.836,190.078z"></path>
		<path style="fill:#46b6ff;" d="M113.566,184.208l1.67,1.33c0.482,0.45,1.111,0.709,1.77,0.73c0.663-0.003,1.298-0.265,1.77-0.73    c0.83-0.9,1.09-2.67,0-3.54l-1.67-1.33c-0.482-0.45-1.111-0.709-1.77-0.73c-0.663,0.003-1.298,0.265-1.77,0.73    C112.736,181.568,112.476,183.338,113.566,184.208z"></path>
		<path style="fill:#46b6ff;" d="M122.906,176.538c0.933,0.965,2.112,1.656,3.41,2c1.331,0.367,2.708-0.414,3.075-1.745    c0.367-1.331-0.414-2.708-1.745-3.075l0,0l-0.31-0.09c-0.253-0.093-0.203-0.067,0.15,0.08l-0.5-0.26l-0.2-0.13    c-0.22-0.153-0.18-0.12,0.12,0.1c-0.163-0.14-0.317-0.29-0.46-0.45c-0.981-0.968-2.559-0.968-3.54,0    c-0.952,0.988-0.952,2.552,0,3.54L122.906,176.538z"></path>
		<path style="fill:#46b6ff;" d="M132.966,167.588l1.67,0.66c0.651,0.18,1.346,0.089,1.93-0.25c1.192-0.696,1.594-2.227,0.898-3.42    c-0.33-0.565-0.868-0.978-1.498-1.15l-1.67-0.66c-0.651-0.18-1.346-0.089-1.93,0.25c-1.192,0.696-1.594,2.227-0.898,3.42    C131.797,167.002,132.335,167.415,132.966,167.588z"></path>
		<path style="fill:#46b6ff;" d="M139.006,155.848l1.66,0.67c0.651,0.18,1.346,0.089,1.93-0.25c1.193-0.695,1.596-2.226,0.901-3.419    c0,0,0-0.001-0.001-0.001c-0.356-0.537-0.88-0.942-1.49-1.15l-1.66-0.67c-0.651-0.18-1.346-0.089-1.93,0.25    c-1.193,0.695-1.596,2.226-0.901,3.419c0,0,0,0.001,0.001,0.001C137.872,155.235,138.396,155.639,139.006,155.848z"></path>
		<path style="fill:#46b6ff;" d="M119.916,81.608l4.67-2c1.184-0.703,1.585-2.226,0.9-3.42c-0.72-1.161-2.222-1.557-3.42-0.9    l-4.67,2c-1.184,0.703-1.585,2.226-0.9,3.42C117.215,81.869,118.718,82.264,119.916,81.608z"></path>
		<path style="fill:#46b6ff;" d="M121.746,94.208c1.887-1.442,3.999-2.563,6.25-3.32c3-1,1.73-5.86-1.33-4.82    c-3.058,1.049-5.917,2.604-8.46,4.6c-0.974,0.979-0.974,2.561,0,3.54C119.195,95.155,120.756,95.155,121.746,94.208    L121.746,94.208z"></path>
		<path style="fill:#46b6ff;" d="M127.066,105.858l8.72-7.6c2.43-2.12-1.12-5.64-3.54-3.54l-8.72,7.6    C121.096,104.438,124.646,107.958,127.066,105.858z"></path>
		<path style="fill:#46b6ff;" d="M137.126,109.248l4.67-6c0.937-0.994,0.937-2.546,0-3.54c-0.981-0.968-2.559-0.968-3.54,0l-4.67,6    c-0.937,0.994-0.937,2.546,0,3.54C134.567,110.216,136.144,110.216,137.126,109.248z"></path>
		<path style="fill:#46b6ff;" d="M50.286,190.458l-0.67,2c-0.358,1.333,0.422,2.706,1.75,3.08c1.33,0.336,2.688-0.436,3.08-1.75    l0.67-2c0.358-1.333-0.422-2.706-1.75-3.08C52.036,188.372,50.678,189.143,50.286,190.458L50.286,190.458z"></path>
		<path style="fill:#46b6ff;" d="M42.506,185.208l-0.66,1c-0.685,1.194-0.284,2.717,0.9,3.42c1.197,0.662,2.704,0.266,3.42-0.9    l0.66-1c0.685-1.194,0.284-2.717-0.9-3.42C44.728,183.645,43.222,184.042,42.506,185.208z"></path>
		<path style="fill:#3c7cff;" d="M69.756,58.188c-4.56,8.309-5.639,18.087-3,27.19c1.14,4,7.42,2.31,6.27-1.73    c-2.202-7.412-1.352-15.397,2.36-22.18c2-3.68-3.63-7-5.61-3.28L69.756,58.188z"></path>
		<path style="fill:#3c7cff;" d="M118.826,172.078c6.306-5.87,11.494-12.836,15.31-20.56c1.85-3.74-3.76-7-5.61-3.28    c-3.551,7.231-8.394,13.751-14.29,19.24c-3.07,2.86,1.54,7.45,4.6,4.6L118.826,172.078z"></path>
		<path style="fill:#1c4fae;" d="M66.816,20.078c-3.197,3.602-4.925,8.274-4.84,13.09c0.08,4.18,6.58,4.19,6.5,0    c-0.123-3.097,0.922-6.128,2.93-8.49c2.72-3.15-1.86-7.77-4.6-4.6H66.816z"></path>
		<path style="fill:#1c4fae;" d="M109.036,7.308c-6.429,1.702-11.105,7.246-11.7,13.87c-0.19,1.75,1.63,3.25,3.25,3.25    c1.777-0.042,3.208-1.473,3.25-3.25c0.534-3.711,3.275-6.721,6.92-7.6c4-1,2.33-7.31-1.73-6.27L109.036,7.308z"></path>
		<path style="fill:#1c4fae;" d="M145.906,19.168c-5.359,0.571-10.112,3.696-12.76,8.39c-2,3.66,3.58,6.94,5.61,3.28    c1.444-2.747,4.089-4.66,7.15-5.17c1.74-0.23,3.25-1.33,3.25-3.25C149.156,20.838,147.656,18.938,145.906,19.168L145.906,19.168z"></path>
		<path style="fill:#1c4fae;" d="M168.106,48.078c-3.946-1.215-8.24-0.119-11.12,2.84c-2.91,3,1.68,7.61,4.6,4.6    c1.217-1.324,3.111-1.786,4.8-1.17c4,1.27,5.71-5,1.73-6.27H168.106z"></path>
		<path style="fill:#1c4fae;" d="M111.096,40.858c-1.844,3.188-2.209,7.021-1,10.5c0.517,1.7,2.275,2.698,4,2.27    c1.721-0.491,2.731-2.271,2.27-4c-0.746-1.783-0.636-3.809,0.3-5.5c2-3.66-3.58-6.94-5.61-3.28L111.096,40.858z"></path>
		<path style="fill:#1c4fae;" d="M83.006,30.928c-2.816,3.196-2.846,7.979-0.07,11.21c1.11,1.36,3.45,1.15,4.6,0    c1.229-1.287,1.229-3.313,0-4.6c-0.292-0.641-0.266-1.381,0.07-2c1.224-1.289,1.224-3.311,0-4.6c-1.276-1.255-3.324-1.255-4.6,0    V30.928z"></path>
		<path style="fill:#1c4fae;" d="M137.026,63.478c-2.39,3.653-3.45,8.018-3,12.36c0.058,1.773,1.487,3.193,3.26,3.24    c1.61,0,3.44-1.49,3.25-3.25c-0.419-3.18,0.323-6.404,2.09-9.08c2.28-3.52-3.35-6.79-5.61-3.28L137.026,63.478z"></path>
		<path style="fill:#1c4fae;" d="M94.226,230.818c9.84-10.754,23.774-16.836,38.35-16.74c4.18,0,4.19-6.48,0-6.5    c-16.306-0.088-31.896,6.693-42.95,18.68c-2.83,3.07,1.75,7.68,4.6,4.6V230.818z"></path>
		<path style="fill:#1c4fae;" d="M63.466,224.528c7.851-5.781,16.649-10.15,26-12.91c4-1.18,2.3-7.46-1.73-6.27    c-9.89,2.896-19.201,7.488-27.52,13.57c-3.34,2.45-0.1,8.09,3.28,5.61H63.466z"></path>
	</g>
</g>

            </g>
        </g>
    </g>
    
</svg>