<?xml version="1.0" encoding="iso-8859-1" ?>
<svg version="1.1" xmlns="http://www.w3.org/2000/svg" xmlns:xlink="http://www.w3.org/1999/xlink" 
    viewBox="0 0 500 500" width="500" height="500">
    
    
    <!-- ITEM 0 -->
    <g>
        <defs>
            <clipPath id="clip-path-id-viewbox-item-0">
                <rect x="0.0" y="0.0" width="800.0" height="600.0"/>
            </clipPath>
        </defs>
        <g transform="translate(39.0 82.0) rotate(0.0 213.5 160.0) scale(0.53375 0.5333333333333333)">
            <g clip-path="url(#clip-path-id-viewbox-item-0)" transform="translate(-0.0 -0.0)">
                
  
  <title>park</title>
  <g id="Слой_2-i0" data-name="Слой 2">
    <g id="Слой_1-2-i0" data-name="Слой 1">
      <path d="M649.02888,220.0275a811.874,811.874,0,0,0-85.67567-74.04738c-12.76969,2.85167-28.30452,5.29292-40.44813,7.20489-64.18365,10.11061-104.30932,8.5335-179.20713,5.08768-30.98613-1.41506-50.32889-3.14334-51.904-10.74789-1.6383-7.907,16.68206-18.68744,31.14252-26.02194-2.567-17.942,5.58123-34.56625,18.02795-40.16165,16.43192-7.37775,41.15775,4.0831,47.53266,29.4137-.2924-22.43561,8.72182-42.72171,22.74367-54.16094-86.75-39.76206-239.30113-97.25-336.68231-13.81574C19.71248,89.77753.42167,166.01773.30705,242.61435.18173,245.034.02534,248.5338.00446,252.76821a230.98614,230.98614,0,0,0,2.08659,31.32567c1.69026,14.15053,3.28628,27.46935,5.00762,41.36065,5.77991,35.94893,14.75236,69.41336,24.977,96.94759C47.829,464.8429,70.64605,526.306,128.72631,566.70537c15.055,10.46716,29.06662,17.15351,42.97334,21.1718,97.66339,28.258,162.75432-1.65273,278.8318-2.31163a521.641,521.641,0,0,1,101.57524,9.32209c-4.47578-6.103-8.4508-12.61661-12.35247-19.0006a3.94733,3.94733,0,0,1,.42741-5.05537,3.74144,3.74144,0,0,1,4.51755-1.53379,123.94553,123.94553,0,0,1,22.1181,9.47333c-5.42534-14.42071-12.07127-30.01867-9.17062-44.51494a4.20752,4.20752,0,0,1,7.21954-1.89034,362.72852,362.72852,0,0,1,33.2398,37.72047,410.393,410.393,0,0,1,6.38459-59.454c.71982-3.9103,6.15535-4.07236,7.89758-.97207a255.9508,255.9508,0,0,1,21.0855,48.23061,256.46066,256.46066,0,0,1,2.58735-35.85162c4.4442-33.65892,6.677-50.48831,12.59241-51.49295,3.08812-.51848,12.07076,1.84722,30.45378,55.72723C710.39593,459.82,720.62,450.80037,724.43866,452.21549c3.74528,1.38255,5.98826,14.49626-8.50327,79.92363,4.24654-5.30379,41.94074-52.08711,50.99674-46.2,9.275,6.03825-16.599,64.0555-19.12372,69.66178,23.12981-11.13674,32.21689-13.40526,35.4721-12.59511q2.0815-3.01372,3.93325-6.27587C826.68176,467.3489,773.16032,338.65455,649.02888,220.0275ZM205.90939,261.6042c-3.50533,6.58917-13.55216,7.24814-25.18533,7.6478-41.73187,1.41506-64.59016-1.70672-86.17591-2.24682-44.30905-1.11263-75.71239,8.81436-79.91665-1.92278a12.66932,12.66932,0,0,1,.97045-10.0458c3.54711-6.1355,12.15431-6.41637,13.60463-6.43792,0-4.66646.68823-15.42522,8.07485-24.23959C47.8708,211.69917,64.9395,211.7856,70.41681,211.818a48.78293,48.78293,0,0,1,8.273.73453c7.69941-19.41108,24.95558-32.21137,42.97334-32.15737,23.54754.07562,45.52962,22.12238,46.31209,51.33083v.23768c2.82729-2.38725,8.66986-6.53517,15.79566-5.98426C199.74386,227.22157,211.40759,251.25591,205.90939,261.6042Z" style="         fill: #60ff64;       "></path>
    </g>
  </g>

            </g>
        </g>
    </g>
    
    <!-- ITEM 1 -->
    <g>
        <defs>
            <clipPath id="clip-path-id-viewbox-item-1">
                <rect x="0.0" y="0.0" width="352.124" height="430.223"/>
            </clipPath>
        </defs>
        <g transform="translate(224.0 216.0) rotate(0.0 78.0 96.0) scale(0.44302575229180624 0.4462801849273516)">
            <g clip-path="url(#clip-path-id-viewbox-item-1)" transform="translate(-0.0 -0.0)">
                
<g>
	<path style="fill:#003899;" d="M100.22,66.409c3.585,2.392,9.361,0.73,20.914-2.595c15.786-4.543,25.964-7.472,30.718-16.219   c3.867-7.114,1.33-12.895,5.882-15.571c5.706-3.354,13.189,3.675,15.686,1.298c3.343-3.185-3.224-22.32-17.646-29.195   c-17.186-8.193-41.198,3.089-52.286,19.463C93.527,38.3,91.601,60.657,100.22,66.409z"></path>
	<path style="fill:#e86e9a;" d="M101.442,253.21c-4.031,0-7.335-3.228-7.413-7.276c-0.222-11.668,1.754-29.209,12.432-46.518   c19.689-31.914,53.834-38.892,63.831-40.271c4.052-0.553,7.801,2.276,8.36,6.334c0.56,4.057-2.276,7.801-6.334,8.36   c-5.959,0.823-36.532,6.294-53.233,33.365c-8.786,14.242-10.41,28.77-10.225,38.448c0.078,4.096-3.179,7.478-7.274,7.557   C101.538,253.21,101.489,253.21,101.442,253.21z"></path>
	<path style="fill:#e86e9a;" d="M276.088,395.562c-1.353,0-2.727-0.303-4.022-0.943c-4.508-2.225-6.358-7.683-4.133-12.19   c7.293-14.774,12.422-30.462,15.244-46.628c3.419-19.581,3.418-39.494-0.002-59.184c-0.859-4.953,2.458-9.665,7.411-10.526   c4.96-0.859,9.665,2.458,10.526,7.411c3.779,21.764,3.779,43.777-0.002,65.43c-3.12,17.878-8.791,35.223-16.854,51.555   C282.671,393.699,279.444,395.562,276.088,395.562z"></path>
	<path style="fill:#e86e9a;" d="M202.464,392.73c-3.457,0-6.763-1.981-8.289-5.333c-9.677-21.249-16.273-43.677-19.606-66.661   c-2.486-17.147-3.146-34.629-1.96-51.962c0.342-5.016,4.688-8.823,9.701-8.46c5.016,0.342,8.803,4.686,8.46,9.701   c-1.097,16.05-0.486,32.236,1.815,48.108c3.086,21.279,9.195,42.049,18.157,61.73c2.083,4.575,0.063,9.973-4.512,12.055   C205.008,392.467,203.726,392.73,202.464,392.73z"></path>
	<path style="fill:#e86e9a;" d="M352.123,232.969c-0.11,5.821-1.489,11.909-4.91,17.352c-0.834,1.362-1.834,2.638-2.904,3.858   c-1.115,1.165-2.257,2.353-3.551,3.327c-2.534,2.027-5.377,3.681-8.37,4.817c-5.982,2.356-12.435,3.031-18.665,2.417l-1.174-0.109   l-1.158-0.179c-0.771-0.126-1.552-0.235-2.319-0.387c-1.513-0.361-3.066-0.66-4.541-1.16c-3.019-0.858-5.872-2.13-8.687-3.5   c-4.452-2.166-6.305-7.531-4.139-11.983c2.166-4.452,7.531-6.305,11.983-4.139c0.378,0.184,0.738,0.391,1.078,0.619l0.227,0.155   c1.709,1.162,3.461,2.335,5.353,3.187c0.924,0.501,1.901,0.82,2.863,1.236c0.487,0.177,0.982,0.317,1.475,0.484l0.742,0.244   l0.75,0.183c4,1.044,8.211,1.232,12.112,0.366c1.969-0.397,3.81-1.134,5.51-2.094c0.884-0.447,1.636-1.055,2.435-1.633   c0.748-0.628,1.487-1.294,2.136-2.064c2.665-3.012,4.457-7.209,5.218-11.702l0.016-0.093c0.396-2.337,2.611-3.911,4.948-3.515   C350.672,229.016,352.164,230.879,352.123,232.969z"></path>
	<path style="fill:#ff2271;" d="M303.957,292.797c-19.138,18.606-48.511,19.289-71.509,19.824   c-24.466,0.569-55.304,1.286-72.925-18.408c-6.255-6.991-10.099-15.722-6.626-97.044c2.453-57.436,4.981-67.369,13.706-77.126   c15.249-17.051,40.081-23.111,60.167-21.056c20.677,2.116,34.779,12.674,41.079,17.516   C317.914,154.988,344.364,253.515,303.957,292.797z"></path>
	<path style="fill:#003898;" d="M322.318,253.933c-23.776,18.538-56.954,30.042-93.662,30.042c-28.621,0-55.096-6.996-76.642-18.868   c-0.303-5.878-0.447-13.102-0.399-22.057c0.064-12.085,0.474-27.322,1.299-46.664c2.454-57.434,4.978-67.368,13.704-77.127   c15.253-17.047,40.083-23.111,60.17-21.056c20.678,2.119,34.775,12.676,41.079,17.521   C305.585,144.715,329.899,207.786,322.318,253.933z"></path>
	<path style="fill:#ff2271;" d="M249.492,90.434c-2.115,37.267-41.274,59.362-67.311,65.716c-3.417,0.835-25.306,5.858-46.891,0.189   c-10.087-2.648-20.113-7.633-28.156-16.469c-17.885-19.655-21.43-53.363-10.621-61.6c4.546-3.465,8.728-0.208,14.161-4.248   c0.746-0.552,1.392-1.156,1.959-1.803c7.005-7.991,1.369-22.681,7.246-35.01c9.544-20.033,43.733-21.723,46.084-21.812   C203.851,13.97,251.923,47.64,249.492,90.434z"></path>
	<ellipse style="fill:#60ff64;" cx="152.247" cy="60.078" rx="19.182" ry="19.33"></ellipse>
	<circle style="fill:#003899;" cx="152.578" cy="60.226" r="10.583"></circle>
	<path style="fill:#e86e9a;" d="M156.691,118.274c0,15.766-8.464,29.691-21.402,38.064c-10.087-2.648-20.113-7.633-28.156-16.469   c-17.885-19.655-21.43-53.363-10.621-61.6c4.546-3.465,8.728-0.208,14.161-4.248c0.746-0.552,1.393-1.156,1.959-1.803   C137.442,74.904,156.691,94.503,156.691,118.274z"></path>
	<ellipse style="fill:#003899;" cx="101.113" cy="79.32" rx="9.558" ry="7.447"></ellipse>
	<path style="fill:#003899;" d="M125.345,113.167c-0.006,0-0.012,0-0.018,0c-3.896-0.004-7.276-1.465-9.775-4.224   c-3.179-3.508-4.602-8.783-4.009-14.851c0.162-1.667,1.644-2.906,3.314-2.724c1.668,0.162,2.888,1.647,2.724,3.314   c-0.418,4.282,0.481,7.995,2.467,10.188c1.338,1.477,3.116,2.226,5.285,2.229c0.004,0,0.008,0,0.011,0   c2.228,0,4.045-0.781,5.398-2.322c2.01-2.29,2.834-6.104,2.26-10.467c-0.219-1.661,0.951-3.185,2.612-3.404   c1.672-0.217,3.185,0.952,3.404,2.612c0.815,6.186-0.506,11.607-3.716,15.263C132.782,111.65,129.34,113.167,125.345,113.167z"></path>
	<circle style="fill:#003899;" cx="75.656" cy="414.292" r="15.93"></circle>
	<path style="fill:#e86e9a;" d="M225.746,389.919c-0.433,5.524-7.584,8.741-12.273,9.441c-6.738,1.006-15.834-2.074-18.488-9.677   c-3.083-8.831,4.203-18.965,8.024-18.645c2.943,0.246,2.695,6.6,8.182,8.89c3.776,1.576,5.805-0.636,9.362,1.259   C223.543,382.779,226.02,386.424,225.746,389.919z"></path>
	<path style="fill:#e86e9a;" d="M285.851,385.75c0.495,8.223-9.809,15.284-18.566,15.498c-5.709,0.14-13.806-2.556-15.105-8.182   c-0.558-2.416,0.054-5.739,2.203-7.631c3.496-3.079,7.844,0.46,12.273-2.281c4.491-2.781,3.016-8.276,6.294-9.441   C277.037,372.261,285.423,378.649,285.851,385.75z"></path>
	<path style="fill:#003899;" d="M46.581,381.48c-0.602,0-1.212-0.17-1.752-0.526c-1.477-0.969-1.888-2.952-0.917-4.428   c9.957-15.162,19.188-31.022,27.439-47.139c17.201-33.599,30.694-69.344,40.105-106.242c0.435-1.711,2.177-2.745,3.888-2.308   c1.711,0.436,2.744,2.177,2.308,3.888c-9.528,37.359-23.19,73.552-40.609,107.576c-8.355,16.32-17.703,32.381-27.786,47.734   C48.643,380.972,47.622,381.48,46.581,381.48z"></path>
	<path style="fill:#003899;" d="M25.294,379.624c2.975,1.917,9.603,6.187,12.863,4.012c3.282-2.19,0.416-9.089,3.068-10.385   c2.685-1.312,9.558,3.835,9.323,8.497c-0.172,3.4-3.983,3.736-6.726,9.205c-2.594,5.172-0.512,7.518-2.5,10.193   c-4.139,5.572-19.462,3.873-29.716-3.585c-1.933-1.406-13.912-10.118-11.211-19.117c1.476-4.917,7.091-9.11,11.919-8.615   C16.813,370.291,17.32,374.486,25.294,379.624z"></path>
	<path style="fill:#003899;" d="M112.846,230.774c-0.53,0-1.069-0.11-1.585-0.34c-1.959-0.877-2.836-3.176-1.96-5.134   c2.405-5.372,4.4-10.974,5.931-16.653c1.687-6.257,2.838-12.704,3.421-19.163c0.193-2.137,2.077-3.71,4.219-3.521   c2.137,0.193,3.714,2.082,3.521,4.219c-0.623,6.905-1.854,13.798-3.658,20.487c-1.636,6.071-3.77,12.062-6.341,17.805   C115.749,229.918,114.331,230.774,112.846,230.774z"></path>
	<path style="fill:#e86e9a;" d="M124.576,244.837c-0.179,0-0.361-0.022-0.542-0.068c-2.043-0.52-5.025-1.699-7.635-4.368   c-1.385-1.417-2.489-3.071-3.28-4.917c-0.477-1.112,0.039-2.4,1.151-2.877c1.113-0.474,2.4,0.038,2.877,1.151   c0.577,1.347,1.379,2.551,2.385,3.579c1.898,1.941,4.083,2.803,5.581,3.184c1.173,0.299,1.882,1.492,1.584,2.664   C126.445,244.178,125.554,244.837,124.576,244.837z"></path>
	<path style="fill:#e86e9a;" d="M118.065,246.253c-0.04,0-0.081,0-0.121,0c-5.015-0.051-8.273-3.212-9.152-4.18   c-0.814-0.896-0.748-2.281,0.148-3.095c0.896-0.816,2.282-0.747,3.095,0.148c0.578,0.636,2.713,2.711,5.953,2.744   c0.026,0.001,0.052,0.001,0.077,0.001c2.173,0,3.824-0.931,4.62-1.49c0.989-0.696,2.356-0.457,3.053,0.533   c0.696,0.99,0.457,2.356-0.533,3.053C123.983,244.826,121.442,246.253,118.065,246.253z"></path>
	<path style="fill:#e86e9a;" d="M117.981,252.915c-1.237,0-2.557-0.12-3.937-0.417c-1.93-0.414-3.785-1.133-5.515-2.134   c-1.047-0.607-1.405-1.947-0.798-2.995c0.607-1.047,1.948-1.404,2.995-0.798c1.333,0.772,2.759,1.325,4.239,1.643   c3.334,0.715,6.246,0.093,8.1-0.556c1.146-0.399,2.392,0.204,2.792,1.345c0.399,1.143-0.203,2.392-1.345,2.792   C122.886,252.363,120.625,252.915,117.981,252.915z"></path>
	<path style="fill:#e86e9a;" d="M128.506,242.005c-0.458,0-0.92-0.143-1.314-0.44c-0.967-0.727-1.162-2.1-0.435-3.068   c2.545-3.389,1.931-7.514-0.241-9.24c-1.455-1.158-3.812-1.34-6.01-0.466c-1.124,0.448-2.399-0.104-2.845-1.228   c-0.446-1.125,0.104-2.399,1.228-2.845c3.688-1.463,7.656-1.038,10.355,1.11c4.32,3.435,4.776,10.3,1.017,15.303   C129.83,241.703,129.172,242.005,128.506,242.005z"></path>
	<path style="fill:#e86e9a;" d="M99.489,263.697c-0.782,0-1.509-0.498-1.764-1.281c-0.712-2.194-1.264-4.455-1.639-6.722   c-0.696-4.205-0.807-8.505-0.328-12.782c0.114-1.018,1.037-1.746,2.049-1.637c1.018,0.114,1.75,1.032,1.637,2.049   c-0.441,3.938-0.34,7.895,0.301,11.764c0.345,2.084,0.852,4.163,1.508,6.181c0.316,0.975-0.217,2.02-1.191,2.337   C99.872,263.668,99.679,263.697,99.489,263.697z"></path>
	<path style="fill:#e86e9a;" d="M104.682,262.595c-0.712,0-1.391-0.412-1.697-1.105c-0.945-2.139-1.672-4.377-2.162-6.652   c-0.82-3.805-0.989-7.72-0.5-11.635c0.127-1.017,1.064-1.742,2.07-1.61c1.016,0.127,1.737,1.054,1.61,2.07   c-0.437,3.5-0.288,6.996,0.444,10.393c0.438,2.03,1.087,4.027,1.93,5.936c0.414,0.937-0.011,2.032-0.947,2.445   C105.187,262.544,104.933,262.595,104.682,262.595z"></path>
	<path style="fill:#003899;" d="M262.185,70.956c-3.883,2.611-10.141,0.796-22.656-2.832c-17.1-4.958-28.126-8.154-33.276-17.7   c-4.189-7.763-1.441-14.072-6.372-16.992c-6.181-3.66-14.288,4.011-16.992,1.416c-3.622-3.475,3.493-24.358,19.116-31.86   c18.618-8.94,44.629,3.371,56.641,21.24C269.436,40.281,271.522,64.679,262.185,70.956z"></path>
	<path style="fill:#1c4fad;" d="M255.589,52.059c-2.701,0-5.072-1.972-5.492-4.725c-2.217-14.529-11.933-26.241-24.178-29.144   c-9.18-2.177-17.288,1.086-21.303,3.225c-2.708,1.44-6.079,0.416-7.524-2.297c-1.443-2.711-0.415-6.08,2.297-7.524   c5.399-2.874,16.358-7.246,29.096-4.229c16.872,3.999,29.671,19.03,32.61,38.292c0.464,3.037-1.622,5.874-4.66,6.337   C256.151,52.038,255.868,52.059,255.589,52.059z"></path>
	<path style="fill:#1c4fad;" d="M84.266,421.024c-0.305,0.001-0.615-0.063-0.91-0.198c-1.101-0.504-1.585-1.803-1.082-2.904   c1.444-3.158,0.594-6.907-2.068-9.115c-2.625-2.177-6.429-2.348-9.252-0.412c-0.998,0.682-2.362,0.429-3.046-0.569   c-0.684-0.998-0.429-2.363,0.569-3.046c4.429-3.035,10.404-2.767,14.527,0.654c4.183,3.471,5.522,9.355,3.256,14.311   C85.892,420.549,85.097,421.024,84.266,421.024z"></path>
	<path style="fill:#1c4fad;" d="M310.614,255.784c-0.096,0-0.193-0.003-0.29-0.008c-3.068-0.157-5.427-2.773-5.269-5.84   c1.066-20.733-1.365-52.098-19.004-83.788c-8.362-15.023-19.249-28.501-32.359-40.059c-2.305-2.032-2.525-5.546-0.493-7.851   c2.032-2.305,5.545-2.525,7.851-0.493c14.06,12.396,25.742,26.861,34.722,42.993c18.923,33.997,21.534,67.581,20.393,89.769   C316.011,253.477,313.555,255.784,310.614,255.784z"></path>
	<path style="fill:#60ff64;" d="M167.931,185.891c-0.023,0-0.046-0.001-0.068-0.002c-0.93-0.037-1.654-0.821-1.616-1.752   l0.532-13.309c0.037-0.93,0.826-1.637,1.752-1.616c0.93,0.037,1.654,0.821,1.616,1.752l-0.532,13.309   C169.578,185.18,168.831,185.891,167.931,185.891z"></path>
	<path style="fill:#60ff64;" d="M184.965,181.899c-0.812,0-1.527-0.587-1.662-1.414l-1.864-11.447   c-0.149-0.919,0.474-1.785,1.392-1.935c0.926-0.148,1.785,0.474,1.935,1.392l1.864,11.447c0.149,0.919-0.474,1.785-1.392,1.935   C185.146,181.892,185.054,181.899,184.965,181.899z"></path>
	<path style="fill:#60ff64;" d="M203.599,178.438c-0.714,0-1.377-0.456-1.606-1.172l-4.259-13.31   c-0.284-0.887,0.205-1.835,1.092-2.119c0.889-0.283,1.836,0.206,2.119,1.092l4.259,13.31c0.284,0.887-0.205,1.835-1.092,2.119   C203.943,178.412,203.769,178.438,203.599,178.438z"></path>
	<path style="fill:#60ff64;" d="M219.04,172.582c-0.669,0-1.302-0.4-1.566-1.06l-5.324-13.31c-0.345-0.865,0.076-1.845,0.939-2.191   c0.863-0.346,1.845,0.075,2.191,0.939l5.324,13.31c0.345,0.865-0.076,1.845-0.939,2.191   C219.46,172.543,219.248,172.582,219.04,172.582z"></path>
	<path style="fill:#60ff64;" d="M241.4,157.675c-0.569,0-1.125-0.288-1.442-0.809l-7.453-12.246   c-0.484-0.795-0.232-1.832,0.564-2.316c0.796-0.485,1.832-0.232,2.316,0.564l7.453,12.246c0.484,0.795,0.232,1.832-0.564,2.316   C242.001,157.596,241.699,157.675,241.4,157.675z"></path>
	<path style="fill:#60ff64;" d="M256.306,147.027c-0.471,0-0.939-0.197-1.273-0.579l-10.647-12.245   c-0.611-0.702-0.536-1.767,0.166-2.378c0.704-0.611,1.768-0.535,2.378,0.166l10.647,12.245c0.611,0.702,0.536,1.767-0.166,2.378   C257.092,146.891,256.698,147.027,256.306,147.027z"></path>
	<path style="fill:#60ff64;" d="M164.738,219.964c-0.054,0-0.109-0.003-0.164-0.008c-0.926-0.09-1.605-0.913-1.515-1.84   l1.597-16.504c0.09-0.927,0.914-1.6,1.84-1.515c0.927,0.09,1.605,0.914,1.515,1.84l-1.597,16.504   C166.329,219.312,165.595,219.964,164.738,219.964z"></path>
	<path style="fill:#60ff64;" d="M186.029,215.705c-0.876,0-1.616-0.678-1.68-1.565l-1.064-14.907   c-0.067-0.929,0.633-1.736,1.561-1.802c0.935-0.06,1.736,0.633,1.802,1.561l1.064,14.907c0.067,0.929-0.633,1.736-1.561,1.802   C186.11,215.703,186.069,215.705,186.029,215.705z"></path>
	<path style="fill:#60ff64;" d="M208.39,209.848c-0.739,0-1.418-0.49-1.624-1.237l-4.259-15.439   c-0.248-0.898,0.279-1.826,1.176-2.074c0.9-0.248,1.825,0.279,2.074,1.176l4.259,15.439c0.248,0.898-0.279,1.826-1.176,2.074   C208.69,209.829,208.539,209.848,208.39,209.848z"></path>
	<path style="fill:#60ff64;" d="M241.932,201.331c-0.652,0-1.273-0.38-1.548-1.017l-8.519-19.699   c-0.37-0.854,0.024-1.846,0.878-2.216c0.857-0.37,1.847,0.025,2.216,0.878l8.519,19.699c0.37,0.854-0.024,1.846-0.878,2.216   C242.383,201.287,242.155,201.331,241.932,201.331z"></path>
	<path style="fill:#60ff64;" d="M261.631,190.683c-0.57,0-1.126-0.289-1.442-0.811l-9.05-14.907   c-0.483-0.795-0.23-1.832,0.566-2.315c0.795-0.484,1.832-0.228,2.315,0.566l9.05,14.907c0.483,0.795,0.23,1.832-0.566,2.315   C262.231,190.604,261.929,190.683,261.631,190.683z"></path>
	<path style="fill:#60ff64;" d="M276.538,181.1c-0.594,0-1.17-0.314-1.478-0.872l-8.518-15.44c-0.45-0.815-0.154-1.84,0.662-2.29   c0.816-0.449,1.84-0.153,2.29,0.662l8.518,15.44c0.45,0.815,0.154,1.84-0.662,2.29C277.092,181.032,276.813,181.1,276.538,181.1z"></path>
	<path style="fill:#60ff64;" d="M162.075,265.216c-0.019,0-0.04,0-0.059-0.001c-0.931-0.033-1.658-0.812-1.627-1.743l0.532-15.439   c0.032-0.93,0.814-1.656,1.743-1.627c0.931,0.032,1.658,0.812,1.627,1.743l-0.532,15.439   C163.727,264.499,162.979,265.216,162.075,265.216z"></path>
	<path style="fill:#60ff64;" d="M182.305,268.411c-0.931,0-1.686-0.755-1.686-1.686v-14.907c0-0.931,0.755-1.686,1.686-1.686   c0.931,0,1.686,0.755,1.686,1.686v14.907C183.99,267.656,183.235,268.411,182.305,268.411z"></path>
	<path style="fill:#60ff64;" d="M202.534,274.267c-0.864,0-1.6-0.66-1.677-1.537l-1.598-18.101c-0.083-0.927,0.603-1.745,1.53-1.827   c0.953-0.088,1.745,0.604,1.827,1.53l1.598,18.101c0.083,0.927-0.603,1.745-1.53,1.827   C202.633,274.265,202.583,274.267,202.534,274.267z"></path>
	<path style="fill:#60ff64;" d="M223.296,275.332c-0.832,0-1.556-0.615-1.669-1.463l-2.13-15.972   c-0.123-0.923,0.525-1.771,1.448-1.894c0.925-0.133,1.77,0.525,1.894,1.448l2.13,15.972c0.123,0.923-0.525,1.771-1.448,1.894   C223.445,275.328,223.37,275.332,223.296,275.332z"></path>
	<path style="fill:#60ff64;" d="M246.189,275.332c-0.816,0-1.534-0.593-1.664-1.426l-2.662-17.037   c-0.144-0.919,0.486-1.781,1.405-1.925c0.926-0.145,1.782,0.486,1.926,1.406l2.662,17.037c0.144,0.919-0.486,1.781-1.405,1.925   C246.363,275.326,246.275,275.332,246.189,275.332z"></path>
	<path style="fill:#60ff64;" d="M266.951,272.137c-0.775,0-1.472-0.537-1.645-1.326l-3.726-17.036   c-0.198-0.91,0.378-1.808,1.287-2.007c0.903-0.197,1.807,0.377,2.007,1.287l3.726,17.036c0.198,0.91-0.378,1.808-1.287,2.007   C267.192,272.125,267.071,272.137,266.951,272.137z"></path>
	<path style="fill:#60ff64;" d="M286.65,267.878c-0.878,0-1.619-0.68-1.68-1.57l-1.065-15.439c-0.064-0.929,0.637-1.733,1.565-1.797   c0.944-0.055,1.734,0.637,1.797,1.565l1.065,15.439c0.064,0.929-0.637,1.733-1.565,1.797   C286.728,267.877,286.689,267.878,286.65,267.878z"></path>
	<path style="fill:#60ff64;" d="M198.275,243.389c-0.931,0-1.686-0.755-1.686-1.686v-13.31c0-0.931,0.755-1.686,1.686-1.686   c0.931,0,1.686,0.755,1.686,1.686v13.31C199.961,242.634,199.206,243.389,198.275,243.389z"></path>
	<path style="fill:#60ff64;" d="M219.038,239.662c-0.745,0-1.427-0.498-1.628-1.251l-4.259-15.971   c-0.24-0.9,0.295-1.824,1.194-2.063c0.9-0.24,1.823,0.294,2.063,1.194l4.259,15.971c0.24,0.9-0.295,1.824-1.194,2.063   C219.328,239.643,219.182,239.662,219.038,239.662z"></path>
	<path style="fill:#60ff64;" d="M241.399,238.065c-0.688,0-1.335-0.425-1.584-1.11l-6.388-17.569   c-0.319-0.875,0.133-1.842,1.008-2.16c0.878-0.317,1.842,0.133,2.16,1.008l6.388,17.569c0.319,0.875-0.133,1.842-1.008,2.16   C241.784,238.032,241.59,238.065,241.399,238.065z"></path>
	<path style="fill:#60ff64;" d="M263.226,235.936c-0.756,0-1.442-0.511-1.635-1.277l-4.792-19.167   c-0.226-0.903,0.324-1.818,1.227-2.045c0.911-0.224,1.819,0.325,2.045,1.227l4.792,19.167c0.226,0.903-0.324,1.818-1.227,2.045   C263.498,235.92,263.361,235.936,263.226,235.936z"></path>
	<path style="fill:#60ff64;" d="M283.988,228.482c-0.806,0-1.519-0.579-1.659-1.401l-3.194-18.634   c-0.157-0.917,0.459-1.788,1.377-1.946c0.916-0.156,1.789,0.459,1.946,1.377l3.194,18.634c0.157,0.917-0.458,1.788-1.377,1.946   C284.179,228.474,284.082,228.482,283.988,228.482z"></path>
	<path style="fill:#e86e9a;" d="M129.808,254.028c-2.151,0-4.193-0.057-6.113-0.154c-4.463-0.225-7.898-4.025-7.673-8.488   c0.225-4.463,4.051-7.888,8.488-7.673c13.398,0.68,33.683-0.897,54.216-12.222c35.48-19.567,47.156-55.281,49.89-65.761   c1.127-4.324,5.543-6.92,9.871-5.787c4.324,1.127,6.915,5.547,5.787,9.871c-4.032,15.455-17.727,53.783-57.733,75.847   C165.633,251.193,145.017,254.028,129.808,254.028z"></path>
	<path style="fill:#de35cb;" d="M128.001,44.65c-1.228,0-2.455-0.477-3.379-1.426c-1.82-1.867-1.781-4.854,0.085-6.673   c5.677-5.535,15.305-12.735,28.939-15.613c6.739-1.425,13.663-1.619,20.575-0.581c2.578,0.387,4.354,2.79,3.967,5.368   c-0.387,2.579-2.802,4.361-5.368,3.967c-5.796-0.87-11.59-0.708-17.224,0.483c-11.42,2.411-19.518,8.474-24.301,13.136   C130.377,44.204,129.189,44.65,128.001,44.65z"></path>
</g>

            </g>
        </g>
    </g>
    
    <!-- ITEM 2 -->
    <g>
        <defs>
            <clipPath id="clip-path-id-viewbox-item-2">
                <rect x="0.0" y="0.0" width="220.807" height="303.982"/>
            </clipPath>
        </defs>
        <g transform="translate(25.0 182.0) rotate(0.0 79.5 109.5) scale(0.7200858668429896 0.7204373943194005)">
            <g clip-path="url(#clip-path-id-viewbox-item-2)" transform="translate(-0.0 -0.0)">
                
<g>
	<path style="fill:#003899;" d="M198.119,172.982c-3.95-14.1-10-27.84-19-39.5c-3.931-5.191-8.523-9.847-13.66-13.85   c-2.89-2.22-6-4.07-9.05-6c10.909-8.666,19.444-19.953,24.81-32.81c3.93-9.68,3.42-23.45-9.51-24.87   c-10.75-1.18-21.91,6.2-30.15,12.23c-10.387,7.61-19.319,17.026-26.37,27.8c-15.75,24-21.08,53.2-22.06,81.49   c-0.87,25-2.07,58.16,16.44,77.8c10.69,11.34,28.59,15.56,43.66,14.07c16.646-1.673,31.69-10.647,41.07-24.5   C207.849,223.942,204.489,195.752,198.119,172.982z"></path>
	<path style="fill:#ff2271;" d="M190.299,60.252c-1.786-0.532-3.65-0.752-5.51-0.65c0.159-2.109-0.082-4.23-0.71-6.25   c-0.95-3.07-5.77-1.76-4.82,1.33c0.762,2.38,0.762,4.94,0,7.32c-0.355,1.346,0.447,2.725,1.793,3.08   c0.422,0.111,0.865,0.111,1.287,0c2.163-0.67,4.477-0.67,6.64,0C192.029,65.992,193.299,61.162,190.299,60.252z"></path>
	<path style="fill:#ff2271;" d="M136.199,93.332c5.25,5.19,15,9.82,20.36,2c4.52-6.63-1.19-14.72-6.39-19c-2.47-2-6,1.5-3.54,3.54   c3,2.42,7.59,7.05,6.42,11.33c-1.93,7.08-10.5,1.34-13.32-1.44c-2.29-2.26-5.83,1.27-3.54,3.54L136.199,93.332z"></path>
	<path style="fill:#003899;" d="M132.179,31.472c-2.4-6.59-5.09-13-9.14-18.78c-3.17-4.51-6.43-9.78-11.48-12.37   c-1.225-0.683-2.772-0.243-3.455,0.982c-0.09,0.161-0.162,0.331-0.215,0.508c-4.54,13.3-1.88,28.48,1.52,41.74   c2.389,9.351,6.053,18.328,10.89,26.68c-7.919-5.532-16.457-10.12-25.44-13.67c-7.12-2.82-14.32-5.32-22-6.13   c-5.42-0.58-11.64-1.61-16.85,0.51c-1.34,0.416-2.089,1.839-1.673,3.179c0.055,0.178,0.13,0.349,0.223,0.511   c6.74,11.59,19,19.31,30.65,25.32c14.19,7.429,29.872,11.561,45.88,12.09c3.16,0.1,3.21-4.72,0.15-5l0.13-2.08   c0.893,0.033,1.734-0.418,2.2-1.18c0.34-0.447,0.51-1,0.48-1.56c-0.004-0.48-0.147-0.949-0.41-1.35l1.66-1.24   c1.23,1.54,4.44,1,4.52-1.54C140.289,62.206,137.695,46.377,132.179,31.472z"></path>
	<path style="fill:#003899;" d="M217.079,116.542c-4.07-11.17-8.34-22.27-12.32-33.48c3.907-1.945,7.422-4.592,10.37-7.81   c2.17-2.37-1.36-5.92-3.54-3.54c-2.434,2.678-5.313,4.915-8.51,6.61v-0.1c3.485-2.172,6.517-4.997,8.93-8.32   c1.9-2.6-2.43-5.1-4.32-2.52c-2.013,2.735-4.548,5.043-7.46,6.79c2.54-2.424,4.767-5.155,6.63-8.13c1.71-2.74-2.61-5.25-4.32-2.52   c-2.471,3.966-5.683,7.419-9.46,10.17c-3.39,1.13-5.93,4.3-4.41,8.68c3.63,10.67,7.63,21.26,11.63,31.8   c1.61,4.33,2.91,8.91,4.66,13.21c-0.623-0.02-1.244-0.077-1.86-0.17c-7.39-1.85-14.32-5.49-21.62-7.72c-10.51-3.21-21-6-32-6.82   c-9.63-0.74-9.58,14.27,0,15c11.82,0.9,24,4.44,35.11,8.53c8.36,3.08,17.05,8.16,26.3,6c5-1.14,8.77-4.49,9.71-9.62   C221.569,127.062,218.939,121.632,217.079,116.542z"></path>
	<path style="fill:#003899;" d="M116.299,233.002c-1.148,0.204-2.278,0.498-3.38,0.88c-2.826,0.553-5.742,0.447-8.52-0.31   c-3.905-1.162-7.558-3.044-10.77-5.55c-6.888-4.908-12.184-11.73-15.23-19.62c-9.68-29.44-1.85-60.83-8.37-90.76   c-2.58-11.83-7.61-23.44-15.84-32.45c-9.26-10.14-22-15-35.2-17.83c-3.13-0.67-4.44,3.92-1.33,4.82c5.66,1.63,2.2,18.7,1.5,22.61   c-2,11.18-7.57,21.24-11.37,31.86c-9.25,25.85-10.69,54.75-2,81c7.74,23.28,23.4,46.71,46.42,57c21.41,9.55,45.23,6.09,62.22-10.22   c3.68-3.53,7.56-8.11,8.14-13.38C123.069,236.732,120.989,232.792,116.299,233.002z"></path>
	<path style="fill:#003899;" d="M138.179,298.912h-1.29c0.196-0.707,0.293-1.437,0.29-2.17c0-15.78,0-31.557,0-47.33   c0-9.65-15-9.67-15,0c0,15.78,0,31.557,0,47.33c0,5.31,4.54,7.69,8.62,7.17h7.38C141.399,303.912,141.409,298.912,138.179,298.912z   "></path>
	<path style="fill:#003899;" d="M180.849,298.912h-1.69c0.196-0.707,0.293-1.437,0.29-2.17c0-15.78,0-31.557,0-47.33   c0-9.65-15-9.67-15,0c0,15.78,0,31.557,0,47.33c0,5.31,4.54,7.69,8.62,7.17h7.78C184.069,303.912,184.069,298.912,180.849,298.912z   "></path>
	<path style="fill:#60ff64;" d="M188.069,240.862c9.89-15.94,9.08-36.21,5.69-54c-1.628-8.857-4.021-17.556-7.15-26   c-2.94-7.74-7.51-17.12-15.59-20.6c-6.56-2.83-15.81,0.16-21,4.66c-6.34,5.5-7.44,14.62-6.94,22.52c0.76,12,4.13,23.76,4.93,35.82   c0.393,5.606,0.393,11.234,0,16.84c-0.4,5.47-2.07,11.07-1.71,16.58c0.58,8.87,7.36,15.18,16,16.11c10,1.07,18.8-4.52,25.41-11.48   l0,0c0.068-0.08,0.131-0.163,0.19-0.25c0-0.05,0.09-0.11,0.12-0.16L188.069,240.862z"></path>
	<path style="fill:#003899;" d="M186.689,201.382c-0.388-1.318-1.75-2.091-3.08-1.75c-1.026,0.206-2.074,0.29-3.12,0.25   c0.02-0.499-0.014-0.998-0.1-1.49c1.699-0.707,3.275-1.679,4.67-2.88c0.968-0.981,0.968-2.559,0-3.54   c-0.988-0.952-2.552-0.952-3.54,0c-1.077,0.894-2.316,1.573-3.65,2c-0.755-0.666-1.626-1.188-2.57-1.54   c0.179-1.277,0.877-2.424,1.93-3.17c2.64-1.81,0.14-6.14-2.52-4.32c-2.586,1.721-4.2,4.568-4.35,7.67   c-10.15,3.66-22.78,0.41-28.91-8.87c-4.12-6.23-7.06-13.95-9.52-21c-2.677-7.505-4.339-15.334-4.94-23.28   c-0.67-9.58-15.68-9.65-15,0c0.658,10.14,2.783,20.13,6.31,29.66c3.27,8.72,6.89,18.5,12.82,25.79   c9.59,11.79,27.14,17.28,41.71,12.68c1.6,1.326,3.465,2.295,5.47,2.84c3.11,0.83,4.44-4,1.33-4.82   c-0.57-0.155-1.125-0.359-1.66-0.61l0.33-0.37c2.199,0.309,4.434,0.241,6.61-0.2C186.231,204.066,187.021,202.713,186.689,201.382z   "></path>
	<path style="fill:#60ff64;" d="M26.299,97.262c4.95,5.3-1.56,8.87-5.06,12.05c-2.696,2.3-4.471,5.496-5,9   c-0.69,5.83,3.75,11.19,9.74,10.79c3.19-0.21,3.22-5.21,0-5c-4.24,0.28-5.41-3.62-4.22-7.05c0.74-2.13,2.31-3.53,4-4.92   c2.19-1.84,4.69-3.38,6.11-6c2.3-4.21,1.14-9-2-12.39c-2.2-2.36-5.73,1.18-3.54,3.54L26.299,97.262z"></path>
	<path style="fill:#60ff64;" d="M32.519,114.932c-0.873,2.299-0.37,4.894,1.3,6.7c1.2,1.48,3.15,2.11,4.37,3.5   c2.91,3.29,0.28,6.69-2,9.18c-3.07,3.39-10.22,8.81-5.1,13.68c2.33,2.22,5.87-1.31,3.54-3.54c-1.29-1.23,5.48-7,6.2-7.81   c1.714-1.855,2.91-4.127,3.47-6.59c0.477-2.121,0.175-4.343-0.85-6.26c-1-1.82-6.93-5.39-6.09-7.53c1.17-3-3.66-4.3-4.82-1.33   H32.519z"></path>
	<path style="fill:#60ff64;" d="M14.169,137.832c3.33,4-3.83,9.73-6,12.79c-1.835,2.375-3.008,5.194-3.4,8.17   c-0.49,5.57,3,10.23,8.69,10.67c3.21,0.25,3.19-4.75,0-5c-6.37-0.5-3-8.49-1-11.32c1.78-2.49,4.07-4.62,5.67-7.24   c2.38-3.91,2.5-8-0.46-11.6c-2.05-2.48-5.57,1.07-3.54,3.54L14.169,137.832z"></path>
	<path style="fill:#60ff64;" d="M18.509,159.042c8.13,6.9-1.78,12.61-3.13,19.68c-0.878,4.999,2.463,9.763,7.462,10.641   c0.152,0.027,0.305,0.05,0.458,0.069c3.15,0.48,4.5-4.34,1.33-4.82c-9.91-1.52,0.92-12.33,1.9-17c0.85-4.565-0.87-9.229-4.48-12.15   c-2.44-2.07-6,1.45-3.54,3.54L18.509,159.042z"></path>
	<path style="fill:#60ff64;" d="M40.699,180.632c-2.46-3.22-3.34-7.14-1.45-10.88c1.39-2.76,4-4.56,5.78-7.08   c3.53-5.13,1.76-10.22-1.13-15.2c-1.62-2.78-5.94-0.27-4.32,2.52c2.84,4.89,3.18,8-0.69,12.17c-1.795,1.711-3.29,3.712-4.42,5.92   c-2.184,4.992-1.451,10.781,1.91,15.07C38.309,185.672,42.659,183.152,40.699,180.632L40.699,180.632z"></path>
	<path style="fill:#60ff64;" d="M42.509,91.482c-2,3.47-2.06,7.64,0.56,10.83c1.26,1.53,2.9,2.28,4.47,3.42   c4.39,3.17,4.64,8.39,0.61,12c-2.4,2.16,1.15,5.69,3.54,3.54c5.165-4.152,5.986-11.706,1.834-16.871   c-0.522-0.649-1.109-1.242-1.754-1.769c-2.83-2.42-7.64-3.89-4.95-8.63c1.59-2.8-2.72-5.32-4.32-2.52L42.509,91.482z"></path>
	<path style="fill:#60ff64;" d="M56.719,131.812c8.14,7.74-5.38,14.78-3.73,23c1.34,6.66,13.36,11,6.75,19c-2,2.47,1.49,6,3.54,3.54   c2.553-2.943,3.611-6.896,2.87-10.72c-0.88-4.79-3.88-6.7-6.55-10.3s-0.79-5.89,1.28-9.07c1.547-2.234,2.625-4.758,3.17-7.42   c0.824-4.242-0.593-8.609-3.75-11.56c-2.33-2.22-5.87,1.31-3.54,3.54L56.719,131.812z"></path>
	<path style="fill:#60ff64;" d="M48.019,173.912c-1.74,4.59-2.53,9,0.79,13c1.48,1.81,3.5,3,4.79,5   c2.082,3.281,2.043,7.479-0.1,10.72c-1.65,2.77,2.67,5.29,4.32,2.52c2.469-3.945,2.978-8.809,1.38-13.18   c-0.808-2.062-2.053-3.925-3.65-5.46c-1-1.06-2.83-2.06-3.45-3.42c-1.13-2.47-0.15-5.5,0.74-7.83c1.14-3-3.69-4.31-4.82-1.33   L48.019,173.912z"></path>
	<path style="fill:#60ff64;" d="M32.299,190.322c-2.5,6-3.61,12.88,2,17.48c2.66,2.21,6.17,2.9,8.9,4.94c4.81,3.61,2.8,9.3,1.1,14   c-1.09,3,3.74,4.34,4.82,1.33c2.25-6.26,3.8-13.64-1.88-18.56c-2.47-2.14-5.67-2.92-8.38-4.65c-5.24-3.33-3.71-8.43-1.7-13.25   c1.24-3-3.6-4.26-4.82-1.33L32.299,190.322z"></path>
	<path style="fill:#60ff64;" d="M10.869,196.082c-0.6,4.58-0.83,9.81,2.28,13.61c1.514,1.69,3.42,2.981,5.55,3.76   c3.82,1.67,6.58,2.3,6.51,7.38c-0.07,5.81-1,11.2,3.12,16.06c3.066,3.753,8.069,5.325,12.73,4c3.1-0.85,1.78-5.68-1.33-4.82   c-7.53,2.07-10.29-6.13-9.83-12c0.31-3.87,0.89-7.66-1.81-10.87c-2.09-2.48-5.21-3.13-8-4.49c-5.13-2.51-4.88-7.58-4.23-12.57   c0.42-3.18-4.59-3.15-5,0L10.869,196.082z"></path>
	<path style="fill:#60ff64;" d="M60.189,216.532c-0.606,6.396,3.387,12.331,9.54,14.18c3.09,0.94,4.4-3.89,1.33-4.82   c-3.983-1.264-6.467-5.224-5.87-9.36C65.559,213.342,60.559,213.372,60.189,216.532z"></path>
	<path style="fill:#60ff64;" d="M48.469,236.772c0.89,3.523,3.291,6.473,6.56,8.06c4.5,2.13,13.19-0.7,13.69,6.24   c0.23,3.19,5.23,3.22,5,0c-0.3-4.1-2.42-7.74-6.41-9.25c-5.31-2-12,0.87-14-6.38c-0.86-3.1-5.69-1.78-4.82,1.33L48.469,236.772z"></path>
	<path style="fill:#60ff64;" d="M96.789,245.482c2.92,0.592,5.933-0.423,7.9-2.66c0.942-0.992,0.942-2.548,0-3.54   c-0.981-0.968-2.559-0.968-3.54,0c-0.693,0.948-1.83,1.467-3,1.37c-1.329-0.33-2.684,0.439-3.08,1.75   c-0.358,1.333,0.422,2.706,1.75,3.08L96.789,245.482z"></path>
	<path style="fill:#60ff64;" d="M45.689,255.382c2.713,5.528,9.006,8.308,14.92,6.59c3.08-0.91,1.77-5.74-1.33-4.82   c-3.733,1.117-7.712-0.723-9.28-4.29c-1.36-2.91-5.67-0.38-4.32,2.52L45.689,255.382z"></path>
	<path style="fill:#60ff64;" d="M65.659,202.382c1.665,1.33,2.439,3.485,2,5.57c-0.69,3.14,4.13,4.48,4.82,1.33   c0.904-3.819-0.364-7.826-3.3-10.43c-2.42-2.09-6,1.43-3.54,3.54L65.659,202.382z"></path>
	<path style="fill:#ff2271;" d="M148.709,158.212l4,3c1.194,0.69,2.721,0.289,3.42-0.9c0.651-1.199,0.257-2.697-0.9-3.42l-4-3   c-1.194-0.69-2.721-0.289-3.42,0.9C147.158,155.991,147.552,157.489,148.709,158.212z"></path>
	<path style="fill:#ff2271;" d="M159.749,146.362l2.54,4.48c0.696,1.193,2.227,1.596,3.42,0.9c1.193-0.696,1.596-2.227,0.9-3.42   l-2.54-4.48c-0.696-1.193-2.227-1.596-3.42-0.9S159.053,145.169,159.749,146.362z"></path>
	<path style="fill:#ff2271;" d="M154.949,174.072h-5c-3.22,0-3.22,5,0,5h5C158.169,179.072,158.169,174.072,154.949,174.072z"></path>
	<path style="fill:#ff2271;" d="M164.229,168.382l2,3c0.696,1.193,2.227,1.596,3.42,0.9c1.193-0.696,1.596-2.227,0.9-3.42l-2-3   c-0.696-1.193-2.227-1.596-3.42-0.9C163.936,165.658,163.533,167.189,164.229,168.382z"></path>
	<path style="fill:#ff2271;" d="M177.549,166.412l-0.56,3.49c-0.336,1.33,0.436,2.688,1.75,3.08c1.332,0.353,2.701-0.425,3.08-1.75   l0.56-3.49c0.336-1.33-0.436-2.688-1.75-3.08C179.297,164.309,177.928,165.087,177.549,166.412z"></path>
	<path style="fill:#ff2271;" d="M157.159,225.882l-4,3c-1.157,0.723-1.551,2.221-0.9,3.42c0.703,1.184,2.226,1.585,3.42,0.9l4-3   c1.157-0.723,1.551-2.221,0.9-3.42C159.876,225.598,158.354,225.197,157.159,225.882z"></path>
	<path style="fill:#ff2271;" d="M166.249,236.792l-2,4c-0.696,1.193-0.293,2.724,0.9,3.42c1.193,0.696,2.724,0.293,3.42-0.9l2-4   c0.696-1.193,0.293-2.724-0.9-3.42C168.476,235.196,166.945,235.599,166.249,236.792z"></path>
	<path style="fill:#ff2271;" d="M176.299,238.832l1.5,3c0.703,1.184,2.226,1.585,3.42,0.9c1.166-0.716,1.562-2.223,0.9-3.42l-1.5-3   c-0.703-1.184-2.226-1.585-3.42-0.9C176.033,236.128,175.637,237.635,176.299,238.832z"></path>
	<path style="fill:#ff2271;" d="M169.759,219.302l-1.51,3c-0.696,1.193-0.293,2.724,0.9,3.42c1.193,0.696,2.724,0.293,3.42-0.9   l1.51-3c0.696-1.193,0.293-2.724-0.9-3.42C171.986,217.706,170.455,218.109,169.759,219.302z"></path>
	<path style="fill:#ff2271;" d="M155.299,239.312l-1,2c-0.696,1.193-0.293,2.724,0.9,3.42c1.193,0.696,2.724,0.293,3.42-0.9l0,0l1-2   c0.696-1.193,0.293-2.724-0.9-3.42C157.526,237.716,155.995,238.119,155.299,239.312z"></path>
	<path style="fill:#ff2271;" d="M162.449,183.572h-3.5c-1.381,0-2.5,1.119-2.5,2.5s1.119,2.5,2.5,2.5h3.5c1.381,0,2.5-1.119,2.5-2.5   S163.83,183.572,162.449,183.572z"></path>
	<path style="fill:#ff2271;" d="M176.119,156.072c0,0,0.08-0.83,0-0.44c0.046-0.32,0.109-0.637,0.19-0.95   c0.067-0.267,0.143-0.533,0.23-0.8c0-0.1,0.3-0.78,0.2-0.56c0.657-1.198,0.261-2.7-0.9-3.42c-1.09-0.57-2.86-0.38-3.42,0.9   c-0.757,1.662-1.208,3.448-1.33,5.27c0.005,1.378,1.122,2.495,2.5,2.5c1.367-0.032,2.468-1.133,2.5-2.5L176.119,156.072z"></path>
	<path style="fill:#ff2271;" d="M185.549,181.902l3-1.67c1.179-0.706,1.579-2.225,0.9-3.42c-0.713-1.17-2.223-1.568-3.42-0.9   l-3,1.67c-1.179,0.706-1.579,2.225-0.9,3.42C182.842,182.172,184.352,182.57,185.549,181.902z"></path>
	<path style="fill:#ff2271;" d="M186.379,216.202l1.33,1c0.584,0.34,1.279,0.43,1.93,0.25c0.625-0.179,1.158-0.591,1.49-1.15   c0.338-0.584,0.428-1.279,0.25-1.93c-0.21-0.609-0.614-1.133-1.15-1.49l-1.33-1c-0.584-0.34-1.279-0.43-1.93-0.25   c-0.625,0.179-1.158,0.591-1.49,1.15c-0.338,0.584-0.428,1.279-0.25,1.93C185.439,215.321,185.843,215.845,186.379,216.202z"></path>
	<path style="fill:#ff2271;" d="M158.689,212.252c-1.45,0.639-2.756,1.565-3.84,2.72c-0.978,0.978-0.978,2.562,0,3.54   c0.978,0.978,2.562,0.978,3.54,0c0.22-0.24,0.45-0.46,0.69-0.68c0,0,0.38-0.33,0.16-0.15s0.27-0.19,0.27-0.19   c0.536-0.364,1.105-0.675,1.7-0.93c1.189-0.699,1.59-2.226,0.9-3.42c-0.723-1.157-2.221-1.551-3.42-0.9V212.252z"></path>
	<path style="fill:#ff2271;" d="M189.939,194.472l1-0.34c1.331-0.367,2.112-1.744,1.745-3.075c-0.367-1.331-1.744-2.112-3.075-1.745   l-1,0.34c-1.331,0.367-2.112,1.744-1.745,3.075C187.231,194.058,188.608,194.839,189.939,194.472L189.939,194.472z"></path>
	<path style="fill:#ff2271;" d="M186.799,228.432l0.68,2c0.367,1.331,1.744,2.112,3.075,1.745c1.331-0.367,2.112-1.744,1.745-3.075   l-0.68-2c-0.367-1.331-1.744-2.112-3.075-1.745C187.213,225.724,186.432,227.101,186.799,228.432z"></path>
	<path style="fill:#ff2271;" d="M178.189,223.742l0.67,2.33c0.367,1.331,1.744,2.112,3.075,1.745   c1.331-0.367,2.112-1.744,1.745-3.075l-0.67-2.33c-0.367-1.331-1.744-2.112-3.075-1.745   C178.603,221.034,177.822,222.411,178.189,223.742z"></path>
	<path style="fill:#1c4fae;" d="M109.939,17.632c0.909,14.416,5.085,28.436,12.21,41c2.06,3.64,7.68,0.37,5.61-3.28   c-6.583-11.553-10.454-24.451-11.32-37.72C116.169,13.482,109.669,13.452,109.939,17.632z"></path>
	<path style="fill:#1c4fae;" d="M68.509,63.962c11.34,10.533,25.879,16.968,41.3,18.28c4.17,0.37,4.14-6.13,0-6.5   c-13.714-1.238-26.628-7-36.71-16.38c-3.07-2.84-7.67,1.75-4.6,4.6H68.509z"></path>
	<path style="fill:#1c4fae;" d="M106.619,215.772c-5.457-33.345-1.681-67.548,10.92-98.9c1.55-3.88-4.73-5.57-6.27-1.73   c-12.924,32.481-16.7,67.883-10.92,102.36C101.029,221.622,107.299,219.872,106.619,215.772z"></path>
	<path style="fill:#1c4fae;" d="M115.809,182.082c13.83,13.49,31.4,24.82,51.55,22.32c4.1-0.51,4.15-7,0-6.5   c-18.55,2.31-34.24-8-47-20.41c-3-2.92-7.6,1.67-4.6,4.6L115.809,182.082z"></path>
	<path style="fill:#1c4fae;" d="M194.129,92.252c4.14,9.42,8.417,18.78,12.83,28.08c1.79,3.78,7.4,0.48,5.61-3.28   c-4.413-9.293-8.69-18.653-12.83-28.08C198.059,85.152,192.459,88.452,194.129,92.252z"></path>
</g>

            </g>
        </g>
    </g>
    
</svg>