<?xml version="1.0" encoding="iso-8859-1" ?>
<svg version="1.1" xmlns="http://www.w3.org/2000/svg" xmlns:xlink="http://www.w3.org/1999/xlink" 
    viewBox="0 0 500 500" width="500" height="500">
    
    
    <!-- ITEM 0 -->
    <g>
        <defs>
            <clipPath id="clip-path-id-viewbox-item-0">
                <rect x="0.0" y="0.0" width="318.38979" height="395.75068"/>
            </clipPath>
        </defs>
        <g transform="translate(109.0 75.0) rotate(0.0 140.5 175.0) scale(0.882565989317685 0.8843951954801442)">
            <g clip-path="url(#clip-path-id-viewbox-item-0)" transform="translate(-0.0 -0.0)">
                
  
  <title>1</title>
  <path d="M312.03084,201.80105C287.557,38.06515,212.68732,0,159.19489,0S30.833,38.06515,6.35895,201.80105C-25.04119,411.87373,69.02182,395.45041,88.89041,395.45041c19.86887,0,47.37908-10.75,70.30449-10.75,22.92569,0,50.43589,10.75,70.30449,10.75S343.431,411.87373,312.03084,201.80105Z" style="         fill: #f6f8ff;       "></path>

            </g>
        </g>
    </g>
    
    <!-- ITEM 1 -->
    <g>
        <defs>
            <clipPath id="clip-path-id-viewbox-item-1">
                <rect x="0.0" y="0.0" width="206.135" height="290.835"/>
            </clipPath>
        </defs>
        <g transform="translate(150.0 136.0) rotate(0.0 103.0 145.0) scale(0.9993450893831712 0.9971289562810529)">
            <g clip-path="url(#clip-path-id-viewbox-item-1)" transform="translate(-0.0 -0.0)">
                
<g>
	<path style="fill:#1f4594;" d="M107.063,97.648l-0.14-0.1c8.31-7.86,16.54-15.84,23.82-24.68c7.28-8.84,14.91-19,17-30.38   c3.71-20-14.49-44.81-36-42.07c-10.68,1.37-19.41,8.81-26.87,16c-7.85,7.59-16.11,14.72-24,22.28c-7.38,7.1-14.5,14.9-19.09,24.14   c-5.29,10.63-6.78,22.7-7.91,34.37c-2.783,28.913-4.024,57.955-3.72,87c0.2,20.39-5.41,46.76,14.45,60.1   c7.89,5.3,17.66,6.88,26.95,7.62c12.14,1,24.68,1.53,36.78,0c10.32-1.34,20.93-4.54,29-11.34c6.38-5.37,10.81-12.63,13.81-20.34   C169.103,174.338,141.783,126.828,107.063,97.648z"></path>
	<path style="fill:#1f4594;" d="M44.013,60.428c-7.6-4.88-22.58-11.18-26.88,1c-2.25,6.36,0.5,11.3,5,14.89   c-0.739,0.227-1.455,0.522-2.14,0.88c-3.74,2-6.75,6-6.61,10.32c0.35,11,15.86,13.47,24.15,12c2.77-0.5,2.08-4.27-0.25-4.8   l5.08-29.58C44.663,65.558,46.433,61.938,44.013,60.428z"></path>
	<path style="fill:#ff286c;" d="M136.243,7.538c-9.39-8.23-22.82-10.53-33.29-2.81c-9.65,7.12-12.47,18.8-7.95,29.76   c4.27,10.33,13.38,19.76,24.5,22.35c11,2.55,22-1.91,26.77-12.38C152.133,31.638,145.773,16.688,136.243,7.538z"></path>
	<path style="fill:#1f4594;" d="M123.043,29.728c0-0.06-0.07-0.13-0.12-0.19c-2.21-2.85-6.14-5.26-9.86-5c-5,0.36-6.67,6-5.28,10.2   c1.57,4.73,7.81,11.47,13.34,9.77c6.73-2.08,5.26-10.08,2.19-14.46C123.232,29.934,123.142,29.827,123.043,29.728z"></path>
	<path style="fill:#1f4594;" d="M138.213,17.238c-0.066-0.081-0.136-0.157-0.21-0.23c-0.055-0.093-0.115-0.184-0.18-0.27   c-3-3.6-8.5-6.89-12.77-3.21c-3.89,3.36-1.94,8.75,0.71,12.17c2.51,3.24,7.65,8.29,12.1,5.59   C143.083,28.098,141.093,21.208,138.213,17.238z"></path>
	<path style="fill:#ff286c;" d="M113.853,30.628c3.701,1.093,6.094,4.672,5.69,8.51c-0.46,3.15,4.36,4.51,4.82,1.33   c1.06-6.499-2.87-12.775-9.18-14.66C112.093,24.898,110.763,29.728,113.853,30.628L113.853,30.628z"></path>
	<path style="fill:#ff286c;" d="M129.513,18.568c1.569,0.881,2.872,2.17,3.77,3.73c0.447,0.776,0.784,1.611,1,2.48   c0.114,0.426,0.191,0.861,0.23,1.3c-0.06,0.667,0.007,0.7,0.2,0.1c-2,2.45,1.47,6,3.54,3.54s1.24-5.76,0.08-8.45   c-1.291-2.948-3.497-5.402-6.29-7c-2.78-1.63-5.3,2.69-2.52,4.32L129.513,18.568z"></path>
	<path style="fill:#d2ed4c;" d="M97.153,51.518c-2.851-8.946-12.414-13.886-21.359-11.035c-0.474,0.151-0.941,0.323-1.401,0.515   c-17.29,7.46-10,37.81,9.29,33.44c0.222-0.019,0.44-0.066,0.65-0.14c0.209-0.055,0.41-0.136,0.6-0.24   C93.853,70.568,100.123,61.258,97.153,51.518z"></path>
	<path style="fill:#1f4594;" d="M90.763,56.988c-0.16-4.23-2.8-8-7.15-8.83c-4.562-0.736-8.964,2.023-10.29,6.45   c-1.34,4.71,1.61,10.36,6.54,11.4c5.2,1.09,9.88-2.74,10.8-7.67c0.068-0.227,0.105-0.463,0.11-0.7   C90.798,57.421,90.795,57.203,90.763,56.988z"></path>
	<path style="fill:#ff286c;" d="M103.023,75.848c3.436,4.239,9.658,4.889,13.897,1.453c0.534-0.433,1.021-0.92,1.453-1.453   c4-5.09,1.49-12-4.29-14.25c-3-1.16-4.3,3.67-1.33,4.82c2.124,0.86,3.149,3.28,2.289,5.404c-0.25,0.616-0.644,1.163-1.149,1.596   c-2.33,2.15-5.51,1.07-7.33-1.1c-2.07-2.46-5.6,1.09-3.54,3.54L103.023,75.848z"></path>
	<path style="fill:#1f4594;" d="M108.603,128.428c17.92,3.09,36.35,3.65,54.5,3.76c7.16,0,14.92,0.59,22-0.6   c6.13-1,8.32-5.43,9.81-11l5-18.72c2.51-9.33-12-13.32-14.46-4l-4.07,15.16c-0.522,1.451-0.924,2.943-1.2,4.46l-0.48,1.78   l3.57-2.51c0-0.12-3.33,0.17-3.64,0.18c-7.11,0.29-14.24,0.29-21.35,0.18c-15.19-0.22-30.71-0.58-45.72-3.17   c-9.44-1.63-13.5,12.82-4,14.46L108.603,128.428z"></path>
	<path style="fill:#1f4594;" d="M191.303,97.668l12.42-0.45c3.21-0.12,3.22-5.12,0-5l-12.42,0.45   C188.093,92.788,188.083,97.788,191.303,97.668z"></path>
	<path style="fill:#1f4594;" d="M21.143,155.858l7.87-9.71l15.14-18.66c2.57-3.17,3-7.5,0-10.61c-2.61-2.67-8.06-3.14-10.61,0   l-17,20.91l-7.27,9c-2.54,3.14-5.93,6.36-7.9,9.91c-4.48,8.1,3,13.09,8.11,18.07c5.93,5.82,11.32,12.26,17.9,17.38l0.54,0.39   l-4.68,5.48c-2.08,2.43,1.44,6,3.54,3.54l6.24-7.32c1.88,0.003,3.682-0.75,5-2.09c2.62-2.56,3.19-8.12,0-10.61   c-4.32-3.566-8.386-7.429-12.17-11.56c-1.9-2-3.77-3.94-5.71-5.85c-0.59-0.58-2.16-1.84-3.45-2.9c0.33-0.33,0.63-0.64,0.82-0.88   L21.143,155.858z"></path>
	<path style="fill:#1f4594;" d="M59.903,280.768h-2.05v-47.34c0-12.55-19.5-12.57-19.5,0v48c0,6.84,5.79,9.95,11.06,9.33h10.5   C66.343,290.768,66.353,280.768,59.903,280.768z"></path>
	<path style="fill:#1f4594;" d="M121.433,280.768h-2.92v-47.34c0-12.55-19.5-12.57-19.5,0v48c0,6.84,5.79,9.95,11.06,9.33h11.35   C127.853,290.768,127.853,280.768,121.433,280.768z"></path>
	<path style="fill:#d2ed4c;" d="M126.473,172.598c-7.66-12.9-23.32-20.41-38.17-17.25c-16.16,3.44-23.8,18.54-24.61,33.9   s3.88,34.06,19.11,41.11c12.36,5.73,29.44,5.47,39.94-4C137.373,213.088,135.023,188.318,126.473,172.598z"></path>
	<path style="fill:#ff286c;" d="M71.593,187.268v3.5c0,1.381,1.119,2.5,2.5,2.5s2.5-1.119,2.5-2.5v-3.5c0-1.381-1.119-2.5-2.5-2.5   S71.593,185.887,71.593,187.268z"></path>
	<path style="fill:#ff286c;" d="M73.433,205.038l1.5,3c0.703,1.184,2.226,1.585,3.42,0.9c1.166-0.716,1.562-2.223,0.9-3.42l-1.5-3   c-0.703-1.184-2.226-1.585-3.42-0.9C73.168,202.334,72.771,203.84,73.433,205.038z"></path>
	<path style="fill:#ff286c;" d="M80.313,219.558l2,2.51c0.47,0.469,1.106,0.731,1.77,0.73c0.663-0.003,1.298-0.265,1.77-0.73   c0.467-0.471,0.729-1.107,0.73-1.77c-0.036-0.656-0.293-1.28-0.73-1.77l-2-2.51c-0.47-0.469-1.106-0.731-1.77-0.73   c-0.663,0.003-1.298,0.265-1.77,0.73c-0.467,0.471-0.729,1.107-0.73,1.77C79.619,218.443,79.877,219.067,80.313,219.558z"></path>
	<path style="fill:#ff286c;" d="M94.323,226.048c1.336,1.551,3.46,2.171,5.42,1.58c1.331-0.367,2.112-1.744,1.745-3.075   c-0.367-1.331-1.744-2.112-3.075-1.745l0,0l-0.32,0.09c0.387-0.04,0.443-0.04,0.17,0c-0.273,0.04-0.217,0.04,0.17,0l-0.33-0.08   c-0.253-0.093-0.21-0.073,0.13,0.06l-0.29-0.17c0.28,0.227,0.323,0.25,0.13,0.07c-0.076-0.082-0.146-0.169-0.21-0.26   c-0.975-0.978-2.558-0.98-3.536-0.004c-0.001,0.001-0.003,0.003-0.004,0.004c-0.937,0.994-0.937,2.546,0,3.54L94.323,226.048z"></path>
	<path style="fill:#ff286c;" d="M112.293,224.278l3-1c1.339-0.37,2.125-1.756,1.755-3.095s-1.756-2.125-3.095-1.755l-3,1   c-1.331,0.367-2.112,1.744-1.745,3.075c0.367,1.331,1.744,2.112,3.075,1.745l0,0L112.293,224.278z"></path>
	<path style="fill:#ff286c;" d="M126.043,212.428l1-3c0.358-1.333-0.422-2.706-1.75-3.08c-1.33-0.336-2.688,0.436-3.08,1.75l-1,3   c-0.358,1.333,0.422,2.706,1.75,3.08C124.293,214.514,125.651,213.742,126.043,212.428z"></path>
	<path style="fill:#ff286c;" d="M128.553,197.278l-0.5-4c-0.037-1.365-1.135-2.463-2.5-2.5c-1.22,0.05-2.67,1.11-2.5,2.5l0.5,4   c0.037,1.365,1.135,2.463,2.5,2.5C127.273,199.728,128.723,198.668,128.553,197.278z"></path>
	<path style="fill:#ff286c;" d="M123.963,182.928c0.188-1.016,0.051-2.066-0.39-3c-0.388-0.755-0.981-1.386-1.71-1.82   c-1.194-0.685-2.717-0.284-3.42,0.9c-0.668,1.197-0.27,2.707,0.9,3.42c0.41,0.25-0.4-0.4-0.07,0c-0.227-0.313-0.287-0.39-0.18-0.23   l0.11,0.18l-0.14-0.34c0.03,0.088,0.053,0.178,0.07,0.27l-0.05-0.39c0,0.267,0.023,0.183,0.07-0.25   c-0.154,0.652-0.065,1.338,0.25,1.93c0.695,1.193,2.226,1.596,3.419,0.901c0,0,0.001,0,0.001-0.001   c0.571-0.318,0.987-0.857,1.15-1.49L123.963,182.928z"></path>
	<path style="fill:#ff286c;" d="M115.193,172.488c0.63-1.109,0.446-2.502-0.45-3.41c-0.91-0.882-2.288-1.069-3.4-0.46   c-1.189,0.699-1.59,2.226-0.9,3.42c0.72,1.161,2.222,1.557,3.42,0.9h0.08l-1.26,0.34l-2.11-2.1l0.34-1.26v0.08   c-0.696,1.193-0.293,2.724,0.9,3.42c1.193,0.696,2.724,0.293,3.42-0.9l0,0L115.193,172.488z"></path>
	<path style="fill:#ff286c;" d="M103.383,161.568l-1-0.5c-1.204-0.699-2.746-0.289-3.445,0.915   c-0.699,1.204-0.289,2.746,0.915,3.445l1,0.5c1.193,0.696,2.724,0.293,3.42-0.9c0.696-1.193,0.293-2.724-0.9-3.42L103.383,161.568z   "></path>
	<path style="fill:#ff286c;" d="M89.413,161.278l-3,0.53c-1.332,0.37-2.114,1.747-1.75,3.08c0.396,1.311,1.751,2.08,3.08,1.75   l3-0.53c1.332-0.37,2.114-1.747,1.75-3.08C92.097,161.717,90.742,160.947,89.413,161.278z"></path>
	<path style="fill:#ff286c;" d="M74.403,171.488l-1.49,2.5c-0.696,1.193-0.293,2.724,0.9,3.42c1.193,0.696,2.724,0.293,3.42-0.9l0,0   l1.49-2.5c0.696-1.193,0.293-2.724-0.9-3.42C76.631,169.892,75.099,170.295,74.403,171.488z"></path>
	<path style="fill:#ff4b98;" d="M103.233,19.998c3.048-7.004,9.819-11.661,17.45-12c4.17-0.18,4.19-6.68,0-6.5   c-9.929,0.333-18.834,6.199-23.06,15.19c-1.74,3.77,3.86,7.08,5.61,3.28V19.998z"></path>
	<path style="fill:#3b5ca9;" d="M122.133,132.988c20.7,22.197,28.286,53.602,20,82.8c-1.16,4,5.11,5.75,6.27,1.73   c8.857-31.443,0.639-65.228-21.67-89.09c-2.88-3-7.47,1.56-4.6,4.6V132.988z"></path>
	<path style="fill:#3b5ca9;" d="M50.963,66.688c-5.291,10.043-7.088,21.562-5.11,32.74c0.69,4.12,7,2.37,6.27-1.73   c-1.607-9.467-0.047-19.2,4.44-27.69c1.93-3.71-3.68-7-5.61-3.28L50.963,66.688z"></path>
	<path style="fill:#3b5ca9;" d="M34.853,58.718c-5.046-1.125-10.253,1.05-13,5.43c-2.25,3.54,3.37,6.81,5.61,3.28   c1.205-1.9,3.451-2.868,5.66-2.44C37.203,65.848,38.953,59.578,34.853,58.718z"></path>
	<path style="fill:#3b5ca9;" d="M34.853,76.078c-6.474-1.38-13.09,1.631-16.3,7.42c-2,3.68,3.61,7,5.61,3.28   c1.702-3.293,5.353-5.09,9-4.43c4.09,0.81,5.83-5.45,1.73-6.27H34.853z"></path>
	<path style="fill:#3b5ca9;" d="M14.803,153.928l18.21-19.13c2.88-3-1.7-7.63-4.6-4.6l-18.21,19.14c-2.88,3,1.7,7.63,4.6,4.6   L14.803,153.928z"></path>
	<path style="fill:#3b5ca9;" d="M36.703,215.798c0.107,7.434,3.689,14.388,9.68,18.79c3.32,2.54,6.56-3.1,3.28-5.61   c-4.055-3.17-6.435-8.023-6.46-13.17c-0.07-4.18-6.57-4.19-6.5,0V215.798z"></path>
</g>

            </g>
        </g>
    </g>
    
</svg>