<?xml version="1.0" encoding="iso-8859-1" ?>
<svg version="1.1" xmlns="http://www.w3.org/2000/svg" xmlns:xlink="http://www.w3.org/1999/xlink" 
    viewBox="0 0 500 500" width="500" height="500">
    
    
    <!-- ITEM 0 -->
    <g>
        <defs>
            <clipPath id="clip-path-id-viewbox-item-0">
                <rect x="0.0" y="0.0" width="318.38979" height="395.75068"/>
            </clipPath>
        </defs>
        <g transform="translate(109.0 75.0) rotate(0.0 140.5 175.0) scale(0.882565989317685 0.8843951954801442)">
            <g clip-path="url(#clip-path-id-viewbox-item-0)" transform="translate(-0.0 -0.0)">
                
  
  <title>1</title>
  <path d="M312.03084,201.80105C287.557,38.06515,212.68732,0,159.19489,0S30.833,38.06515,6.35895,201.80105C-25.04119,411.87373,69.02182,395.45041,88.89041,395.45041c19.86887,0,47.37908-10.75,70.30449-10.75,22.92569,0,50.43589,10.75,70.30449,10.75S343.431,411.87373,312.03084,201.80105Z" style="         fill: #f6f8ff;       "></path>

            </g>
        </g>
    </g>
    
    <!-- ITEM 1 -->
    <g>
        <defs>
            <clipPath id="clip-path-id-viewbox-item-1">
                <rect x="0.0" y="0.0" width="348.876" height="262.842"/>
            </clipPath>
        </defs>
        <g transform="translate(14.0 160.0) rotate(0.0 174.0 131.0) scale(0.9974890792143914 0.9967965545841229)">
            <g clip-path="url(#clip-path-id-viewbox-item-1)" transform="translate(-0.0 -0.0)">
                
<g>
	<path style="fill:#1f4594;" d="M259.599,36.326l-44.51-0.46c-1.441,0.043-2.574,1.246-2.53,2.687   c0.019,0.639,0.272,1.248,0.71,1.713c5.271,5.433,10.232,11.159,14.86,17.15c-15.808,2.236-31.403,5.789-46.62,10.62   c-1.381,0.394-2.18,1.833-1.786,3.214c0.247,0.864,0.922,1.539,1.786,1.786c10.3,3.94,20.6,7.87,30.9,11.79   c2.62,1,4-2.38,2.49-4.17l42-39.17h2.73C262.919,41.536,262.929,36.376,259.599,36.326z"></path>
	<g>
		<path style="fill:#1f4594;" d="M269.669,3.836c-1.24-1.72-4.1-1.68-4.71,0.62c-0.926,3.47-2.054,6.882-3.38,10.22    c-1.959-3.605-4.845-6.622-8.36-8.74c-2.39-1.48-4.5,1.35-3.53,3.53c6.796,15.029,1.355,32.767-12.7,41.4    c-2.81,1.76-0.22,6.22,2.6,4.45c0.38-0.23,0.74-0.48,1.1-0.72l2.12,1.32c-1.15,2.11,1.08,5.22,3.41,3.55    c9.68-6.94,19.85-14.59,25-25.69C275.669,24.216,275.999,12.626,269.669,3.836z"></path>
		<path style="fill:#1f4594;" d="M223.109,234.876c16.228-9.245,24.101-28.333,19.11-46.33c-2.57-9.55-17.33-5.58-15,3.94    c-3.07-2.39-9.22,0.42-8.37,5.61c1.409,9.157-1.382,18.461-7.6,25.33l-0.23,0.08c-3.61,1.2-7.05,5.48-5.4,9.52    c3.6,8.83,7.54,17.48,12,25.94c4.61,8.83,18,1,13.36-7.81C228.179,245.806,225.539,240.386,223.109,234.876z"></path>
		<path style="fill:#1f4594;" d="M333.379,212.096c-4.29-1.73-9.5-3.17-14.06-5.19c2.08-9.8,1-19.86-5.18-28.4    c-6.973-9.641-18.245-15.232-30.14-14.95c-9.95,0.19-10,15.66,0,15.48c2.621-0.053,5.23,0.371,7.7,1.25    c-0.432,1.666,0.038,3.438,1.24,4.67c6.189,6.738,9.467,15.647,9.12,24.79c-0.055,1.139,0.3,2.26,1,3.16    c0.718,2.251,2.271,4.14,4.34,5.28c6.55,3.81,14.82,6,21.85,8.86c3.9,1.58,8.46-1.72,9.52-5.4    C339.999,217.216,337.229,213.656,333.379,212.096z"></path>
		<path style="fill:#1f4594;" d="M306.149,53.526c8.1-15.48,12.92-35,5.19-51.53c-0.75-1.61-2.91-1.51-4.05-0.52    c-12.801,10.994-26.402,21.022-40.69,30c-12.11,7.65-25.1,13.77-35.37,24c-20.65,20.51-29.85,49.43-30.37,78.06    c-0.24,13.4,0.42,28.07,5.55,40.64c4.7,11.53,13,18.94,25.11,22.1s26.22,2.48,37.44-3.45c10.21-5.4,16.71-16.3,20.76-26.73    c10.79-27.71,2.38-57.81-17.53-79C287.279,81.436,298.909,67.326,306.149,53.526z"></path>
		<path style="fill:#1f4594;" d="M214.999,176.826c0.69-3.64,2-11.37-3.24-10.31c-1.55,0.31-2.76,2.17-3.81,3.11    c-2.128,1.937-4.478,3.615-7,5c-5.316,2.902-11.363,4.188-17.4,3.7c-25.57-2.22-34-30.66-38.55-51.56    c-4.43-20.32-9.49-43.29-28.67-54.88c-19.66-11.88-46.84-12.65-68-4.61c-23,8.74-40.84,28.73-45.76,53    c-0.56,2.77,3.18,4.62,4.71,2c4.06-7,12.61-8.69,20-6.95c8.88,2.08,15.25,9.4,20.06,16.71c10,15.2,17.82,31.52,29.23,45.87    c10.95,13.61,24.43,25.42,40.73,32.28c17.05,7.14,34.9,7.17,52.26,1c16.46-5.82,37.15-15.3,44.76-32.24    c0.251-0.32,0.417-0.698,0.48-1.1C214.938,177.524,215.007,177.176,214.999,176.826z"></path>
		<path style="fill:#ff286c;" d="M311.389,1.406c-2.93-3.24-7.59-0.13-10.34,1.84s-5.91,5.92-2.68,9c2.64,2.56,6.57,0.12,9.18-1.17    c1.88-0.91,3.73-2,4.62-4C313.022,5.193,312.719,2.988,311.389,1.406z"></path>
		<path style="fill:#f6f8ff;" d="M290.249,44.956c-0.66-4.37-5.06-7.46-9-8.57c-10.82-3-22.23,5-26.32,14.75    c-3.12,7.44-1.53,22,9.27,21.81c4-0.07,7.15-3,8.48-6.59c2.24-6.13,1.51-11.84,9.53-13.32    C286.429,52.326,290.999,49.966,290.249,44.956z"></path>
		<path style="fill:#ff286c;" d="M276.939,47.436c-0.14-3.92-4-6.23-7.65-6.17c-3.77,0.141-6.718,3.3-6.6,7.07    c-0.126,3.498,2.351,6.552,5.8,7.15c0.259,0.077,0.529,0.114,0.8,0.11c0.303,0.024,0.608-0.006,0.9-0.09    C274.081,54.778,276.911,51.395,276.939,47.436z"></path>
		<path style="fill:#f6f8ff;" d="M253.509,97.816c-12.15,3.31-23.22,13-24.21,26.19c-1,12.92,9.41,27.43,23.41,21.41    c13.15-5.65,23.76-17.88,24.45-32.52S265.559,95.036,253.509,97.816z"></path>
		<path style="fill:#ff286c;" d="M290.999,34.546c3.318,3.383,8.75,3.436,12.133,0.119c0.191-0.188,0.374-0.384,0.547-0.589    c3.59-4.44,1.57-9.67-2-13.38c-2.29-2.41-5.94,1.24-3.65,3.65c1.52,1.6,3.24,3.8,1.92,6c-0.963,1.58-3.024,2.08-4.604,1.118    c-0.273-0.166-0.521-0.371-0.736-0.608c-2.4-2.3-6,1.34-3.65,3.65L290.999,34.546z"></path>
		<path style="fill:#1f4594;" d="M148.499,35.246L148.499,35.246l3.87-3.09c1.003-1.01,1.003-2.64,0-3.65    c-1.025-0.966-2.625-0.966-3.65,0l-2.56,2v-4.35c0-3.32-5.16-3.32-5.16,0v2.89c-0.727-1-1.493-1.97-2.3-2.91    c-1.012-0.998-2.638-0.998-3.65,0c-0.982,1.019-0.982,2.631,0,3.65c0.814,0.958,1.575,1.959,2.28,3    c-0.622-0.165-1.233-0.368-1.83-0.61c-1.371-0.365-2.781,0.436-3.17,1.8c-0.343,1.368,0.45,2.764,1.8,3.17    c1.443,0.562,2.958,0.919,4.5,1.06c1.403,8.109,4.605,15.801,9.37,22.51c3.83,5.35,12.78,0.21,8.91-5.21    C152.513,49.529,149.628,42.578,148.499,35.246z"></path>
		<path style="fill:#1f4594;" d="M344.679,18.796c-0.402-1.354-1.801-2.148-3.17-1.8c-0.26,0.06-0.51,0.16-0.76,0.24l1.3-2.16    c0.778-1.194,0.44-2.792-0.753-3.57c-1.194-0.778-2.792-0.44-3.57,0.753c-0.046,0.07-0.088,0.142-0.127,0.217l-0.73,1.21    l-0.09-1.94c-0.027-1.414-1.166-2.553-2.58-2.58c-1.42,0.011-2.569,1.16-2.58,2.58l0.22,4.7l-1.62-2.38    c-0.738-1.205-2.294-1.615-3.53-0.93c-1.223,0.725-1.637,2.297-0.93,3.53l2.82,4.14c0.26,0.375,0.602,0.687,1,0.91    c-0.731,7.004-2.824,13.798-6.16,20c-3.13,5.85,5.78,11.07,8.91,5.21c3.899-7.286,6.405-15.235,7.39-23.44    c0.439-0.121,0.848-0.332,1.2-0.62c-0.49,0.4,0.2-0.13,0.31-0.2s0.41-0.24,0.63-0.35l0.12-0.06h0.11    c0.26-0.08,0.52-0.16,0.79-0.23c1.383-0.385,2.193-1.818,1.808-3.202C344.685,18.815,344.682,18.805,344.679,18.796z"></path>
		<path style="fill:#ff286c;" d="M310.529,134.326c-5.87-9.39-12.19-18.49-18.79-27.38c-2.93-3.95-6-7.77-8.93-11.74    c-1.83-2.5-3.61-6.51-6.65-7.77s-4.57,0.56-5.7,3c-2.48,5.43-4.89,10.9-7.46,16.3c-1,2.17-2.07,4.35-3.15,6.5    c-0.67,1.35-1.35,2.69-2.06,4c-0.23,0.43-0.54,0.86-0.78,1.31c-7.64-4.14-15.35-8.16-23-12.31c-4-2.18-8-4.4-12-6.7    c-3.15-1.83-6.29-4.11-9.87-5c-12.13-3-13.42,14.15-14.77,22c-3.207,18.764-4.909,37.755-5.09,56.79    c-0.047,4.76,0.003,9.52,0.15,14.28c0.1,3.2-0.41,7.41,1.53,10.21c1.54,2.23,4.39,2.88,6.83,3.59c4.36,1.27,8.77,2.39,13.19,3.39    c20.515,4.586,41.552,6.409,62.55,5.42c1.407-0.042,2.538-1.173,2.58-2.58c0.33-3.23-0.77-16.35,2.91-16.4    c4.82-0.06,8.69,8.65,13.42,6.28c3.4-1.7,6.4-6.45,8.83-9.22c3.75-4.28,7.45-8.62,11-13c3.35-4.15,6.26-8.72,6.64-14.21    C322.619,151.326,315.389,142.056,310.529,134.326z M256.459,119.646C256.149,119.986,255.919,119.856,256.459,119.646z"></path>
		<path style="fill:#ff286c;" d="M286.429,122.936c1.913-0.993,3.803-2.033,5.67-3.12c14.231-8.388,26.75-19.387,36.9-32.42    c5.074-6.49,9.546-13.428,13.36-20.73c1.913-3.66,3.653-7.4,5.22-11.22c1.55-3.76,2-7.49,3.16-11.35    c0.262-0.416,0.137-0.966-0.279-1.227c-0.118-0.074-0.252-0.12-0.391-0.133c-8-3-16-5.94-24.23-7.87    c-0.795-0.25-1.64-0.301-2.46-0.15c-2.72,0.73-3.62,7.53-4.56,9.86c-1.417,3.373-3.04,6.656-4.86,9.83    c-3.121,5.739-6.806,11.152-11,16.16c-10.09,11.84-18.84,18.69-32.25,25.64c-7.42,3.84-9.62,14.22-5.55,21.17    C269.659,124.916,278.999,126.796,286.429,122.936z"></path>
		<path style="fill:#ff286c;" d="M180.999,80.586c-5.385-5.354-10.087-11.353-14-17.86c-2-3.19-3.78-6.5-5.59-9.8    c-1.2-2.19-2.36-5.93-5.28-6.21c-2.07-0.2-5.54,2.12-7.38,3c-5.767,2.686-11.234,5.974-16.31,9.81c-2.5,1.89,1.13,6.4,2.26,8.55    c14.63,27.77,37.6,51.5,68.61,59.88c7.83,2.12,17-4.46,18.11-12.3c1.28-8.82-3.92-15.84-12.3-18.11c-2.421-0.568-4.77-1.41-7-2.51    c-2.745-1.216-5.416-2.592-8-4.12c-1.955-1.126-3.815-2.41-5.56-3.84C185.924,85.051,183.4,82.884,180.999,80.586z"></path>
		<path style="fill:#1f4594;" d="M337.849,223.706c2.39-2.93,4.239-6.262,5.46-9.84c0.737-2.745-0.866-5.573-3.6-6.35    c-2.739-0.692-5.537,0.895-6.35,3.6c-0.06,0.17-0.76,1.94-0.4,1.14c-0.24,0.54-0.51,1.07-0.8,1.6s-0.59,1-0.91,1.53    c-0.1,0.15-1.21,1.66-0.69,1c-1.68,2.11-2.21,5.27,0,7.3c1.87,1.72,5.5,2.25,7.3,0L337.849,223.706z"></path>
		<path style="fill:#1f4594;" d="M227.579,262.146c3.346-1.266,6.451-3.096,9.18-5.41c2.07-1.75,1.93-5.52,0-7.3    c-2.043-1.948-5.257-1.948-7.3,0l-0.73,0.6c0.413-0.327,0.38-0.327-0.1,0c-0.47,0.29-0.92,0.61-1.4,0.89s-1,0.55-1.46,0.79    l-0.86,0.4c0.507-0.207,0.48-0.207-0.08,0c-2.51,1-4.52,3.51-3.6,6.35c0.79,2.45,3.65,4.64,6.35,3.6V262.146z"></path>
		<path style="fill:#f6f8ff;" d="M104.649,66.326c-1.68-1.72-5.27-2-7.49-2.48c-14.274-3.381-29.177-3.037-43.28,1    c-25.75,7.48-46.44,28.74-51.81,55.21c-0.68,3.33,3.81,5.55,5.66,2.39c6.32-10.83,21.56-8.22,29.78-1.32    c10.27,8.62,15.84,22.2,22.61,33.5c0.731,1.187,2.148,1.762,3.5,1.42c12.869-2.565,21.222-15.077,18.658-27.946    c-0.399-2-1.053-3.941-1.948-5.774c7.61,1.47,15.42,0.18,18.89-8.06c4.26-10.1-1.69-18.78-9.53-24.56    c2.195-0.575,4.336-1.337,6.4-2.28c0.237-0.078,0.465-0.182,0.68-0.31c0.212-0.102,0.414-0.226,0.6-0.37    c4.4-2.76,8.07-6.82,8.81-12.13C106.509,72.226,106.509,68.256,104.649,66.326z"></path>
		<path style="fill:#f6f8ff;" d="M81.709,154.656l1.21,7.28c0.466,1.64,2.163,2.602,3.81,2.16c1.603-0.488,2.55-2.14,2.16-3.77    l-1.21-7.28c-0.466-1.64-2.163-2.602-3.81-2.16c-1.623,0.489-2.574,2.167-2.16,3.81V154.656z"></path>
		<path style="fill:#f6f8ff;" d="M93.089,144.466c2.799-0.419,5.633-0.556,8.46-0.41c4,0.18,4-6,0-6.19    c-3.383-0.13-6.77,0.081-10.11,0.63c-1.65,0.26-2.57,2.33-2.16,3.81C89.768,143.928,91.446,144.88,93.089,144.466z"></path>
		<path style="fill:#f6f8ff;" d="M107.249,117.236c-0.2,2.681-0.001,5.377,0.59,8c0.456,1.657,2.168,2.631,3.825,2.175    c1.657-0.456,2.631-2.168,2.175-3.825c-0.442-2.103-0.567-4.26-0.37-6.4c-0.011-1.708-1.392-3.089-3.1-3.1    c-1.699,0.032-3.068,1.401-3.1,3.1L107.249,117.236z"></path>
		<path style="fill:#f6f8ff;" d="M113.999,99.796c1.681-0.799,3.612-0.889,5.36-0.25c3.8,1.23,5.42-4.74,1.65-6    c-3.359-1.062-7.002-0.749-10.13,0.87c-3.57,1.76-0.44,7.11,3.12,5.34L113.999,99.796z"></path>
		<path style="fill:#f6f8ff;" d="M117.129,145.186l4.61-4.68c1.157-1.262,1.073-3.223-0.189-4.38c-1.185-1.088-3.006-1.088-4.191,0    l-4.61,4.68c-1.157,1.262-1.073,3.223,0.189,4.38C114.124,146.273,115.944,146.273,117.129,145.186z"></path>
		<path style="fill:#f6f8ff;" d="M101.119,157.266c0.205,1.646-0.019,3.316-0.65,4.85c-0.789,1.478-0.305,3.313,1.11,4.21    c1.3,0.76,3.58,0.44,4.23-1.11c1.327-3.021,1.77-6.357,1.28-9.62c-0.23-1.66-2.35-2.56-3.81-2.16c-1.79,0.49-2.39,2.14-2.16,3.81    V157.266z"></path>
		<path style="fill:#f6f8ff;" d="M97.139,183.046c2.975,0.528,5.981,0.862,9,1c4,0.17,4-6,0-6.19c-2.481-0.102-4.953-0.366-7.4-0.79    c-1.622-0.366-3.253,0.58-3.74,2.17c-0.442,1.647,0.52,3.344,2.16,3.81H97.139z"></path>
		<path style="fill:#f6f8ff;" d="M120.899,156.386c-0.877,2.36-0.93,4.947-0.15,7.34c0.484,1.626,2.166,2.58,3.81,2.16    c1.637-0.471,2.596-2.164,2.16-3.81c-0.461-1.304-0.408-2.734,0.15-4c0.442-1.647-0.52-3.344-2.16-3.81    c-1.643-0.414-3.321,0.537-3.81,2.16V156.386z"></path>
		<path style="fill:#f6f8ff;" d="M123.489,121.646l4.15-1.48c1.657-0.456,2.631-2.168,2.175-3.825    c-0.456-1.657-2.168-2.631-3.825-2.175l0,0l-4.15,1.48c-1.657,0.456-2.631,2.168-2.175,3.825    C120.12,121.128,121.833,122.101,123.489,121.646z"></path>
		<path style="fill:#f6f8ff;" d="M136.489,168.956c1.229,1.421,2.212,3.036,2.91,4.78c0.497,1.616,2.168,2.563,3.81,2.16    c1.48-0.41,2.78-2.24,2.16-3.81c-1.058-2.743-2.581-5.283-4.5-7.51c-1.215-1.197-3.165-1.197-4.38,0    C135.314,165.799,135.314,167.733,136.489,168.956z"></path>
		<path style="fill:#f6f8ff;" d="M126.699,181.676l-3.68,7.7c-0.812,1.481-0.325,3.339,1.11,4.23c1.477,0.845,3.359,0.352,4.23-1.11    l3.68-7.7c0.812-1.481,0.325-3.339-1.11-4.23C129.453,179.72,127.571,180.214,126.699,181.676z"></path>
		<path style="fill:#f6f8ff;" d="M124.769,205.956c2.711,0.078,5.416-0.304,8-1.13c3.78-1.21,2.16-7.19-1.65-6    c-2.064,0.674-4.23,0.982-6.4,0.91c-4-0.12-4,6.07,0,6.19L124.769,205.956z"></path>
		<path style="fill:#f6f8ff;" d="M145.409,187.206l1.51,5.68c0.456,1.657,2.168,2.631,3.825,2.175    c1.657-0.456,2.631-2.168,2.175-3.825l-1.51-5.68c-0.456-1.657-2.168-2.631-3.825-2.175    C145.928,183.836,144.954,185.549,145.409,187.206L145.409,187.206z"></path>
		<path style="fill:#f6f8ff;" d="M157.779,202.866c2.217,0.007,4.418-0.379,6.5-1.14c1.619-0.493,2.569-2.168,2.16-3.81    c-0.466-1.64-2.163-2.602-3.81-2.16c-1.547,0.599-3.191,0.91-4.85,0.92C153.779,196.676,153.779,202.876,157.779,202.866z"></path>
		<path style="fill:#f6f8ff;" d="M172.229,188.416h5.16c1.709-0.097,3.016-1.562,2.919-3.271c-0.089-1.574-1.345-2.83-2.919-2.919    h-5.16c-1.709,0.097-3.016,1.562-2.919,3.271C169.4,187.07,170.656,188.326,172.229,188.416z"></path>
		<path style="fill:#f6f8ff;" d="M183.119,190.166l-1,4.13c-0.456,1.657,0.518,3.369,2.175,3.825    c1.657,0.456,3.369-0.518,3.825-2.175l1-4.13c0.456-1.657-0.518-3.369-2.175-3.825    C185.288,187.535,183.575,188.509,183.119,190.166L183.119,190.166z"></path>
		<path style="fill:#f6f8ff;" d="M109.419,196.196l1.55-2.06c0.418-0.72,0.529-1.577,0.31-2.38c-0.22-0.775-0.728-1.437-1.42-1.85    c-0.72-0.417-1.577-0.528-2.38-0.31c-0.756,0.256-1.407,0.756-1.85,1.42l-1.55,2.06c-0.418,0.72-0.529,1.577-0.31,2.38    c0.22,0.775,0.728,1.437,1.42,1.85c0.72,0.417,1.577,0.528,2.38,0.31C108.326,197.359,108.976,196.86,109.419,196.196z"></path>
		<path style="fill:#f6f8ff;" d="M79.769,174.096l2.06,2.58c0.581,0.582,1.368,0.909,2.19,0.91c0.821-0.006,1.606-0.333,2.19-0.91    c0.581-0.581,0.908-1.368,0.91-2.19c-0.046-0.812-0.367-1.585-0.91-2.19l-2.06-2.58c-0.581-0.582-1.368-0.909-2.19-0.91    c-0.821,0.006-1.606,0.333-2.19,0.91c-0.581,0.581-0.908,1.368-0.91,2.19C78.905,172.718,79.226,173.49,79.769,174.096z"></path>
		<path style="fill:#f6f8ff;" d="M113.359,82.146l1.55,2.06c0.429,0.677,1.085,1.18,1.85,1.42c0.803,0.214,1.658,0.102,2.38-0.31    c0.695-0.41,1.204-1.073,1.42-1.85c0.232-0.802,0.12-1.664-0.31-2.38l-1.55-2.06c-0.429-0.677-1.085-1.18-1.85-1.42    c-0.803-0.214-1.658-0.102-2.38,0.31c-0.695,0.41-1.204,1.073-1.42,1.85C112.817,80.568,112.929,81.43,113.359,82.146z"></path>
		<path style="fill:#ff3f81;" d="M290.949,94.846c15.308-9.34,27.76-22.702,36-38.63c2-3.83-3.81-7.22-5.79-3.38    c-7.665,14.931-19.293,27.462-33.61,36.22c-3.67,2.25-0.31,8.05,3.38,5.79L290.949,94.846z"></path>
		<path style="fill:#ff3f81;" d="M156.369,63.816c5.37,14.372,15.745,26.324,29.22,33.66c3.79,2.06,7.18-3.73,3.38-5.79    c-11.989-6.426-21.268-16.95-26.14-29.65c-1.52-4-8-2.26-6.47,1.78L156.369,63.816z"></path>
		<path style="fill:#ff3f81;" d="M205.999,185.946c-1.233-18.327-0.226-36.737,3-54.82c0.76-4.22-5.7-6-6.47-1.78    c-3.382,18.668-4.474,37.678-3.25,56.61c0.28,4.28,7,4.32,6.71,0L205.999,185.946z"></path>
		<path style="fill:#ff3f81;" d="M269.509,122.156c1.848-5.592,4.135-11.029,6.84-16.26c2-3.83-3.81-7.22-5.79-3.38    c-2.984,5.729-5.512,11.684-7.56,17.81c-1.36,4.11,5.11,5.87,6.47,1.78L269.509,122.156z"></path>
		<path style="fill:#2b68c0;" d="M198.999,71.326l21.22-3.74c4.24-0.75,2.44-7.21-1.78-6.47l-21.22,3.74    C192.979,65.606,194.779,72.066,198.999,71.326z"></path>
		<path style="fill:#2b68c0;" d="M225.509,46.626c4.992,0.041,9.977,0.375,14.93,1c4.27,0.54,4.23-6.17,0-6.71    c-4.953-0.625-9.938-0.959-14.93-1C221.189,39.916,221.189,46.586,225.509,46.626L225.509,46.626z"></path>
		<path style="fill:#2b68c0;" d="M280.929,31.636l12.37-9.31c3.41-2.56,0.07-8.38-3.38-5.79l-12.38,9.29    c-3.41,2.56-0.07,8.38,3.38,5.79L280.929,31.636z"></path>
		<path style="fill:#2b68c0;" d="M124.999,103.236c10.73,8.88,9,26,11.67,38.46c2.74,13,8.54,25.21,19.83,32.77    c3.6,2.41,7-3.4,3.38-5.79c-13-8.71-16.58-24.79-18.47-39.36c-1.43-11-2.49-23.23-11.66-30.83c-3.3-2.73-8.07,2-4.74,4.74    L124.999,103.236z"></path>
	</g>
</g>

            </g>
        </g>
    </g>
    
</svg>