<svg xmlns="http://www.w3.org/2000/svg"  viewBox="0 0 128 128" width="64px" height="64px"><path fill="#444b54" d="M79,9c24.9,0,45,20.1,45,45c0,12.3-4.9,23.4-12.9,31.5L124,99H79c-24.9,0-45-20.1-45-45S54.1,9,79,9z"/><path fill="#444b54" d="M124,102H79c-26.5,0-48-21.5-48-48S52.5,6,79,6s48,21.5,48,48c0,11.7-4.2,22.8-11.8,31.5l10.9,11.4c0.8,0.9,1.1,2.1,0.6,3.3S125.2,102,124,102z M79,12c-23.2,0-42,18.8-42,42s18.8,42,42,42h38l-8-8.4c-1.1-1.2-1.1-3,0-4.2c7.8-7.9,12-18.4,12-29.4C121,30.8,102.2,12,79,12z"/><path fill="#fff" d="M54,29C29.1,29,9,49.1,9,74c0,12.3,4.9,23.4,12.9,31.5L9,119h45c24.9,0,45-20.1,45-45S78.9,29,54,29z"/><path fill="#444b54" d="M54,122H9c-1.2,0-2.3-0.7-2.8-1.8s-0.2-2.4,0.6-3.3l10.9-11.4C10.2,96.8,6,85.7,6,74c0-26.5,21.5-48,48-48s48,21.5,48,48S80.5,122,54,122z M16,116h38c23.2,0,42-18.8,42-42S77.2,32,54,32S12,50.8,12,74c0,11.1,4.3,21.5,12,29.4c1.1,1.2,1.1,3,0,4.2L16,116z"/><path fill="#fcca3d" d="M54 46A28 28 0 1 0 54 102A28 28 0 1 0 54 46Z"/><path fill="#fff" d="M69 77H39c-1.7 0-3-1.3-3-3s1.3-3 3-3h30c1.7 0 3 1.3 3 3S70.7 77 69 77zM59 67H39c-1.7 0-3-1.3-3-3s1.3-3 3-3h20c1.7 0 3 1.3 3 3S60.7 67 59 67zM69 87H54c-1.7 0-3-1.3-3-3s1.3-3 3-3h15c1.7 0 3 1.3 3 3S70.7 87 69 87zM39 81A3 3 0 1 0 39 87 3 3 0 1 0 39 81zM69 61A3 3 0 1 0 69 67 3 3 0 1 0 69 61z"/></svg>