<svg xmlns="http://www.w3.org/2000/svg"  viewBox="0 0 128 128" width="64px" height="64px"><path fill="#fff" d="M121.8,80.9c-2.8-2.7-7.2-2.4-9.9,0.3C97,96.1,84.6,100.9,69.5,99c-6.2-0.8-9.3-2.6-14.9-5.1c-0.5-0.2-1.8-0.9-3.2-1.8c-4-2.3-4-8.1,0-10.4L66.4,73c3.7-2.1,5.3-6.8,3.4-10.6c-2.1-4.2-7.2-5.7-11.2-3.4L24,79H14l0-3l0,0v0H1l0,40h13v0l0,0l0-7c0,0,24,10,44.4,10c27.4,0,50.1-13.8,63.4-27.9C124.5,88.2,124.6,83.6,121.8,80.9z"/><path fill="#444b54" d="M123.9,78.7c-3.9-3.7-10.1-3.6-14.1,0.3c-13.9,13.9-25.5,18.8-39.9,17c-4.9-0.6-7.5-1.8-11.7-3.8c-0.7-0.3-1.5-0.7-2.3-1.1c-0.2-0.1-0.8-0.4-3-1.6c-1.4-0.8-1.5-2.1-1.5-2.6c0-0.5,0.1-1.8,1.5-2.6l15.1-8.7c5.1-3,7.2-9.3,4.6-14.5c-1.4-2.8-3.7-4.8-6.7-5.7c-2.9-0.9-6.1-0.5-8.7,1l-34.6,20c-1.4,0.8-1.9,2.7-1.1,4.1c0.8,1.4,2.7,1.9,4.1,1.1l34.6-20c1.2-0.7,2.6-0.9,4-0.5c1.3,0.4,2.4,1.3,3,2.6c1.2,2.3,0.2,5.3-2.2,6.7l-15.1,8.7c-2.8,1.6-4.5,4.5-4.5,7.8c0,3.3,1.7,6.2,4.5,7.8c2.3,1.3,3.1,1.7,3.5,1.9c0.8,0.4,1.6,0.7,2.3,1.1c4.5,2.1,7.7,3.6,13.5,4.3c16.3,2,29.7-3.5,44.9-18.7c1.6-1.6,4.2-1.7,5.7-0.2c1.5,1.5,1.5,4.2-0.1,5.9c-6,6.3-28.1,27-61.3,27c-16.4,0-35.5-6.8-41.4-9V76c0-1.7-1.3-3-3-3H4c-1.7,0-3,1.3-3,3s1.3,3,3,3h7v30c0,0,0,0,0,0v4H4c-1.7,0-3,1.3-3,3s1.3,3,3,3h10c1.7,0,3-1.3,3-3v-2.6c7.9,2.9,25.5,8.6,41.4,8.6c24,0,48.5-10.8,65.6-28.9C127.9,89.1,127.8,82.5,123.9,78.7z"/><path fill="#fff" d="M123.9,52.1L98.2,66.9c-4,2.3-9.1,0.8-11.2-3.4c-1.9-3.8-0.3-8.5,3.4-10.6l15.1-8.7c4-2.3,4-8.1,0-10.4c-1.5-0.8-2.7-1.5-3.2-1.8c-5.7-2.6-8.7-4.4-14.9-5.1C72.3,25,59.9,29.9,45,44.7c-2.8,2.7-7.1,3-9.9,0.3c-2.8-2.7-2.7-7.3,0-10.2c13.3-14.1,36-27.9,63.4-27.9c8.5,0,17.7,1.7,25.5,3.8L127,11v41L123.9,52.1z"/><path fill="#444b54" d="M94.2,71c-1.1,0-2.1-0.2-3.2-0.5c-2.9-0.9-5.3-2.9-6.7-5.7c-2.6-5.2-0.5-11.6,4.6-14.5l15.1-8.7c1.4-0.8,1.5-2.1,1.5-2.6c0-0.5-0.1-1.8-1.5-2.6c-2.1-1.2-2.8-1.6-3-1.6c-0.8-0.4-1.6-0.7-2.3-1.1c-4.3-2-6.9-3.2-11.7-3.8c-14.4-1.8-26,3.1-39.9,17c-4,3.9-10.2,4.1-14.1,0.3c-3.9-3.7-4-10.3-0.1-14.4C50,14.7,74.5,3.9,98.5,3.9c7.6,0,16.4,1.3,26.2,3.9c1.6,0.4,2.6,2.1,2.1,3.7c-0.4,1.6-2.1,2.6-3.7,2.1c-9.3-2.4-17.6-3.7-24.7-3.7c-33.2,0-55.3,20.7-61.3,27c-1.6,1.7-1.6,4.4-0.1,5.9c1.6,1.5,4.1,1.4,5.7-0.2c15.2-15.1,28.6-20.7,44.9-18.7c5.8,0.7,9,2.2,13.5,4.3c0.7,0.3,1.5,0.7,2.3,1.1c0.4,0.2,1.1,0.5,3.5,1.9c2.8,1.6,4.5,4.5,4.5,7.8c0,3.3-1.7,6.2-4.5,7.8L92,55.5c-2.4,1.4-3.4,4.3-2.2,6.7c0.6,1.3,1.7,2.2,3,2.6c1.3,0.4,2.7,0.2,4-0.5l25.6-14.8c1.4-0.8,3.3-0.3,4.1,1.1c0.8,1.4,0.3,3.3-1.1,4.1L99.7,69.5C98.1,70.5,96.2,71,94.2,71z"/></svg>