<svg xmlns="http://www.w3.org/2000/svg"  viewBox="0 0 128 128" width="64px" height="64px"><path fill="#959599" d="M102,69.4V85.3c0,15.3-12.4,27.7-27.7,27.7H53.7C38.4,113,26,100.6,26,85.3V69.4l38.7,5L102,69.4"/><path fill="#cacacc" d="M36.536,70.762C35.608,71.262,35,72.238,35,73.4V89.3c0,1.7,1.3,3,3,3s3-1.399,3-3V73.4 c0-0.872-0.342-1.639-0.905-2.179L36.536,70.762"/><path fill="#f4d0c3" d="M95.5,58.8c0.2-2.5-1.6-4.6-4.1-4.9c-2-0.2-3.8,1-4.5,2.7c-0.3-0.1-0.6-0.1-1-0.2 c-0.6-3.8-4.1-6.9-8.6-7.3c-4.5-0.4-8.5,1.9-9.8,5.5c-1.2,0-2.3-0.1-3.5-0.1c-6.1,0-11.9,0.4-17,1.1c-1.1-2.5-3.9-4-6.7-3.5 c-2.8,0.6-4.7,3-4.8,5.7c-0.2,0.1-0.4,0.1-0.6,0.2c-0.4-0.3-1-0.5-1.6-0.4c-0.7,0.1-1.3,0.7-1.5,1.4c-4.9,1.7-7.7,3.6-7.7,5.4 c0,4.4,17.9,9.9,40,9.9s40-5.5,40-9.9C104,62.6,100.8,60.5,95.5,58.8z"/><path fill="#454b54" d="M104,67.4c-1.5,0-2.8-1.1-3-2.6c-0.4-0.5-2.2-1.8-6.5-3.2c-1.6-0.5-2.4-2.2-1.9-3.8s2.2-2.4,3.8-1.9 c7.1,2.3,10.6,5.1,10.6,8.5C107,66.1,105.7,67.4,104,67.4z"/><path fill="#6c6d71" d="M102,69.4l-15,2.011V85.3c0,15.3-12.4,27.7-27.7,27.7h15c15.3,0,27.7-12.4,27.7-27.7V69.4"/><path fill="#454b54" d="M74.3,116H53.7C36.8,116,23,102.2,23,85.3V69.4c0-1.7,1.3-3,3-3s3,1.3,3,3v15.9 C29,98.9,40.1,110,53.7,110h20.6C87.9,110,99,98.9,99,85.3V69.4c0-1.7,1.3-3,3-3s3,1.3,3,3v15.9C105,102.2,91.2,116,74.3,116z"/><path fill="#454b54" d="M64 76.3c-10.9 0-21.1-.8-28.9-2.4C25.4 72 21 69.4 21 65.4c0-1.7 1.3-3 3-3 1.5 0 2.7 1.1 3 2.5 1.9 1.9 14.6 5.4 37 5.4s35.1-3.5 37-5.4c.2-1.4 1.5-2.5 3-2.5 1.7 0 3 1.3 3 3 0 4-4.4 6.6-14.1 8.5C85.1 75.5 74.9 76.3 64 76.3zM63.3 57.6c-1.6 0-3.3 0-5.4 0h-1.5c-1.7 0-3-1.4-3-3s1.4-3 3-3l0 0h1.5c3.9.1 6.5.1 9.4 0 1.7-.1 3 1.2 3.1 2.9s-1.2 3-2.9 3.1C66.2 57.6 64.8 57.6 63.3 57.6zM118 36.8c-.2 0-.4 0-.5-.1L59.1 25.9c-1.6-.3-2.7-1.9-2.4-3.5s1.9-2.7 3.5-2.4l58.4 10.8c1.6.3 2.7 1.9 2.4 3.5C120.7 35.7 119.4 36.8 118 36.8zM32.4 20.9c-.2 0-.4 0-.5-.1L9.5 16.7c-1.6-.3-2.7-1.9-2.4-3.5.3-1.6 1.9-2.7 3.5-2.4L33 15c1.6.3 2.7 1.9 2.4 3.5C35.1 19.9 33.8 20.9 32.4 20.9z"/><path fill="#454b54" d="M103.9,57.4c-1.7,0-3-1.3-3-3c0-6.6-1.8-13.2-5.1-18.8c-3.6-6.1-8.8-11-15-14.2 c-5.2-2.7-10.8-4-16.7-4c-20.3,0-36.9,16.6-36.9,37c0,1.7-1.3,3-3,3s-3-1.3-3-3c0-23.7,19.2-43,42.9-43c6.8,0,13.4,1.6,19.4,4.7 c7.3,3.7,13.3,9.4,17.5,16.5c3.9,6.6,6,14.2,6,21.9C106.9,56.1,105.5,57.4,103.9,57.4z"/><path fill="#454b54" d="M35.6 62.2c-1.4 0-2.6-1-2.9-2.4-.5-2.4 0-4.8 1.3-6.8s3.4-3.4 5.7-3.9c2.4-.5 4.8 0 6.8 1.3s3.4 3.4 3.9 5.7c.3 1.6-.7 3.2-2.3 3.5s-3.2-.7-3.5-2.3c-.2-.8-.6-1.5-1.3-1.9S41.8 54.8 41 55c-.8.2-1.5.6-1.9 1.3s-.6 1.5-.4 2.3c.3 1.6-.7 3.2-2.3 3.5C36 62.2 35.8 62.2 35.6 62.2zM86 61.2c-.1 0-.2 0-.3 0-1.6-.2-2.9-1.6-2.7-3.3.1-1.3-.4-2.6-1.4-3.7-1.1-1.2-2.8-1.9-4.6-2.1-3.6-.3-6.7 1.7-7 4.6-.2 1.6-1.6 2.9-3.3 2.7-1.6-.2-2.9-1.6-2.7-3.3.6-6.2 6.6-10.7 13.5-10 3.2.3 6.2 1.7 8.4 3.9 2.3 2.4 3.3 5.3 3 8.4C88.9 60 87.6 61.2 86 61.2z"/><path fill="#454b54" d="M95.5 61.8c-.1 0-.2 0-.3 0-1.6-.2-2.9-1.6-2.7-3.3.1-.5-.2-.9-.3-1.1s-.5-.5-1-.5c-.8-.1-1.6.5-1.6 1.4C89.4 60 88 61.2 86.3 61c-1.6-.2-2.9-1.6-2.7-3.3.2-2 1.1-3.8 2.7-5.1s3.5-1.9 5.5-1.7 3.8 1.1 5.1 2.7c1.3 1.5 1.9 3.5 1.7 5.5C98.3 60.6 97 61.8 95.5 61.8zM31.7 63c-1.4 0-2.6-1-2.9-2.4-.3-1.3 0-2.6.7-3.8s1.9-1.9 3.2-2.1c1.3-.3 2.6 0 3.8.7 1.1.7 1.9 1.9 2.1 3.2.3 1.6-.7 3.2-2.3 3.5-.8.2-1.5 0-2.1-.3-.4.6-1.1 1-1.8 1.1C32.1 63 31.9 63 31.7 63zM62.8 47.3c-.8 0-1.6-.3-2.1-.9-.6-.6-.9-1.3-.9-2.1s.3-1.6.9-2.1c1.1-1.1 3.1-1.1 4.2 0 .6.6.9 1.3.9 2.1s-.3 1.6-.9 2.1C64.4 47 63.6 47.3 62.8 47.3zM52.8 37.3c-.8 0-1.6-.3-2.1-.9-.6-.5-.9-1.3-.9-2.1s.3-1.6.9-2.1c1.1-1.1 3.1-1.1 4.2 0 .6.6.9 1.3.9 2.1s-.3 1.6-.9 2.1C54.4 37 53.6 37.3 52.8 37.3z"/></svg>