<svg xmlns="http://www.w3.org/2000/svg"  viewBox="0 0 128 128" width="64px" height="64px"><path fill="#f7f7fb" d="M96.1,17.5h-64c-5.5,0-10,4.5-10,10v73c0,5.5,4.5,10,10,10h64c5.5,0,10-4.5,10-10v-73 C106.1,22,101.6,17.5,96.1,17.5"/><path fill="#dfdfe3" d="M105 38.6L23 38.6 23 78.3 105 78.3 105 38.6"/><path fill="#fff" d="M37.1 75.5H57.1V110.5H37.1zM69.1 75.5H95.1V95.5H69.1z"/><path fill="#b5d2e5" d="M96.1,17.5h-64c-5.5,0-10,4.5-10,10v11h84v-11C106.1,22,101.6,17.5,96.1,17.5z"/><path fill="#454b54" d="M95.1,72.5h-26c-1.7,0-3,1.3-3,3v20c0,1.7,1.3,3,3,3h26c1.7,0,3-1.3,3-3v-20 C98.1,73.8,96.8,72.5,95.1,72.5z M92.1,92.5h-20v-14h20V92.5z"/><path fill="#454b54" d="M96.1,14.5h-64c-7.2,0-13,5.8-13,13v73c0,7.2,5.8,13,13,13h64c7.2,0,13-5.8,13-13v-73 C109.1,20.3,103.3,14.5,96.1,14.5z M32.1,20.5h64c3.9,0,7,3.1,7,7v8h-78v-8C25.1,23.6,28.2,20.5,32.1,20.5z M40.1,107.5v-29h14v29 H40.1z M96.1,107.5h-36v-32c0-1.7-1.3-3-3-3h-20c-1.7,0-3,1.3-3,3v32h-2c-3.9,0-7-3.1-7-7v-59h78v59 C103.1,104.4,100,107.5,96.1,107.5z"/><path fill="#454b54" d="M32.1 25.5A3 3 0 1 0 32.1 31.5 3 3 0 1 0 32.1 25.5zM42.1 25.5A3 3 0 1 0 42.1 31.5 3 3 0 1 0 42.1 25.5zM52.1 25.5A3 3 0 1 0 52.1 31.5 3 3 0 1 0 52.1 25.5zM105 41.6H23c-1.7 0-3-1.3-3-3s1.3-3 3-3h82c1.7 0 3 1.3 3 3S106.6 41.6 105 41.6z"/><path fill="#f48884" d="M115.6,52.3v8c0,2.8-2.2,5-5,5H17.4c-2.8,0-5-2.2-5-5v-8l10.4-14h82.4L115.6,52.3z"/><path fill="#f48884" d="M115.6,52.3v8c0,2.8-2.2,5-5,5H17.4c-2.8,0-5-2.2-5-5v-8C12.4,52.3,115.6,52.3,115.6,52.3z"/><path fill="#454b54" d="M22.6 68.3h-5.2c-1.7 0-3-1.3-3-3s1.3-3 3-3h5.2c1.7 0 3 1.3 3 3C25.6 67 24.3 68.3 22.6 68.3zM69.1 68.3H58.9c-1.7 0-3-1.3-3-3s1.3-3 3-3h10.2c1.7 0 3 1.3 3 3C72.1 67 70.8 68.3 69.1 68.3zM45.1 68.3H34.9c-1.7 0-3-1.3-3-3s1.3-3 3-3h10.2c1.7 0 3 1.3 3 3C48.1 67 46.8 68.3 45.1 68.3zM93.1 68.3H82.9c-1.7 0-3-1.3-3-3s1.3-3 3-3h10.2c1.7 0 3 1.3 3 3C96.1 67 94.8 68.3 93.1 68.3zM110.6 68.3h-5.2c-1.7 0-3-1.3-3-3s1.3-3 3-3h5.2c1.7 0 3 1.3 3 3C113.6 67 112.3 68.3 110.6 68.3z"/><path fill="#fff" d="M31.5 55c-.5 0-.9-.1-1.3-.3-1.5-.7-2.1-2.5-1.3-4L35.8 37c.7-1.5 2.6-2.1 4-1.3 1.5.7 2.1 2.5 1.3 4l-6.9 13.7C33.7 54.4 32.6 55 31.5 55zM97.4 55c-1.1 0-2.2-.6-2.7-1.7l-6.9-13.7c-.7-1.5-.1-3.3 1.3-4 1.5-.7 3.3-.2 4 1.3l6.9 13.7c.7 1.5.1 3.3-1.3 4C98.3 54.9 97.9 55 97.4 55zM76 55c-1.4 0-2.6-.9-2.9-2.3L70 38.9c-.4-1.6.7-3.2 2.3-3.6 1.6-.4 3.2.6 3.6 2.3L79 51.3c.4 1.6-.7 3.2-2.3 3.6C76.5 55 76.3 55 76 55zM52 55c-.2 0-.4 0-.6-.1-1.6-.3-2.7-1.9-2.3-3.6L52 37.7c.3-1.6 1.9-2.7 3.6-2.3 1.6.3 2.7 1.9 2.3 3.6L55 52.6C54.7 54 53.4 55 52 55z"/><path fill="#454b54" d="M110.6,68.3c-1.7,0-3-1.3-3-3s1.3-3,3-3c1.1,0,2-0.9,2-2v-7l-8.9-12H24.3l-8.9,12v7c0,1.1,0.9,2,2,2 c1.7,0,3,1.3,3,3c0,1.7-1.3,3-3,3c-4.4,0-8-3.6-8-8v-8c0-0.6,0.2-1.3,0.6-1.8l10.4-14c0.6-0.8,1.5-1.2,2.4-1.2h82.4 c0.9,0,1.8,0.4,2.4,1.2l10.4,14c0.4,0.5,0.6,1.1,0.6,1.8v8C118.6,64.7,115,68.3,110.6,68.3z"/><path fill="#454b54" d="M115.6,55.3L115.6,55.3H13.5c-1.7,0-3-1.3-3-3s1.3-3,3-3l0,0h102.1c1.7,0,3,1.3,3,3 S117.3,55.3,115.6,55.3z"/></svg>