<svg xmlns="http://www.w3.org/2000/svg"  viewBox="0 0 128 128" width="64px" height="64px"><path fill="#3f4a54" d="M64 15c-23.7 0-43 19.3-43 43 0 14.7 7.4 28.2 19.8 36.2 1.4.9 3.2.5 4.1-.9s.5-3.2-.9-4.1C33.4 82.3 27 70.6 27 58c0-20.4 16.6-37 37-37s37 16.6 37 37c0 12.6-6.4 24.3-17 31.1-1.4.9-1.8 2.8-.9 4.1.6.9 1.5 1.4 2.5 1.4.6 0 1.1-.2 1.6-.5C99.6 86.2 107 72.7 107 58 107 34.3 87.7 15 64 15zM64 108A4 4 0 1 0 64 116 4 4 0 1 0 64 108zM64 1A4 4 0 1 0 64 9 4 4 0 1 0 64 1zM91.5 101.2c-1-.3-2.1-.1-3 .4-.9.5-1.6 1.4-1.9 2.4-.3 1-.1 2.1.4 3 .5.9 1.4 1.6 2.4 1.9.3.1.7.1 1 .1.7 0 1.4-.2 2-.5.9-.5 1.6-1.4 1.9-2.4.3-1 .1-2.1-.4-3C93.4 102.1 92.6 101.4 91.5 101.2zM37 16.4c.7 0 1.4-.2 2-.5.9-.5 1.6-1.4 1.9-2.4.3-1 .1-2.1-.4-3-.5-.9-1.4-1.6-2.4-1.9-1-.3-2.1-.1-3 .4 0 0 0 0 0 0-1.9 1.1-2.6 3.6-1.5 5.5C34.3 15.6 35.6 16.4 37 16.4zM107.9 89.2c.6.4 1.3.5 2 .5 1.4 0 2.7-.7 3.5-2 1.1-1.9.4-4.4-1.5-5.5-1.9-1.1-4.4-.4-5.5 1.5 0 0 0 0 0 0C105.3 85.6 105.9 88.1 107.9 89.2zM15.2 35.7c.6.4 1.3.5 2 .5 1.4 0 2.7-.7 3.5-2 .5-.9.7-2 .4-3-.3-1-.9-1.9-1.9-2.4-.9-.5-2-.7-3-.4-1 .3-1.9.9-2.4 1.9 0 0 0 0 0 0-.5.9-.7 2-.4 3C13.6 34.3 14.3 35.2 15.2 35.7zM116.8 55.3A4 4 0 1 0 116.8 63.3 4 4 0 1 0 116.8 55.3zM9.8 55.3A4 4 0 1 0 9.8 63.3 4 4 0 1 0 9.8 55.3zM109.8 36.8c.7 0 1.4-.2 2-.5 1.9-1.1 2.6-3.6 1.5-5.5-1.1-1.9-3.6-2.6-5.5-1.5-.9.5-1.6 1.4-1.9 2.4-.3 1-.1 2.1.4 3C107.1 36 108.4 36.8 109.8 36.8zM18.2 82.4c-1-.3-2.1-.1-3 .4-.9.5-1.6 1.4-1.9 2.4-.3 1-.1 2.1.4 3 .5.9 1.4 1.6 2.4 1.9.3.1.7.1 1 .1.7 0 1.4-.2 2-.5 1.9-1.1 2.6-3.6 1.5-5.5C20.1 83.3 19.2 82.7 18.2 82.4zM88.5 16.9C88.5 16.9 88.5 16.9 88.5 16.9c.6.4 1.3.5 2 .5 1.4 0 2.7-.7 3.5-2 .5-.9.7-2 .4-3-.3-1-.9-1.9-1.9-2.4-1.9-1.1-4.4-.4-5.5 1.5C85.9 13.3 86.6 15.8 88.5 16.9zM39 102.6c-.9-.5-2-.7-3-.4-1 .3-1.9.9-2.4 1.9-.5.9-.7 2-.4 3 .3 1 .9 1.9 1.9 2.4.6.4 1.3.5 2 .5 1.4 0 2.7-.7 3.5-2 .5-.9.7-2 .4-3C40.6 104 39.9 103.1 39 102.6z"/><path fill="#3f4a54" d="M124,121H84.3L66.9,57.2C66.5,55.9,65.4,55,64,55s-2.5,0.9-2.9,2.2L43.7,121H4c-1.7,0-3,1.3-3,3s1.3,3,3,3 h120c1.7,0,3-1.3,3-3S125.7,121,124,121z M64,69.4L78.1,121H49.9L64,69.4z"/><g><path fill="#71c2ff" d="M41,45c-0.6,0-1.2-0.2-1.7-0.5c-1.4-0.9-1.7-2.8-0.7-4.2C44.4,32,53.9,27,64,27c1.7,0,3,1.3,3,3s-1.3,3-3,3 c-8.2,0-15.8,4-20.5,10.7C42.9,44.6,42,45,41,45z"/></g><g><path fill="#71c2ff" d="M86.5,77.7c-0.6,0-1.3-0.2-1.8-0.6c-1.3-1-1.6-2.9-0.6-4.2C87.3,68.6,89,63.4,89,58c0-1.7,1.3-3,3-3 s3,1.3,3,3c0,6.7-2.1,13.1-6.1,18.5C88.3,77.3,87.4,77.7,86.5,77.7z"/></g><g><path fill="#71c2ff" d="M36 54.7A3 3 0 1 0 36 60.7A3 3 0 1 0 36 54.7Z"/></g></svg>