<?xml version="1.0" encoding="UTF-8"?>
<svg xmlns="http://www.w3.org/2000/svg" xmlns:xlink="http://www.w3.org/1999/xlink" viewBox="0 0 64 64" width="64px" height="64px">
<g id="surface28440762">
<path style=" stroke:none;fill-rule:nonzero;fill:rgb(100%,100%,100%);fill-opacity:1;" d="M 51.917969 15.285156 C 61.148438 26.285156 59.714844 42.683594 48.714844 51.914062 C 37.714844 61.144531 21.3125 59.710938 12.082031 48.710938 C 2.851562 37.710938 4.289062 21.3125 15.289062 12.082031 C 26.285156 2.851562 42.6875 4.285156 51.917969 15.285156 Z M 51.917969 15.285156 "/>
<path style=" stroke:none;fill-rule:nonzero;fill:rgb(44.313726%,76.078433%,100%);fill-opacity:1;" d="M 35.800781 6.351562 C 30.550781 10.25 26.398438 15.949219 24.351562 22.949219 C 32.648438 16 42.648438 13.148438 50.800781 14.699219 L 50.699219 14.601562 C 47.148438 9.851562 41.75 6.851562 35.800781 6.351562 Z M 35.800781 6.351562 "/>
<path style=" stroke:none;fill-rule:nonzero;fill:rgb(44.313726%,76.078433%,100%);fill-opacity:1;" d="M 13.101562 39.601562 C 14.800781 33.300781 18.648438 27.351562 24.398438 22.898438 C 20.949219 33.101562 22.949219 50.5 27.351562 57.550781 C 21.351562 56.148438 15.851562 53 11.601562 48.5 L 11.101562 48 Z M 13.101562 39.601562 "/>
<path style=" stroke:none;fill-rule:nonzero;fill:rgb(44.313726%,76.078433%,100%);fill-opacity:1;" d="M 15.300781 12.101562 C 9.949219 15.949219 6.601562 21.949219 6.25 28.5 L 24 22.550781 Z M 15.300781 12.101562 "/>
<path style=" stroke:none;fill-rule:nonzero;fill:rgb(44.313726%,76.078433%,100%);fill-opacity:1;" d="M 57.601562 32.148438 C 49.351562 26.148438 35.601562 21.648438 24.351562 22.898438 L 24 22.550781 L 48.699219 51.898438 L 50.148438 50.449219 C 55.050781 45.648438 57.75 39 57.601562 32.148438 Z M 57.601562 32.148438 "/>
<path style=" stroke:none;fill-rule:nonzero;fill:rgb(26.666668%,29.411766%,32.941177%);fill-opacity:1;" d="M 24.851562 51.050781 C 24.199219 51.050781 23.601562 50.601562 23.398438 49.949219 C 20.800781 40.601562 20.648438 30.300781 22.949219 22.5 C 24.101562 18.5 25.949219 14.851562 28.398438 11.601562 C 28.898438 10.949219 29.851562 10.800781 30.5 11.300781 C 31.148438 11.800781 31.300781 12.75 30.800781 13.398438 C 28.550781 16.351562 26.898438 19.699219 25.851562 23.300781 C 23.699219 30.601562 23.898438 40.25 26.351562 49.101562 C 26.550781 49.898438 26.101562 50.699219 25.300781 50.949219 C 25.101562 51.050781 25 51.050781 24.851562 51.050781 Z M 24.851562 51.050781 "/>
<path style=" stroke:none;fill-rule:nonzero;fill:rgb(26.666668%,29.411766%,32.941177%);fill-opacity:1;" d="M 53.050781 14.300781 C 43.300781 2.699219 25.949219 1.199219 14.300781 10.949219 C 8.699219 15.648438 5.25 22.300781 4.601562 29.601562 C 3.949219 36.898438 6.199219 44.050781 10.949219 49.648438 C 15.648438 55.300781 22.300781 58.75 29.601562 59.351562 C 30.398438 59.398438 31.25 59.449219 32.050781 59.449219 C 38.5 59.449219 44.699219 57.199219 49.699219 53 C 55.351562 48.300781 58.800781 41.648438 59.398438 34.351562 C 60 27.050781 57.800781 19.949219 53.050781 14.300781 Z M 56.351562 29.5 C 48.550781 24.550781 38.25 21.449219 29.199219 21.25 C 36.050781 16.800781 43.75 14.949219 50.550781 16.199219 C 50.601562 16.199219 50.648438 16.199219 50.699219 16.199219 C 50.699219 16.25 50.75 16.25 50.75 16.300781 C 54.050781 20.148438 55.898438 24.75 56.351562 29.5 Z M 48.851562 49.75 L 36.199219 34.648438 C 35.648438 34 34.699219 33.949219 34.101562 34.449219 C 33.449219 35 33.398438 35.949219 33.898438 36.550781 L 46.550781 51.648438 C 41.75 55.199219 35.851562 56.898438 29.851562 56.351562 C 23.351562 55.800781 17.398438 52.699219 13.199219 47.699219 C 13.199219 47.648438 13.148438 47.648438 13.148438 47.601562 C 13.148438 47.550781 13.148438 47.449219 13.148438 47.398438 C 13.148438 43.5 14.199219 39.300781 16.199219 35.300781 C 16.601562 34.550781 16.300781 33.648438 15.550781 33.300781 C 14.800781 32.949219 13.898438 33.199219 13.550781 33.949219 C 11.949219 37.148438 10.898438 40.398438 10.449219 43.648438 C 8.148438 39.449219 7.148438 34.699219 7.601562 29.851562 C 8.148438 23.351562 11.25 17.398438 16.25 13.199219 C 20.851562 9.398438 26.398438 7.5 32 7.5 C 37.449219 7.5 42.800781 9.300781 47.25 12.800781 C 39.351562 12.550781 30.851562 15.648438 23.75 21.5 C 19.300781 22.050781 15.148438 23.398438 11.351562 25.550781 C 10.648438 25.949219 10.351562 26.851562 10.800781 27.601562 C 11.199219 28.300781 12.101562 28.601562 12.851562 28.148438 C 16.449219 26.148438 20.398438 24.851562 24.601562 24.398438 C 35.800781 23.148438 49.050781 27.851562 56.5 33.148438 C 56.148438 39.300781 53.601562 45.300781 48.851562 49.75 Z M 48.851562 49.75 "/>
<path style=" stroke:none;fill-rule:nonzero;fill:rgb(26.666668%,29.411766%,32.941177%);fill-opacity:1;" d="M 20.800781 20.199219 C 20.351562 20.199219 19.949219 20 19.648438 19.648438 L 17.351562 16.851562 C 16.851562 16.199219 16.898438 15.25 17.550781 14.75 C 18.199219 14.25 19.148438 14.300781 19.648438 14.949219 L 21.949219 17.75 C 22.449219 18.398438 22.398438 19.351562 21.75 19.851562 C 21.449219 20.101562 21.148438 20.199219 20.800781 20.199219 Z M 20.800781 20.199219 "/>
<path style=" stroke:none;fill-rule:nonzero;fill:rgb(100%,100%,100%);fill-opacity:1;" d="M 27.828125 19.339844 C 29.605469 21.457031 29.328125 24.609375 27.214844 26.382812 C 25.097656 28.160156 21.945312 27.882812 20.167969 25.769531 C 18.394531 23.652344 18.671875 20.5 20.785156 18.722656 C 22.902344 16.949219 26.054688 17.226562 27.828125 19.339844 Z M 27.828125 19.339844 "/>
<path style=" stroke:none;fill-rule:nonzero;fill:rgb(26.666668%,29.411766%,32.941177%);fill-opacity:1;" d="M 24 29.050781 C 23.800781 29.050781 23.601562 29.050781 23.398438 29 C 21.648438 28.851562 20.101562 28.050781 19 26.699219 C 17.898438 25.351562 17.351562 23.699219 17.5 21.949219 C 17.648438 20.199219 18.449219 18.648438 19.800781 17.550781 C 21.148438 16.449219 22.800781 15.898438 24.550781 16.050781 C 26.300781 16.199219 27.851562 17 28.949219 18.351562 C 31.25 21.101562 30.898438 25.199219 28.148438 27.5 C 27 28.5 25.550781 29.050781 24 29.050781 Z M 24 19.050781 C 23.199219 19.050781 22.398438 19.351562 21.75 19.851562 C 21.050781 20.449219 20.601562 21.300781 20.5 22.25 C 20.398438 23.199219 20.699219 24.101562 21.300781 24.800781 C 22.550781 26.300781 24.75 26.449219 26.25 25.25 C 27.75 24 27.898438 21.800781 26.699219 20.300781 C 26.101562 19.601562 25.25 19.148438 24.300781 19.050781 C 24.199219 19.050781 24.101562 19.050781 24 19.050781 Z M 24 19.050781 "/>
</g>
</svg>
