<svg xmlns="http://www.w3.org/2000/svg"  viewBox="0 0 128 128" width="64px" height="64px"><path fill="#f8e390" d="M46.322,46.322c9.763-9.763,25.592-9.763,35.355,0c9.763,9.763,9.763,25.592,0,35.355 c-9.763,9.763-25.592,9.763-35.355,0C36.559,71.914,36.559,56.085,46.322,46.322"/><path fill="#fcf1c8" d="M63.999,39c-6.398,0-12.796,2.441-17.678,7.322c-9.763,9.763-9.763,25.592,0,35.355 C51.203,86.559,57.601,89,63.999,89H64L63.999,39C64,39,63.999,39,63.999,39"/><path fill="#fff" d="M53.393 53.394c5.858-5.858 15.355-5.858 21.213 0 5.858 5.858 5.858 15.355 0 21.213-5.857 5.857-15.355 5.857-21.213 0S47.535 59.251 53.393 53.394zM11.499 56.5A7.5 7.5 0 1 0 11.499 71.5 7.5 7.5 0 1 0 11.499 56.5zM116.499 56.5A7.5 7.5 0 1 0 116.499 71.5 7.5 7.5 0 1 0 116.499 56.5zM37.804 101.984A7.5 7.5 0 1 0 37.804 116.984 7.5 7.5 0 1 0 37.804 101.984zM90.19 11.015A7.5 7.5 0 1 0 90.19 26.015 7.5 7.5 0 1 0 90.19 11.015zM90.265 102.024A7.5 7.5 0 1 0 90.265 117.024 7.5 7.5 0 1 0 90.265 102.024zM37.729 10.977A7.5 7.5 0 1 0 37.729 25.977 7.5 7.5 0 1 0 37.729 10.977z"/><path fill="#444b54" d="M64 92c-7.5 0-14.5-2.9-19.8-8.2-10.9-10.9-10.9-28.7 0-39.6C49.5 38.9 56.5 36 64 36s14.5 2.9 19.8 8.2c10.9 10.9 10.9 28.7 0 39.6C78.5 89.1 71.5 92 64 92zM64 42c-5.9 0-11.4 2.3-15.6 6.4-8.6 8.6-8.6 22.5 0 31.1C52.6 83.7 58.1 86 64 86s11.4-2.3 15.6-6.4c8.6-8.6 8.6-22.5 0-31.1C75.4 44.3 69.9 42 64 42zM123.9 56.6c-4.1-4.1-10.8-4.1-14.8 0l0 0c-1.3 1.3-2.2 2.8-2.6 4.4H99c-1.7 0-3 1.3-3 3 0 1.7 1.3 3 3 3h7.4c.5 1.6 1.4 3.1 2.6 4.4 2 2 4.7 3.1 7.4 3.1 2.7 0 5.4-1 7.4-3.1C128 67.3 128 60.7 123.9 56.6zM119.7 67.2c-1.8 1.8-4.6 1.8-6.4 0s-1.8-4.6 0-6.4c1.8-1.8 4.6-1.8 6.4 0C121.4 62.6 121.4 65.4 119.7 67.2zM93 99.3c-1.7-.5-3.5-.5-5.2-.1l-3.7-6.4c-.8-1.4-2.7-1.9-4.1-1.1s-1.9 2.7-1.1 4.1l3.7 6.4c-1.2 1.3-2.1 2.8-2.5 4.5-1.5 5.6 1.8 11.4 7.4 12.9.9.2 1.8.4 2.7.4 1.8 0 3.6-.5 5.2-1.4 2.4-1.4 4.2-3.7 4.9-6.4C101.9 106.6 98.6 100.8 93 99.3zM94.6 110.6c-.3 1.2-1.1 2.1-2.1 2.7s-2.3.8-3.4.4c-1.2-.3-2.1-1.1-2.7-2.1s-.8-2.3-.4-3.4c.3-1.2 1.1-2.1 2.1-2.7s2.3-.8 3.4-.4C93.8 105.8 95.2 108.2 94.6 110.6zM45.4 25.8c1.2-1.3 2.1-2.8 2.5-4.5 1.5-5.6-1.8-11.4-7.4-12.9-2.7-.7-5.5-.4-8 1-2.4 1.4-4.2 3.7-4.9 6.4-1.5 5.6 1.8 11.4 7.4 12.9.9.2 1.8.4 2.7.4.8 0 1.6-.1 2.4-.3l3.7 6.4c.6 1 1.6 1.5 2.6 1.5.5 0 1-.1 1.5-.4 1.4-.8 1.9-2.7 1.1-4.1L45.4 25.8zM36.6 22.9c-2.4-.6-3.8-3.1-3.2-5.5.3-1.2 1.1-2.1 2.1-2.7 1-.6 2.3-.8 3.4-.4 1.2.3 2.1 1.1 2.7 2.1.6 1 .8 2.3.4 3.4-.3 1.2-1.1 2.1-2.1 2.7C39 23 37.7 23.2 36.6 22.9zM29 67c1.7 0 3-1.3 3-3s-1.3-3-3-3h-7.4c-.5-1.6-1.4-3.1-2.6-4.4-4.1-4.1-10.8-4.1-14.8 0l0 0C0 60.7 0 67.3 4.1 71.4c2 2 4.7 3.1 7.4 3.1s5.4-1 7.4-3.1c1.3-1.3 2.2-2.8 2.6-4.4H29zM14.7 67.2c-1.8 1.8-4.6 1.8-6.4 0s-1.8-4.6 0-6.4c1.8-1.8 4.6-1.8 6.4 0C16.4 62.6 16.4 65.4 14.7 67.2zM80 36.3c.5.3 1 .4 1.5.4 1 0 2-.5 2.6-1.5l3.7-6.4c.8.2 1.6.3 2.4.3.9 0 1.8-.1 2.7-.4 5.6-1.5 8.9-7.3 7.4-12.9-.7-2.7-2.5-5-4.9-6.4s-5.3-1.8-8-1c-5.6 1.5-8.9 7.3-7.4 12.9.5 1.7 1.3 3.2 2.5 4.5l-3.7 6.4C78.1 33.6 78.6 35.5 80 36.3zM86.4 16.3c.6-1 1.6-1.8 2.7-2.1.4-.1.8-.2 1.2-.2.8 0 1.5.2 2.2.6 1 .6 1.8 1.6 2.1 2.7.6 2.4-.8 4.9-3.2 5.5C90.3 23.2 89 23 88 22.4s-1.8-1.6-2.1-2.7l0 0C85.6 18.5 85.8 17.3 86.4 16.3zM48 91.7c-1.4-.8-3.3-.3-4.1 1.1l-3.7 6.4c-1.7-.4-3.4-.4-5.2.1-5.6 1.5-8.9 7.3-7.4 12.9.7 2.7 2.5 5 4.9 6.4 1.6.9 3.4 1.4 5.2 1.4.9 0 1.8-.1 2.7-.4 5.6-1.5 8.9-7.3 7.4-12.9-.5-1.7-1.3-3.2-2.5-4.5l3.7-6.4C49.9 94.4 49.4 92.5 48 91.7zM41.6 111.7c-.6 1-1.6 1.8-2.7 2.1-1.2.3-2.4.2-3.4-.4s-1.8-1.6-2.1-2.7l0 0c-.6-2.4.8-4.9 3.2-5.5.4-.1.8-.2 1.2-.2.8 0 1.5.2 2.2.6 1 .6 1.8 1.6 2.1 2.7C42.4 109.5 42.2 110.7 41.6 111.7z"/></svg>