<svg xmlns="http://www.w3.org/2000/svg"  viewBox="0 0 128 128" width="64px" height="64px"><path fill="#fff" d="M64.1,4c0.1,0,0.2,0,0.4,0c0.1,0,0.2,0,0.4,0c21.8,0,40.4,13.9,47.3,33.4c1.8,5.2,7.7,37.1,7.7,37.1c0.7,2.1,0.1,4.4-1.4,6l-2.8,2.8c-1.1,1.1-1.7,2.6-1.7,4.2V102c0,4.4-3.6,8-8,8h-8c-5.5,0-10,4.5-10,10v7H77H64L64.1,4C64,4,64,4,64.1,4z"/><path fill="#444b54" d="M87.9 127c-1.7 0-3-1.3-3-3v-4c0-7.2 5.8-13 13-13h8c2.8 0 5-2.2 5-5V87.5c0-2.4.9-4.6 2.5-6.3l2.8-2.8c.8-.8 1-1.9.7-3 0-.1-.1-.2-.1-.3l-6.4-30.7c-2.9-14.1-11.7-25.8-24-32.2C80.4 9.1 73.8 7.4 67 7v102c0 1.7-1.3 3-3 3s-3-1.3-3-3V4c0-.9.4-1.7 1.1-2.3C62.7 1.2 63.4 1 64.2 1c8.7-.1 17.4 1.9 25 5.9 13.9 7.2 23.8 20.4 27.1 36.3l6.4 30.6c.9 3.1.1 6.5-2.2 8.8l-2.8 2.8c-.5.6-.8 1.3-.8 2.1V102c0 6.1-4.9 11-11 11h-8c-3.9 0-7 3.1-7 7v4C90.9 125.7 89.5 127 87.9 127zM64 4L64 4 64 4zM64 127c-.2 0-.4 0-.6-.1-.2 0-.4-.1-.6-.2-.2-.1-.3-.2-.5-.3-.2-.1-.3-.2-.5-.4-.6-.6-.9-1.3-.9-2.1 0-.2 0-.4.1-.6 0-.2.1-.4.2-.6.1-.2.2-.3.3-.5.1-.2.2-.3.4-.4s.3-.3.5-.4c.2-.1.3-.2.5-.3.2-.1.4-.1.6-.2.4-.1.8-.1 1.2 0 .2 0 .4.1.6.2.2.1.4.2.5.3.2.1.3.2.5.4.1.1.3.3.4.4.1.2.2.3.3.5.1.2.1.4.2.6 0 .2.1.4.1.6 0 .8-.3 1.6-.9 2.1-.1.1-.3.3-.5.4-.2.1-.3.2-.5.3-.2.1-.4.1-.6.2C64.4 127 64.2 127 64 127z"/><path fill="#fff" d="M47 12A7 7 0 1 0 47 26 7 7 0 1 0 47 12zM47 102A7 7 0 1 0 47 116 7 7 0 1 0 47 102zM12 57A7 7 0 1 0 12 71 7 7 0 1 0 12 57zM21 26A7 7 0 1 0 21 40 7 7 0 1 0 21 26zM21 88A7 7 0 1 0 21 102 7 7 0 1 0 21 88z"/><path fill="#71c2ff" d="M47 29c-5.5 0-10-4.5-10-10S41.5 9 47 9s10 4.5 10 10S52.5 29 47 29zM47 15c-2.2 0-4 1.8-4 4s1.8 4 4 4 4-1.8 4-4S49.2 15 47 15zM52 76H37c-.8 0-1.6.3-2.1.9l-9.3 9.3c-1.4-.7-3-1.1-4.6-1.1-5.5 0-10 4.5-10 10s4.5 10 10 10 10-4.5 10-10c0-1.7-.4-3.2-1.1-4.6l8.4-8.4H52c1.7 0 3-1.3 3-3S53.7 76 52 76zM21 99c-2.2 0-4-1.8-4-4s1.8-4 4-4 4 1.8 4 4S23.2 99 21 99zM52 61H21.5c-1.3-4.1-5.1-7-9.5-7C6.5 54 2 58.5 2 64s4.5 10 10 10c4.5 0 8.3-2.9 9.5-7H52c1.7 0 3-1.3 3-3S53.7 61 52 61zM12 68c-2.2 0-4-1.8-4-4s1.8-4 4-4 4 1.8 4 4S14.2 68 12 68zM21 43c1.7 0 3.2-.4 4.6-1.1l9.3 9.3c.6.6 1.3.9 2.1.9h15c1.7 0 3-1.3 3-3s-1.3-3-3-3H38.2l-8.4-8.4c.7-1.4 1.1-3 1.1-4.6 0-5.5-4.5-10-10-10s-10 4.5-10 10S15.5 43 21 43zM21 29c2.2 0 4 1.8 4 4s-1.8 4-4 4-4-1.8-4-4S18.8 29 21 29z"/><g><path fill="#71c2ff" d="M47,119c-5.5,0-10-4.5-10-10s4.5-10,10-10s10,4.5,10,10S52.5,119,47,119z M47,105c-2.2,0-4,1.8-4,4s1.8,4,4,4s4-1.8,4-4S49.2,105,47,105z"/></g></svg>