<svg xmlns="http://www.w3.org/2000/svg"  viewBox="0 0 128 128" width="64px" height="64px"><path fill="#b7a59f" d="M47.7,54.5c-0.6,0.6-1.1,1.2-1.5,1.8c-3.3,4.4-8.1,7.3-13.4,8.8c-3.7,1-7.2,3-10.1,5.9 c-7,7-7.3,18.2-1.4,26.4c9.6,13.4,24.9,18.7,35.7,8c2.8-2.8,4.8-6.2,5.9-9.9c1.6-5.4,4.5-10.4,9-13.8c0.6-0.5,1.2-1,1.8-1.6 c8.2-8.2,3-19.2-7.2-26.6C60.6,49.1,52.6,49.4,47.7,54.5"/><path fill="#736967" d="M51.7,69.2c-3.9,0-7,3.1-7,7s3.1,7,7,7s7-3.1,7-7C58.7,72.3,55.6,69.2,51.7,69.2"/><path fill="#454b54" d="M43.7,114L43.7,114c-8.9,0-18.2-5.6-24.9-14.9c-6.9-9.6-6.2-22.3,1.7-30.2c3.2-3.2,7.1-5.5,11.4-6.7 c3.6-1,8.5-3.1,11.8-7.7c0.6-0.8,1.2-1.5,1.8-2.1c3.1-3.2,7.4-5,11.9-5c3.8,0,7.6,1.3,10.7,3.6c7.4,5.5,11.9,12.3,12.4,18.7 c0.3,4.6-1.3,8.9-4.9,12.5c-0.7,0.7-1.4,1.3-2.1,1.8c-3.7,2.8-6.4,7-8,12.3c-1.2,4.2-3.5,8.1-6.6,11.2C54.7,111.7,49.4,114,43.7,114 z M57.5,53.4c-2.9,0-5.7,1.1-7.6,3.1c-0.5,0.5-0.9,1-1.3,1.5c-3.4,4.7-8.6,8.1-15,9.9c-3.3,0.9-6.4,2.7-8.8,5.1 c-5.8,5.8-6.3,15.3-1.1,22.5c5.6,7.8,13.1,12.4,20,12.4c4.1,0,7.9-1.6,11.1-4.8c2.4-2.4,4.1-5.3,5.1-8.6C61.8,88,65.3,82.7,70,79.1 c0.5-0.4,1-0.8,1.5-1.3c2.3-2.3,3.4-4.9,3.2-7.8c-0.3-4.6-4.1-10-10-14.3C62.5,54.3,60,53.4,57.5,53.4z"/><path fill="#fff" d="M54.1 47.1H100.5V54.1H54.1z" transform="rotate(-45.001 77.3 50.634)"/><path fill="#b7a59f" d="M108.6,27.6l-9.1,8.1c-1.2,1.1-3,1-4.1-0.1l-3.1-3.1c-1.1-1.1-1.2-2.9-0.1-4.1l8.1-9.1 c1.1-1.3,3.1-1.3,4.4-0.1l4,4C109.9,24.4,109.8,26.4,108.6,27.6z"/><path fill="#454b54" d="M97.5,39.5c-1.6,0-3.1-0.6-4.2-1.8l-3.1-3.1c-2.3-2.3-2.4-5.9-0.2-8.2l8.1-9.1c1.1-1.3,2.8-2,4.5-2 c1.6,0,3.1,0.6,4.2,1.8l4,4c1.2,1.2,1.8,2.8,1.8,4.4s-0.8,3.2-2,4.3l-9.1,8.1C100.4,38.9,99,39.5,97.5,39.5z M102.5,21.3l-8.1,9.1 l3.1,3.1l0,0l9.1-8.1L102.5,21.3z"/><path fill="#454b54" d="M63.4 72.4c-.8 0-1.5-.3-2.1-.9l-4.9-4.9c-1.2-1.2-1.2-3.1 0-4.2l32.8-32.8c1.2-1.2 3.1-1.2 4.2 0l4.9 4.9c1.2 1.2 1.2 3.1 0 4.2L65.5 71.6C64.9 72.2 64.2 72.4 63.4 72.4zM62.7 64.5l.7.7L92 36.6l-.7-.7L62.7 64.5zM45.4 94c-.8 0-1.5-.3-2.1-.9l-8.5-8.5c-1.2-1.2-1.2-3.1 0-4.2 1.2-1.2 3.1-1.2 4.2 0l8.5 8.5c1.2 1.2 1.2 3.1 0 4.2C46.9 93.7 46.1 94 45.4 94z"/></svg>