<svg xmlns="http://www.w3.org/2000/svg"  viewBox="0 0 128 128" width="64px" height="64px"><circle cx="50" cy="14" r="10" fill="#fff"/><circle cx="14" cy="114" r="10" fill="#fff"/><path fill="#444b54" d="M50,1c-4.1,0-7.8,1.9-10.3,5.1c-1.8,2.3-2.7,5-2.7,7.9c0,3,1,5.8,2.8,8l-16,20.1c-3.8,4.8-3.8,11.4,0,16.2 l12.1,15.1c2,2.6,2,6.2,0,8.7l-16.1,20.2c-1.7-0.9-3.7-1.4-5.8-1.4c-4.1,0-7.8,1.9-10.3,5.1c-1.8,2.3-2.7,5-2.7,7.9 c0,7.2,5.8,13,13,13s13-5.8,13-13c0-2.9-1-5.6-2.6-7.8l16.2-20.3c3.8-4.8,3.8-11.4,0-16.2L28.5,54.6c-2-2.6-2-6.2,0-8.7l16-20.1 C46.2,26.5,48,27,50,27c7.2,0,13-5.8,13-13S57.2,1,50,1z M14,121c-3.9,0-7-3.1-7-7c0-1.6,0.5-3,1.4-4.3c1.3-1.7,3.4-2.7,5.6-2.7 c3.9,0,7,3.1,7,7S17.9,121,14,121z M50,21c-3.9,0-7-3.1-7-7c0-1.6,0.5-3,1.4-4.3C45.8,8,47.8,7,50,7c3.9,0,7,3.1,7,7S53.9,21,50,21 z"/><path fill="#a5aa6a" d="M124,64v22l-31,24H69l-1-0.4c-2.4-0.9-4-3.1-4-5.6V82.7c0-7.9,4-15.4,10.6-19.7l0,0l1.4-2L124,64z"/><path fill="#7b7c3c" d="M124,86h-21c-5.5,0-10,4.5-10,10v14h31V86z"/><circle cx="74" cy="86" r="10" fill="#fff"/><path fill="#fff" d="M124,64l-49.4-1l11.8-27.2c1.6-3.6,5-5.8,8.5-5.8h29V64z"/><path fill="#e4e4e7" d="M74.6,62H114V42c0-1.7-1.3-3-3-3H85.1L74.6,62z"/><rect width="20" height="14" x="70" y="110" fill="#444b54"/><path fill="#444b54" d="M124,107H70c-1.7,0-3-1.3-3-3v-7.1c2,1.3,4.4,2.1,7,2.1c7.2,0,13-5.8,13-13s-5.8-13-13-13s-13,5.8-13,13v18	c0,3.9,2.5,7.2,6,8.5V124c0,1.7,1.3,3,3,3h20c1.7,0,3-1.3,3-3v-11h31c1.7,0,3-1.3,3-3S125.7,107,124,107z M74,79c3.9,0,7,3.1,7,7	s-3.1,7-7,7s-7-3.1-7-7S70.1,79,74,79z M87,121H73v-8h14V121z"/><path fill="#444b54" d="M124,60.9c-15.2,0-31.7-1.2-44.2-2.4l9.4-20.7c1.1-2.4,3.4-4,6-4.1l1,0c11.1-0.6,16.9-0.8,27.8-0.8	c1.7,0,3-1.3,3-3s-1.3-3-3-3c-11,0-17.2,0.3-28.1,0.8l-1,0c-4.9,0.2-9.2,3.2-11.2,7.6L73.5,57.9c-3.7-0.4-6.8-0.7-9.1-1	c-1.6-0.2-3.1,1-3.3,2.6s1,3.1,2.6,3.3c10.3,1.2,36.9,4,60.3,4c1.7,0,3-1.3,3-3S125.7,60.9,124,60.9z"/></svg>