<svg xmlns="http://www.w3.org/2000/svg"  viewBox="0 0 128 128" width="64px" height="64px"><path fill="#FFF" d="M109,117.9H19c-5,0-9-4-9-9V26.1c0-5,4-9,9-9h90c5,0,9,4,9,9v82.8C118,113.9,114,117.9,109,117.9z"/><path fill="#F37778" d="M10,46.8V26.1c0-5,4-9,9-9h89.6c5.1,0,9.2,4.3,9,9.4l-0.5,20.3H10z"/><path fill="#454B54" d="M117.1,49.8H10c-1.7,0-3-1.3-3-3s1.3-3,3-3h107.1c1.7,0,3,1.3,3,3S118.8,49.8,117.1,49.8z"/><path fill="#E4DAEC" d="M32.5 57.10000000000001A11.3 11.3 0 1 0 32.5 79.7 11.3 11.3 0 1 0 32.5 57.10000000000001zM64 57.10000000000001A11.3 11.3 0 1 0 64 79.7 11.3 11.3 0 1 0 64 57.10000000000001zM95.5 57.10000000000001A11.3 11.3 0 1 0 95.5 79.7 11.3 11.3 0 1 0 95.5 57.10000000000001zM64 86.8A11.3 11.3 0 1 0 64 109.39999999999999 11.3 11.3 0 1 0 64 86.8z"/><path fill="#B8ABC9" d="M95.5 86.8A11.3 11.3 0 1 0 95.5 109.39999999999999A11.3 11.3 0 1 0 95.5 86.8Z"/><path fill="#E4DAEC" d="M32.5 86.8A11.3 11.3 0 1 0 32.5 109.39999999999999A11.3 11.3 0 1 0 32.5 86.8Z"/><path fill="#454B54" d="M109,120.9H19c-6.6,0-12-5.4-12-12V26.1c0-6.6,5.4-12,12-12h90c6.6,0,12,5.4,12,12v82.8C121,115.5,115.6,120.9,109,120.9z M19,20.1c-3.3,0-6,2.7-6,6v82.8c0,3.3,2.7,6,6,6h90c3.3,0,6-2.7,6-6V26.1c0-3.3-2.7-6-6-6H19z"/><path fill="#454B54" d="M37 28.9c-1.7 0-3-1.3-3-3v-18c0-1.7 1.3-3 3-3s3 1.3 3 3v18C40 27.5 38.7 28.9 37 28.9zM91 28.9c-1.7 0-3-1.3-3-3v-18c0-1.7 1.3-3 3-3s3 1.3 3 3v18C94 27.5 92.7 28.9 91 28.9z"/></svg>