<?xml version="1.0" encoding="UTF-8"?>
<svg xmlns="http://www.w3.org/2000/svg" xmlns:xlink="http://www.w3.org/1999/xlink" viewBox="0 0 64 64" width="64px" height="64px">
<g id="surface28440424">
<path style=" stroke:none;fill-rule:nonzero;fill:rgb(97.254902%,89.019608%,56.470591%);fill-opacity:1;" d="M 43.550781 61.5 C 42.351562 46.300781 46.300781 30.449219 54.449219 17.601562 L 56 15.148438 C 56.800781 13.851562 58.851562 14.199219 59.199219 15.699219 L 59.851562 18.550781 C 63.148438 33.449219 62.101562 47.648438 55.851562 61.5 L 43.550781 61.5 "/>
<path style=" stroke:none;fill-rule:nonzero;fill:rgb(100%,100%,100%);fill-opacity:1;" d="M 59.851562 18.550781 L 59.199219 15.699219 C 58.851562 14.199219 56.800781 13.851562 56 15.148438 L 54.449219 17.601562 C 53.25 19.449219 52.148438 21.398438 51.148438 23.398438 C 52.898438 30.550781 56.898438 36.050781 61.601562 37.699219 C 61.898438 31.449219 61.300781 25.050781 59.851562 18.550781 "/>
<path style=" stroke:none;fill-rule:nonzero;fill:rgb(87.843138%,80.392158%,51.372552%);fill-opacity:1;" d="M 51.148438 23.449219 C 45.300781 34.949219 42.550781 48.25 43.5 61.101562 L 43.5 61.148438 C 43.5 61.199219 43.5 61.199219 43.5 61.25 L 52.601562 61.25 C 55.148438 50.648438 55.398438 39.800781 53.351562 29.300781 C 52.449219 27.699219 51.699219 25.648438 51.148438 23.449219 "/>
<path style=" stroke:none;fill-rule:nonzero;fill:rgb(90.196079%,90.588236%,90.588236%);fill-opacity:1;" d="M 51.648438 22.5 C 51.5 22.800781 51.300781 23.148438 51.148438 23.449219 C 51.699219 25.648438 52.449219 27.699219 53.398438 29.550781 C 52.949219 27.148438 52.351562 24.800781 51.648438 22.5 "/>
<path style=" stroke:none;fill-rule:nonzero;fill:rgb(27.058825%,29.411766%,32.941177%);fill-opacity:1;" d="M 43.949219 62.898438 C 43.25 62.898438 42.648438 62.449219 42.5 61.75 L 42.351562 61.101562 C 42.351562 61 42.300781 60.949219 42.300781 60.851562 C 41.050781 45.25 44.851562 30 53.199219 16.75 L 54.648438 14.398438 C 55.25 13.449219 56.300781 12.851562 57.449219 12.851562 C 59 12.851562 60.351562 13.949219 60.699219 15.449219 L 61.300781 18.148438 C 64.851562 34.101562 63.601562 47.949219 57.398438 61.648438 C 57.351562 61.75 57.300781 61.800781 57.25 61.898438 C 57 62.25 56.601562 62.851562 55.800781 62.851562 Z M 57.449219 15.898438 C 57.300781 15.898438 57.25 16 57.199219 16.050781 L 55.75 18.398438 C 47.851562 30.898438 44.25 45.199219 45.25 59.949219 L 54.949219 59.949219 C 60.648438 47.050781 61.75 34 58.398438 18.898438 L 57.800781 16.199219 C 57.75 15.949219 57.550781 15.898438 57.449219 15.898438 Z M 57.449219 15.898438 "/>
<path style=" stroke:none;fill-rule:nonzero;fill:rgb(89.411765%,79.215688%,65.098041%);fill-opacity:1;" d="M 35.648438 61.398438 C 31.5 45.5 32.699219 28.699219 39 13.449219 L 40.199219 10.550781 C 40.851562 9 43.101562 9 43.75 10.550781 L 44.949219 13.449219 C 51.300781 28.699219 52.449219 45.449219 48.351562 61.398438 Z M 35.648438 61.398438 "/>
<path style=" stroke:none;fill-rule:nonzero;fill:rgb(55.686277%,68.627453%,60.000002%);fill-opacity:1;" d="M 35.648438 61.398438 C 31.5 45.5 32.699219 28.699219 39 13.449219 L 40.199219 10.550781 C 40.851562 9 43.101562 9 43.75 10.550781 L 44.949219 13.449219 C 51.300781 28.699219 52.449219 45.449219 48.351562 61.398438 Z M 35.648438 61.398438 "/>
<path style=" stroke:none;fill-rule:nonzero;fill:rgb(100%,100%,100%);fill-opacity:1;" d="M 33.25 39.949219 L 50.398438 49.851562 C 50.449219 49.550781 50.449219 49.300781 50.5 49 L 33.699219 34 C 33.449219 35.949219 33.300781 37.949219 33.25 39.949219 Z M 50.300781 50.851562 L 33.25 44.5 C 33.300781 46 33.351562 47.449219 33.5 48.949219 L 50.25 51.5 C 50.25 51.25 50.300781 51.050781 50.300781 50.851562 Z M 50.648438 38.25 C 50.148438 29.800781 48.25 21.449219 44.949219 13.5 L 43.75 10.601562 C 43.101562 9.050781 40.851562 9.050781 40.199219 10.601562 L 39 13.449219 C 38.449219 14.75 37.949219 16.101562 37.5 17.449219 C 37.699219 18.550781 37.949219 19.699219 38.25 20.800781 C 40.449219 29.199219 45.351562 35.648438 50.648438 38.25 Z M 50.648438 38.25 "/>
<path style=" stroke:none;fill-rule:nonzero;fill:rgb(27.058825%,29.411766%,32.941177%);fill-opacity:1;" d="M 60.851562 63 C 60.449219 63 60.050781 62.851562 59.800781 62.550781 C 59.5 62.25 59.351562 61.898438 59.351562 61.5 C 59.351562 61.101562 59.5 60.699219 59.800781 60.449219 C 60.351562 59.898438 61.351562 59.898438 61.898438 60.449219 C 62.199219 60.75 62.351562 61.101562 62.351562 61.5 C 62.351562 61.898438 62.199219 62.300781 61.898438 62.550781 C 61.648438 62.851562 61.25 63 60.851562 63 Z M 26.648438 36.300781 C 26.5 36.300781 26.351562 36.25 26.148438 36.199219 C 25.351562 35.949219 24.949219 35.101562 25.199219 34.300781 C 29.351562 22.050781 21.050781 18.300781 20.699219 18.148438 C 19.949219 17.800781 19.601562 16.949219 19.898438 16.199219 C 20.199219 15.449219 21.101562 15.101562 21.851562 15.398438 C 21.949219 15.449219 33.101562 20.300781 28.050781 35.25 C 27.898438 35.898438 27.300781 36.300781 26.648438 36.300781 Z M 26.648438 36.300781 "/>
<path style=" stroke:none;fill-rule:nonzero;fill:rgb(89.411765%,79.215688%,65.098041%);fill-opacity:1;" d="M 8.351562 61.398438 C 8.351562 61.398438 -5.601562 37.648438 16.300781 17.800781 C 16.300781 17.800781 -5.148438 33.5 15.5 61.449219 Z M 8.351562 61.398438 "/>
<path style=" stroke:none;fill-rule:nonzero;fill:rgb(27.058825%,29.411766%,32.941177%);fill-opacity:1;" d="M 55.851562 60 L 50.25 60 C 53.949219 44.199219 52.648438 27.949219 46.351562 12.898438 L 45.148438 10 C 44.601562 8.75 43.398438 7.898438 42 7.898438 C 40.601562 7.898438 39.351562 8.699219 38.851562 10 L 37.648438 12.898438 C 31.351562 27.949219 30.050781 44.199219 33.75 60 L 16.300781 60 C 8.449219 49.101562 6.199219 38.949219 9.550781 29.851562 C 10.550781 27.148438 11.898438 24.949219 13.199219 23.199219 C 14.449219 21.75 15.800781 20.300781 17.351562 18.949219 C 17.949219 18.398438 18 17.5 17.5 16.898438 C 17 16.300781 16.101562 16.148438 15.449219 16.648438 C 15.25 16.800781 12.898438 18.550781 10.5 21.851562 C 3.101562 31 2.050781 40.449219 2.648438 47.199219 C 3.148438 52.851562 4.800781 57.351562 5.949219 59.898438 L 2 59.898438 C 1.148438 59.898438 0.5 60.550781 0.5 61.398438 C 0.5 62.25 1.148438 62.898438 2 62.898438 L 8.351562 62.898438 C 8.398438 62.898438 8.398438 62.898438 8.449219 62.898438 C 8.5 62.898438 8.550781 62.898438 8.601562 62.898438 C 8.648438 62.898438 8.699219 62.898438 8.75 62.851562 C 8.800781 62.851562 8.851562 62.800781 8.898438 62.800781 C 8.949219 62.800781 9 62.75 9.050781 62.75 C 9.101562 62.75 9.101562 62.75 9.148438 62.699219 C 9.148438 62.699219 9.148438 62.699219 9.199219 62.648438 C 9.25 62.601562 9.300781 62.601562 9.351562 62.550781 C 9.398438 62.5 9.398438 62.5 9.449219 62.449219 C 9.5 62.398438 9.5 62.398438 9.550781 62.351562 C 9.601562 62.300781 9.601562 62.300781 9.648438 62.25 C 9.699219 62.199219 9.699219 62.148438 9.699219 62.148438 C 9.699219 62.101562 9.75 62.050781 9.75 62 C 9.75 61.949219 9.800781 61.898438 9.800781 61.851562 C 9.800781 61.800781 9.851562 61.75 9.851562 61.699219 C 9.851562 61.648438 9.851562 61.601562 9.851562 61.550781 C 9.851562 61.5 9.851562 61.449219 9.851562 61.398438 L 9.851562 61.351562 C 9.851562 61.300781 9.851562 61.300781 9.851562 61.25 C 9.851562 61.199219 9.851562 61.148438 9.851562 61.101562 C 9.851562 61.050781 9.851562 61 9.800781 60.949219 C 9.800781 60.898438 9.75 60.851562 9.75 60.800781 C 9.75 60.75 9.699219 60.699219 9.699219 60.648438 C 9.699219 60.601562 9.699219 60.601562 9.648438 60.550781 C 9.601562 60.5 6.300781 54.800781 5.601562 46.800781 C 5.5 45.550781 5.449219 44.300781 5.449219 43.101562 C 6.5 49.300781 9.449219 55.699219 14.300781 62.25 C 14.601562 62.648438 15.050781 62.851562 15.5 62.851562 C 15.550781 62.851562 15.601562 62.851562 15.648438 62.851562 C 15.699219 62.851562 15.75 62.851562 15.800781 62.851562 L 55.800781 62.851562 C 56.648438 62.851562 57.300781 62.199219 57.300781 61.351562 C 57.300781 60.5 56.699219 60 55.851562 60 Z M 47.199219 59.898438 L 43.601562 59.898438 L 43.601562 33.851562 C 43.601562 33 42.949219 32.351562 42.101562 32.351562 C 41.25 32.351562 40.601562 33 40.601562 33.851562 L 40.601562 59.898438 L 36.800781 59.898438 C 33.050781 44.550781 34.300781 28.699219 40.398438 14.050781 L 41.601562 11.148438 C 41.699219 10.949219 41.898438 10.898438 42 10.898438 C 42.101562 10.898438 42.300781 10.949219 42.398438 11.148438 L 43.601562 14.050781 C 49.699219 28.699219 50.949219 44.550781 47.199219 59.898438 Z M 47.199219 59.898438 "/>
<path style=" stroke:none;fill-rule:nonzero;fill:rgb(27.058825%,29.411766%,32.941177%);fill-opacity:1;" d="M 31.351562 17.148438 C 30.851562 17.148438 30.351562 16.898438 30.101562 16.449219 C 27.398438 12.101562 22.5 14.199219 22.300781 14.300781 C 21.550781 14.648438 20.648438 14.300781 20.300781 13.550781 C 19.949219 12.800781 20.300781 11.898438 21.050781 11.550781 C 23.601562 10.398438 29.351562 9.648438 32.601562 14.851562 C 33.050781 15.550781 32.800781 16.5 32.101562 16.898438 C 31.898438 17.050781 31.601562 17.148438 31.351562 17.148438 Z M 16.148438 12.75 C 15.75 12.75 15.351562 12.601562 15.050781 12.300781 C 14.898438 12.148438 11.449219 8.648438 6.148438 11.949219 C 5.449219 12.398438 4.5 12.148438 4.101562 11.449219 C 3.699219 10.75 3.898438 9.800781 4.601562 9.398438 C 10.550781 5.75 15.5 8.351562 17.300781 10.300781 C 17.851562 10.898438 17.851562 11.851562 17.199219 12.398438 C 16.851562 12.648438 16.5 12.75 16.148438 12.75 Z M 3.300781 24.300781 C 3.199219 24.300781 3.101562 24.300781 3 24.25 C 2.199219 24.101562 1.648438 23.300781 1.800781 22.5 C 3.050781 15.949219 8.851562 13.800781 11.699219 13.601562 C 12.550781 13.550781 13.25 14.148438 13.300781 15 C 13.351562 15.800781 12.75 16.550781 11.898438 16.601562 C 11.648438 16.601562 5.851562 17.148438 4.75 23.050781 C 4.648438 23.800781 4 24.300781 3.300781 24.300781 Z M 3.300781 24.300781 "/>
</g>
</svg>
