<svg xmlns="http://www.w3.org/2000/svg"  viewBox="0 0 128 128" width="64px" height="64px"><path fill="#fff" d="M20 102.1L30 118 98 118 108 102.1z"/><path fill="#5b5a64" d="M64,30l-6.7,52.2c-2,16-12.5,29.6-27.3,35.8l0,0h34V30z"/><path fill="#fff" d="M64 30L20 102.1 30 118 98 118 108 102.1 64 30"/><path fill="#f48884" d="M64 30L46.9 58 81.1 58 64 30"/><path fill="#5b5a64" d="M64,30l-6.7,52.2c-2,16-12.5,29.6-27.3,35.8h34V30"/><path fill="#cecfd0" d="M60.387,58h-1.845L53.3,81.7c-3.497,14.885-15.675,21.386-29.159,26.983L30,118 c14.8-6.2,25.3-19.8,27.3-35.8L60.387,58"/><path fill="#c6706d" d="M62.9 38.3L58.542 58 60.387 58 62.9 38.3"/><path fill="#454b54" d="M98,121H30c-1,0-2-0.5-2.5-1.4l-10-15.9c-0.9-1.4-0.5-3.3,0.9-4.1c1.4-0.9,3.3-0.5,4.1,0.9l9.2,14.5 h64.7l9.2-14.5c0.9-1.4,2.7-1.8,4.1-0.9s1.8,2.7,0.9,4.1l-10,15.9C100,120.5,99,121,98,121z"/><path fill="#454b54" d="M118,121c-1,0-2-0.5-2.6-1.4L64,35.7l-51.4,83.8c-0.9,1.4-2.7,1.9-4.1,1s-1.9-2.7-1-4.1l54-88 C62,27.5,63,27,64,27s2,0.5,2.6,1.4l54,88c0.9,1.4,0.4,3.3-1,4.1C119.1,120.9,118.5,121,118,121z"/></svg>