<svg xmlns="http://www.w3.org/2000/svg"  viewBox="0 0 128 128" width="64px" height="64px"><path fill="#fff" d="M87,68c0,12.7-10.3,23-23,23S41,80.7,41,68c0-2.8,0-20,0-20s13.1-3,23-3c8.6,0,19,5,23,12C87,57,87,63.9,87,68 z"/><path fill="#fff" d="M68.4,124C62,112.8,49.9,105.2,36,105.2h0c-13.9,0-26,7.6-32.4,18.9l0.1,3h64.6L68.4,124z"/><circle cx="36" cy="75.5" r="17.5" fill="#fff"/><path fill="#71c2ff" d="M36,95.9c-11.3,0-20.5-9.2-20.5-20.5c0-9.3,6.3-17.4,15.2-19.8c1.6-0.4,3.2,0.5,3.7,2.1 c0.4,1.6-0.5,3.2-2.1,3.7c-6.3,1.7-10.8,7.4-10.8,14c0,8,6.5,14.5,14.5,14.5c1.9,0,3.7-0.3,5.4-1c1.5-0.6,3.3,0.1,3.9,1.7 c0.6,1.5-0.1,3.3-1.7,3.9C41.2,95.4,38.6,95.9,36,95.9z"/><path fill="#71c2ff" d="M3.6,127c-0.5,0-1-0.1-1.5-0.4c-1.4-0.8-1.9-2.6-1.1-4.1c5.2-9.2,14-16.1,24.2-18.9c1.6-0.4,3.3,0.5,3.7,2.1 c0.4,1.6-0.5,3.3-2.1,3.7c-8.6,2.4-16.1,8.3-20.6,16.1C5.7,126.5,4.7,127,3.6,127z"/><path fill="#fff" d="M59.6,124c6.4-11.3,18.5-18.9,32.4-18.9h0c13.9,0,26,7.6,32.4,18.9l-0.1,3H59.7L59.6,124z"/><circle cx="92" cy="75.5" r="17.5" fill="#fff"/><path fill="#71c2ff" d="M92,95.9c-2.6,0-5.2-0.5-7.6-1.5c-1.5-0.6-2.3-2.4-1.7-3.9c0.6-1.5,2.4-2.3,3.9-1.7c1.7,0.7,3.5,1,5.4,1 c8,0,14.5-6.5,14.5-14.5c0-6.7-4.6-12.5-11.1-14.1c-1.6-0.4-2.6-2-2.2-3.6c0.4-1.6,2-2.6,3.6-2.2c9.3,2.2,15.7,10.4,15.7,19.9 C112.5,86.8,103.3,95.9,92,95.9z"/><path fill="#71c2ff" d="M124.4,127c-1,0-2.1-0.5-2.6-1.5c-4.4-7.8-11.9-13.7-20.6-16.1c-1.6-0.4-2.5-2.1-2.1-3.7 c0.4-1.6,2.1-2.5,3.7-2.1c10.1,2.8,18.9,9.7,24.2,18.9c0.8,1.4,0.3,3.3-1.1,4.1C125.4,126.9,124.9,127,124.4,127z"/><path fill="#fff" d="M101.1,123.6C93.7,110.7,79.9,102,64,102h0c-15.9,0-29.7,8.7-37.1,21.6L27,127h74L101.1,123.6z"/><path fill="#444b54" d="M26.9,127c-0.5,0-1-0.1-1.5-0.4c-1.4-0.8-1.9-2.6-1.1-4.1c8.1-14.3,23.3-23.1,39.7-23.1 c16.4,0,31.6,8.9,39.7,23.1c0.8,1.4,0.3,3.3-1.1,4.1c-1.4,0.8-3.3,0.3-4.1-1.1c-7-12.4-20.2-20.1-34.5-20.1 c-14.2,0-27.4,7.7-34.5,20.1C29,126.5,28,127,26.9,127z"/><path fill="#444b54" d="M90,56.8c-0.7-13.5-11.8-24.2-25.4-24.2H31c-1.1,0-2.1,0.6-2.6,1.6c-0.5,1-0.5,2.2,0.1,3.1 c2.7,4.1,5.9,7.8,9.5,10.9V68c0,14.3,11.7,26,26,26s26-11.7,26-26V57C90,56.9,90,56.8,90,56.8z M64,88c-11,0-20-9-20-20V52.8 c9.2,6.2,20,9.5,31.2,9.5c2.9,0,5.9-0.2,8.8-0.7V68C84,79,75,88,64,88z"/></svg>