<svg xmlns="http://www.w3.org/2000/svg"  viewBox="0 0 128 128" width="64px" height="64px"><path fill="#826774" d="M24,115c-2.8,0-5.4-1.7-6.5-4.3c-1.5-3.6,0.2-7.7,3.8-9.2l80-33.4c0.9-0.4,1.8-0.5,2.7-0.5c2.8,0,5.4,1.7,6.5,4.3c0.7,1.7,0.7,3.6,0,5.4c-0.7,1.7-2.1,3.1-3.8,3.8l-80,33.4C25.8,114.8,24.9,115,24,115z"/><path fill="#E8D8C4" d="M23.4 101.2A6.4 6.5 0 1 0 23.4 114.2A6.4 6.5 0 1 0 23.4 101.2Z"/><path fill="#454B54" d="M24 118c-4 0-7.7-2.4-9.2-6.1-2.1-5.1.3-11 5.4-13.1l13.3-5.5c1.5-.6 3.3.1 3.9 1.6.6 1.5-.1 3.3-1.6 3.9l-13.3 5.5c-2 .9-3 3.2-2.1 5.2.6 1.5 2.1 2.5 3.7 2.5.5 0 1-.1 1.5-.3l27-11.3c1.5-.6 3.3.1 3.9 1.6.6 1.5-.1 3.3-1.6 3.9l-27 11.3C26.6 117.7 25.3 118 24 118zM93.5 89.5c-1.2 0-2.3-.7-2.8-1.8-.6-1.5.1-3.3 1.6-3.9l13.2-5.5c1-.4 1.8-1.2 2.2-2.2.4-1 .4-2.1 0-3.1-.6-1.5-2.1-2.5-3.7-2.5-.5 0-1.1.1-1.5.3L75 82.4c-1.5.6-3.3-.1-3.9-1.6-.6-1.5.1-3.3 1.6-3.9l27.5-11.5c1.2-.5 2.5-.8 3.9-.8 4 0 7.7 2.4 9.2 6.1 1 2.5 1 5.2 0 7.6-1 2.5-2.9 4.4-5.4 5.4l-13.2 5.5C94.3 89.5 93.9 89.5 93.5 89.5z"/><path fill="#AA8F9D" d="M104,115c-0.9,0-1.8-0.2-2.7-0.5L21.3,81c-3.6-1.5-5.2-5.6-3.8-9.2c1.1-2.6,3.6-4.3,6.5-4.3c0.9,0,1.8,0.2,2.7,0.5l80,33.4c1.7,0.7,3.1,2.1,3.8,3.8c0.7,1.7,0.7,3.6,0,5.4C109.4,113.3,106.8,115,104,115z"/><path fill="#E8D8C4" d="M104.6 102A6.4 6.5 0 1 0 104.6 115A6.4 6.5 0 1 0 104.6 102Z"/><path fill="#454B54" d="M104,118c-1.3,0-2.6-0.3-3.9-0.8l-80-33.4c-2.5-1-4.4-3-5.4-5.4c-1-2.5-1-5.2,0-7.7c1.6-3.7,5.2-6.1,9.2-6.1c1.3,0,2.6,0.3,3.9,0.8l80,33.4c2.5,1,4.4,3,5.4,5.4c1,2.5,1,5.2,0,7.7C111.7,115.6,108,118,104,118z M24,70.6c-1.6,0-3.1,1-3.7,2.5c-0.4,1-0.4,2.1,0,3.1c0.4,1,1.2,1.8,2.2,2.2l80,33.4c0.5,0.2,1,0.3,1.5,0.3c1.6,0,3.1-1,3.7-2.5c0.4-1,0.4-2.1,0-3.1c-0.4-1-1.2-1.8-2.2-2.2l-80-33.4C25,70.7,24.5,70.6,24,70.6z"/><g><path fill="#F8E390" d="M87.3,61.9L87.3,61.9c0,0-0.7-1.8-1.2-2.5L74,33l-5,8L59,23L42.1,58.9c-0.5,0.9-1,1.9-1.4,2.9l0,0C39.6,64.7,39,67.8,39,71c0,13.8,11.2,25,25,25s25-11.2,25-25C89,67.8,88.4,64.7,87.3,61.9z"/><path fill="#EE7778" d="M64,86c-12.1,0-22.2-8.6-24.5-20c-0.3,1.6-0.5,3.3-0.5,5c0,13.8,11.2,25,25,25s25-11.2,25-25c0-1.7-0.2-3.4-0.5-5C86.2,77.4,76.1,86,64,86z"/><path fill="#FFF" d="M64,86c-6.9,0-12.5-5.6-12.5-12.5c0-1.5,0.3-3,0.8-4.5c0.3-0.6,0.5-1.2,0.7-1.4l0.2-0.4l0.8-1.8l4.7,7.5l10.2-18.3l5.8,12.3l0.3,0.5c0.2,0.4,0.5,0.9,0.7,1.4c0.6,1.5,0.9,3,0.9,4.6C76.5,80.4,70.9,86,64,86z"/><path fill="#454B54" d="M64,99c-15.4,0-28-12.6-28-28c0-3.5,0.7-7,2-10.3c0.4-1.1,0.9-2.1,1.5-3.1l16.9-35.8c0.5-1,1.5-1.7,2.6-1.7c1.1,0,2.2,0.6,2.7,1.5l7.5,13.6l2.3-3.7c0.6-0.9,1.6-1.5,2.7-1.4c1.1,0.1,2.1,0.7,2.5,1.7L88.8,58c0.4,0.7,0.9,1.8,1.1,2.4c0.1,0.2,0.3,0.5,0.3,0.8c1.2,3.1,1.8,6.4,1.8,9.8C92,86.4,79.4,99,64,99z M59.2,29.6L44.8,60.2c0,0.1-0.1,0.1-0.1,0.2c-0.4,0.8-0.8,1.6-1.2,2.5c-1,2.6-1.5,5.3-1.5,8.1c0,12.1,9.9,22,22,22s22-9.9,22-22c0-2.8-0.5-5.4-1.5-8c0,0,0-0.1,0-0.1c-0.3-0.7-0.8-1.7-1-2.1c0,0,0-0.1-0.1-0.1l-9.8-21.3l-2.1,3.3C71,43.5,70,44,68.9,44c-1.1,0-2-0.6-2.5-1.5L59.2,29.6z"/></g></svg>