<svg xmlns="http://www.w3.org/2000/svg"  viewBox="0 0 128 128" width="64px" height="64px"><path fill="#fff0b3" d="M15.2 113L15.2 113c-6.4 0-11.4-5.6-10.7-11.9l.9-8.4C5.9 87.1 10.5 83 16 83h2.3M89.7 83H92c5.5 0 10.2 4.2 10.7 9.7l.9 8.4c.7 6.4-4.3 11.9-10.7 11.9l0 0"/><path fill="#adf9d2" d="M82.9,124H25.1c-5.9,0-10.6-5.1-9.9-11l5.7-54.1C22.6,41.9,36.9,29,54,29l0,0c17.1,0,31.4,12.9,33.1,29.8l5.7,54.1C93.5,118.9,88.8,124,82.9,124z"/><path fill="#6dc289" d="M92.8,113l-5.2-49.1c-0.3-2.5-2.2-4.7-4.7-5c-3.6-0.5-6.6,2.5-6.2,6l0,0C79.5,91.1,58.9,114,32.5,114h-7.2c-2.6,0-4.9,1.9-5.2,4.5c-0.3,3,2.1,5.5,5,5.5h46.8h11c0.7,0,1.5-0.1,2.2-0.2s1.4-0.4,2-0.7c0.6-0.3,1.2-0.6,1.8-1c0.3-0.2,0.5-0.4,0.8-0.6l0,0c1-0.9,1.8-2,2.4-3.3c0.3-0.6,0.5-1.3,0.7-2c0.1-0.3,0.1-0.7,0.2-1c0-0.4,0.1-0.7,0.1-1.1S92.9,113.3,92.8,113z"/><path fill="#fff" d="M29.3,114l1.4-13.6C32,88.4,42,79,54,79s21.9,9,23.2,20.9l1.5,14.1H29.3z"/><path fill="#444b54" d="M102.9 121h-9.1c1-1.6 1.7-3.5 1.9-5.4 2.8-.6 5.4-2.1 7.3-4.2 2.6-2.9 3.9-6.8 3.5-10.7l-.9-8.4C105 85.4 99.3 80.2 92.4 80l-2.3-21.5C88.2 40 72.6 26 54 26c-1.7 0-3 1.3-3 3s1.3 3 3 3c15.6 0 28.5 11.7 30.2 27.1l5.7 54.1c.2 2-.4 3.9-1.8 5.4-1.3 1.5-3.2 2.3-5.2 2.3H25.1c-2 0-3.9-.8-5.2-2.3s-2-3.4-1.8-5.4l5.7-54.1c.2-1.9.6-3.8 1.1-5.6.5-1.6-.4-3.3-2-3.7-1.6-.5-3.3.4-3.7 2-.7 2.2-1.1 4.4-1.3 6.7L15.6 80C8.7 80.2 3 85.4 2.3 92.3l-.9 8.4c-.4 3.9.9 7.8 3.5 10.7 1.9 2.2 4.5 3.6 7.3 4.2.3 2.6 1.4 5.1 3.2 7.1 2.5 2.7 6 4.3 9.7 4.3h57.8 20c1.7 0 3-1.3 3-3S104.5 121 102.9 121zM9.4 107.4c-1.5-1.7-2.2-3.8-2-6L8.3 93c.4-3.6 3.2-6.4 6.7-6.9l-2.5 23.5C11.3 109.1 10.2 108.3 9.4 107.4zM99.7 92.9l.9 8.4c.2 2.2-.5 4.4-2 6-.9 1-2 1.7-3.1 2.1L93 86C96.5 86.5 99.3 89.3 99.7 92.9zM117.9 127c-.2 0-.4 0-.6-.1-.2 0-.4-.1-.6-.2s-.4-.2-.5-.3c-.2-.1-.3-.2-.5-.4-.6-.6-.9-1.3-.9-2.1 0-.2 0-.4.1-.6 0-.2.1-.4.2-.6s.2-.3.3-.5c.1-.2.2-.3.4-.5.1-.1.3-.3.5-.4s.3-.2.5-.3c.2-.1.4-.1.6-.2 1-.2 2 .1 2.7.8.1.1.3.3.4.5s.2.3.3.5c.1.2.1.4.2.6 0 .2.1.4.1.6s0 .4-.1.6c0 .2-.1.4-.2.6s-.2.4-.3.5c-.1.2-.2.3-.4.4-.1.1-.3.3-.5.4s-.3.2-.5.3c-.2.1-.4.1-.6.2C118.3 127 118.1 127 117.9 127z"/><path fill="#6dc289" d="M69,62H49c-1.7,0-3-1.3-3-3s1.3-3,3-3h20c1.7,0,3,1.3,3,3S70.7,62,69,62z"/><path fill="#444b54" d="M78.4 114c-1.5 0-2.8-1.1-3-2.7l-1.2-11.1C73.1 89.8 64.4 82 54 82l0 0c-10.4 0-19.1 8.1-20.3 18.7-.2 1.6-1.6 2.8-3.3 2.7-1.6-.2-2.8-1.6-2.7-3.3C29.2 86.4 40.5 76 54 76l0 0c13.5 0 24.7 10.1 26.1 23.6l1.2 11.1c.2 1.6-1 3.1-2.7 3.3C78.6 114 78.5 114 78.4 114zM29.6 114c-.2 0-.4 0-.6-.1s-.4-.1-.6-.2-.4-.2-.5-.3-.3-.2-.5-.4c-.6-.6-.9-1.3-.9-2.1 0-.2 0-.4.1-.6 0-.2.1-.4.2-.6s.2-.3.3-.5c.1-.2.2-.3.4-.5s.3-.3.5-.4.3-.2.5-.3c.2-.1.4-.1.6-.2.4-.1.8-.1 1.2 0 .2 0 .4.1.6.2s.4.2.5.3c.2.1.3.2.5.4.1.1.3.3.4.5.1.2.2.3.3.5s.1.4.2.6c0 .2.1.4.1.6s0 .4-.1.6c0 .2-.1.4-.2.6-.1.2-.2.4-.3.5-.1.2-.2.3-.4.5-.1.1-.3.3-.5.4s-.3.2-.5.3c-.2.1-.4.1-.6.2C30 114 29.8 114 29.6 114z"/><path fill="#6dc289" d="M39 56A3 3 0 1 0 39 62A3 3 0 1 0 39 56Z"/><path fill="#fff0b3" d="M26.6,12.2h54.8c3.3,0,6,2.7,6,6V33c0,3.3-2.7,6-6,6H26.6c-3.3,0-6-2.7-6-6V18.2C20.6,14.8,23.3,12.2,26.6,12.2z"/><path fill="#f2b630" d="M77.4,12.2L77.4,12.2c0,9.3-7.5,16.8-16.8,16.8h-40v4c0,3.3,2.7,6,6,6h54.8c3.3,0,6-2.7,6-6V18.2c0-3.3-2.7-6-6-6C81.4,12.2,77.4,12.2,77.4,12.2z"/><path fill="#444b54" d="M81.4,9.2H26.6c-5,0-9,4-9,9V33c0,5,4,9,9,9H36v7c0,1.7,1.3,3,3,3s3-1.3,3-3v-7h24v7c0,1.7,1.3,3,3,3s3-1.3,3-3v-7h9.4c5,0,9-4,9-9V18.2C90.4,13.2,86.4,9.2,81.4,9.2z M84.4,33c0,1.7-1.3,3-3,3H72v-6.8c0-1.7-1.3-3-3-3s-3,1.3-3,3V36H42v-6.8c0-1.7-1.3-3-3-3s-3,1.3-3,3V36h-9.4c-1.7,0-3-1.3-3-3V18.2c0-1.7,1.3-3,3-3H36V19c0,1.7,1.3,3,3,3s3-1.3,3-3v-3.8h24V19c0,1.7,1.3,3,3,3s3-1.3,3-3v-3.8h9.4c1.7,0,3,1.3,3,3V33z"/></svg>